<svg width="380" height="350" viewBox="0 0 380 350" fill="none" xmlns="http://www.w3.org/2000/svg">
<rect x="0.5" y="0.5" width="379" height="349" stroke="#333333"/>
<line x1="65" y1="174.5" x2="315" y2="174.5" stroke="black"/>
<line x1="189.5" y1="300" x2="189.5" y2="50" stroke="black"/>
<path d="M191.94 20.76H194.24V31.56C194.24 32.38 194.3 32.5 194.78 32.5C194.98 32.5 195.88 32.5 196.14 32.5C196.6 32.5 196.7 32.04 196.76 30C197.26 30.36 198.16 30.76 198.8 30.92C198.58 33.74 198 34.66 196.36 34.66C195.94 34.66 194.76 34.66 194.4 34.66C192.42 34.66 191.94 33.94 191.94 31.56V20.76ZM191.5 17.54L193.06 16.08C194.58 17.04 196.48 18.48 197.36 19.6L195.66 21.22C194.86 20.12 193.02 18.56 191.5 17.54ZM189.48 22.94L191.52 23.3C191.36 25.84 191.04 28.78 190.24 30.5L188.18 29.86C188.96 28.1 189.34 25.46 189.48 22.94ZM195.76 22.94L197.82 22.36C198.72 24.54 199.42 27.34 199.6 29.22L197.36 29.84C197.24 27.98 196.56 25.1 195.76 22.94ZM180.86 16.8H189.78V18.98H180.86V16.8ZM183.14 21.02H187.52V23H183.14V21.02ZM183.14 25.1H187.52V27.06H183.14V25.1ZM182.06 17.92H184.22V30.46H182.06V17.92ZM186.18 17.9H188.4V34.8H186.18V17.9ZM180.5 29.96C182.28 29.74 184.88 29.36 187.38 28.98L187.52 31.1C185.26 31.52 182.84 31.92 180.94 32.24L180.5 29.96Z" fill="black"/>
<path d="M350.4 167.62V169.26H352.9V167.62H350.4ZM345.76 167.62V169.26H348.22V167.62H345.76ZM341.16 167.62V169.26H343.56V167.62H341.16ZM338.86 165.7H355.34V171.18H338.86V165.7ZM349.28 172.36H355.78V174.44H349.28V172.36ZM349.16 178.64H356.18V180.86H349.16V178.64ZM349.22 175.48H355.26V177.46H349.22V175.48ZM338.58 172.38H344.58V174.42H338.58V172.38ZM339.04 175.46H344.66V177.36H339.04V175.46ZM347.94 171.48H350.38V183.78H347.94V171.48ZM337.82 178.74C339.48 178.64 341.9 178.44 344.34 178.22V180.08C342.12 180.36 339.84 180.64 338.02 180.84L337.82 178.74ZM343.72 171.48H346.02V177.14C346.02 180.3 345.16 182.68 340.54 184.02C340.22 183.46 339.58 182.7 339.08 182.24C343.1 181.14 343.72 179.38 343.72 177.12V171.48Z" fill="black"/>
<path d="M25.36 167.68H31.98V169.92H25.36V167.68ZM25.36 176.94H32.32V179.18H25.36V176.94ZM25.2 172.32H31.52V174.48H25.2V172.32ZM14.38 167.68H20.42V169.92H14.38V167.68ZM14.58 172.32H20.3V174.48H14.58V172.32ZM24.14 165.12H26.54V183.8H24.14V165.12ZM13.52 177.12C15.86 176.86 19.52 176.4 22.96 175.92L23.06 178.04C19.86 178.56 16.48 179.1 13.96 179.48L13.52 177.12ZM19.28 165.12H21.64V174.48C21.64 177.22 20.64 181.68 15.78 184.04C15.4 183.48 14.62 182.72 14.06 182.26C18.44 180.42 19.28 176.6 19.28 174.5V165.12ZM46.4 167.62V169.26H48.9V167.62H46.4ZM41.76 167.62V169.26H44.22V167.62H41.76ZM37.16 167.62V169.26H39.56V167.62H37.16ZM34.86 165.7H51.34V171.18H34.86V165.7ZM45.28 172.36H51.78V174.44H45.28V172.36ZM45.16 178.64H52.18V180.86H45.16V178.64ZM45.22 175.48H51.26V177.46H45.22V175.48ZM34.58 172.38H40.58V174.42H34.58V172.38ZM35.04 175.46H40.66V177.36H35.04V175.46ZM43.94 171.48H46.38V183.78H43.94V171.48ZM33.82 178.74C35.48 178.64 37.9 178.44 40.34 178.22V180.08C38.12 180.36 35.84 180.64 34.02 180.84L33.82 178.74ZM39.72 171.48H42.02V177.14C42.02 180.3 41.16 182.68 36.54 184.02C36.22 183.46 35.58 182.7 35.08 182.24C39.1 181.14 39.72 179.38 39.72 177.12V171.48Z" fill="black"/>
<path d="M182.36 316.68H188.98V318.92H182.36V316.68ZM182.36 325.94H189.32V328.18H182.36V325.94ZM182.2 321.32H188.52V323.48H182.2V321.32ZM171.38 316.68H177.42V318.92H171.38V316.68ZM171.58 321.32H177.3V323.48H171.58V321.32ZM181.14 314.12H183.54V332.8H181.14V314.12ZM170.52 326.12C172.86 325.86 176.52 325.4 179.96 324.92L180.06 327.04C176.86 327.56 173.48 328.1 170.96 328.48L170.52 326.12ZM176.28 314.12H178.64V323.48C178.64 326.22 177.64 330.68 172.78 333.04C172.4 332.48 171.62 331.72 171.06 331.26C175.44 329.42 176.28 325.6 176.28 323.5V314.12ZM201.94 318.76H204.24V329.56C204.24 330.38 204.3 330.5 204.78 330.5C204.98 330.5 205.88 330.5 206.14 330.5C206.6 330.5 206.7 330.04 206.76 328C207.26 328.36 208.16 328.76 208.8 328.92C208.58 331.74 208 332.66 206.36 332.66C205.94 332.66 204.76 332.66 204.4 332.66C202.42 332.66 201.94 331.94 201.94 329.56V318.76ZM201.5 315.54L203.06 314.08C204.58 315.04 206.48 316.48 207.36 317.6L205.66 319.22C204.86 318.12 203.02 316.56 201.5 315.54ZM199.48 320.94L201.52 321.3C201.36 323.84 201.04 326.78 200.24 328.5L198.18 327.86C198.96 326.1 199.34 323.46 199.48 320.94ZM205.76 320.94L207.82 320.36C208.72 322.54 209.42 325.34 209.6 327.22L207.36 327.84C207.24 325.98 206.56 323.1 205.76 320.94ZM190.86 314.8H199.78V316.98H190.86V314.8ZM193.14 319.02H197.52V321H193.14V319.02ZM193.14 323.1H197.52V325.06H193.14V323.1ZM192.06 315.92H194.22V328.46H192.06V315.92ZM196.18 315.9H198.4V332.8H196.18V315.9ZM190.5 327.96C192.28 327.74 194.88 327.36 197.38 326.98L197.52 329.1C195.26 329.52 192.84 329.92 190.94 330.24L190.5 327.96Z" fill="black"/>
<path d="M163.299 157.614V156.455L168.413 148.364H169.254V150.159H168.685L164.822 156.273V156.364H171.708V157.614H163.299ZM168.776 160V157.261V156.722V148.364H170.117V160H168.776Z" fill="black"/>
<path d="M214.077 148.364V160H212.668V149.841H212.599L209.759 151.727V150.295L212.668 148.364H214.077Z" fill="black"/>
<path d="M167.543 201.159C166.793 201.159 166.124 201.03 165.537 200.773C164.954 200.515 164.49 200.157 164.145 199.699C163.804 199.237 163.618 198.701 163.588 198.091H165.02C165.05 198.466 165.179 198.79 165.406 199.062C165.634 199.331 165.931 199.54 166.298 199.688C166.666 199.835 167.073 199.909 167.52 199.909C168.02 199.909 168.463 199.822 168.849 199.648C169.236 199.473 169.539 199.231 169.759 198.92C169.978 198.61 170.088 198.25 170.088 197.841C170.088 197.413 169.982 197.036 169.77 196.71C169.558 196.381 169.247 196.123 168.838 195.938C168.429 195.752 167.929 195.659 167.338 195.659H166.406V194.409H167.338C167.8 194.409 168.205 194.326 168.554 194.159C168.906 193.992 169.181 193.758 169.378 193.455C169.579 193.152 169.679 192.795 169.679 192.386C169.679 191.992 169.592 191.65 169.418 191.358C169.243 191.066 168.997 190.839 168.679 190.676C168.365 190.513 167.993 190.432 167.565 190.432C167.164 190.432 166.785 190.506 166.429 190.653C166.077 190.797 165.789 191.008 165.565 191.284C165.342 191.557 165.221 191.886 165.202 192.273H163.838C163.861 191.663 164.045 191.129 164.389 190.67C164.734 190.208 165.185 189.848 165.741 189.591C166.302 189.333 166.918 189.205 167.588 189.205C168.308 189.205 168.925 189.35 169.44 189.642C169.955 189.93 170.351 190.311 170.628 190.784C170.904 191.258 171.043 191.769 171.043 192.318C171.043 192.973 170.87 193.532 170.526 193.994C170.185 194.456 169.721 194.777 169.134 194.955V195.045C169.868 195.167 170.442 195.479 170.855 195.983C171.268 196.483 171.474 197.102 171.474 197.841C171.474 198.473 171.302 199.042 170.957 199.545C170.616 200.045 170.151 200.439 169.56 200.727C168.969 201.015 168.296 201.159 167.543 201.159Z" fill="black"/>
<path d="M208.861 201V199.977L212.702 195.773C213.152 195.28 213.524 194.852 213.815 194.489C214.107 194.121 214.323 193.777 214.463 193.455C214.607 193.129 214.679 192.788 214.679 192.432C214.679 192.023 214.58 191.669 214.384 191.369C214.19 191.07 213.925 190.839 213.588 190.676C213.251 190.513 212.872 190.432 212.452 190.432C212.005 190.432 211.615 190.525 211.281 190.71C210.952 190.892 210.696 191.148 210.514 191.477C210.336 191.807 210.247 192.193 210.247 192.636H208.906C208.906 191.955 209.063 191.356 209.378 190.841C209.692 190.326 210.12 189.924 210.662 189.636C211.207 189.348 211.819 189.205 212.497 189.205C213.179 189.205 213.783 189.348 214.31 189.636C214.836 189.924 215.249 190.312 215.548 190.801C215.848 191.29 215.997 191.833 215.997 192.432C215.997 192.86 215.92 193.278 215.764 193.688C215.613 194.093 215.348 194.545 214.969 195.045C214.594 195.542 214.073 196.148 213.406 196.864L210.793 199.659V199.75H216.202V201H208.861Z" fill="black"/>
<path d="M88.39 101.585H96.85V102.515H88.39V101.585ZM91.855 97.385H93.025V99.335H91.855V97.385ZM86.11 110C87.82 109.76 90.52 109.325 93.07 108.89L93.145 109.94C90.73 110.36 88.165 110.795 86.38 111.095L86.11 110ZM92.35 104.75C93.37 107.735 95.695 109.58 99.415 110.21C99.175 110.465 98.86 110.93 98.71 111.215C94.825 110.435 92.5 108.41 91.315 105.005L92.35 104.75ZM97.735 105.185L98.605 105.875C97.405 106.805 95.71 107.87 94.42 108.515L93.67 107.87C94.945 107.21 96.685 106.07 97.735 105.185ZM88.345 98.84H97.525V105.305H88.345V104.3H96.385V99.845H88.345V98.84ZM87.745 98.84H88.9V110.03L87.745 110.12V98.84ZM104.56 101.6H105.715V109.13C105.715 109.835 105.895 109.97 106.72 109.97C107.095 109.97 108.985 109.97 109.495 109.97C110.38 109.97 110.515 109.415 110.635 106.82C110.905 107.045 111.37 107.255 111.7 107.33C111.535 110.165 111.19 111.005 109.555 111.005C109.195 111.005 106.96 111.005 106.615 111.005C105.025 111.005 104.56 110.6 104.56 109.13V101.6ZM104.68 98.33L105.385 97.475C107.2 98.09 109.375 99.17 110.56 99.98L109.84 100.97C108.685 100.1 106.495 98.975 104.68 98.33ZM102.055 102.8L103.135 103.025C102.91 105.035 102.445 107.435 101.365 108.875L100.345 108.26C101.35 106.94 101.845 104.75 102.055 102.8ZM110.8 102.815L111.805 102.32C113.155 104.03 114.28 106.295 114.655 107.885L113.53 108.425C113.2 106.85 112.075 104.51 110.8 102.815ZM122.05 102.26H128.215V103.385H122.05V102.26ZM115.765 109.37H129.235V110.495H115.765V109.37ZM121.405 97.625H122.59V109.97H121.405V97.625ZM134.68 98.945H139.54V99.92H134.68V98.945ZM134.29 107.69H139.51V108.665H134.29V107.69ZM135.58 104.195V105.575H138.535V104.195H135.58ZM135.58 102.02V103.385H138.535V102.02H135.58ZM134.785 101.18H139.36V106.445H134.785V101.18ZM143.5 97.52L144.355 98.39C143.335 98.945 141.955 99.44 140.77 99.77C140.695 99.53 140.53 99.155 140.395 98.915C141.505 98.555 142.78 98.015 143.5 97.52ZM140.14 98.525L141.4 98.915C141.385 99.02 141.31 99.08 141.115 99.11V102.62C141.115 104.96 140.965 108.425 139.735 110.99C139.585 110.78 139.195 110.48 138.94 110.36C140.02 107.99 140.14 104.87 140.14 102.605V98.525ZM140.59 102.17H144.415V103.16H140.59V102.17ZM142.36 102.59H143.35V111.14H142.36V102.59ZM136.57 97.4H137.59V101.63H137.47V105.86H136.69V101.63H136.57V97.4ZM136.57 105.86H137.59V111.2H136.57V105.86ZM132.295 97.4H133.315V111.185H132.295V97.4ZM131.065 100.295L131.8 100.4C131.815 101.72 131.605 103.445 131.095 104.465L130.375 104.15C130.855 103.235 131.05 101.6 131.065 100.295ZM133.465 100.04L134.155 99.83C134.485 100.655 134.755 101.69 134.815 102.32L134.08 102.605C134.02 101.945 133.78 100.865 133.465 100.04ZM153.82 97.37L155.065 97.565C154.75 98.3 154.375 99.035 154.09 99.545L153.1 99.35C153.37 98.795 153.67 97.955 153.82 97.37ZM151.675 102.53V104.105H157.48V102.53H151.675ZM151.675 100.055V101.615H157.48V100.055H151.675ZM150.655 99.08H158.545V105.08H150.655V99.08ZM152.125 104.9H153.205C152.965 107.615 152.38 109.955 149.965 111.26C149.815 111.02 149.515 110.66 149.275 110.48C151.48 109.355 151.945 107.24 152.125 104.9ZM154.435 104.9H155.485V109.625C155.485 110.015 155.575 110.09 156.1 110.09C156.34 110.09 157.615 110.09 157.93 110.09C158.335 110.09 158.41 109.91 158.455 108.875C158.695 109.055 159.115 109.205 159.415 109.28C159.295 110.675 158.995 111.065 158.02 111.065C157.765 111.065 156.235 111.065 155.98 111.065C154.75 111.065 154.435 110.765 154.435 109.625V104.9ZM156.595 105.245L157.45 105.44C157.165 106.415 156.82 107.585 156.535 108.335L155.905 108.125C156.145 107.36 156.46 106.1 156.595 105.245ZM155.59 107.84C156.415 107.765 157.495 107.645 158.68 107.51L158.71 108.23C157.66 108.395 156.64 108.53 155.755 108.65L155.59 107.84ZM157.645 106.595L158.305 106.37C158.695 107.075 159.13 107.975 159.295 108.53L158.605 108.8C158.44 108.215 158.035 107.285 157.645 106.595ZM154.03 99.53H155.05V104.63H154.03V99.53ZM147.52 97.4H148.6V111.185H147.52V97.4ZM146.17 100.295L146.95 100.415C146.95 101.765 146.71 103.475 146.14 104.51L145.39 104.165C145.915 103.25 146.14 101.615 146.17 100.295ZM148.705 100.115L149.425 99.86C149.875 100.775 150.28 101.975 150.415 102.71L149.65 103.055C149.53 102.29 149.14 101.06 148.705 100.115Z" fill="black"/>
<path d="M245.695 102.785H254.41V103.835H245.695V102.785ZM245.695 106.04H254.41V107.09H245.695V106.04ZM245.695 109.325H254.41V110.375H245.695V109.325ZM244.93 99.455H255.28V111.14H254.11V100.535H246.07V111.215H244.93V99.455ZM249.325 97.385L250.63 97.55C250.3 98.45 249.91 99.425 249.58 100.07L248.575 99.875C248.845 99.17 249.175 98.12 249.325 97.385ZM259.195 98.345H270.91V99.17H259.195V98.345ZM259.9 99.98H270.295V100.745H259.9V99.98ZM258.355 101.63H271.675V102.47H258.355V101.63ZM261.295 105.65V106.61H268.855V105.65H261.295ZM261.295 107.33V108.305H268.855V107.33H261.295ZM261.295 103.985V104.945H268.855V103.985H261.295ZM260.2 103.265H269.995V109.04H260.2V103.265ZM264.415 97.4H265.555V102.035H264.415V97.4ZM266.215 109.715L267.145 109.145C268.795 109.595 270.61 110.195 271.705 110.645L270.415 111.215C269.47 110.78 267.85 110.195 266.215 109.715ZM262.75 109.115L263.755 109.565C262.54 110.24 260.62 110.885 259.12 111.26C258.94 111.035 258.55 110.615 258.295 110.42C259.855 110.12 261.67 109.655 262.75 109.115Z" fill="black"/>
<path d="M95.665 247.585H106.825V248.5H95.665V247.585ZM96.895 245.125H104.335V245.95H96.895V245.125ZM98.005 242.5V243.505H104.05V242.5H98.005ZM98.005 240.805V241.78H104.05V240.805H98.005ZM96.94 240.025H105.16V244.27H96.94V240.025ZM100.615 246.745H101.725V250.075C101.725 250.66 101.575 250.93 101.095 251.08C100.6 251.215 99.82 251.23 98.59 251.215C98.515 250.945 98.335 250.555 98.185 250.285C99.145 250.33 100.06 250.33 100.285 250.315C100.54 250.3 100.615 250.24 100.615 250.045V246.745ZM104.17 245.125H104.44L104.68 245.065L105.355 245.665C104.32 246.4 102.85 247.09 101.53 247.525C101.41 247.33 101.14 247.045 100.99 246.895C102.13 246.535 103.465 245.875 104.17 245.335V245.125ZM95.11 238.195H106.645V239.23H95.11V238.195ZM94.465 238.195H95.575V242.62C95.575 245.11 95.38 248.725 93.97 251.185C93.76 251.005 93.28 250.72 93.01 250.615C94.345 248.275 94.465 244.975 94.465 242.605V238.195ZM113.11 239.65L113.995 239.995C112.81 241.18 110.905 242.2 109.27 242.845C109.105 242.665 108.76 242.32 108.52 242.155C110.245 241.6 112.06 240.7 113.11 239.65ZM109 240.445L109.72 239.875C111.265 240.475 113.245 241.42 114.325 242.05L113.605 242.695C112.54 242.02 110.575 241.045 109 240.445ZM108.34 238.84H114.835V239.755H108.34V238.84ZM109.06 242.785H114.985V243.715H109.06V242.785ZM111.1 237.415H112.195V239.455H111.1V237.415ZM113.125 243.835L113.995 244.18C113.17 244.975 111.835 245.635 110.68 246.04C110.515 245.845 110.26 245.56 110.02 245.395C111.115 245.05 112.42 244.465 113.125 243.835ZM108.715 242.785H109.735V245.89C109.735 247.435 109.57 249.625 108.685 251.095C108.52 250.885 108.1 250.51 107.875 250.39C108.64 249.055 108.715 247.24 108.715 245.875V242.785ZM113.53 245.74L114.4 246.085C113.515 247.03 112.09 247.855 110.785 248.35C110.62 248.14 110.365 247.855 110.14 247.69C111.355 247.255 112.765 246.52 113.53 245.74ZM113.95 247.825L114.88 248.17C113.95 249.565 112.225 250.645 110.275 251.26C110.125 251.02 109.87 250.705 109.63 250.51C111.445 250 113.125 249.04 113.95 247.825ZM114.985 238.12H121.93V239.095H114.985V238.12ZM116.44 243.73V245.185H120.43V243.73H116.44ZM116.44 246.025V247.495H120.43V246.025H116.44ZM116.44 241.45V242.875H120.43V241.45H116.44ZM115.435 240.55H121.45V248.38H115.435V240.55ZM117.88 238.6L119.065 238.765C118.84 239.605 118.6 240.55 118.375 241.18L117.445 240.985C117.61 240.325 117.82 239.305 117.88 238.6ZM116.8 248.635L117.79 249.205C117.025 249.985 115.765 250.81 114.685 251.26C114.52 251.05 114.175 250.72 113.92 250.525C115.015 250.09 116.23 249.295 116.8 248.635ZM118.9 249.265L119.755 248.71C120.565 249.25 121.615 250.06 122.125 250.63L121.255 251.245C120.76 250.69 119.725 249.85 118.9 249.265ZM126.325 237.4L127.42 237.715C126.595 239.41 125.305 241.03 124.045 242.08C123.835 241.87 123.385 241.51 123.115 241.33C124.39 240.385 125.62 238.915 126.325 237.4ZM125.8 239.125H136.135V240.145H125.425L125.8 239.125ZM123.295 242.68H136.705V243.7H123.295V242.68ZM123.535 246.265H136.495V247.285H123.535V246.265ZM128.08 239.47H129.055V246.76H128.08V239.47ZM125.395 239.47H126.415V246.805H125.395V239.47ZM130.795 239.47H131.755V246.805H130.795V239.47ZM133.54 239.47H134.575V246.805H133.54V239.47ZM127.675 248.305L128.71 248.2C128.905 249.085 129.07 250.225 129.085 250.915L127.975 251.08C127.975 250.375 127.855 249.205 127.675 248.305ZM130.735 248.305L131.785 248.125C132.19 248.98 132.595 250.15 132.745 250.855L131.635 251.095C131.5 250.375 131.125 249.205 130.735 248.305ZM133.795 248.215L134.845 247.855C135.595 248.755 136.48 250.015 136.885 250.825L135.76 251.23C135.4 250.435 134.545 249.145 133.795 248.215ZM125.05 247.915L126.13 248.185C125.74 249.31 125.05 250.51 124.255 251.23L123.19 250.78C123.97 250.15 124.675 249.01 125.05 247.915ZM146.545 240.985H147.625V249.415C147.625 249.955 147.7 250.045 148.15 250.045C148.36 250.045 149.41 250.045 149.68 250.045C150.115 250.045 150.19 249.685 150.235 247.945C150.49 248.125 150.91 248.32 151.225 248.395C151.105 250.45 150.82 251.08 149.77 251.08C149.515 251.08 148.255 251.08 148.015 251.08C146.845 251.08 146.545 250.72 146.545 249.415V240.985ZM146.185 238.21L146.92 237.52C148.09 238.24 149.5 239.32 150.16 240.145L149.365 240.91C148.735 240.1 147.355 238.96 146.185 238.21ZM144.82 242.65L145.795 242.815C145.675 244.66 145.42 246.835 144.745 248.08L143.77 247.75C144.43 246.49 144.715 244.465 144.82 242.65ZM149.68 242.545L150.655 242.29C151.345 243.94 151.9 246.085 152.05 247.495L151 247.78C150.865 246.37 150.325 244.195 149.68 242.545ZM138.22 238.06H144.775V239.095H138.22V238.06ZM139.735 241.195H143.2V242.155H139.735V241.195ZM139.735 244.285H143.2V245.245H139.735V244.285ZM139.225 238.57H140.26V248.125H139.225V238.57ZM142.57 238.555H143.62V251.215H142.57V238.555ZM138.04 247.99C139.345 247.81 141.265 247.51 143.155 247.21L143.23 248.215C141.475 248.515 139.63 248.83 138.25 249.07L138.04 247.99Z" fill="black"/>
<path d="M232.345 233.56L241.645 232.39L241.81 233.455L232.51 234.625L232.345 233.56ZM238.21 229.255L239.035 228.715C239.935 229.435 241 230.455 241.51 231.145L240.64 231.745C240.16 231.07 239.095 230.005 238.21 229.255ZM232.18 228.565L233.245 228.91C232.12 231.535 230.335 234.115 228.46 235.795C228.34 235.525 228.01 234.955 227.8 234.7C229.54 233.245 231.19 230.935 232.18 228.565ZM230.485 232.555L231.625 231.43V231.445V242.185H230.485V232.555ZM235.705 228.625H236.845C237.055 235.36 238.09 240.655 240.355 240.865C240.775 240.895 241.03 240.01 241.18 238.255C241.405 238.48 241.9 238.765 242.11 238.855C241.795 241.465 241.18 242.23 240.4 242.2C237.025 241.96 236.035 236.29 235.705 228.625ZM249.22 228.865H250.465C250.345 231.22 250.12 238.705 243.91 242.08C243.715 241.795 243.34 241.45 242.995 241.195C249.115 238.075 249.115 230.86 249.22 228.865ZM250.42 229.165C250.465 230.335 250.9 238.3 257.08 241.135C256.75 241.39 256.405 241.765 256.225 242.08C249.865 239.035 249.445 230.65 249.34 229.27L250.42 229.165ZM266.8 229.45H267.835C267.52 231.88 266.785 234.31 264.16 235.615C264.04 235.375 263.725 235 263.485 234.82C265.93 233.695 266.545 231.505 266.8 229.45ZM264.04 231.595L264.595 230.815C266.155 231.34 268.03 232.27 269.02 232.96L268.48 233.845C267.475 233.11 265.6 232.12 264.04 231.595ZM270.34 229.045H271.405C271.405 229.045 271.405 229.375 271.39 229.525C271.24 233.065 271.09 234.4 270.715 234.835C270.475 235.12 270.22 235.225 269.815 235.27C269.455 235.3 268.75 235.285 268.045 235.255C268.03 234.94 267.925 234.505 267.76 234.235C268.45 234.295 269.08 234.295 269.32 234.295C269.56 234.31 269.695 234.265 269.8 234.145C270.07 233.83 270.22 232.63 270.34 229.24V229.045ZM265.735 237.04H266.785V240.655C266.785 241.03 266.845 241.09 267.265 241.09C267.46 241.09 268.435 241.09 268.675 241.09C269.08 241.09 269.14 240.88 269.185 239.38C269.395 239.56 269.845 239.71 270.145 239.8C270.025 241.63 269.74 242.095 268.795 242.095C268.555 242.095 267.37 242.095 267.13 242.095C265.99 242.095 265.735 241.78 265.735 240.67V237.04ZM264.31 237.55L265.225 237.775C265.06 239.11 264.745 240.565 263.95 241.405L263.11 240.85C263.83 240.115 264.16 238.795 264.31 237.55ZM265.99 235.66L266.65 235C267.64 235.525 268.795 236.335 269.35 236.965L268.645 237.73C268.105 237.1 266.965 236.23 265.99 235.66ZM269.485 237.655L270.415 237.28C271.225 238.375 271.9 239.845 272.125 240.865L271.12 241.285C270.925 240.265 270.265 238.75 269.485 237.655ZM264.175 229.045H270.805V230.02H264.175V229.045ZM258.745 232.945H263.005V233.845H258.745V232.945ZM258.805 228.94H262.945V229.84H258.805V228.94ZM258.745 234.955H263.005V235.855H258.745V234.955ZM258.07 230.905H263.425V231.835H258.07V230.905ZM259.24 236.98H263.005V241.36H259.24V240.415H262.03V237.91H259.24V236.98ZM258.73 236.98H259.69V242.05H258.73V236.98ZM282.34 229.96V231.91H285.01V229.96H282.34ZM278.665 229.96V231.91H281.305V229.96H278.665ZM275.08 229.96V231.91H277.63V229.96H275.08ZM274 229.03H286.15V232.855H274V229.03ZM281.65 234.04H286.51V235.03H281.65V234.04ZM281.605 238.675H286.825V239.725H281.605V238.675ZM281.635 236.32H286.15V237.28H281.635V236.32ZM273.76 234.055H278.29V235.03H273.76V234.055ZM274.105 236.32H278.335V237.25H274.105V236.32ZM281.02 233.125H282.16V242.2H281.02V233.125ZM273.205 238.945C274.45 238.81 276.28 238.57 278.125 238.33V239.23C276.415 239.5 274.675 239.77 273.325 239.965L273.205 238.945ZM277.87 233.14H278.965V237.28C278.965 239.545 278.365 241.285 274.855 242.335C274.705 242.065 274.405 241.705 274.165 241.495C277.405 240.55 277.87 239.08 277.87 237.265V233.14ZM238.195 251.785H246.91V252.835H238.195V251.785ZM238.195 255.04H246.91V256.09H238.195V255.04ZM238.195 258.325H246.91V259.375H238.195V258.325ZM237.43 248.455H247.78V260.14H246.61V249.535H238.57V260.215H237.43V248.455ZM241.825 246.385L243.13 246.55C242.8 247.45 242.41 248.425 242.08 249.07L241.075 248.875C241.345 248.17 241.675 247.12 241.825 246.385ZM252.94 253.855H262.09V254.62H252.94V253.855ZM255.58 255.295L256.18 254.74C259.135 256.345 259.6 258.94 258.235 259.81C257.74 260.155 257.32 260.23 256.75 260.23C256.42 260.23 255.955 260.23 255.475 260.215C255.46 259.96 255.34 259.525 255.19 259.285C255.7 259.33 256.24 259.345 256.585 259.345C256.975 259.345 257.245 259.315 257.515 259.15C258.445 258.655 258.025 256.72 255.58 255.295ZM256.75 255.61L257.365 255.91C256.135 256.915 253.765 257.785 251.83 258.145C251.725 257.95 251.485 257.665 251.32 257.5C253.255 257.2 255.595 256.465 256.75 255.61ZM257.665 256.57L258.37 256.9C256.87 258.415 254.035 259.57 251.485 260.095C251.35 259.87 251.125 259.525 250.93 259.345C253.48 258.94 256.285 257.89 257.665 256.57ZM258.85 254.095C259.615 256.69 261.37 258.505 264.16 259.18C263.935 259.405 263.65 259.78 263.515 260.05C260.605 259.21 258.82 257.23 257.965 254.305L258.85 254.095ZM262.435 254.965L263.23 255.55C262.315 256.195 261.1 256.825 260.17 257.245L259.48 256.675C260.395 256.255 261.685 255.52 262.435 254.965ZM257.185 253.99L257.905 254.305C256.51 255.295 253.96 256.045 251.92 256.48C251.83 256.315 251.605 255.925 251.455 255.76C253.465 255.445 255.925 254.815 257.185 253.99ZM250.885 247.615H264.145V248.455H250.885V247.615ZM256.87 246.4H258.04V248.23H256.87V246.4ZM251.095 252.295H263.935V254.605H262.9V253.105H252.085V254.695H251.095V252.295ZM254.08 249.865V250.915H260.995V249.865H254.08ZM252.955 249.16H262.18V251.62H252.955V249.16ZM275.185 246.97L275.77 246.31C276.52 246.55 277.45 246.97 277.93 247.345L277.315 248.095C276.865 247.705 275.95 247.24 275.185 246.97ZM267.43 247.93H279.115V248.86H267.43V247.93ZM268.495 249.88H273.1V250.675H268.495V249.88ZM268.735 251.695H269.68V254.425H268.735V251.695ZM276.7 249.58L277.75 249.835C276.91 252.325 275.395 254.35 273.565 255.655C273.4 255.445 272.98 255.07 272.755 254.875C274.57 253.705 275.98 251.83 276.7 249.58ZM273.16 246.4H274.24C274.405 251.02 276.445 254.77 277.975 254.755C278.35 254.755 278.5 254.215 278.575 252.85C278.8 253.06 279.175 253.255 279.46 253.36C279.28 255.265 278.875 255.79 277.915 255.79C275.545 255.79 273.4 251.44 273.16 246.4ZM268.735 251.695H272.86V254.845H268.735V254.035H271.9V252.49H268.735V251.695ZM269.485 256.225H270.595V258.55C270.595 258.925 270.745 259 271.54 259C271.915 259 273.79 259 274.285 259C274.945 259 275.05 258.82 275.11 257.425C275.35 257.605 275.815 257.755 276.13 257.83C275.98 259.6 275.65 260.02 274.375 260.02C274.03 260.02 271.795 260.02 271.465 260.02C269.875 260.02 269.485 259.72 269.485 258.565V256.225ZM270.655 255.73L271.375 255.1C272.32 255.535 273.43 256.255 273.955 256.84L273.19 257.56C272.68 256.975 271.585 256.21 270.655 255.73ZM275.83 256.675L276.745 256.165C277.825 257.005 278.95 258.25 279.415 259.18L278.41 259.735C277.99 258.82 276.91 257.545 275.83 256.675ZM267.58 256.315L268.57 256.66C268.195 257.875 267.58 259.135 266.515 259.9L265.585 259.27C266.59 258.58 267.25 257.44 267.58 256.315ZM266.905 247.93H267.955V250.195C267.955 251.935 267.685 254.395 266.305 256.09C266.155 255.88 265.705 255.505 265.48 255.385C266.74 253.825 266.905 251.71 266.905 250.18V247.93Z" fill="black"/>
</svg>
