<svg width="54" height="30" viewBox="0 0 54 30" fill="none" xmlns="http://www.w3.org/2000/svg">
<path fill-rule="evenodd" clip-rule="evenodd" d="M41.8185 5.18408C41.9406 5.06621 42.1062 5 42.2789 5C42.4515 5 42.6171 5.06621 42.7393 5.18408L48.8095 11.0588C48.9315 11.1768 49 11.3368 49 11.5036C49 11.6704 48.9315 11.8304 48.8095 11.9484L42.7393 17.8231C42.6164 17.9378 42.4519 18.0013 42.2811 18C42.1102 17.9986 41.9468 17.9325 41.826 17.8159C41.7051 17.6992 41.6365 17.5414 41.635 17.3763C41.6334 17.2113 41.699 17.0523 41.8176 16.9335L46.7768 12.1339L3.65237 12.1431C3.47958 12.1433 3.31378 12.0772 3.19143 11.9593C3.06909 11.8414 3.00023 11.6814 3 11.5145C2.99977 11.3476 3.06819 11.1874 3.19021 11.0692C3.31222 10.951 3.47784 10.8845 3.65063 10.8842L46.7777 10.8758L41.8167 6.07368C41.6947 5.95566 41.6262 5.79568 41.6262 5.62888C41.6262 5.46208 41.6947 5.3021 41.8167 5.18408" fill="black"/>
</svg>
