<svg width="26" height="30" viewBox="0 0 26 30" fill="none" xmlns="http://www.w3.org/2000/svg">
<path fill-rule="evenodd" clip-rule="evenodd" d="M15.8185 5.18408C15.9406 5.06621 16.1062 5 16.2789 5C16.4515 5 16.6171 5.06621 16.7393 5.18408L22.8095 11.0588C22.9315 11.1768 23 11.3368 23 11.5036C23 11.6704 22.9315 11.8304 22.8095 11.9484L16.7393 17.8231C16.6164 17.9378 16.4519 18.0013 16.2811 18C16.1102 17.9986 15.9468 17.9325 15.826 17.8159C15.7051 17.6992 15.6365 17.5414 15.635 17.3763C15.6334 17.2113 15.699 17.0523 15.8176 16.9335L20.7768 12.1339L3.65237 12.1431C3.47958 12.1433 3.31378 12.0772 3.19143 11.9593C3.06909 11.8414 3.00023 11.6814 3 11.5145C2.99977 11.3476 3.06819 11.1874 3.19021 11.0692C3.31222 10.951 3.47784 10.8845 3.65063 10.8842L20.7777 10.8758L15.8167 6.07368C15.6947 5.95566 15.6262 5.79568 15.6262 5.62888C15.6262 5.46208 15.6947 5.3021 15.8167 5.18408" fill="black"/>
</svg>
