<svg width="26" height="26" viewBox="0 0 26 26" fill="none" xmlns="http://www.w3.org/2000/svg">
<path d="M12.9678 8.22683L5.20196 16.3773C5.07232 16.5133 5 16.694 5 16.8819C5 17.0698 5.07232 17.2505 5.20196 17.3865L5.21074 17.3952C5.27359 17.4614 5.34924 17.5141 5.43309 17.5501C5.51694 17.5861 5.60723 17.6046 5.69848 17.6046C5.78973 17.6046 5.88003 17.5861 5.96388 17.5501C6.04773 17.5141 6.12338 17.4614 6.18623 17.3952L13.4987 9.72005L20.8083 17.3952C20.8712 17.4614 20.9468 17.5141 21.0306 17.5501C21.1145 17.5861 21.2048 17.6046 21.296 17.6046C21.3873 17.6046 21.4776 17.5861 21.5614 17.5501C21.6453 17.5141 21.7209 17.4614 21.7838 17.3952L21.7926 17.3865C21.9222 17.2505 21.9945 17.0698 21.9945 16.8819C21.9945 16.694 21.9222 16.5133 21.7926 16.3773L14.0267 8.22683C13.9584 8.15515 13.8763 8.09809 13.7853 8.0591C13.6942 8.02011 13.5963 8 13.4973 8C13.3983 8 13.3003 8.02011 13.2093 8.0591C13.1183 8.09809 13.0361 8.15515 12.9678 8.22683Z" fill="#FAF4E4"/>
</svg>
