<svg width="26" height="26" viewBox="0 0 26 26" fill="none" xmlns="http://www.w3.org/2000/svg">
<path d="M14.0322 17.7732L21.798 9.62265C21.9277 9.48666 22 9.30598 22 9.11809C22 8.9302 21.9277 8.74952 21.798 8.61353L21.7893 8.60475C21.7264 8.5386 21.6508 8.48592 21.5669 8.44992C21.4831 8.41392 21.3928 8.39536 21.3015 8.39536C21.2103 8.39536 21.12 8.41392 21.0361 8.44992C20.9523 8.48592 20.8766 8.5386 20.8138 8.60475L13.5013 16.28L6.1917 8.60475C6.12885 8.5386 6.0532 8.48592 5.96935 8.44992C5.8855 8.41392 5.7952 8.39536 5.70395 8.39536C5.6127 8.39536 5.52241 8.41392 5.43856 8.44992C5.35471 8.48592 5.27906 8.5386 5.21621 8.60475L5.20744 8.61353C5.07779 8.74952 5.00547 8.9302 5.00547 9.11809C5.00547 9.30598 5.07779 9.48666 5.20744 9.62265L12.9733 17.7732C13.0416 17.8448 13.1237 17.9019 13.2147 17.9409C13.3058 17.9799 13.4037 18 13.5027 18C13.6017 18 13.6997 17.9799 13.7907 17.9409C13.8817 17.9019 13.9639 17.8448 14.0322 17.7732Z" fill="#FAF4E4"/>
</svg>
