<svg width="52" height="30" viewBox="0 0 52 30" fill="none" xmlns="http://www.w3.org/2000/svg">
<path fill-rule="evenodd" clip-rule="evenodd" d="M41.8185 6.18408C41.9406 6.06621 42.1062 6 42.2789 6C42.4515 6 42.6171 6.06621 42.7393 6.18408L48.8095 12.0588C48.9315 12.1768 49 12.3368 49 12.5036C49 12.6704 48.9315 12.8304 48.8095 12.9484L42.7393 18.8231C42.6164 18.9378 42.4519 19.0013 42.2811 19C42.1102 18.9986 41.9468 18.9325 41.826 18.8159C41.7051 18.6992 41.6365 18.5414 41.635 18.3763C41.6334 18.2113 41.699 18.0523 41.8176 17.9335L46.7768 13.1339L3.65237 13.1431C3.47958 13.1433 3.31378 13.0772 3.19143 12.9593C3.06909 12.8414 3.00023 12.6814 3 12.5145C2.99977 12.3476 3.06819 12.1874 3.19021 12.0692C3.31222 11.951 3.47784 11.8845 3.65063 11.8842L46.7777 11.8758L41.8167 7.07368C41.6947 6.95566 41.6262 6.79568 41.6262 6.62888C41.6262 6.46208 41.6947 6.3021 41.8167 6.18408" fill="black"/>
</svg>
