<svg width="538" height="36" viewBox="0 0 538 36" fill="none" xmlns="http://www.w3.org/2000/svg">
<g clip-path="url(#clip0_200_669)">
<path d="M4 0H0V118H4V0Z" fill="#3B392C"/>
<path d="M10 0H8V117.647H10V0Z" fill="#3B392C"/>
<path d="M18 0H12V117.647H18V0Z" fill="#3B392C"/>
<path d="M26 0H20V117.647H26V0Z" fill="#3B392C"/>
<path d="M30 0H28V117.647H30V0Z" fill="#3B392C"/>
<path d="M38 0H32V117.647H38V0Z" fill="#3B392C"/>
<path d="M42 0H40V117.647H42V0Z" fill="#3B392C"/>
<path d="M46 0H44V117.647H46V0Z" fill="#3B392C"/>
<path d="M54 0H52V117.647H54V0Z" fill="#3B392C"/>
<path d="M62 0H56V117.647H62V0Z" fill="#3B392C"/>
<path d="M66 0H64V117.647H66V0Z" fill="#3B392C"/>
<path d="M74 0H68V117.647H74V0Z" fill="#3B392C"/>
<path d="M78 0H76V117.647H78V0Z" fill="#3B392C"/>
<path d="M90 0H84V117.647H90V0Z" fill="#3B392C"/>
<path d="M94 0H92V117.647H94V0Z" fill="#3B392C"/>
<path d="M98 0H96V117.647H98V0Z" fill="#3B392C"/>
<path d="M106 0H100V117.647H106V0Z" fill="#3B392C"/>
<path d="M110 0H108V117.647H110V0Z" fill="#3B392C"/>
<path d="M118 0H116V117.647H118V0Z" fill="#3B392C"/>
<path d="M126 0H120V117.647H126V0Z" fill="#3B392C"/>
<path d="M134 0H128V117.647H134V0Z" fill="#3B392C"/>
<path d="M138 0H136V117.647H138V0Z" fill="#3B392C"/>
<path d="M142 0H140V117.647H142V0Z" fill="#3B392C"/>
<path d="M150 0H148V117.647H150V0Z" fill="#3B392C"/>
<path d="M158 0H152V117.647H158V0Z" fill="#3B392C"/>
<path d="M162 0H160V117.647H162V0Z" fill="#3B392C"/>
<path d="M174 0H168V117.647H174V0Z" fill="#3B392C"/>
<path d="M178 0H176V117.647H178V0Z" fill="#3B392C"/>
<path d="M186 0H180V117.647H186V0Z" fill="#3B392C"/>
<path d="M190 0H188V117.647H190V0Z" fill="#3B392C"/>
<path d="M194 0H192V117.647H194V0Z" fill="#3B392C"/>
<path d="M198 0H196V117.647H198V0Z" fill="#3B392C"/>
<path d="M202 0H200V117.647H202V0Z" fill="#3B392C"/>
<path d="M214 0H208V117.647H214V0Z" fill="#3B392C"/>
<path d="M222 0H216V117.647H222V0Z" fill="#3B392C"/>
<path d="M230 0H224V117.647H230V0Z" fill="#3B392C"/>
<path d="M234 0H232V117.647H234V0Z" fill="#3B392C"/>
<path d="M242 0H236V117.647H242V0Z" fill="#3B392C"/>
<path d="M246 0H244V117.647H246V0Z" fill="#3B392C"/>
<path d="M254 0H252V117.647H254V0Z" fill="#3B392C"/>
<path d="M258 0H256V117.647H258V0Z" fill="#3B392C"/>
<path d="M262 0H260V117.647H262V0Z" fill="#3B392C"/>
<path d="M266 0H264V117.647H266V0Z" fill="#3B392C"/>
<path d="M278 0H272V117.647H278V0Z" fill="#3B392C"/>
<path d="M286 0H280V117.647H286V0Z" fill="#3B392C"/>
<path d="M294 0H288V117.647H294V0Z" fill="#3B392C"/>
<path d="M298 0H296V117.647H298V0Z" fill="#3B392C"/>
<path d="M306 0H300V117.647H306V0Z" fill="#3B392C"/>
<path d="M314 0H312V117.647H314V0Z" fill="#3B392C"/>
<path d="M318 0H316V117.647H318V0Z" fill="#3B392C"/>
<path d="M322 0H320V117.647H322V0Z" fill="#3B392C"/>
<path d="M326 0H324V117.647H326V0Z" fill="#3B392C"/>
<path d="M334 0H328V117.647H334V0Z" fill="#3B392C"/>
<path d="M342 0H336V117.647H342V0Z" fill="#3B392C"/>
<path d="M350 0H348V117.647H350V0Z" fill="#3B392C"/>
<path d="M354 0H352V117.647H354V0Z" fill="#3B392C"/>
<path d="M362 0H356V117.647H362V0Z" fill="#3B392C"/>
<path d="M366 0H364V117.647H366V0Z" fill="#3B392C"/>
<path d="M374 0H368V117.647H374V0Z" fill="#3B392C"/>
<path d="M382 0H380V117.647H382V0Z" fill="#3B392C"/>
<path d="M390 0H384V117.647H390V0Z" fill="#3B392C"/>
<path d="M398 0H396V117.647H398V0Z" fill="#3B392C"/>
<path d="M402 0H400V117.647H402V0Z" fill="#3B392C"/>
<path d="M406 0H404V117.647H406V0Z" fill="#3B392C"/>
<path d="M414 0H408V117.647H414V0Z" fill="#3B392C"/>
<path d="M422 0H416V117.647H422V0Z" fill="#3B392C"/>
<path d="M426 0H424V117.647H426V0Z" fill="#3B392C"/>
<path d="M430 0H428V117.647H430V0Z" fill="#3B392C"/>
<path d="M442 0H436V117.647H442V0Z" fill="#3B392C"/>
<path d="M446 0H444V117.647H446V0Z" fill="#3B392C"/>
<path d="M454 0H448V117.647H454V0Z" fill="#3B392C"/>
<path d="M458 0H456V117.647H458V0Z" fill="#3B392C"/>
<path d="M462 0H460V117.647H462V0Z" fill="#3B392C"/>
<path d="M470 0H468V117.647H470V0Z" fill="#3B392C"/>
<path d="M478 0H472V117.647H478V0Z" fill="#3B392C"/>
<path d="M482 0H480V117.647H482V0Z" fill="#3B392C"/>
<path d="M486 0H484V117.647H486V0Z" fill="#3B392C"/>
<path d="M494 0H488V117.647H494V0Z" fill="#3B392C"/>
<path d="M498 0H496V117.647H498V0Z" fill="#3B392C"/>
<path d="M510 0H504V117.647H510V0Z" fill="#3B392C"/>
<path d="M514 0H512V117.647H514V0Z" fill="#3B392C"/>
<path d="M523 0H520V118H523V0Z" fill="#3B392C"/>
<path d="M533 0H525V118H533V0Z" fill="#3B392C"/>
<path d="M538 0H536V118H538V0Z" fill="#3B392C"/>
</g>
<defs>
<clipPath id="clip0_200_669">
<rect width="538" height="36" fill="white"/>
</clipPath>
</defs>
</svg>
