<svg width="792" height="792" viewBox="0 0 792 792" fill="none" xmlns="http://www.w3.org/2000/svg">
<g clip-path="url(#clip0_108_85)">
<line x1="800" y1="756.5" y2="756.5" stroke="#3B392C" stroke-opacity="0.055"/>
<line x1="800" y1="720.5" y2="720.5" stroke="#3B392C" stroke-opacity="0.055"/>
<line x1="800" y1="684.5" y2="684.5" stroke="#3B392C" stroke-opacity="0.055"/>
<line x1="800" y1="648.5" y2="648.5" stroke="#3B392C" stroke-opacity="0.055"/>
<line x1="800" y1="612.5" y2="612.5" stroke="#3B392C" stroke-opacity="0.055"/>
<line x1="800" y1="576.5" y2="576.5" stroke="#3B392C" stroke-opacity="0.055"/>
<line x1="800" y1="540.5" y2="540.5" stroke="#3B392C" stroke-opacity="0.055"/>
<line x1="800" y1="504.5" y2="504.5" stroke="#3B392C" stroke-opacity="0.055"/>
<line x1="800" y1="468.5" y2="468.5" stroke="#3B392C" stroke-opacity="0.055"/>
<line x1="800" y1="432.5" y2="432.5" stroke="#3B392C" stroke-opacity="0.055"/>
<line x1="800" y1="396.5" y2="396.5" stroke="#3B392C" stroke-opacity="0.055"/>
<line x1="800" y1="360.5" y2="360.5" stroke="#3B392C" stroke-opacity="0.055"/>
<line x1="800" y1="324.5" y2="324.5" stroke="#3B392C" stroke-opacity="0.055"/>
<line x1="800" y1="288.5" y2="288.5" stroke="#3B392C" stroke-opacity="0.055"/>
<line x1="800" y1="252.5" y2="252.5" stroke="#3B392C" stroke-opacity="0.055"/>
<line x1="800" y1="216.5" y2="216.5" stroke="#3B392C" stroke-opacity="0.055"/>
<line x1="800" y1="180.5" y2="180.5" stroke="#3B392C" stroke-opacity="0.055"/>
<line x1="800" y1="144.5" y2="144.5" stroke="#3B392C" stroke-opacity="0.055"/>
<line x1="800" y1="108.5" y2="108.5" stroke="#3B392C" stroke-opacity="0.055"/>
<line x1="800" y1="72.5" y2="72.5" stroke="#3B392C" stroke-opacity="0.055"/>
<line x1="800" y1="36.5" y2="36.5" stroke="#3B392C" stroke-opacity="0.055"/>
<line x1="800" y1="0.5" y2="0.5" stroke="#3B392C" stroke-opacity="0.055"/>
<line x1="0.5" y1="800" x2="0.5" stroke="#3B392C" stroke-opacity="0.055"/>
<line x1="36.5" y1="800" x2="36.5" stroke="#3B392C" stroke-opacity="0.055"/>
<line x1="72.5" y1="800" x2="72.5" stroke="#3B392C" stroke-opacity="0.055"/>
<line x1="108.5" y1="800" x2="108.5" stroke="#3B392C" stroke-opacity="0.055"/>
<line x1="144.5" y1="800" x2="144.5" stroke="#3B392C" stroke-opacity="0.055"/>
<line x1="180.5" y1="800" x2="180.5" stroke="#3B392C" stroke-opacity="0.055"/>
<line x1="216.5" y1="800" x2="216.5" stroke="#3B392C" stroke-opacity="0.055"/>
<line x1="252.5" y1="800" x2="252.5" stroke="#3B392C" stroke-opacity="0.055"/>
<line x1="288.5" y1="800" x2="288.5" stroke="#3B392C" stroke-opacity="0.055"/>
<line x1="324.5" y1="800" x2="324.5" stroke="#3B392C" stroke-opacity="0.055"/>
<line x1="360.5" y1="800" x2="360.5" stroke="#3B392C" stroke-opacity="0.055"/>
<line x1="396.5" y1="800" x2="396.5" stroke="#3B392C" stroke-opacity="0.055"/>
<line x1="432.5" y1="800" x2="432.5" stroke="#3B392C" stroke-opacity="0.055"/>
<line x1="468.5" y1="800" x2="468.5" stroke="#3B392C" stroke-opacity="0.055"/>
<line x1="504.5" y1="800" x2="504.5" stroke="#3B392C" stroke-opacity="0.055"/>
<line x1="540.5" y1="800" x2="540.5" stroke="#3B392C" stroke-opacity="0.055"/>
<line x1="576.5" y1="800" x2="576.5" stroke="#3B392C" stroke-opacity="0.055"/>
<line x1="612.5" y1="800" x2="612.5" stroke="#3B392C" stroke-opacity="0.055"/>
<line x1="648.5" y1="800" x2="648.5" stroke="#3B392C" stroke-opacity="0.055"/>
<line x1="684.5" y1="800" x2="684.5" stroke="#3B392C" stroke-opacity="0.055"/>
<line x1="720.5" y1="800" x2="720.5" stroke="#3B392C" stroke-opacity="0.055"/>
<line x1="756.5" y1="800" x2="756.5" stroke="#3B392C" stroke-opacity="0.055"/>
</g>
<defs>
<clipPath id="clip0_108_85">
<rect width="792" height="792" fill="white"/>
</clipPath>
</defs>
</svg>
