<svg width="801" height="801" viewBox="0 0 801 801" fill="none" xmlns="http://www.w3.org/2000/svg">
<g clip-path="url(#clip0_108_5)">
<line x1="800" y1="760.5" y2="760.5" stroke="#3B392C" stroke-opacity="0.075"/>
<line x1="800" y1="720.5" y2="720.5" stroke="#3B392C" stroke-opacity="0.075"/>
<line x1="800" y1="680.5" y2="680.5" stroke="#3B392C" stroke-opacity="0.075"/>
<line x1="800" y1="640.5" y2="640.5" stroke="#3B392C" stroke-opacity="0.075"/>
<line x1="800" y1="600.5" y2="600.5" stroke="#3B392C" stroke-opacity="0.075"/>
<line x1="800" y1="560.5" y2="560.5" stroke="#3B392C" stroke-opacity="0.075"/>
<line x1="800" y1="520.5" y2="520.5" stroke="#3B392C" stroke-opacity="0.075"/>
<line x1="800" y1="480.5" y2="480.5" stroke="#3B392C" stroke-opacity="0.075"/>
<line x1="800" y1="440.5" y2="440.5" stroke="#3B392C" stroke-opacity="0.075"/>
<line x1="800" y1="400.5" y2="400.5" stroke="#3B392C" stroke-opacity="0.075"/>
<line x1="800" y1="360.5" y2="360.5" stroke="#3B392C" stroke-opacity="0.075"/>
<line x1="800" y1="320.5" y2="320.5" stroke="#3B392C" stroke-opacity="0.075"/>
<line x1="800" y1="280.5" y2="280.5" stroke="#3B392C" stroke-opacity="0.075"/>
<line x1="800" y1="240.5" y2="240.5" stroke="#3B392C" stroke-opacity="0.075"/>
<line x1="800" y1="200.5" y2="200.5" stroke="#3B392C" stroke-opacity="0.075"/>
<line x1="800" y1="160.5" y2="160.5" stroke="#3B392C" stroke-opacity="0.075"/>
<line x1="800" y1="120.5" y2="120.5" stroke="#3B392C" stroke-opacity="0.075"/>
<line x1="800" y1="80.5" y2="80.5" stroke="#3B392C" stroke-opacity="0.075"/>
<line x1="800" y1="40.5" y2="40.5" stroke="#3B392C" stroke-opacity="0.075"/>
<line x1="800" y1="0.5" y2="0.5" stroke="#3B392C" stroke-opacity="0.075"/>
<line x1="0.5" y1="800" x2="0.5" stroke="#3B392C" stroke-opacity="0.075"/>
<line x1="40.5" y1="800" x2="40.5" stroke="#3B392C" stroke-opacity="0.075"/>
<line x1="80.5" y1="800" x2="80.5" stroke="#3B392C" stroke-opacity="0.075"/>
<line x1="120.5" y1="800" x2="120.5" stroke="#3B392C" stroke-opacity="0.075"/>
<line x1="160.5" y1="800" x2="160.5" stroke="#3B392C" stroke-opacity="0.075"/>
<line x1="200.5" y1="800" x2="200.5" stroke="#3B392C" stroke-opacity="0.075"/>
<line x1="240.5" y1="800" x2="240.5" stroke="#3B392C" stroke-opacity="0.075"/>
<line x1="280.5" y1="800" x2="280.5" stroke="#3B392C" stroke-opacity="0.075"/>
<line x1="320.5" y1="800" x2="320.5" stroke="#3B392C" stroke-opacity="0.075"/>
<line x1="360.5" y1="800" x2="360.5" stroke="#3B392C" stroke-opacity="0.075"/>
<line x1="400.5" y1="800" x2="400.5" stroke="#3B392C" stroke-opacity="0.075"/>
<line x1="440.5" y1="800" x2="440.5" stroke="#3B392C" stroke-opacity="0.075"/>
<line x1="480.5" y1="800" x2="480.5" stroke="#3B392C" stroke-opacity="0.075"/>
<line x1="520.5" y1="800" x2="520.5" stroke="#3B392C" stroke-opacity="0.075"/>
<line x1="560.5" y1="800" x2="560.5" stroke="#3B392C" stroke-opacity="0.075"/>
<line x1="600.5" y1="800" x2="600.5" stroke="#3B392C" stroke-opacity="0.075"/>
<line x1="640.5" y1="800" x2="640.5" stroke="#3B392C" stroke-opacity="0.075"/>
<line x1="680.5" y1="800" x2="680.5" stroke="#3B392C" stroke-opacity="0.075"/>
<line x1="720.5" y1="800" x2="720.5" stroke="#3B392C" stroke-opacity="0.075"/>
<line x1="760.5" y1="800" x2="760.5" stroke="#3B392C" stroke-opacity="0.075"/>
</g>
<defs>
<clipPath id="clip0_108_5">
<rect width="801" height="801" fill="white"/>
</clipPath>
</defs>
</svg>
