<svg width="175" height="25" viewBox="0 0 175 25" fill="none" xmlns="http://www.w3.org/2000/svg">
<g clip-path="url(#clip0_199_655)">
<path d="M24.0416 8.62305C22.003 8.62305 20.3801 10.0626 20.3801 12.5001C20.3801 14.9793 21.9062 16.3772 24.1103 16.3772C25.5249 16.3772 26.7312 15.6022 27.3968 14.4251L25.8437 13.6355C25.4968 14.4668 24.9697 14.7158 24.3041 14.7158C23.153 14.7158 22.627 13.7605 22.627 12.5012C22.627 11.2408 23.0708 10.2855 24.3041 10.2855C24.6374 10.2855 25.3041 10.4658 25.6916 11.296L27.3551 10.423C26.6468 9.13555 25.4416 8.62305 24.0416 8.62305ZM31.2624 8.62305C29.2239 8.62305 27.602 10.0626 27.602 12.5001C27.602 14.9793 29.127 16.3772 31.3312 16.3772C32.7468 16.3772 33.952 15.6022 34.6176 14.4251L33.0655 13.6355C32.7187 14.4668 32.1905 14.7158 31.526 14.7158C30.3749 14.7158 29.8478 13.7605 29.8478 12.5012C29.8478 11.2408 30.2916 10.2855 31.5249 10.2855C31.8583 10.2855 32.5249 10.4658 32.9124 11.296L34.576 10.423C33.8676 9.13555 32.6624 8.62305 31.2624 8.62305Z" fill="#3B392C"/>
<rect x="15.75" y="0.75" width="23.5" height="23.5" stroke="#3B392C" stroke-width="1.5"/>
</g>
<g clip-path="url(#clip1_199_655)">
<path d="M66.198 19.7913H68.8022V15.1038H70.3647V10.3122C70.3647 9.84342 70.1174 9.48335 69.623 9.23197C69.1286 8.98058 68.4209 8.85454 67.5001 8.85384C66.5792 8.85315 65.872 8.97919 65.3782 9.23197C64.8845 9.48474 64.6369 9.84481 64.6355 10.3122V15.1038H66.198V19.7913ZM67.5001 8.33301C67.9515 8.33301 68.3247 8.18544 68.6199 7.8903C68.915 7.59516 69.0626 7.2219 69.0626 6.77051C69.0626 6.31912 68.915 5.94586 68.6199 5.65072C68.3247 5.35558 67.9515 5.20801 67.5001 5.20801C67.0487 5.20801 66.6754 5.35558 66.3803 5.65072C66.0852 5.94586 65.9376 6.31912 65.9376 6.77051C65.9376 7.2219 66.0852 7.59516 66.3803 7.8903C66.6754 8.18544 67.0487 8.33301 67.5001 8.33301Z" fill="#3B392C"/>
<rect x="55.75" y="0.75" width="23.5" height="23.5" stroke="#3B392C" stroke-width="1.5"/>
</g>
<g clip-path="url(#clip2_199_655)">
<rect x="95.75" y="0.75" width="23.5" height="23.5" stroke="#3B392C" stroke-width="1.5"/>
<path d="M108.033 8.25C109.517 8.25 110.067 8.95833 110.117 10H111.958C111.9 8.56667 111.025 7.25 109.283 6.825V5H106.783V6.8C106.342 6.9 105.925 7.05 105.55 7.25L106.775 8.475C107.117 8.33333 107.533 8.25 108.033 8.25ZM102.058 5.88333L101 6.94167L103.867 9.80833C103.867 11.5417 105.167 12.4833 107.125 13.0667L110.05 15.9917C109.767 16.3917 109.175 16.75 108.033 16.75C106.317 16.75 105.642 15.9833 105.55 15H103.717C103.817 16.825 105.183 17.85 106.783 18.1917V20H109.283V18.2083C110.083 18.0583 110.8 17.75 111.325 17.275L113.175 19.125L114.233 18.0667L102.058 5.88333Z" fill="#3B392C"/>
</g>
<g clip-path="url(#clip3_199_655)">
<path d="M142.166 10.8066C142.645 7.78785 144.77 6.17285 147.434 6.17285C151.264 6.17285 153.599 8.9541 153.599 12.6604C153.599 16.2766 151.115 19.0866 147.374 19.0866C144.799 19.0866 142.495 17.5029 142.076 14.3941H145.099C145.189 16.0079 146.236 16.5766 147.732 16.5766C149.439 16.5766 150.546 14.9916 150.546 12.5704C150.546 10.0291 149.589 8.6841 147.793 8.6841C146.475 8.6841 145.339 9.16285 145.099 10.8066L145.977 10.8016L143.599 13.1816L141.219 10.8004L142.166 10.8066Z" fill="#3B392C"/>
<rect x="135.75" y="0.75" width="23.5" height="23.5" stroke="#3B392C" stroke-width="1.5"/>
</g>
<defs>
<clipPath id="clip0_199_655">
<rect width="25" height="25" fill="white" transform="translate(15)"/>
</clipPath>
<clipPath id="clip1_199_655">
<rect width="25" height="25" fill="white" transform="translate(55)"/>
</clipPath>
<clipPath id="clip2_199_655">
<rect width="25" height="25" fill="white" transform="translate(95)"/>
</clipPath>
<clipPath id="clip3_199_655">
<rect width="25" height="25" fill="white" transform="translate(135)"/>
</clipPath>
</defs>
</svg>
