<svg width="445" height="445" viewBox="0 0 445 445" fill="none" xmlns="http://www.w3.org/2000/svg">
<circle cx="222.5" cy="222.5" r="222.5" fill="#333333"/>
<path d="M297.443 44.1469C299.059 44.9426 300.708 45.6713 302.367 46.3709C318.39 53.1827 333.529 62.7531 346.764 74.0367C347.764 74.8751 348.764 75.7132 349.764 76.5512C371.71 95.0442 388.918 117.96 400.995 144.004C401.338 144.727 401.681 145.45 402.035 146.195C404.725 151.949 406.941 157.759 408.921 163.792C409.223 164.707 409.524 165.622 409.834 166.564C415.867 185.207 417.999 203.401 417.996 222.936C417.998 223.774 417.999 224.612 418 225.475C417.977 245.002 415.621 263.757 408.867 282.19C408.402 283.535 407.938 284.881 407.476 286.228C404.458 294.872 400.91 303.054 396.62 311.139C395.763 312.77 394.937 314.413 394.117 316.063C387.222 329.741 377.975 341.687 367.757 353.032C367.305 353.537 366.853 354.043 366.388 354.564C361.314 360.23 356.22 365.765 350.263 370.524C349.46 371.174 348.657 371.825 347.83 372.495C340.259 378.527 332.217 383.751 324.022 388.89C323.2 389.414 322.378 389.938 321.531 390.479C315.897 393.987 310.003 396.782 303.904 399.385C302.861 399.837 302.861 399.837 301.796 400.299C288.521 405.988 275.241 409.864 261.045 412.504C260.215 412.66 259.386 412.815 258.531 412.975C235.823 417.009 210.188 417.162 187.571 412.504C186.954 412.378 186.336 412.251 185.7 412.121C181.611 411.249 177.588 410.185 173.576 409.006C172.903 408.808 172.23 408.61 171.536 408.407C158.479 404.524 146.334 399.522 134.23 393.294C132.541 392.427 130.845 391.574 129.148 390.721C116.239 384.143 104.761 375.794 93.9799 366.151C93.5244 365.744 93.0688 365.338 92.5995 364.92C83.8975 357.129 75.7413 349.192 68.614 339.913C67.8245 338.936 67.034 337.96 66.2428 336.985C54.4275 322.145 42.6913 302.508 38 283.939C38.2886 283.073 38.5773 282.207 38.8747 281.315C39.5749 282.712 39.5749 282.712 40.2892 284.137C56.0263 315.007 81.6147 341.737 114.972 353.032C152.127 364.598 190.583 359.818 224.855 341.826C239.584 333.397 253.148 323.644 265.418 311.926C266.54 310.874 266.54 310.874 267.684 309.801C291.133 287.206 307.417 255.566 313.185 223.666C313.522 221.867 313.911 220.086 314.312 218.3C320.088 190.963 315.807 161.297 306.529 135.258C306.305 134.629 306.082 133.999 305.852 133.351C299.415 115.588 289.975 98.8871 277.664 84.5319C277.874 85.7089 277.874 85.7089 278.088 86.9096C281.376 110.137 276.774 132.905 263.597 152.289C261.92 154.499 261.92 154.499 260.17 155.374C260.031 154.39 259.893 153.405 259.75 152.391C256.881 133.06 249.851 115.533 237.428 100.275C237.057 99.8028 236.685 99.3312 236.303 98.8452C229.943 90.7986 223.065 84.3175 214.687 78.4097C213.887 77.846 213.088 77.2823 212.264 76.7015C195.72 65.69 177.599 58.9279 158.029 55.9699C156.512 55.7363 155 55.4633 153.493 55.1749C149.451 54.5983 145.399 54.4722 141.322 54.3037C140.044 54.2471 140.044 54.2471 138.739 54.1893C136.648 54.0971 134.557 54.0078 132.466 53.9211C134.333 51.88 136.059 50.6609 138.551 49.473C139.229 49.1487 139.907 48.8243 140.606 48.4901C141.691 47.9857 141.691 47.9857 142.798 47.471C143.926 46.9454 143.926 46.9454 145.076 46.4091C190.178 25.673 252.003 21.6989 297.443 44.1469Z" fill="#FAF8F2"/>
<path d="M289.035 131.76C291.776 134.836 292.762 138.259 293.846 142.146C294.033 142.802 294.22 143.458 294.414 144.134C298.029 157.026 299.735 169.315 299.75 182.705C299.751 183.326 299.752 183.947 299.753 184.587C299.749 194.878 298.958 204.752 296.907 214.846C296.707 215.931 296.508 217.015 296.302 218.133C290.11 249.763 272.98 280.83 247.925 301.431C247.301 301.966 246.678 302.502 246.035 303.054C224.308 321.224 191.768 336.113 163.08 335.54C165.936 327.446 169.866 321.145 175.326 314.55C175.959 313.782 176.593 313.014 177.246 312.223C188.534 299.136 203.534 290.36 218.163 281.513C238.501 269.198 254.803 255.562 265.418 234.087C264.697 234.743 263.975 235.399 263.232 236.075C250.129 247.773 235.558 255.428 219.777 262.877C218.342 263.558 218.342 263.558 216.878 264.252C214.997 265.143 213.113 266.028 211.226 266.906C201.579 271.466 193.104 277.08 184.947 283.939C184.271 284.487 183.594 285.035 182.897 285.599C174.229 292.872 167.09 303.07 163.08 313.675C162.791 313.675 162.503 313.675 162.205 313.675C159.964 287.097 173.443 256.454 189.943 236.421C196.791 228.439 203.735 221.324 212.062 214.846C213.012 214.064 213.96 213.28 214.905 212.492C221.313 207.194 227.945 202.412 234.859 197.792C242.642 192.584 249.731 187.008 256.671 180.737C257.928 179.697 259.185 178.659 260.444 177.621C264.692 173.891 268.057 169.423 271.541 164.994C272.083 164.355 272.626 163.716 273.185 163.057C280.049 154.812 283.961 145.029 287.333 134.968C288.16 132.634 288.16 132.634 289.035 131.76Z" fill="#FAF8F2"/>
<path d="M341.516 140.506C355.376 153.801 360.933 178.564 361.789 197.235C361.811 198.407 361.829 199.578 361.842 200.75C361.855 201.706 361.855 201.706 361.868 202.681C362.02 216.948 361.9 230.709 358.135 244.582C357.952 245.259 357.769 245.935 357.581 246.633C351.495 268.251 340.17 287.678 324.897 304.055C324.439 304.546 323.981 305.038 323.509 305.544C300.764 329.678 269.911 344.947 236.554 346.035C238.324 344.265 239.337 343.753 241.617 342.861C242.625 342.457 242.625 342.457 243.654 342.046C244.378 341.757 245.102 341.468 245.847 341.17C267.274 332.338 287.324 318.505 303.468 301.855C304.779 300.556 304.779 300.556 306.966 298.862C331.056 278.989 347.196 241.373 350.775 210.955C351.299 205.149 351.332 199.33 351.348 193.504C351.356 191.582 351.383 189.66 351.411 187.737C351.505 175.433 349.504 164.149 345.343 152.531C344.802 150.978 344.262 149.425 343.723 147.871C343.488 147.209 343.253 146.547 343.01 145.865C342.42 144.092 341.943 142.324 341.516 140.506Z" fill="#333333"/>
<path d="M218.185 209.599C218.763 209.887 219.34 210.176 219.935 210.473C216.774 214.573 216.774 214.573 215.561 215.721C214.695 215.721 213.829 215.721 212.937 215.721C212.703 216.244 212.468 216.767 212.226 217.306C211.189 219.218 210.229 220.455 208.564 221.843C207.986 221.843 207.409 221.843 206.814 221.843C206.814 222.42 206.814 222.997 206.814 223.592C205.66 223.592 204.505 223.592 203.316 223.592C203.207 224.133 203.099 224.674 202.988 225.232C202.441 227.09 202.441 227.09 200.692 228.84C199.826 228.84 198.96 228.84 198.067 228.84C198.067 229.705 198.067 230.571 198.067 231.463C196.913 231.752 195.758 232.041 194.569 232.338C196.696 228.229 199.553 225.506 202.933 222.444C203.474 221.948 204.015 221.452 204.572 220.94C208.954 216.954 213.473 213.192 218.185 209.599Z" fill="#FAF8F2"/>
<path d="M275.915 159.747C276.203 160.613 276.492 161.478 276.789 162.371C275.977 163.101 275.977 163.101 275.149 163.846C273.209 165.706 273.209 165.706 272.525 167.891C271.11 171.272 268.751 173.683 266.293 176.364C265.138 176.075 263.984 175.787 262.794 175.489C263.521 174.646 264.249 173.803 264.998 172.934C265.958 171.818 266.918 170.702 267.878 169.586C268.357 169.031 268.836 168.477 269.329 167.905C271.615 165.246 273.864 162.596 275.915 159.747Z" fill="#FAF8F2"/>
<path d="M205.065 220.968C205.065 221.834 205.065 222.7 205.065 223.592C204.488 223.592 203.91 223.592 203.316 223.592C203.207 224.133 203.099 224.674 202.988 225.232C202.441 227.09 202.441 227.09 200.692 228.84C199.826 228.84 198.96 228.84 198.067 228.84C198.067 229.705 198.067 230.571 198.067 231.463C196.913 231.752 195.758 232.041 194.569 232.338C196.396 228.962 198.381 226.683 201.293 224.193C202 223.583 202.707 222.973 203.435 222.345C203.973 221.891 204.511 221.436 205.065 220.968Z" fill="#FAF8F2"/>
<path d="M228.682 275.193C228.682 276.059 228.682 276.925 228.682 277.817C227.816 278.105 226.95 278.394 226.057 278.691C226.057 279.269 226.057 279.846 226.057 280.441C224.037 280.729 222.016 281.018 219.935 281.315C222.368 278.453 225.427 276.973 228.682 275.193Z" fill="#FAF8F2"/>
<path d="M190.195 235.836C190.484 235.836 190.773 235.836 191.07 235.836C191.398 237.75 191.398 237.749 191.07 240.209C189.461 241.95 187.753 243.174 185.822 244.582C185.822 241.635 186.258 241.025 187.954 238.733C188.548 237.917 188.548 237.917 189.153 237.083C189.497 236.672 189.841 236.26 190.195 235.836Z" fill="#FAF8F2"/>
<path d="M218.185 209.599C218.763 209.887 219.34 210.176 219.935 210.473C216.167 215.532 216.167 215.532 213.101 216.486C212.154 216.54 212.154 216.54 211.188 216.595C213.52 214.263 215.853 211.931 218.185 209.599Z" fill="#FAF8F2"/>
<path d="M240.927 265.572C240.927 268.196 240.927 268.196 239.779 269.409C238.412 270.462 237.046 271.516 235.679 272.569C235.679 269.945 235.679 269.945 236.827 268.733C238.194 267.679 239.56 266.626 240.927 265.572Z" fill="#FAF8F2"/>
<path d="M115.312 276.568C119.367 278.596 121.898 280.765 124.312 284.568C125.205 289.37 124.917 294.122 122.688 298.506C119.509 302.604 117.078 304.12 111.949 304.951C107.147 305.286 104.087 304.931 100.312 301.818C96.9451 298.613 95.4307 295.845 95 291.193C95.4708 285.732 97.2478 282.793 100.812 278.693C105.103 275.379 110.173 275.735 115.312 276.568Z" fill="#FAF8F2"/>
<path d="M176.205 110.388C179.207 111.659 179.951 112.644 182.094 115.388C182.815 118.537 182.768 121.232 182.094 124.388C180.333 127.258 179.167 128.879 176.205 130.388C172.273 130.948 168.168 131.472 164.653 129.329C162.153 126.62 161.152 123.94 160.93 120.325C161.533 116.027 162.388 114.375 165.408 111.388C168.847 109.636 172.454 109.843 176.205 110.388Z" fill="#FAF8F2"/>
<path d="M79.0343 206.388C80.8134 207.575 80.8134 207.575 81.9789 209.388C82.3978 212.233 82.3329 213.751 80.936 216.263C77.9393 218.036 75.4379 217.08 72.1637 216.388C70.8547 209.962 70.8547 209.962 72.2864 207.45C74.7514 206.027 76.2419 205.961 79.0343 206.388Z" fill="#FAF8F2"/>
<path d="M72.7159 244.575C75.1084 245.388 75.1084 245.388 77.0714 247.388C77.428 250.222 77.4217 251.793 75.9672 254.263C74.1268 255.388 74.1268 255.388 71.0596 255.138C68.2377 254.388 68.2377 254.388 67.2562 253.388C66.8077 248.133 66.8077 248.133 68.4217 245.45C70.2007 244.388 70.2007 244.388 72.7159 244.575Z" fill="#FAF8F2"/>
<path d="M104.554 226.388C110.019 226.956 110.019 226.956 111.424 228.388C111.609 230.825 111.609 230.825 111.424 233.388C109.461 235.388 109.461 235.388 107.008 235.638C104.554 235.388 104.554 235.388 102.591 233.388C102.345 230.888 102.345 230.888 102.591 228.388C103.239 227.728 103.886 227.068 104.554 226.388Z" fill="#FAF8F2"/>
</svg>
