<svg width="425" height="425" viewBox="0 0 425 425" fill="none" xmlns="http://www.w3.org/2000/svg">
<g clip-path="url(#clip0_16_3)">
<path d="M198.724 -0.203101C199.777 -0.208801 200.83 -0.214501 201.915 -0.220374C204.135 -0.229769 206.354 -0.236336 208.574 -0.240211C211.908 -0.249861 215.241 -0.280915 218.575 -0.312476C236.018 -0.400495 252.177 1.47184 268.999 6.25002C270.08 6.55303 271.161 6.85604 272.275 7.16824C281.574 9.84096 290.513 13.0654 299.365 17C300.05 17.2999 300.736 17.5998 301.442 17.9087C323.49 27.649 343.402 41.4371 360.635 58.4746C362.197 60.014 363.778 61.5304 365.361 63.0469C377.358 74.7117 387.508 88.2212 395.554 103C395.998 103.812 396.442 104.624 396.9 105.46C420.314 148.699 430.781 198.84 421.476 247.872C421.093 249.898 420.756 251.928 420.43 253.965C414.123 290.416 395.073 325.631 371.016 353C370.523 353.564 370.031 354.128 369.523 354.709C363.817 361.209 358.071 367.525 351.386 373C350.39 373.829 349.394 374.658 348.368 375.512C327.66 392.563 304.936 405.177 279.734 414C278.07 414.594 278.07 414.594 276.372 415.199C269.822 417.389 263.128 419.014 256.423 420.625C255.583 420.832 254.742 421.038 253.876 421.251C240.022 424.464 225.994 425.444 211.825 425.438C211.07 425.438 210.315 425.439 209.537 425.44C151.108 425.292 97.8964 398.343 57.1632 356.666C49.8087 348.961 43.3297 340.806 37.2979 332C36.6754 331.112 36.0529 330.224 35.4116 329.309C25.2186 313.904 17.5546 296.652 11.5463 279.171C10.9167 277.347 10.2547 275.535 9.5852 273.727C-7.53669 225.822 -0.634301 169.158 19.4465 123.563C34.9788 90.2604 57.7259 60.5787 87.3557 39C87.9016 38.5941 88.4476 38.1882 89.0101 37.77C120.271 14.7038 160.002 -0.0361648 198.724 -0.203101Z" fill="#333333"/>
<path d="M214.954 29.0001C260.507 27.3556 303.873 44.3912 337.349 75.8868C339.389 77.796 341.476 79.6198 343.595 81.4375C372.803 107.573 392.738 149.892 396.536 189C396.694 192.042 396.741 195.08 396.77 198.125C396.779 198.981 396.789 199.837 396.799 200.719C397.105 234.539 393.275 265.139 376.868 295.26C375.931 296.986 375.034 298.733 374.137 300.481C362.37 322.676 343.699 345.048 322.921 359C320.576 356.074 318.885 352.963 317.176 349.619C312.735 341.035 307.523 334.138 300.728 327.362C299.53 326.165 298.363 324.934 297.202 323.699C285.5 311.981 269.45 306.805 253.418 306.67C248.513 306.741 244.212 307.645 239.492 309C243.13 312.804 246.931 316.312 250.902 319.75C251.508 320.277 252.113 320.803 252.737 321.346C257.157 325.179 261.64 328.929 266.146 332.656C270.008 335.899 273.793 339.23 277.583 342.559C281.878 346.321 286.244 349.984 290.642 353.621C296.243 358.323 301.723 363.171 307.217 368C306.236 371 306.236 371 303.187 372.832C301.858 373.504 300.522 374.163 299.181 374.813C298.47 375.164 297.76 375.515 297.028 375.877C270.422 388.905 244.158 396.189 214.559 396.185C212.402 396.188 210.245 396.206 208.087 396.225C195.437 396.277 183.017 395.096 170.663 392.188C169.93 392.018 169.198 391.848 168.444 391.674C161.482 389.996 154.867 387.678 148.21 385C146.785 384.449 146.785 384.449 145.331 383.887C108.486 369.065 77.6783 341.599 54.9653 309C55.2892 308.34 55.6131 307.68 55.9469 307C57.0002 307.58 57.0002 307.58 58.0748 308.172C75.8091 317.615 94.2236 320.587 113.979 320.375C114.773 320.37 115.567 320.364 116.384 320.359C159.378 320.022 197.985 304.923 229.677 275C230.185 274.526 230.693 274.053 231.216 273.564C259.958 246.509 280.121 206.128 281.821 166.099C283.104 123.702 271.268 83.5546 242.693 52.0118C235.07 43.812 226.564 37.024 217.005 31.2852C216.328 30.8611 215.651 30.437 214.954 30.0001C214.954 29.6701 214.954 29.3401 214.954 29.0001Z" fill="#FAF8F2"/>
<path d="M98.1524 93C139.751 97.1368 184.649 118.52 212.009 151C227.774 171.484 237.143 194.777 235.566 221C234.435 229.262 231.311 237.259 224.777 242.598C222.844 243.872 220.955 244.986 218.88 246C218.166 246.365 217.453 246.73 216.717 247.105C198.173 253.148 176.384 244.31 159.988 236C158.933 235.47 157.878 234.94 156.791 234.395C150.777 231.211 145.529 227.45 140.358 223C139.582 222.355 138.807 221.711 138.008 221.047C113.416 199.74 101.342 166.948 98.394 134.88C97.5275 120.962 97.9439 106.937 98.1524 93Z" fill="#FAF8F2"/>
<path d="M112.875 111C146.929 116.135 182.638 137.138 203.39 165.059C213.516 179.259 221.068 196.657 220.904 214.375C220.895 215.62 220.887 216.865 220.877 218.148C220.866 219.089 220.855 220.03 220.843 221C217.101 217.823 213.526 214.6 210.108 211.062C207.016 207.871 203.817 204.894 200.48 201.973C198.307 200.035 196.184 198.048 194.068 196.047C188.93 191.192 183.672 186.577 178.208 182.102C175.927 180.196 173.752 178.222 171.583 176.188C162.377 167.77 152.191 160.059 141.339 154C143.895 158.803 146.661 163.045 150.173 167.188C150.637 167.741 151.101 168.295 151.579 168.866C155.809 173.843 160.332 178.473 164.973 183.051C167.093 185.177 169.051 187.395 170.988 189.695C175.403 194.894 180.177 199.714 184.956 204.562C185.842 205.469 186.729 206.376 187.642 207.311C192.12 211.866 196.639 216.301 201.463 220.476C204.477 223.158 207.248 226.088 210.046 229C211.354 230.335 212.662 231.668 213.972 233C188.38 234.175 165.482 225.652 145.94 208.688C124.958 188.393 113.74 155.819 112.801 126.689C112.779 124.292 112.789 121.897 112.814 119.5C112.818 118.678 112.823 117.855 112.827 117.008C112.839 115.005 112.856 113.003 112.875 111Z" fill="#333333"/>
<path d="M366.109 202C366.583 227.832 357.763 255.76 340.071 274.648C327.126 287.251 312.353 294.383 294.457 294.312C293.635 294.329 292.812 294.345 291.965 294.361C286.09 294.366 281.257 293.215 275.808 291C275.808 289.68 275.808 288.36 275.808 287C277.764 285.316 277.764 285.316 280.593 283.562C285.83 280.176 290.909 276.65 295.93 272.938C297.041 272.116 297.041 272.116 298.174 271.278C307.151 264.619 316.071 257.882 324.885 251C325.542 250.487 326.199 249.974 326.877 249.446C328.578 248.106 330.262 246.747 331.939 245.375C333.296 244.273 333.296 244.273 334.681 243.148C336.911 240.73 337.358 239.263 337.644 236C315.784 246.807 294.467 258.728 274.37 272.68C273.577 273.23 272.784 273.781 271.967 274.348C270.885 275.108 270.885 275.108 269.783 275.883C267.956 277 267.956 277 265.993 277C265.63 269.669 266.078 263.759 268.938 257C269.26 256.21 269.583 255.42 269.915 254.605C279.261 233.684 299.202 221.964 319.513 214.164C331.229 209.978 343.386 207.027 355.408 203.906C356.515 203.616 356.515 203.616 357.645 203.32C360.545 202.58 363.107 202 366.109 202Z" fill="#333333"/>
<path d="M231.64 321C236.871 324.807 241.721 328.933 246.547 333.25C252.579 338.631 258.759 343.675 265.161 348.596C268.817 351.427 272.432 354.312 276.054 357.188C277.49 358.327 278.927 359.466 280.363 360.605C281.056 361.158 281.749 361.71 282.462 362.279C284.013 363.503 285.575 364.713 287.144 365.913C288.357 366.847 288.357 366.847 289.596 367.801C290.338 368.366 291.08 368.931 291.845 369.513C292.383 370.004 292.921 370.494 293.476 371C293.476 371.66 293.476 372.32 293.476 373C285.837 376.812 277.118 377.917 268.886 375.379C254.496 369.772 241.887 358.564 235.297 344.293C232.85 338.253 231.508 333.32 231.578 326.75C231.592 325.134 231.592 325.134 231.605 323.484C231.617 322.665 231.628 321.845 231.64 321Z" fill="#333333"/>
<path d="M95.4532 223.938C97.0398 223.951 97.0398 223.951 98.6585 223.965C99.4632 223.977 100.268 223.988 101.097 224C98.6498 225.662 96.7318 226.616 94.0423 227.688C86.6844 230.996 81.5086 235.689 78.219 243.203C75.2107 251.169 76.2954 257.746 79.3884 265.559C82.519 272.529 87.7523 275.52 94.2263 279C102.477 281.802 110.364 280.119 118.074 276.5C121.724 274.437 124.685 272.026 127.598 269C128.143 268.446 128.689 267.891 129.251 267.32C129.677 266.885 130.103 266.449 130.543 266C128.512 274.276 122.762 281.336 115.82 286C106.22 290.732 97.1107 292.916 86.7422 289.375C77.5098 285.56 71.6458 279.855 66.7436 271C63.4278 262.847 63.3539 251.887 66.2529 243.563C70.3114 234.945 76.7705 228.699 85.3926 225C88.7626 223.863 91.9186 223.898 95.4532 223.938Z" fill="#FAF8F2"/>
<path d="M159.007 57C162.009 58.2717 162.753 59.2564 164.896 62C165.617 65.1491 165.569 67.8447 164.896 71C163.135 73.8703 161.969 75.4913 159.007 77C155.074 77.5602 150.97 78.0839 147.455 75.9414C144.955 73.2328 143.954 70.5528 143.732 66.9375C144.335 62.6388 145.189 60.987 148.21 58C151.648 56.2485 155.255 56.4558 159.007 57Z" fill="#FAF8F2"/>
<path d="M200.722 339.312C204.157 340 204.157 340 207.102 342.562C209.065 346 209.065 346 209.126 349.688C208.083 353 208.083 353 206.55 354.938C203.085 356.476 200.014 356.821 196.305 356C193.369 353.458 192.534 351.843 191.827 348C192.819 342.607 195.532 340.351 200.722 339.312Z" fill="#333333"/>
<path d="M177.656 340C180.98 342.45 182.354 343.864 183.116 348C182.408 351.843 181.573 353.458 178.637 356C174.712 356.942 171.785 356.611 168.331 354.5C166.252 350.968 166.075 348.017 166.859 344C169.64 339.466 172.646 339.194 177.656 340Z" fill="#333333"/>
<path d="M353.226 149.438C357.437 150.21 359.317 151.803 362.182 155C362.857 158 362.857 158 362.182 161C360.217 163.879 358.74 165.607 355.339 166.52C353.287 166.688 353.287 166.688 349.423 166C346.476 162.925 345.497 161.188 345.497 156.875C347.013 152.433 348.609 150.358 353.226 149.438Z" fill="#333333"/>
<path d="M327.829 149.375C331.828 150.224 333.271 151.677 335.681 155C336.378 158.785 335.954 160.467 334.209 163.875C331.236 166.45 329.59 166.745 325.774 166.484C323.903 166 323.903 166 321.449 163.875C319.704 160.467 319.28 158.785 319.977 155C322.388 151.677 323.83 150.224 327.829 149.375Z" fill="#333333"/>
<path d="M211.028 77C212.991 79 212.991 79 213.297 81.9375C212.991 85 212.991 85 211.887 86.875C209.182 88.5286 207.248 88.3937 204.157 88C202.317 86.875 202.317 86.875 201.212 85C200.783 82 200.783 82 201.212 79C204.208 75.3609 206.754 75.7696 211.028 77Z" fill="#FAF8F2"/>
<path d="M61.836 153C63.615 154.187 63.615 154.187 64.7806 156C65.1995 158.845 65.1346 160.364 63.7377 162.875C60.741 164.648 58.2396 163.692 54.9654 163C53.6564 156.575 53.6564 156.575 55.0881 154.062C57.5531 152.639 59.0436 152.573 61.836 153Z" fill="#FAF8F2"/>
<path d="M55.5175 191.188C57.9099 192 57.9099 192 59.873 194C60.2296 196.834 60.2233 198.405 58.7688 200.875C56.9284 202 56.9284 202 53.8611 201.75C51.0393 201 51.0393 201 50.0577 200C49.6093 194.746 49.6093 194.746 51.2233 192.063C53.0023 191 53.0023 191 55.5175 191.188Z" fill="#FAF8F2"/>
<path d="M141.339 154C144.895 155.326 147.852 156.943 150.971 159.125C151.746 159.664 152.522 160.203 153.321 160.758C153.902 161.168 154.482 161.578 155.081 162C154.345 163.938 154.345 163.938 153.118 166C151.032 166.75 151.032 166.75 149.192 167C147.874 165.403 146.568 163.797 145.266 162.188C144.172 160.848 144.172 160.848 143.057 159.48C141.339 157 141.339 157 141.339 154Z" fill="#FAF8F2"/>
<path d="M101.097 224C98.669 225.649 96.7053 226.655 94.0423 227.75C89.3022 229.84 85.4495 232.683 81.4665 236C81.4665 231.732 81.8357 231.061 84.4111 228C84.0872 227.34 83.7633 226.68 83.4295 226C89.1998 223.387 94.9206 223.817 101.097 224Z" fill="#FAF8F2"/>
<path d="M163.362 266.688C165.878 267 165.878 267 167.718 268.188C168.822 270 168.822 270 168.515 272.688C168.293 273.451 168.07 274.214 167.841 275C164.528 275.625 164.528 275.625 160.97 276C159.007 274 159.007 274 158.762 271.5C159.1 268.048 159.985 267.129 163.362 266.688Z" fill="#FAF8F2"/>
<path d="M247.344 131C250.58 131.33 251.881 131.623 254.215 134C253.669 138.556 253.669 138.556 252.252 140C249.368 140.25 249.368 140.25 246.363 140C244.4 137 244.4 137 244.645 134.938C245.381 133 245.381 133 247.344 131Z" fill="#FAF8F2"/>
<path d="M87.3556 173C92.8209 173.568 92.8209 173.568 94.2263 175C94.4103 177.438 94.4103 177.438 94.2263 180C92.2633 182 92.2633 182 89.8095 182.25C87.3556 182 87.3556 182 85.3926 180C85.1472 177.5 85.1472 177.5 85.3926 175C86.0404 174.34 86.6882 173.68 87.3556 173Z" fill="#FAF8F2"/>
<path d="M129.561 266C129.885 266.66 130.209 267.32 130.543 268C129.454 270.383 129.454 270.383 127.844 273.125C127.062 274.49 127.062 274.49 126.264 275.883C125.732 276.581 125.201 277.28 124.654 278C123.682 278 122.71 278 121.709 278C121.709 275 121.709 275 123.979 272.562C125.284 271.294 125.284 271.294 126.617 270C127.626 268.688 128.62 267.363 129.561 266Z" fill="#FAF8F2"/>
<path d="M293.476 371C294.124 371 294.771 371 295.439 371C295.439 371.99 295.439 372.98 295.439 374C296.087 374.66 296.734 375.32 297.402 376C294.811 376.99 292.219 377.98 289.55 379C289.874 377.68 290.197 376.36 290.531 375C289.883 374.67 289.236 374.34 288.568 374C290.188 373.67 291.807 373.34 293.476 373C293.476 372.34 293.476 371.68 293.476 371Z" fill="#FAF8F2"/>
<path d="M141.339 154C144.652 155.186 146.882 156.276 149.192 159C147.896 159 146.6 159 145.266 159C144.942 159.66 144.618 160.32 144.284 161C141.339 157.375 141.339 157.375 141.339 154Z" fill="#FAF8F2"/>
<path d="M219.861 212C220.185 212 220.509 212 220.843 212C220.843 214.97 220.843 217.94 220.843 221C219.547 220.01 218.252 219.02 216.917 218C218.757 213.125 218.757 213.125 219.861 212Z" fill="#333333"/>
<path d="M54.9653 307C56.9088 307.99 58.8522 308.98 60.8545 310C60.2067 311.32 59.5589 312.64 58.8914 314C54.9653 309.25 54.9653 309.25 54.9653 307Z" fill="#FAF8F2"/>
<path d="M118.764 280C119.736 280.33 120.708 280.66 121.709 281C118.794 283.475 118.794 283.475 115.82 286C115.172 285.01 114.524 284.02 113.857 283C116.127 281.438 116.127 281.438 118.764 280Z" fill="#FAF8F2"/>
</g>
<defs>
<clipPath id="clip0_16_3">
<rect width="425" height="425" fill="white"/>
</clipPath>
</defs>
</svg>
