<svg width="433" height="425" viewBox="0 0 433 425" fill="none" xmlns="http://www.w3.org/2000/svg">
<g clip-path="url(#clip0_16_3)">
<path d="M202.465 -0.203101C203.538 -0.208801 204.61 -0.214501 205.716 -0.220374C207.977 -0.229769 210.239 -0.236336 212.5 -0.240211C215.897 -0.249861 219.293 -0.280915 222.689 -0.312476C240.46 -0.400495 256.924 1.47184 274.062 6.25002C275.164 6.55303 276.265 6.85604 277.4 7.16824C286.874 9.84096 295.982 13.0654 305 17C305.698 17.2999 306.397 17.5998 307.117 17.9087C329.58 27.649 349.866 41.4371 367.423 58.4746C369.014 60.014 370.625 61.5304 372.238 63.0469C384.461 74.7117 394.802 88.2212 403 103C403.452 103.812 403.905 104.624 404.371 105.46C428.226 148.699 438.89 198.84 429.41 247.872C429.02 249.898 428.676 251.928 428.344 253.965C421.918 290.416 402.51 325.631 378 353C377.498 353.564 376.996 354.128 376.478 354.709C370.665 361.209 364.811 367.525 358 373C356.985 373.829 355.971 374.658 354.926 375.512C333.827 392.563 310.676 405.177 285 414C283.304 414.594 283.304 414.594 281.574 415.199C274.901 417.389 268.081 419.014 261.25 420.625C260.393 420.832 259.537 421.038 258.655 421.251C244.54 424.464 230.248 425.444 215.812 425.438C215.043 425.438 214.274 425.439 213.482 425.44C153.952 425.292 99.7391 398.343 58.2392 356.666C50.7462 348.961 44.1453 340.806 38 332C37.3658 331.112 36.7315 330.224 36.0781 329.309C25.6933 313.904 17.8851 296.652 11.7637 279.171C11.1222 277.347 10.4477 275.535 9.76561 273.727C-7.67857 225.822 -0.646263 169.158 19.8125 123.563C35.6372 90.2604 58.8125 60.5787 89 39C89.5562 38.5941 90.1124 38.1882 90.6855 37.77C122.535 14.7038 163.014 -0.0361648 202.465 -0.203101Z" fill="#333333"/>
<path d="M219 29.0001C265.41 27.3556 309.593 44.3912 343.699 75.8868C345.778 77.796 347.904 79.6198 350.062 81.4375C379.821 107.573 400.13 149.892 404 189C404.161 192.042 404.209 195.08 404.238 198.125C404.248 198.981 404.258 199.837 404.268 200.719C404.58 234.539 400.678 265.139 383.962 295.26C383.008 296.986 382.094 298.733 381.18 300.481C369.191 322.676 350.169 345.048 329 359C326.61 356.074 324.887 352.963 323.146 349.619C318.622 341.035 313.311 334.138 306.389 327.362C305.168 326.165 303.98 324.934 302.797 323.699C290.874 311.981 274.522 306.805 258.188 306.67C253.191 306.741 248.809 307.645 244 309C247.707 312.804 251.579 316.312 255.625 319.75C256.242 320.277 256.859 320.803 257.494 321.346C261.998 325.179 266.565 328.929 271.156 332.656C275.091 335.899 278.946 339.23 282.809 342.559C287.184 346.321 291.632 349.984 296.113 353.621C301.819 358.323 307.402 363.171 313 368C312 371 312 371 308.895 372.832C307.54 373.504 306.178 374.163 304.812 374.813C304.089 375.164 303.365 375.515 302.619 375.877C275.513 388.905 248.754 396.189 218.598 396.185C216.4 396.188 214.202 396.206 212.004 396.225C199.116 396.277 186.462 395.096 173.875 392.188C173.129 392.018 172.383 391.848 171.615 391.674C164.522 389.996 157.782 387.678 151 385C149.548 384.449 149.548 384.449 148.066 383.887C110.528 369.065 79.1405 341.599 56 309C56.33 308.34 56.66 307.68 57 307C58.0731 307.58 58.0731 307.58 59.168 308.172C77.2361 317.615 95.9973 320.587 116.125 320.375C116.934 320.37 117.742 320.364 118.575 320.359C162.378 320.022 201.712 304.923 234 275C234.518 274.526 235.035 274.053 235.568 273.564C264.851 246.509 285.394 206.128 287.125 166.099C288.433 123.702 276.374 83.5546 247.262 52.0118C239.495 43.812 230.829 37.024 221.09 31.2852C220.4 30.8611 219.711 30.437 219 30.0001C219 29.6701 219 29.3401 219 29.0001Z" fill="#FAF8F2"/>
<path d="M100 93C142.381 97.1368 188.124 118.52 216 151C232.061 171.484 241.607 194.777 240 221C238.848 229.262 235.665 237.259 229.008 242.598C227.039 243.872 225.114 244.986 223 246C222.273 246.365 221.546 246.73 220.797 247.105C201.904 253.148 179.704 244.31 163 236C161.925 235.47 160.85 234.94 159.742 234.395C153.615 231.211 148.268 227.45 143 223C142.21 222.355 141.42 221.711 140.605 221.047C115.55 199.74 103.25 166.948 100.246 134.88C99.3633 120.962 99.7876 106.937 100 93Z" fill="#FAF8F2"/>
<path d="M115 111C149.694 116.135 186.076 137.138 207.219 165.059C217.536 179.259 225.23 196.657 225.062 214.375C225.053 215.62 225.044 216.865 225.035 218.148C225.024 219.089 225.012 220.03 225 221C221.187 217.823 217.545 214.6 214.062 211.062C210.913 207.871 207.654 204.894 204.254 201.973C202.04 200.035 199.877 198.048 197.721 196.047C192.487 191.192 187.129 186.577 181.562 182.102C179.239 180.196 177.023 178.222 174.812 176.188C165.434 167.77 155.055 160.059 144 154C146.603 158.803 149.422 163.045 153 167.188C153.473 167.741 153.946 168.295 154.433 168.866C158.742 173.843 163.35 178.473 168.078 183.051C170.238 185.177 172.234 187.395 174.207 189.695C178.705 194.894 183.568 199.714 188.437 204.562C189.34 205.469 190.243 206.376 191.174 207.311C195.736 211.866 200.34 216.301 205.255 220.476C208.326 223.158 211.149 226.088 214 229C215.332 230.335 216.665 231.668 218 233C191.926 234.175 168.597 225.652 148.687 208.688C127.311 188.393 115.881 155.819 114.924 126.689C114.902 124.292 114.912 121.897 114.937 119.5C114.942 118.678 114.947 117.855 114.951 117.008C114.963 115.005 114.981 113.003 115 111Z" fill="#333333"/>
<path d="M373 202C373.484 227.832 364.498 255.76 346.473 274.648C333.284 287.251 318.232 294.383 300 294.312C299.162 294.329 298.324 294.345 297.461 294.361C291.475 294.366 286.551 293.215 281 291C281 289.68 281 288.36 281 287C282.992 285.316 282.992 285.316 285.875 283.562C291.211 280.176 296.385 276.65 301.5 272.938C302.632 272.116 302.632 272.116 303.787 271.278C312.933 264.619 322.02 257.882 331 251C331.67 250.487 332.34 249.974 333.03 249.446C334.763 248.106 336.479 246.747 338.187 245.375C339.57 244.273 339.57 244.273 340.98 243.148C343.253 240.73 343.708 239.263 344 236C321.728 246.807 300.01 258.728 279.534 272.68C278.726 273.23 277.918 273.781 277.086 274.348C275.985 275.108 275.985 275.108 274.861 275.883C273 277 273 277 271 277C270.63 269.669 271.086 263.759 274 257C274.329 256.21 274.657 255.42 274.996 254.605C284.518 233.684 304.834 221.964 325.527 214.164C337.463 209.978 349.849 207.027 362.098 203.906C363.226 203.616 363.226 203.616 364.377 203.32C367.331 202.58 369.942 202 373 202Z" fill="#333333"/>
<path d="M236 321C241.33 324.807 246.271 328.933 251.187 333.25C257.334 338.631 263.63 343.675 270.153 348.596C273.877 351.427 277.56 354.312 281.25 357.188C282.713 358.327 284.177 359.466 285.641 360.605C286.346 361.158 287.052 361.71 287.779 362.279C289.359 363.503 290.95 364.713 292.549 365.913C293.785 366.847 293.785 366.847 295.047 367.801C295.803 368.366 296.56 368.931 297.339 369.513C297.887 370.004 298.435 370.494 299 371C299 371.66 299 372.32 299 373C291.217 376.812 282.334 377.917 273.948 375.379C259.286 369.772 246.44 358.564 239.727 344.293C237.233 338.253 235.866 333.32 235.937 326.75C235.951 325.134 235.951 325.134 235.965 323.484C235.976 322.665 235.988 321.845 236 321Z" fill="#333333"/>
<path d="M97.25 223.938C98.8665 223.951 98.8665 223.951 100.516 223.965C101.335 223.977 102.155 223.988 103 224C100.507 225.662 98.5526 226.616 95.8125 227.688C88.3161 230.996 83.0428 235.689 79.6914 243.203C76.6265 251.169 77.7315 257.746 80.8828 265.559C84.0723 272.529 89.4041 275.52 96 279C104.406 281.802 112.442 280.119 120.297 276.5C124.015 274.437 127.032 272.026 130 269C130.556 268.446 131.111 267.891 131.684 267.32C132.118 266.885 132.552 266.449 133 266C130.931 274.276 125.073 281.336 118 286C108.219 290.732 98.9386 292.916 88.375 289.375C78.9688 285.56 72.9944 279.855 68 271C64.6218 262.847 64.5464 251.887 67.5 243.563C71.6349 234.945 78.2156 228.699 87 225C90.4334 223.863 93.6488 223.898 97.25 223.938Z" fill="#FAF8F2"/>
<path d="M162 57C165.058 58.2717 165.816 59.2564 168 62C168.735 65.1491 168.686 67.8447 168 71C166.206 73.8703 165.017 75.4913 162 77C157.993 77.5602 153.812 78.0839 150.23 75.9414C147.683 73.2328 146.664 70.5528 146.438 66.9375C147.052 62.6388 147.922 60.987 151 58C154.503 56.2485 158.178 56.4558 162 57Z" fill="#FAF8F2"/>
<path d="M204.5 339.312C208 340 208 340 211 342.562C213 346 213 346 213.062 349.688C212 353 212 353 210.438 354.938C206.908 356.476 203.779 356.821 200 356C197.009 353.458 196.158 351.843 195.438 348C196.449 342.607 199.213 340.351 204.5 339.312Z" fill="#333333"/>
<path d="M181 340C184.387 342.45 185.787 343.864 186.563 348C185.842 351.843 184.991 353.458 182 356C178.001 356.942 175.019 356.611 171.5 354.5C169.381 350.968 169.202 348.017 170 344C172.833 339.466 175.896 339.194 181 340Z" fill="#333333"/>
<path d="M359.875 149.438C364.165 150.21 366.081 151.803 369 155C369.688 158 369.688 158 369 161C366.997 163.879 365.493 165.607 362.027 166.52C359.938 166.688 359.938 166.688 356 166C352.998 162.925 352 161.188 352 156.875C353.545 152.433 355.171 150.358 359.875 149.438Z" fill="#333333"/>
<path d="M334 149.375C338.074 150.224 339.544 151.677 342 155C342.71 158.785 342.278 160.467 340.5 163.875C337.471 166.45 335.794 166.745 331.906 166.484C330 166 330 166 327.5 163.875C325.722 160.467 325.29 158.785 326 155C328.456 151.677 329.926 150.224 334 149.375Z" fill="#333333"/>
<path d="M215 77C217 79 217 79 217.312 81.9375C217 85 217 85 215.875 86.875C213.119 88.5286 211.149 88.3937 208 88C206.125 86.875 206.125 86.875 205 85C204.562 82 204.562 82 205 79C208.052 75.3609 210.646 75.7696 215 77Z" fill="#FAF8F2"/>
<path d="M63 153C64.8125 154.187 64.8125 154.187 66 156C66.4267 158.845 66.3607 160.364 64.9375 162.875C61.8843 164.648 59.3359 163.692 56 163C54.6664 156.575 54.6664 156.575 56.125 154.062C58.6365 152.639 60.155 152.573 63 153Z" fill="#FAF8F2"/>
<path d="M56.5625 191.188C59 192 59 192 61 194C61.3633 196.834 61.3569 198.405 59.875 200.875C58 202 58 202 54.875 201.75C52 201 52 201 51 200C50.5431 194.746 50.5431 194.746 52.1875 192.063C54 191 54 191 56.5625 191.188Z" fill="#FAF8F2"/>
<path d="M144 154C147.623 155.326 150.635 156.943 153.812 159.125C154.603 159.664 155.393 160.203 156.207 160.758C156.799 161.168 157.39 161.578 158 162C157.25 163.938 157.25 163.938 156 166C153.875 166.75 153.875 166.75 152 167C150.658 165.403 149.327 163.797 148 162.188C146.886 160.848 146.886 160.848 145.75 159.48C144 157 144 157 144 154Z" fill="#FAF8F2"/>
<path d="M103 224C100.526 225.649 98.5256 226.655 95.8125 227.75C90.9833 229.84 87.058 232.683 83 236C83 231.732 83.3761 231.061 86 228C85.67 227.34 85.34 226.68 85 226C90.8788 223.387 96.7073 223.817 103 224Z" fill="#FAF8F2"/>
<path d="M166.438 266.688C169 267 169 267 170.875 268.188C172 270 172 270 171.688 272.688C171.461 273.451 171.234 274.214 171 275C167.625 275.625 167.625 275.625 164 276C162 274 162 274 161.75 271.5C162.095 268.048 162.997 267.129 166.438 266.688Z" fill="#FAF8F2"/>
<path d="M252 131C255.297 131.33 256.623 131.623 259 134C258.444 138.556 258.444 138.556 257 140C254.063 140.25 254.063 140.25 251 140C249 137 249 137 249.25 134.938C250 133 250 133 252 131Z" fill="#FAF8F2"/>
<path d="M89 173C94.5682 173.568 94.5682 173.568 96 175C96.1875 177.438 96.1875 177.438 96 180C94 182 94 182 91.5 182.25C89 182 89 182 87 180C86.75 177.5 86.75 177.5 87 175C87.66 174.34 88.32 173.68 89 173Z" fill="#FAF8F2"/>
<path d="M132 266C132.33 266.66 132.66 267.32 133 268C131.891 270.383 131.891 270.383 130.25 273.125C129.453 274.49 129.453 274.49 128.641 275.883C128.099 276.581 127.558 277.28 127 278C126.01 278 125.02 278 124 278C124 275 124 275 126.312 272.562C127.643 271.294 127.643 271.294 129 270C130.028 268.688 131.041 267.363 132 266Z" fill="#FAF8F2"/>
<path d="M299 371C299.66 371 300.32 371 301 371C301 371.99 301 372.98 301 374C301.66 374.66 302.32 375.32 303 376C300.36 376.99 297.72 377.98 295 379C295.33 377.68 295.66 376.36 296 375C295.34 374.67 294.68 374.34 294 374C295.65 373.67 297.3 373.34 299 373C299 372.34 299 371.68 299 371Z" fill="#FAF8F2"/>
<path d="M144 154C147.375 155.186 149.647 156.276 152 159C150.68 159 149.36 159 148 159C147.67 159.66 147.34 160.32 147 161C144 157.375 144 157.375 144 154Z" fill="#FAF8F2"/>
<path d="M224 212C224.33 212 224.66 212 225 212C225 214.97 225 217.94 225 221C223.68 220.01 222.36 219.02 221 218C222.875 213.125 222.875 213.125 224 212Z" fill="#333333"/>
<path d="M56 307C57.98 307.99 59.96 308.98 62 310C61.34 311.32 60.68 312.64 60 314C56 309.25 56 309.25 56 307Z" fill="#FAF8F2"/>
<path d="M121 280C121.99 280.33 122.98 280.66 124 281C121.03 283.475 121.03 283.475 118 286C117.34 285.01 116.68 284.02 116 283C118.312 281.438 118.312 281.438 121 280Z" fill="#FAF8F2"/>
</g>
<defs>
<clipPath id="clip0_16_3">
<rect width="433" height="425" fill="white"/>
</clipPath>
</defs>
</svg>
