<svg width="14" height="361" viewBox="0 0 14 361" fill="none" xmlns="http://www.w3.org/2000/svg">
<g clip-path="url(#clip0_134_231)">
<line x1="12.998" y1="361.005" x2="12.998" y2="0.00488281" stroke="#3B392C"/>
<line y1="-0.5" x2="3" y2="-0.5" transform="matrix(-1 0 0 1 11 361)" stroke="#3B392C"/>
<line y1="-0.5" x2="3" y2="-0.5" transform="matrix(-1 0 0 1 11 358)" stroke="#3B392C"/>
<line y1="-0.5" x2="3" y2="-0.5" transform="matrix(-1 0 0 1 11 355)" stroke="#3B392C"/>
<line y1="-0.5" x2="3" y2="-0.5" transform="matrix(-1 0 0 1 11 352)" stroke="#3B392C"/>
<line y1="-0.5" x2="3" y2="-0.5" transform="matrix(-1 0 0 1 11 349)" stroke="#3B392C"/>
<line y1="-0.5" x2="3" y2="-0.5" transform="matrix(-1 0 0 1 11 346)" stroke="#3B392C"/>
<line y1="-0.5" x2="3" y2="-0.5" transform="matrix(-1 0 0 1 11 343)" stroke="#3B392C"/>
<line y1="-0.5" x2="3" y2="-0.5" transform="matrix(-1 0 0 1 11 340)" stroke="#3B392C"/>
<line y1="-0.5" x2="3" y2="-0.5" transform="matrix(-1 0 0 1 11 337)" stroke="#3B392C"/>
<line y1="-0.5" x2="3" y2="-0.5" transform="matrix(-1 0 0 1 11 334)" stroke="#3B392C"/>
<line y1="-0.5" x2="3" y2="-0.5" transform="matrix(-1 0 0 1 11 331)" stroke="#3B392C"/>
<line y1="-0.5" x2="3" y2="-0.5" transform="matrix(-1 0 0 1 11 328)" stroke="#3B392C"/>
<line y1="-0.5" x2="3" y2="-0.5" transform="matrix(-1 0 0 1 11 325)" stroke="#3B392C"/>
<line y1="-0.5" x2="3" y2="-0.5" transform="matrix(-1 0 0 1 11 322)" stroke="#3B392C"/>
<line y1="-0.5" x2="3" y2="-0.5" transform="matrix(-1 0 0 1 11 319)" stroke="#3B392C"/>
<line y1="-0.5" x2="3" y2="-0.5" transform="matrix(-1 0 0 1 11 316)" stroke="#3B392C"/>
<line y1="-0.5" x2="3" y2="-0.5" transform="matrix(-1 0 0 1 11 313)" stroke="#3B392C"/>
<line y1="-0.5" x2="3" y2="-0.5" transform="matrix(-1 0 0 1 11 310)" stroke="#3B392C"/>
<line y1="-0.5" x2="3" y2="-0.5" transform="matrix(-1 0 0 1 11 307)" stroke="#3B392C"/>
<line y1="-0.5" x2="3" y2="-0.5" transform="matrix(-1 0 0 1 11 304)" stroke="#3B392C"/>
<line y1="-0.5" x2="3" y2="-0.5" transform="matrix(-1 0 0 1 11 301)" stroke="#3B392C"/>
<line y1="-0.5" x2="3" y2="-0.5" transform="matrix(-1 0 0 1 11 298)" stroke="#3B392C"/>
<line y1="-0.5" x2="3" y2="-0.5" transform="matrix(-1 0 0 1 11 295)" stroke="#3B392C"/>
<line y1="-0.5" x2="3" y2="-0.5" transform="matrix(-1 0 0 1 11 292)" stroke="#3B392C"/>
<line y1="-0.5" x2="3" y2="-0.5" transform="matrix(-1 0 0 1 11 289)" stroke="#3B392C"/>
<line y1="-0.5" x2="3" y2="-0.5" transform="matrix(-1 0 0 1 11 286)" stroke="#3B392C"/>
<line y1="-0.5" x2="3" y2="-0.5" transform="matrix(-1 0 0 1 11 283)" stroke="#3B392C"/>
<line y1="-0.5" x2="3" y2="-0.5" transform="matrix(-1 0 0 1 11 280)" stroke="#3B392C"/>
<line y1="-0.5" x2="3" y2="-0.5" transform="matrix(-1 0 0 1 11 277)" stroke="#3B392C"/>
<line y1="-0.5" x2="3" y2="-0.5" transform="matrix(-1 0 0 1 11 274)" stroke="#3B392C"/>
<line y1="-0.5" x2="3" y2="-0.5" transform="matrix(-1 0 0 1 11 271)" stroke="#3B392C"/>
<line y1="-0.5" x2="3" y2="-0.5" transform="matrix(-1 0 0 1 11 268)" stroke="#3B392C"/>
<line y1="-0.5" x2="3" y2="-0.5" transform="matrix(-1 0 0 1 11 265)" stroke="#3B392C"/>
<line y1="-0.5" x2="3" y2="-0.5" transform="matrix(-1 0 0 1 11 262)" stroke="#3B392C"/>
<line y1="-0.5" x2="3" y2="-0.5" transform="matrix(-1 0 0 1 11 259)" stroke="#3B392C"/>
<line y1="-0.5" x2="3" y2="-0.5" transform="matrix(-1 0 0 1 11 256)" stroke="#3B392C"/>
<line y1="-0.5" x2="3" y2="-0.5" transform="matrix(-1 0 0 1 11 253)" stroke="#3B392C"/>
<line y1="-0.5" x2="3" y2="-0.5" transform="matrix(-1 0 0 1 11 250)" stroke="#3B392C"/>
<line y1="-0.5" x2="3" y2="-0.5" transform="matrix(-1 0 0 1 11 247)" stroke="#3B392C"/>
<line y1="-0.5" x2="3" y2="-0.5" transform="matrix(-1 0 0 1 11 244)" stroke="#3B392C"/>
<line y1="-0.5" x2="3" y2="-0.5" transform="matrix(-1 0 0 1 11 241)" stroke="#3B392C"/>
<line y1="-0.5" x2="3" y2="-0.5" transform="matrix(-1 0 0 1 11 238)" stroke="#3B392C"/>
<line y1="-0.5" x2="3" y2="-0.5" transform="matrix(-1 0 0 1 11 235)" stroke="#3B392C"/>
<line y1="-0.5" x2="3" y2="-0.5" transform="matrix(-1 0 0 1 11 232)" stroke="#3B392C"/>
<line y1="-0.5" x2="3" y2="-0.5" transform="matrix(-1 0 0 1 11 229)" stroke="#3B392C"/>
<line y1="-0.5" x2="3" y2="-0.5" transform="matrix(-1 0 0 1 11 226)" stroke="#3B392C"/>
<line y1="-0.5" x2="3" y2="-0.5" transform="matrix(-1 0 0 1 11 223)" stroke="#3B392C"/>
<line y1="-0.5" x2="3" y2="-0.5" transform="matrix(-1 0 0 1 11 220)" stroke="#3B392C"/>
<line y1="-0.5" x2="3" y2="-0.5" transform="matrix(-1 0 0 1 11 217)" stroke="#3B392C"/>
<line y1="-0.5" x2="3" y2="-0.5" transform="matrix(-1 0 0 1 11 214)" stroke="#3B392C"/>
<line y1="-0.5" x2="3" y2="-0.5" transform="matrix(-1 0 0 1 11 211)" stroke="#3B392C"/>
<line y1="-0.5" x2="3" y2="-0.5" transform="matrix(-1 0 0 1 11 208)" stroke="#3B392C"/>
<line y1="-0.5" x2="3" y2="-0.5" transform="matrix(-1 0 0 1 11 205)" stroke="#3B392C"/>
<line y1="-0.5" x2="3" y2="-0.5" transform="matrix(-1 0 0 1 11 202)" stroke="#3B392C"/>
<line y1="-0.5" x2="3" y2="-0.5" transform="matrix(-1 0 0 1 11 199)" stroke="#3B392C"/>
<line y1="-0.5" x2="3" y2="-0.5" transform="matrix(-1 0 0 1 11 196)" stroke="#3B392C"/>
<line y1="-0.5" x2="3" y2="-0.5" transform="matrix(-1 0 0 1 11 193)" stroke="#3B392C"/>
<line y1="-0.5" x2="3" y2="-0.5" transform="matrix(-1 0 0 1 11 190)" stroke="#3B392C"/>
<line y1="-0.5" x2="3" y2="-0.5" transform="matrix(-1 0 0 1 11 187)" stroke="#3B392C"/>
<line y1="-0.5" x2="3" y2="-0.5" transform="matrix(-1 0 0 1 11 184)" stroke="#3B392C"/>
<line y1="-0.5" x2="3" y2="-0.5" transform="matrix(-1 0 0 1 11 181)" stroke="#3B392C"/>
<line y1="-0.5" x2="3" y2="-0.5" transform="matrix(-1 0 0 1 11 178)" stroke="#3B392C"/>
<line y1="-0.5" x2="3" y2="-0.5" transform="matrix(-1 0 0 1 11 175)" stroke="#3B392C"/>
<line y1="-0.5" x2="3" y2="-0.5" transform="matrix(-1 0 0 1 11 172)" stroke="#3B392C"/>
<line y1="-0.5" x2="3" y2="-0.5" transform="matrix(-1 0 0 1 11 169)" stroke="#3B392C"/>
<line y1="-0.5" x2="3" y2="-0.5" transform="matrix(-1 0 0 1 11 166)" stroke="#3B392C"/>
<line y1="-0.5" x2="3" y2="-0.5" transform="matrix(-1 0 0 1 11 163)" stroke="#3B392C"/>
<line y1="-0.5" x2="3" y2="-0.5" transform="matrix(-1 0 0 1 11 160)" stroke="#3B392C"/>
<line y1="-0.5" x2="3" y2="-0.5" transform="matrix(-1 0 0 1 11 157)" stroke="#3B392C"/>
<line y1="-0.5" x2="3" y2="-0.5" transform="matrix(-1 0 0 1 11 154)" stroke="#3B392C"/>
<line y1="-0.5" x2="3" y2="-0.5" transform="matrix(-1 0 0 1 11 151)" stroke="#3B392C"/>
<line y1="-0.5" x2="3" y2="-0.5" transform="matrix(-1 0 0 1 11 148)" stroke="#3B392C"/>
<line y1="-0.5" x2="3" y2="-0.5" transform="matrix(-1 0 0 1 11 145)" stroke="#3B392C"/>
<line y1="-0.5" x2="3" y2="-0.5" transform="matrix(-1 0 0 1 11 142)" stroke="#3B392C"/>
<line y1="-0.5" x2="3" y2="-0.5" transform="matrix(-1 0 0 1 11 139)" stroke="#3B392C"/>
<line y1="-0.5" x2="3" y2="-0.5" transform="matrix(-1 0 0 1 11 136)" stroke="#3B392C"/>
<line y1="-0.5" x2="3" y2="-0.5" transform="matrix(-1 0 0 1 11 133)" stroke="#3B392C"/>
<line y1="-0.5" x2="3" y2="-0.5" transform="matrix(-1 0 0 1 11 130)" stroke="#3B392C"/>
<line y1="-0.5" x2="3" y2="-0.5" transform="matrix(-1 0 0 1 11 127)" stroke="#3B392C"/>
<line y1="-0.5" x2="3" y2="-0.5" transform="matrix(-1 0 0 1 11 124)" stroke="#3B392C"/>
<line y1="-0.5" x2="3" y2="-0.5" transform="matrix(-1 0 0 1 11 121)" stroke="#3B392C"/>
<line y1="-0.5" x2="3" y2="-0.5" transform="matrix(-1 0 0 1 11 118)" stroke="#3B392C"/>
<line y1="-0.5" x2="3" y2="-0.5" transform="matrix(-1 0 0 1 11 115)" stroke="#3B392C"/>
<line y1="-0.5" x2="3" y2="-0.5" transform="matrix(-1 0 0 1 11 112)" stroke="#3B392C"/>
<line y1="-0.5" x2="3" y2="-0.5" transform="matrix(-1 0 0 1 11 109)" stroke="#3B392C"/>
<line y1="-0.5" x2="3" y2="-0.5" transform="matrix(-1 0 0 1 11 106)" stroke="#3B392C"/>
<line y1="-0.5" x2="3" y2="-0.5" transform="matrix(-1 0 0 1 11 103)" stroke="#3B392C"/>
<line y1="-0.5" x2="3" y2="-0.5" transform="matrix(-1 0 0 1 11 100)" stroke="#3B392C"/>
<line y1="-0.5" x2="3" y2="-0.5" transform="matrix(-1 0 0 1 11 97)" stroke="#3B392C"/>
<line y1="-0.5" x2="3" y2="-0.5" transform="matrix(-1 0 0 1 11 94)" stroke="#3B392C"/>
<line y1="-0.5" x2="3" y2="-0.5" transform="matrix(-1 0 0 1 11 91)" stroke="#3B392C"/>
<line y1="-0.5" x2="3" y2="-0.5" transform="matrix(-1 0 0 1 11 88)" stroke="#3B392C"/>
<line y1="-0.5" x2="3" y2="-0.5" transform="matrix(-1 0 0 1 11 85)" stroke="#3B392C"/>
<line y1="-0.5" x2="3" y2="-0.5" transform="matrix(-1 0 0 1 11 82)" stroke="#3B392C"/>
<line y1="-0.5" x2="3" y2="-0.5" transform="matrix(-1 0 0 1 11 79)" stroke="#3B392C"/>
<line y1="-0.5" x2="3" y2="-0.5" transform="matrix(-1 0 0 1 11 76)" stroke="#3B392C"/>
<line y1="-0.5" x2="3" y2="-0.5" transform="matrix(-1 0 0 1 11 73)" stroke="#3B392C"/>
<line y1="-0.5" x2="3" y2="-0.5" transform="matrix(-1 0 0 1 11 70)" stroke="#3B392C"/>
<line y1="-0.5" x2="3" y2="-0.5" transform="matrix(-1 0 0 1 11 67)" stroke="#3B392C"/>
<line y1="-0.5" x2="3" y2="-0.5" transform="matrix(-1 0 0 1 11 64)" stroke="#3B392C"/>
<line y1="-0.5" x2="3" y2="-0.5" transform="matrix(-1 0 0 1 11 61)" stroke="#3B392C"/>
<line y1="-0.5" x2="3" y2="-0.5" transform="matrix(-1 0 0 1 11 58)" stroke="#3B392C"/>
<line y1="-0.5" x2="3" y2="-0.5" transform="matrix(-1 0 0 1 11 55)" stroke="#3B392C"/>
<line y1="-0.5" x2="3" y2="-0.5" transform="matrix(-1 0 0 1 11 52)" stroke="#3B392C"/>
<line y1="-0.5" x2="3" y2="-0.5" transform="matrix(-1 0 0 1 11 49)" stroke="#3B392C"/>
<line y1="-0.5" x2="3" y2="-0.5" transform="matrix(-1 0 0 1 11 46)" stroke="#3B392C"/>
<line y1="-0.5" x2="3" y2="-0.5" transform="matrix(-1 0 0 1 11 43)" stroke="#3B392C"/>
<line y1="-0.5" x2="3" y2="-0.5" transform="matrix(-1 0 0 1 11 40)" stroke="#3B392C"/>
<line y1="-0.5" x2="3" y2="-0.5" transform="matrix(-1 0 0 1 11 37)" stroke="#3B392C"/>
<line y1="-0.5" x2="3" y2="-0.5" transform="matrix(-1 0 0 1 11 34)" stroke="#3B392C"/>
<line y1="-0.5" x2="3" y2="-0.5" transform="matrix(-1 0 0 1 11 31)" stroke="#3B392C"/>
<line y1="-0.5" x2="3" y2="-0.5" transform="matrix(-1 0 0 1 11 28)" stroke="#3B392C"/>
<line y1="-0.5" x2="3" y2="-0.5" transform="matrix(-1 0 0 1 11 25)" stroke="#3B392C"/>
<line y1="-0.5" x2="3" y2="-0.5" transform="matrix(-1 0 0 1 11 22)" stroke="#3B392C"/>
<line y1="-0.5" x2="3" y2="-0.5" transform="matrix(-1 0 0 1 11 19)" stroke="#3B392C"/>
<line y1="-0.5" x2="3" y2="-0.5" transform="matrix(-1 0 0 1 11 16)" stroke="#3B392C"/>
<line y1="-0.5" x2="3" y2="-0.5" transform="matrix(-1 0 0 1 11 13)" stroke="#3B392C"/>
<line y1="-0.5" x2="3" y2="-0.5" transform="matrix(-1 0 0 1 11 10)" stroke="#3B392C"/>
<line y1="-0.5" x2="3" y2="-0.5" transform="matrix(-1 0 0 1 11 7)" stroke="#3B392C"/>
<line y1="-0.5" x2="3" y2="-0.5" transform="matrix(-1 0 0 1 11 4)" stroke="#3B392C"/>
<line y1="-0.5" x2="3" y2="-0.5" transform="matrix(-1 0 0 1 11 1)" stroke="#3B392C"/>
<line y1="-0.5" x2="6" y2="-0.5" transform="matrix(-1 0 0 1 6 361)" stroke="#3B392C"/>
<line y1="-0.5" x2="6" y2="-0.5" transform="matrix(-1 0 0 1 6 271)" stroke="#3B392C"/>
<line y1="-0.5" x2="6" y2="-0.5" transform="matrix(-1 0 0 1 6 181)" stroke="#3B392C"/>
<line y1="-0.5" x2="6" y2="-0.5" transform="matrix(-1 0 0 1 6 91)" stroke="#3B392C"/>
<line y1="-0.5" x2="6" y2="-0.5" transform="matrix(-1 0 0 1 6 1)" stroke="#3B392C"/>
</g>
<defs>
<clipPath id="clip0_134_231">
<rect width="361" height="14" fill="white" transform="matrix(0 -1 -1 0 14 361)"/>
</clipPath>
</defs>
</svg>
