<svg width="14" height="451" viewBox="0 0 14 451" fill="none" xmlns="http://www.w3.org/2000/svg">
<g clip-path="url(#clip0_160_12)">
<line x1="12.998" y1="451.005" x2="12.998" y2="0.00488281" stroke="#F47B32" stroke-opacity="0.75"/>
<line y1="-0.5" x2="3" y2="-0.5" transform="matrix(-1 0 0 1 11 451)" stroke="#F47B32" stroke-opacity="0.75"/>
<line y1="-0.5" x2="3" y2="-0.5" transform="matrix(-1 0 0 1 11 448)" stroke="#F47B32" stroke-opacity="0.75"/>
<line y1="-0.5" x2="3" y2="-0.5" transform="matrix(-1 0 0 1 11 445)" stroke="#F47B32" stroke-opacity="0.75"/>
<line y1="-0.5" x2="3" y2="-0.5" transform="matrix(-1 0 0 1 11 442)" stroke="#F47B32" stroke-opacity="0.75"/>
<line y1="-0.5" x2="3" y2="-0.5" transform="matrix(-1 0 0 1 11 439)" stroke="#F47B32" stroke-opacity="0.75"/>
<line y1="-0.5" x2="3" y2="-0.5" transform="matrix(-1 0 0 1 11 436)" stroke="#F47B32" stroke-opacity="0.75"/>
<line y1="-0.5" x2="3" y2="-0.5" transform="matrix(-1 0 0 1 11 433)" stroke="#F47B32" stroke-opacity="0.75"/>
<line y1="-0.5" x2="3" y2="-0.5" transform="matrix(-1 0 0 1 11 430)" stroke="#F47B32" stroke-opacity="0.75"/>
<line y1="-0.5" x2="3" y2="-0.5" transform="matrix(-1 0 0 1 11 427)" stroke="#F47B32" stroke-opacity="0.75"/>
<line y1="-0.5" x2="3" y2="-0.5" transform="matrix(-1 0 0 1 11 424)" stroke="#F47B32" stroke-opacity="0.75"/>
<line y1="-0.5" x2="3" y2="-0.5" transform="matrix(-1 0 0 1 11 421)" stroke="#F47B32" stroke-opacity="0.75"/>
<line y1="-0.5" x2="3" y2="-0.5" transform="matrix(-1 0 0 1 11 418)" stroke="#F47B32" stroke-opacity="0.75"/>
<line y1="-0.5" x2="3" y2="-0.5" transform="matrix(-1 0 0 1 11 415)" stroke="#F47B32" stroke-opacity="0.75"/>
<line y1="-0.5" x2="3" y2="-0.5" transform="matrix(-1 0 0 1 11 412)" stroke="#F47B32" stroke-opacity="0.75"/>
<line y1="-0.5" x2="3" y2="-0.5" transform="matrix(-1 0 0 1 11 409)" stroke="#F47B32" stroke-opacity="0.75"/>
<line y1="-0.5" x2="3" y2="-0.5" transform="matrix(-1 0 0 1 11 406)" stroke="#F47B32" stroke-opacity="0.75"/>
<line y1="-0.5" x2="3" y2="-0.5" transform="matrix(-1 0 0 1 11 403)" stroke="#F47B32" stroke-opacity="0.75"/>
<line y1="-0.5" x2="3" y2="-0.5" transform="matrix(-1 0 0 1 11 400)" stroke="#F47B32" stroke-opacity="0.75"/>
<line y1="-0.5" x2="3" y2="-0.5" transform="matrix(-1 0 0 1 11 397)" stroke="#F47B32" stroke-opacity="0.75"/>
<line y1="-0.5" x2="3" y2="-0.5" transform="matrix(-1 0 0 1 11 394)" stroke="#F47B32" stroke-opacity="0.75"/>
<line y1="-0.5" x2="3" y2="-0.5" transform="matrix(-1 0 0 1 11 391)" stroke="#F47B32" stroke-opacity="0.75"/>
<line y1="-0.5" x2="3" y2="-0.5" transform="matrix(-1 0 0 1 11 388)" stroke="#F47B32" stroke-opacity="0.75"/>
<line y1="-0.5" x2="3" y2="-0.5" transform="matrix(-1 0 0 1 11 385)" stroke="#F47B32" stroke-opacity="0.75"/>
<line y1="-0.5" x2="3" y2="-0.5" transform="matrix(-1 0 0 1 11 382)" stroke="#F47B32" stroke-opacity="0.75"/>
<line y1="-0.5" x2="3" y2="-0.5" transform="matrix(-1 0 0 1 11 379)" stroke="#F47B32" stroke-opacity="0.75"/>
<line y1="-0.5" x2="3" y2="-0.5" transform="matrix(-1 0 0 1 11 376)" stroke="#F47B32" stroke-opacity="0.75"/>
<line y1="-0.5" x2="3" y2="-0.5" transform="matrix(-1 0 0 1 11 373)" stroke="#F47B32" stroke-opacity="0.75"/>
<line y1="-0.5" x2="3" y2="-0.5" transform="matrix(-1 0 0 1 11 370)" stroke="#F47B32" stroke-opacity="0.75"/>
<line y1="-0.5" x2="3" y2="-0.5" transform="matrix(-1 0 0 1 11 367)" stroke="#F47B32" stroke-opacity="0.75"/>
<line y1="-0.5" x2="3" y2="-0.5" transform="matrix(-1 0 0 1 11 364)" stroke="#F47B32" stroke-opacity="0.75"/>
<line y1="-0.5" x2="3" y2="-0.5" transform="matrix(-1 0 0 1 11 361)" stroke="#F47B32" stroke-opacity="0.75"/>
<line y1="-0.5" x2="3" y2="-0.5" transform="matrix(-1 0 0 1 11 358)" stroke="#F47B32" stroke-opacity="0.75"/>
<line y1="-0.5" x2="3" y2="-0.5" transform="matrix(-1 0 0 1 11 355)" stroke="#F47B32" stroke-opacity="0.75"/>
<line y1="-0.5" x2="3" y2="-0.5" transform="matrix(-1 0 0 1 11 352)" stroke="#F47B32" stroke-opacity="0.75"/>
<line y1="-0.5" x2="3" y2="-0.5" transform="matrix(-1 0 0 1 11 349)" stroke="#F47B32" stroke-opacity="0.75"/>
<line y1="-0.5" x2="3" y2="-0.5" transform="matrix(-1 0 0 1 11 346)" stroke="#F47B32" stroke-opacity="0.75"/>
<line y1="-0.5" x2="3" y2="-0.5" transform="matrix(-1 0 0 1 11 343)" stroke="#F47B32" stroke-opacity="0.75"/>
<line y1="-0.5" x2="3" y2="-0.5" transform="matrix(-1 0 0 1 11 340)" stroke="#F47B32" stroke-opacity="0.75"/>
<line y1="-0.5" x2="3" y2="-0.5" transform="matrix(-1 0 0 1 11 337)" stroke="#F47B32" stroke-opacity="0.75"/>
<line y1="-0.5" x2="3" y2="-0.5" transform="matrix(-1 0 0 1 11 334)" stroke="#F47B32" stroke-opacity="0.75"/>
<line y1="-0.5" x2="3" y2="-0.5" transform="matrix(-1 0 0 1 11 331)" stroke="#F47B32" stroke-opacity="0.75"/>
<line y1="-0.5" x2="3" y2="-0.5" transform="matrix(-1 0 0 1 11 328)" stroke="#F47B32" stroke-opacity="0.75"/>
<line y1="-0.5" x2="3" y2="-0.5" transform="matrix(-1 0 0 1 11 325)" stroke="#F47B32" stroke-opacity="0.75"/>
<line y1="-0.5" x2="3" y2="-0.5" transform="matrix(-1 0 0 1 11 322)" stroke="#F47B32" stroke-opacity="0.75"/>
<line y1="-0.5" x2="3" y2="-0.5" transform="matrix(-1 0 0 1 11 319)" stroke="#F47B32" stroke-opacity="0.75"/>
<line y1="-0.5" x2="3" y2="-0.5" transform="matrix(-1 0 0 1 11 316)" stroke="#F47B32" stroke-opacity="0.75"/>
<line y1="-0.5" x2="3" y2="-0.5" transform="matrix(-1 0 0 1 11 313)" stroke="#F47B32" stroke-opacity="0.75"/>
<line y1="-0.5" x2="3" y2="-0.5" transform="matrix(-1 0 0 1 11 310)" stroke="#F47B32" stroke-opacity="0.75"/>
<line y1="-0.5" x2="3" y2="-0.5" transform="matrix(-1 0 0 1 11 307)" stroke="#F47B32" stroke-opacity="0.75"/>
<line y1="-0.5" x2="3" y2="-0.5" transform="matrix(-1 0 0 1 11 304)" stroke="#F47B32" stroke-opacity="0.75"/>
<line y1="-0.5" x2="3" y2="-0.5" transform="matrix(-1 0 0 1 11 301)" stroke="#F47B32" stroke-opacity="0.75"/>
<line y1="-0.5" x2="3" y2="-0.5" transform="matrix(-1 0 0 1 11 298)" stroke="#F47B32" stroke-opacity="0.75"/>
<line y1="-0.5" x2="3" y2="-0.5" transform="matrix(-1 0 0 1 11 295)" stroke="#F47B32" stroke-opacity="0.75"/>
<line y1="-0.5" x2="3" y2="-0.5" transform="matrix(-1 0 0 1 11 292)" stroke="#F47B32" stroke-opacity="0.75"/>
<line y1="-0.5" x2="3" y2="-0.5" transform="matrix(-1 0 0 1 11 289)" stroke="#F47B32" stroke-opacity="0.75"/>
<line y1="-0.5" x2="3" y2="-0.5" transform="matrix(-1 0 0 1 11 286)" stroke="#F47B32" stroke-opacity="0.75"/>
<line y1="-0.5" x2="3" y2="-0.5" transform="matrix(-1 0 0 1 11 283)" stroke="#F47B32" stroke-opacity="0.75"/>
<line y1="-0.5" x2="3" y2="-0.5" transform="matrix(-1 0 0 1 11 280)" stroke="#F47B32" stroke-opacity="0.75"/>
<line y1="-0.5" x2="3" y2="-0.5" transform="matrix(-1 0 0 1 11 277)" stroke="#F47B32" stroke-opacity="0.75"/>
<line y1="-0.5" x2="3" y2="-0.5" transform="matrix(-1 0 0 1 11 274)" stroke="#F47B32" stroke-opacity="0.75"/>
<line y1="-0.5" x2="3" y2="-0.5" transform="matrix(-1 0 0 1 11 271)" stroke="#F47B32" stroke-opacity="0.75"/>
<line y1="-0.5" x2="3" y2="-0.5" transform="matrix(-1 0 0 1 11 268)" stroke="#F47B32" stroke-opacity="0.75"/>
<line y1="-0.5" x2="3" y2="-0.5" transform="matrix(-1 0 0 1 11 265)" stroke="#F47B32" stroke-opacity="0.75"/>
<line y1="-0.5" x2="3" y2="-0.5" transform="matrix(-1 0 0 1 11 262)" stroke="#F47B32" stroke-opacity="0.75"/>
<line y1="-0.5" x2="3" y2="-0.5" transform="matrix(-1 0 0 1 11 259)" stroke="#F47B32" stroke-opacity="0.75"/>
<line y1="-0.5" x2="3" y2="-0.5" transform="matrix(-1 0 0 1 11 256)" stroke="#F47B32" stroke-opacity="0.75"/>
<line y1="-0.5" x2="3" y2="-0.5" transform="matrix(-1 0 0 1 11 253)" stroke="#F47B32" stroke-opacity="0.75"/>
<line y1="-0.5" x2="3" y2="-0.5" transform="matrix(-1 0 0 1 11 250)" stroke="#F47B32" stroke-opacity="0.75"/>
<line y1="-0.5" x2="3" y2="-0.5" transform="matrix(-1 0 0 1 11 247)" stroke="#F47B32" stroke-opacity="0.75"/>
<line y1="-0.5" x2="3" y2="-0.5" transform="matrix(-1 0 0 1 11 244)" stroke="#F47B32" stroke-opacity="0.75"/>
<line y1="-0.5" x2="3" y2="-0.5" transform="matrix(-1 0 0 1 11 241)" stroke="#F47B32" stroke-opacity="0.75"/>
<line y1="-0.5" x2="3" y2="-0.5" transform="matrix(-1 0 0 1 11 238)" stroke="#F47B32" stroke-opacity="0.75"/>
<line y1="-0.5" x2="3" y2="-0.5" transform="matrix(-1 0 0 1 11 235)" stroke="#F47B32" stroke-opacity="0.75"/>
<line y1="-0.5" x2="3" y2="-0.5" transform="matrix(-1 0 0 1 11 232)" stroke="#F47B32" stroke-opacity="0.75"/>
<line y1="-0.5" x2="3" y2="-0.5" transform="matrix(-1 0 0 1 11 229)" stroke="#F47B32" stroke-opacity="0.75"/>
<line y1="-0.5" x2="3" y2="-0.5" transform="matrix(-1 0 0 1 11 226)" stroke="#F47B32" stroke-opacity="0.75"/>
<line y1="-0.5" x2="3" y2="-0.5" transform="matrix(-1 0 0 1 11 223)" stroke="#F47B32" stroke-opacity="0.75"/>
<line y1="-0.5" x2="3" y2="-0.5" transform="matrix(-1 0 0 1 11 220)" stroke="#F47B32" stroke-opacity="0.75"/>
<line y1="-0.5" x2="3" y2="-0.5" transform="matrix(-1 0 0 1 11 217)" stroke="#F47B32" stroke-opacity="0.75"/>
<line y1="-0.5" x2="3" y2="-0.5" transform="matrix(-1 0 0 1 11 214)" stroke="#F47B32" stroke-opacity="0.75"/>
<line y1="-0.5" x2="3" y2="-0.5" transform="matrix(-1 0 0 1 11 211)" stroke="#F47B32" stroke-opacity="0.75"/>
<line y1="-0.5" x2="3" y2="-0.5" transform="matrix(-1 0 0 1 11 208)" stroke="#F47B32" stroke-opacity="0.75"/>
<line y1="-0.5" x2="3" y2="-0.5" transform="matrix(-1 0 0 1 11 205)" stroke="#F47B32" stroke-opacity="0.75"/>
<line y1="-0.5" x2="3" y2="-0.5" transform="matrix(-1 0 0 1 11 202)" stroke="#F47B32" stroke-opacity="0.75"/>
<line y1="-0.5" x2="3" y2="-0.5" transform="matrix(-1 0 0 1 11 199)" stroke="#F47B32" stroke-opacity="0.75"/>
<line y1="-0.5" x2="3" y2="-0.5" transform="matrix(-1 0 0 1 11 196)" stroke="#F47B32" stroke-opacity="0.75"/>
<line y1="-0.5" x2="3" y2="-0.5" transform="matrix(-1 0 0 1 11 193)" stroke="#F47B32" stroke-opacity="0.75"/>
<line y1="-0.5" x2="3" y2="-0.5" transform="matrix(-1 0 0 1 11 190)" stroke="#F47B32" stroke-opacity="0.75"/>
<line y1="-0.5" x2="3" y2="-0.5" transform="matrix(-1 0 0 1 11 187)" stroke="#F47B32" stroke-opacity="0.75"/>
<line y1="-0.5" x2="3" y2="-0.5" transform="matrix(-1 0 0 1 11 184)" stroke="#F47B32" stroke-opacity="0.75"/>
<line y1="-0.5" x2="3" y2="-0.5" transform="matrix(-1 0 0 1 11 181)" stroke="#F47B32" stroke-opacity="0.75"/>
<line y1="-0.5" x2="3" y2="-0.5" transform="matrix(-1 0 0 1 11 178)" stroke="#F47B32" stroke-opacity="0.75"/>
<line y1="-0.5" x2="3" y2="-0.5" transform="matrix(-1 0 0 1 11 175)" stroke="#F47B32" stroke-opacity="0.75"/>
<line y1="-0.5" x2="3" y2="-0.5" transform="matrix(-1 0 0 1 11 172)" stroke="#F47B32" stroke-opacity="0.75"/>
<line y1="-0.5" x2="3" y2="-0.5" transform="matrix(-1 0 0 1 11 169)" stroke="#F47B32" stroke-opacity="0.75"/>
<line y1="-0.5" x2="3" y2="-0.5" transform="matrix(-1 0 0 1 11 166)" stroke="#F47B32" stroke-opacity="0.75"/>
<line y1="-0.5" x2="3" y2="-0.5" transform="matrix(-1 0 0 1 11 163)" stroke="#F47B32" stroke-opacity="0.75"/>
<line y1="-0.5" x2="3" y2="-0.5" transform="matrix(-1 0 0 1 11 160)" stroke="#F47B32" stroke-opacity="0.75"/>
<line y1="-0.5" x2="3" y2="-0.5" transform="matrix(-1 0 0 1 11 157)" stroke="#F47B32" stroke-opacity="0.75"/>
<line y1="-0.5" x2="3" y2="-0.5" transform="matrix(-1 0 0 1 11 154)" stroke="#F47B32" stroke-opacity="0.75"/>
<line y1="-0.5" x2="3" y2="-0.5" transform="matrix(-1 0 0 1 11 151)" stroke="#F47B32" stroke-opacity="0.75"/>
<line y1="-0.5" x2="3" y2="-0.5" transform="matrix(-1 0 0 1 11 148)" stroke="#F47B32" stroke-opacity="0.75"/>
<line y1="-0.5" x2="3" y2="-0.5" transform="matrix(-1 0 0 1 11 145)" stroke="#F47B32" stroke-opacity="0.75"/>
<line y1="-0.5" x2="3" y2="-0.5" transform="matrix(-1 0 0 1 11 142)" stroke="#F47B32" stroke-opacity="0.75"/>
<line y1="-0.5" x2="3" y2="-0.5" transform="matrix(-1 0 0 1 11 139)" stroke="#F47B32" stroke-opacity="0.75"/>
<line y1="-0.5" x2="3" y2="-0.5" transform="matrix(-1 0 0 1 11 136)" stroke="#F47B32" stroke-opacity="0.75"/>
<line y1="-0.5" x2="3" y2="-0.5" transform="matrix(-1 0 0 1 11 133)" stroke="#F47B32" stroke-opacity="0.75"/>
<line y1="-0.5" x2="3" y2="-0.5" transform="matrix(-1 0 0 1 11 130)" stroke="#F47B32" stroke-opacity="0.75"/>
<line y1="-0.5" x2="3" y2="-0.5" transform="matrix(-1 0 0 1 11 127)" stroke="#F47B32" stroke-opacity="0.75"/>
<line y1="-0.5" x2="3" y2="-0.5" transform="matrix(-1 0 0 1 11 124)" stroke="#F47B32" stroke-opacity="0.75"/>
<line y1="-0.5" x2="3" y2="-0.5" transform="matrix(-1 0 0 1 11 121)" stroke="#F47B32" stroke-opacity="0.75"/>
<line y1="-0.5" x2="3" y2="-0.5" transform="matrix(-1 0 0 1 11 118)" stroke="#F47B32" stroke-opacity="0.75"/>
<line y1="-0.5" x2="3" y2="-0.5" transform="matrix(-1 0 0 1 11 115)" stroke="#F47B32" stroke-opacity="0.75"/>
<line y1="-0.5" x2="3" y2="-0.5" transform="matrix(-1 0 0 1 11 112)" stroke="#F47B32" stroke-opacity="0.75"/>
<line y1="-0.5" x2="3" y2="-0.5" transform="matrix(-1 0 0 1 11 109)" stroke="#F47B32" stroke-opacity="0.75"/>
<line y1="-0.5" x2="3" y2="-0.5" transform="matrix(-1 0 0 1 11 106)" stroke="#F47B32" stroke-opacity="0.75"/>
<line y1="-0.5" x2="3" y2="-0.5" transform="matrix(-1 0 0 1 11 103)" stroke="#F47B32" stroke-opacity="0.75"/>
<line y1="-0.5" x2="3" y2="-0.5" transform="matrix(-1 0 0 1 11 100)" stroke="#F47B32" stroke-opacity="0.75"/>
<line y1="-0.5" x2="3" y2="-0.5" transform="matrix(-1 0 0 1 11 97)" stroke="#F47B32" stroke-opacity="0.75"/>
<line y1="-0.5" x2="3" y2="-0.5" transform="matrix(-1 0 0 1 11 94)" stroke="#F47B32" stroke-opacity="0.75"/>
<line y1="-0.5" x2="3" y2="-0.5" transform="matrix(-1 0 0 1 11 91)" stroke="#F47B32" stroke-opacity="0.75"/>
<line y1="-0.5" x2="3" y2="-0.5" transform="matrix(-1 0 0 1 11 88)" stroke="#F47B32" stroke-opacity="0.75"/>
<line y1="-0.5" x2="3" y2="-0.5" transform="matrix(-1 0 0 1 11 85)" stroke="#F47B32" stroke-opacity="0.75"/>
<line y1="-0.5" x2="3" y2="-0.5" transform="matrix(-1 0 0 1 11 82)" stroke="#F47B32" stroke-opacity="0.75"/>
<line y1="-0.5" x2="3" y2="-0.5" transform="matrix(-1 0 0 1 11 79)" stroke="#F47B32" stroke-opacity="0.75"/>
<line y1="-0.5" x2="3" y2="-0.5" transform="matrix(-1 0 0 1 11 76)" stroke="#F47B32" stroke-opacity="0.75"/>
<line y1="-0.5" x2="3" y2="-0.5" transform="matrix(-1 0 0 1 11 73)" stroke="#F47B32" stroke-opacity="0.75"/>
<line y1="-0.5" x2="3" y2="-0.5" transform="matrix(-1 0 0 1 11 70)" stroke="#F47B32" stroke-opacity="0.75"/>
<line y1="-0.5" x2="3" y2="-0.5" transform="matrix(-1 0 0 1 11 67)" stroke="#F47B32" stroke-opacity="0.75"/>
<line y1="-0.5" x2="3" y2="-0.5" transform="matrix(-1 0 0 1 11 64)" stroke="#F47B32" stroke-opacity="0.75"/>
<line y1="-0.5" x2="3" y2="-0.5" transform="matrix(-1 0 0 1 11 61)" stroke="#F47B32" stroke-opacity="0.75"/>
<line y1="-0.5" x2="3" y2="-0.5" transform="matrix(-1 0 0 1 11 58)" stroke="#F47B32" stroke-opacity="0.75"/>
<line y1="-0.5" x2="3" y2="-0.5" transform="matrix(-1 0 0 1 11 55)" stroke="#F47B32" stroke-opacity="0.75"/>
<line y1="-0.5" x2="3" y2="-0.5" transform="matrix(-1 0 0 1 11 52)" stroke="#F47B32" stroke-opacity="0.75"/>
<line y1="-0.5" x2="3" y2="-0.5" transform="matrix(-1 0 0 1 11 49)" stroke="#F47B32" stroke-opacity="0.75"/>
<line y1="-0.5" x2="3" y2="-0.5" transform="matrix(-1 0 0 1 11 46)" stroke="#F47B32" stroke-opacity="0.75"/>
<line y1="-0.5" x2="3" y2="-0.5" transform="matrix(-1 0 0 1 11 43)" stroke="#F47B32" stroke-opacity="0.75"/>
<line y1="-0.5" x2="3" y2="-0.5" transform="matrix(-1 0 0 1 11 40)" stroke="#F47B32" stroke-opacity="0.75"/>
<line y1="-0.5" x2="3" y2="-0.5" transform="matrix(-1 0 0 1 11 37)" stroke="#F47B32" stroke-opacity="0.75"/>
<line y1="-0.5" x2="3" y2="-0.5" transform="matrix(-1 0 0 1 11 34)" stroke="#F47B32" stroke-opacity="0.75"/>
<line y1="-0.5" x2="3" y2="-0.5" transform="matrix(-1 0 0 1 11 31)" stroke="#F47B32" stroke-opacity="0.75"/>
<line y1="-0.5" x2="3" y2="-0.5" transform="matrix(-1 0 0 1 11 28)" stroke="#F47B32" stroke-opacity="0.75"/>
<line y1="-0.5" x2="3" y2="-0.5" transform="matrix(-1 0 0 1 11 25)" stroke="#F47B32" stroke-opacity="0.75"/>
<line y1="-0.5" x2="3" y2="-0.5" transform="matrix(-1 0 0 1 11 22)" stroke="#F47B32" stroke-opacity="0.75"/>
<line y1="-0.5" x2="3" y2="-0.5" transform="matrix(-1 0 0 1 11 19)" stroke="#F47B32" stroke-opacity="0.75"/>
<line y1="-0.5" x2="3" y2="-0.5" transform="matrix(-1 0 0 1 11 16)" stroke="#F47B32" stroke-opacity="0.75"/>
<line y1="-0.5" x2="3" y2="-0.5" transform="matrix(-1 0 0 1 11 13)" stroke="#F47B32" stroke-opacity="0.75"/>
<line y1="-0.5" x2="3" y2="-0.5" transform="matrix(-1 0 0 1 11 10)" stroke="#F47B32" stroke-opacity="0.75"/>
<line y1="-0.5" x2="3" y2="-0.5" transform="matrix(-1 0 0 1 11 7)" stroke="#F47B32" stroke-opacity="0.75"/>
<line y1="-0.5" x2="3" y2="-0.5" transform="matrix(-1 0 0 1 11 4)" stroke="#F47B32" stroke-opacity="0.75"/>
<line y1="-0.5" x2="3" y2="-0.5" transform="matrix(-1 0 0 1 11 1)" stroke="#F47B32" stroke-opacity="0.75"/>
<line y1="-0.5" x2="6" y2="-0.5" transform="matrix(-1 0 0 1 6 451)" stroke="#F47B32" stroke-opacity="0.75"/>
<line y1="-0.5" x2="6" y2="-0.5" transform="matrix(-1 0 0 1 6 361)" stroke="#F47B32" stroke-opacity="0.75"/>
<line y1="-0.5" x2="6" y2="-0.5" transform="matrix(-1 0 0 1 6 271)" stroke="#F47B32" stroke-opacity="0.75"/>
<line y1="-0.5" x2="6" y2="-0.5" transform="matrix(-1 0 0 1 6 181)" stroke="#F47B32" stroke-opacity="0.75"/>
<line y1="-0.5" x2="6" y2="-0.5" transform="matrix(-1 0 0 1 6 91)" stroke="#F47B32" stroke-opacity="0.75"/>
<line y1="-0.5" x2="6" y2="-0.5" transform="matrix(-1 0 0 1 6 1)" stroke="#F47B32" stroke-opacity="0.75"/>
</g>
<defs>
<clipPath id="clip0_160_12">
<rect width="451" height="14" fill="white" transform="matrix(0 -1 -1 0 14 451)"/>
</clipPath>
</defs>
</svg>
