<svg width="30" height="211" viewBox="0 0 30 211" fill="none" xmlns="http://www.w3.org/2000/svg">
<g clip-path="url(#clip0_129_114)">
<g clip-path="url(#clip1_129_114)">
<rect x="15.5" y="68.5" width="14" height="14" stroke="#3B392C"/>
<path d="M27.8222 73.2838C27.9142 73.3557 27.9729 73.4128 27.9935 73.5279C27.9941 73.5566 27.9942 73.5852 27.9938 73.6139C27.994 73.6298 27.9941 73.6456 27.9944 73.662C27.9949 73.715 27.9946 73.768 27.9944 73.821C27.9946 73.8591 27.9949 73.8972 27.9952 73.9352C27.9959 74.0386 27.9958 74.1419 27.9957 74.2452C27.9956 74.3315 27.9958 74.4179 27.996 74.5042C27.9966 74.708 27.9966 74.9117 27.9962 75.1154C27.9958 75.3254 27.9964 75.5354 27.9974 75.7453C27.9983 75.9258 27.9985 76.1062 27.9983 76.2867C27.9982 76.3944 27.9983 76.5021 27.999 76.6098C27.9996 76.7111 27.9995 76.8124 27.9988 76.9138C27.9987 76.9509 27.9988 76.988 27.9992 77.025C28.0026 77.3636 28.0026 77.3636 27.8686 77.5048C27.8558 77.5165 27.8431 77.5283 27.83 77.5404C27.8081 77.5633 27.7863 77.5863 27.7645 77.6094C27.7436 77.6297 27.7227 77.65 27.7016 77.6702C27.6169 77.7529 27.5366 77.8371 27.4599 77.9273C27.4021 77.9924 27.3394 78.0525 27.2775 78.1137C27.235 78.1568 27.1951 78.2009 27.1557 78.2468C27.0861 78.328 27.0111 78.4025 26.935 78.4776C26.8925 78.5207 26.8526 78.5648 26.8132 78.6107C26.7436 78.6919 26.6686 78.7664 26.5925 78.8415C26.55 78.8846 26.5101 78.9287 26.4707 78.9746C26.4011 79.0558 26.3261 79.1303 26.25 79.2054C26.2075 79.2485 26.1676 79.2926 26.1283 79.3385C26.0586 79.4197 25.9836 79.4942 25.9075 79.5693C25.8522 79.6254 25.8011 79.6844 25.7499 79.7443C25.6907 79.8106 25.6271 79.8722 25.5634 79.9341C25.4618 80.0387 25.422 80.0932 25.4225 80.2435C25.4224 80.2582 25.4222 80.273 25.4221 80.2882C25.4214 80.3509 25.4218 80.4135 25.4221 80.4762C25.4221 80.5222 25.4217 80.5681 25.4212 80.6141C25.4213 80.6414 25.4214 80.6688 25.4215 80.6969C25.4069 80.8039 25.3658 80.8685 25.2821 80.9363C25.1905 80.9781 25.1075 80.9745 25.008 80.974C24.9763 80.9742 24.9763 80.9742 24.944 80.9744C24.8743 80.9748 24.8046 80.9748 24.7349 80.9746C24.6864 80.9747 24.638 80.9748 24.5895 80.975C24.4878 80.9752 24.3862 80.9751 24.2846 80.9749C24.1544 80.9747 24.0243 80.9751 23.8941 80.9757C23.794 80.9761 23.6939 80.9761 23.5937 80.976C23.5457 80.976 23.4977 80.9761 23.4497 80.9764C23.3826 80.9767 23.3155 80.9765 23.2484 80.9761C23.2286 80.9763 23.2088 80.9765 23.1884 80.9767C23.0701 80.9754 22.9986 80.9615 22.9066 80.8797C22.8508 80.8016 22.8344 80.7482 22.8341 80.6526C22.8339 80.6287 22.8337 80.6048 22.8335 80.5801C22.8336 80.5541 22.8337 80.5281 22.8338 80.5012C22.8336 80.4737 22.8335 80.4461 22.8333 80.4177C22.8329 80.3422 22.833 80.2667 22.8331 80.1912C22.8332 80.1281 22.833 80.065 22.8329 80.0019C22.8326 79.853 22.8326 79.7042 22.8329 79.5553C22.8331 79.4019 22.8328 79.2484 22.8322 79.095C22.8318 78.9631 22.8316 78.8312 22.8318 78.6994C22.8318 78.6207 22.8318 78.542 22.8314 78.4633C22.831 78.3755 22.8313 78.2877 22.8317 78.1999C22.8315 78.1739 22.8313 78.1479 22.8311 78.1212C22.8322 77.9875 22.8347 77.9005 22.928 77.7973C22.9427 77.781 22.9427 77.781 22.9576 77.7645C22.9918 77.7274 23.0271 77.6917 23.0627 77.656C23.0827 77.6358 23.0827 77.6358 23.103 77.6152C23.1469 77.5708 23.1909 77.5266 23.2349 77.4824C23.2658 77.4514 23.2966 77.4204 23.3274 77.3893C23.3921 77.3243 23.4568 77.2594 23.5217 77.1945C23.604 77.112 23.6861 77.0292 23.768 76.9462C23.8317 76.882 23.8955 76.818 23.9595 76.754C23.9898 76.7236 24.02 76.6931 24.0501 76.6625C24.3901 76.3179 24.7855 76.0297 25.2897 76.012C25.3351 76.0119 25.3805 76.012 25.4259 76.0125C25.4486 76.0123 25.4714 76.012 25.4948 76.0118C25.6392 76.0123 25.8024 76.0151 25.9168 76.1151C26.0142 76.2269 26.041 76.3597 26.033 76.5055C26.0012 76.7053 25.7948 76.8512 25.6561 76.9827C25.6197 77.0185 25.5833 77.0543 25.547 77.0902C25.4517 77.1841 25.3554 77.277 25.2589 77.3697C25.1415 77.4828 25.0253 77.5969 24.9089 77.7109C24.8184 77.7995 24.7277 77.888 24.6365 77.9759C24.6199 77.992 24.6032 78.0082 24.586 78.0249C24.5548 78.055 24.5236 78.0851 24.4922 78.115C24.4785 78.1284 24.4647 78.1417 24.4506 78.1555C24.4326 78.1727 24.4326 78.1727 24.4143 78.1903C24.338 78.2776 24.3304 78.3596 24.3326 78.472C24.3483 78.573 24.4067 78.6223 24.4867 78.6829C24.5596 78.7038 24.6308 78.7118 24.7047 78.6963C24.8214 78.628 24.9112 78.5389 25.0063 78.4435C25.0231 78.4267 25.04 78.41 25.0573 78.3927C25.1128 78.3375 25.1682 78.2822 25.2235 78.2268C25.2621 78.1883 25.3007 78.1498 25.3393 78.1113C25.42 78.0307 25.5007 77.95 25.5813 77.8693C25.6744 77.7761 25.7677 77.683 25.8611 77.5901C25.9511 77.5005 26.041 77.4107 26.1308 77.3209C26.1689 77.2827 26.2071 77.2446 26.2454 77.2066C26.2988 77.1535 26.3519 77.1001 26.4051 77.0468C26.4209 77.0311 26.4368 77.0154 26.4531 76.9992C26.4676 76.9846 26.4821 76.97 26.497 76.9549C26.5095 76.9423 26.5221 76.9298 26.5351 76.9168C26.5944 76.8426 26.6152 76.7694 26.6157 76.6755C26.616 76.6482 26.616 76.6482 26.6163 76.6204C26.6163 76.6007 26.6164 76.581 26.6164 76.5607C26.6166 76.5293 26.6166 76.5293 26.6169 76.4972C26.6175 76.4277 26.6177 76.3583 26.618 76.2889C26.6183 76.2402 26.6187 76.1916 26.6191 76.143C26.6201 76.0146 26.6208 75.8862 26.6215 75.7579C26.6226 75.5537 26.624 75.3496 26.6255 75.1455C26.626 75.0748 26.6264 75.0042 26.6267 74.9336C26.628 74.717 26.6313 74.5006 26.6401 74.2841C26.6408 74.2649 26.6415 74.2457 26.6422 74.2259C26.6529 73.9905 26.7247 73.81 26.8668 73.6231C26.8822 73.601 26.8977 73.5789 26.9136 73.5562C27.1116 73.3284 27.5299 73.1559 27.8222 73.2838Z" fill="#3B392C"/>
<path d="M17.7346 73.3161C18.0348 73.4666 18.2187 73.6647 18.3258 73.9863C18.3477 74.0592 18.3513 74.1277 18.3537 74.2036C18.3546 74.2309 18.3554 74.2581 18.3563 74.2862C18.3571 74.3166 18.3579 74.347 18.3587 74.3773C18.3592 74.393 18.3596 74.4087 18.3601 74.4249C18.3682 74.7156 18.3712 75.0063 18.3731 75.2971C18.3734 75.3403 18.3737 75.3835 18.3741 75.4267C18.3753 75.6038 18.3765 75.7809 18.3772 75.958C18.3777 76.0682 18.3784 76.1784 18.3794 76.2886C18.3797 76.3301 18.3799 76.3716 18.3799 76.4131C18.38 76.4705 18.3805 76.5279 18.3811 76.5853C18.381 76.6021 18.381 76.6189 18.3809 76.6363C18.3839 76.8355 18.4854 76.9381 18.6213 77.0726C18.6468 77.0982 18.6468 77.0982 18.6728 77.1243C18.7289 77.1806 18.7852 77.2366 18.8415 77.2926C18.8805 77.3316 18.9196 77.3707 18.9586 77.4098C19.0404 77.4916 19.1223 77.5732 19.2043 77.6548C19.299 77.7491 19.3936 77.8436 19.488 77.9381C19.579 78.0292 19.6701 78.1202 19.7613 78.2111C19.8 78.2498 19.8387 78.2885 19.8774 78.3272C19.9314 78.3812 19.9855 78.4351 20.0397 78.4889C20.0557 78.505 20.0717 78.521 20.0882 78.5376C20.103 78.5522 20.1178 78.5668 20.133 78.5819C20.1458 78.5947 20.1586 78.6074 20.1718 78.6205C20.2507 78.6881 20.3181 78.7053 20.423 78.7025C20.5118 78.6885 20.5717 78.636 20.63 78.5707C20.6642 78.5162 20.6683 78.4841 20.6684 78.4201C20.6688 78.4025 20.6693 78.3849 20.6697 78.3667C20.6426 78.2231 20.5188 78.1225 20.418 78.0253C20.4025 78.0102 20.387 77.9951 20.371 77.9795C20.3375 77.9468 20.304 77.9141 20.2704 77.8815C20.1805 77.7941 20.0912 77.706 20.0018 77.618C19.8881 77.5063 19.7743 77.3947 19.6598 77.2837C19.5672 77.1939 19.4752 77.1035 19.3835 77.0127C19.3485 76.9782 19.3133 76.944 19.2779 76.9099C19.2284 76.8623 19.1796 76.8141 19.131 76.7655C19.1163 76.7517 19.1015 76.7379 19.0863 76.7236C19.0291 76.6653 18.992 76.6263 18.9843 76.543C18.9977 76.3822 19.0471 76.2516 19.1673 76.1417C19.303 76.027 19.4388 76.0085 19.6102 76.0105C19.63 76.0107 19.6499 76.0109 19.6703 76.0111C19.9149 76.0172 20.1248 76.0798 20.3447 76.1858C20.358 76.1922 20.3713 76.1986 20.385 76.2052C20.644 76.3386 20.8439 76.5623 21.047 76.7661C21.0778 76.7969 21.1086 76.8276 21.1394 76.8583C21.2035 76.9224 21.2676 76.9865 21.3315 77.0507C21.4135 77.133 21.4957 77.215 21.578 77.297C21.6414 77.3603 21.7048 77.4237 21.7681 77.4871C21.7983 77.5174 21.8287 77.5477 21.859 77.5779C21.9013 77.6201 21.9434 77.6624 21.9855 77.7047C21.998 77.7171 22.0105 77.7296 22.0234 77.7424C22.1218 77.8418 22.1627 77.9022 22.1632 78.0426C22.1635 78.0784 22.1635 78.0784 22.1638 78.115C22.1637 78.1541 22.1637 78.1541 22.1637 78.1941C22.1638 78.2217 22.164 78.2492 22.1641 78.2776C22.1645 78.3532 22.1646 78.4288 22.1646 78.5044C22.1647 78.5516 22.1648 78.5989 22.1649 78.6461C22.1653 78.811 22.1655 78.9759 22.1654 79.1408C22.1654 79.2944 22.1658 79.448 22.1665 79.6016C22.1671 79.7336 22.1673 79.8655 22.1673 79.9975C22.1673 80.0763 22.1674 80.1551 22.1678 80.2338C22.1683 80.3217 22.1681 80.4096 22.1679 80.4975C22.1681 80.5235 22.1684 80.5495 22.1686 80.5764C22.1669 80.8011 22.1669 80.8011 22.0719 80.9005C21.9765 80.9831 21.8743 80.9739 21.7543 80.9734C21.7226 80.9736 21.7226 80.9736 21.6903 80.9738C21.6206 80.9742 21.551 80.9741 21.4813 80.974C21.4328 80.9741 21.3843 80.9742 21.3358 80.9743C21.2342 80.9745 21.1326 80.9745 21.031 80.9743C20.9008 80.974 20.7706 80.9744 20.6405 80.9751C20.5403 80.9755 20.4402 80.9755 20.3401 80.9753C20.2921 80.9753 20.2441 80.9755 20.1961 80.9757C20.129 80.976 20.0619 80.9758 19.9947 80.9755C19.9749 80.9757 19.9552 80.9759 19.9348 80.9761C19.8159 80.9747 19.7471 80.9588 19.653 80.8791C19.5839 80.7937 19.5824 80.7295 19.5868 80.6215C19.5875 80.5921 19.5881 80.5626 19.5886 80.5332C19.5889 80.5179 19.5892 80.5027 19.5895 80.4871C19.6008 80.1987 19.6008 80.1987 19.4817 79.9472C19.4273 79.896 19.3712 79.8523 19.3105 79.8088C19.2827 79.7822 19.2554 79.7551 19.2289 79.7272C19.2174 79.7159 19.206 79.7047 19.1942 79.6931C19.1572 79.6554 19.1228 79.6161 19.0884 79.576C19.0329 79.5116 18.975 79.4511 18.9145 79.3914C18.8415 79.3194 18.7737 79.245 18.7071 79.1673C18.6638 79.1187 18.6183 79.0731 18.572 79.0275C18.499 78.9555 18.4312 78.8811 18.3646 78.8034C18.3213 78.7548 18.2758 78.7092 18.2295 78.6636C18.1565 78.5916 18.0887 78.5172 18.0221 78.4395C17.9788 78.3909 17.9333 78.3453 17.887 78.2997C17.814 78.2277 17.7462 78.1533 17.6796 78.0756C17.6363 78.027 17.5908 77.9814 17.5445 77.9358C17.4716 77.8639 17.4038 77.7896 17.3374 77.7118C17.2784 77.646 17.2148 77.5852 17.1509 77.5242C17.0505 77.4162 17.0072 77.3324 17.0087 77.1849C17.0085 77.169 17.0084 77.1531 17.0082 77.1367C17.0077 77.0837 17.0078 77.0306 17.0079 76.9776C17.0077 76.9395 17.0075 76.9013 17.0072 76.8632C17.0065 76.7598 17.0064 76.6564 17.0064 76.553C17.0064 76.4666 17.0061 76.3802 17.0059 76.2938C17.0053 76.09 17.0052 75.8861 17.0053 75.6823C17.0055 75.4722 17.0048 75.262 17.0036 75.0519C17.0027 74.8713 17.0024 74.6908 17.0025 74.5102C17.0025 74.4024 17.0023 74.2946 17.0016 74.1869C17.0009 74.0855 17.0009 73.9841 17.0015 73.8827C17.0016 73.8456 17.0015 73.8085 17.001 73.7713C16.9976 73.4561 16.9976 73.4561 17.0921 73.3435C17.2519 73.1927 17.5477 73.2362 17.7346 73.3161Z" fill="#3B392C"/>
<path d="M25.39 71.8037C25.392 72.2118 25.3935 72.6198 25.3945 73.0279C25.3949 73.2174 25.3955 73.4068 25.3965 73.5963C25.3973 73.7615 25.3979 73.9266 25.3981 74.0918C25.3982 74.1792 25.3984 74.2666 25.3991 74.3541C25.3997 74.4364 25.3998 74.5187 25.3997 74.6011C25.3997 74.6312 25.3999 74.6614 25.4002 74.6916C25.4026 74.9183 25.4026 74.9183 25.3604 75.026C25.2775 75.1042 25.1847 75.1504 25.0828 75.2003C25.0609 75.2113 25.039 75.2224 25.0164 75.2338C24.9708 75.2568 24.9251 75.2796 24.8793 75.3024C24.8167 75.3334 24.7544 75.3648 24.6921 75.3964C24.5729 75.4568 24.4534 75.5165 24.3339 75.5762C24.2905 75.5979 24.2471 75.6196 24.2037 75.6413C24.1141 75.6862 24.0244 75.731 23.9347 75.7758C23.8195 75.8333 23.7044 75.8909 23.5893 75.9485C23.5003 75.9931 23.4112 76.0376 23.3222 76.0821C23.2797 76.1033 23.2371 76.1246 23.1946 76.1459C23.1358 76.1753 23.077 76.2047 23.0181 76.2341C23.0005 76.2429 22.983 76.2517 22.9649 76.2608C22.8451 76.3204 22.8451 76.3204 22.8213 76.3204C22.8213 75.2467 22.8213 74.1729 22.8213 73.0667C23.2372 72.8583 23.6531 72.6499 24.0816 72.4352C24.2788 72.3363 24.2788 72.3363 24.48 72.2354C24.6401 72.1552 24.6401 72.1552 24.715 72.1178C24.7675 72.0915 24.82 72.0652 24.8725 72.0388C24.9518 71.999 25.0311 71.9593 25.1105 71.9196C25.134 71.9078 25.1575 71.896 25.1817 71.8838C25.203 71.8732 25.2242 71.8626 25.2462 71.8517C25.2647 71.8423 25.2833 71.833 25.3025 71.8234C25.3472 71.8037 25.3472 71.8037 25.39 71.8037Z" fill="#3B392C"/>
<path d="M19.6103 71.8037C19.6927 71.8298 19.7696 71.8593 19.8468 71.898C19.8675 71.9083 19.8882 71.9186 19.9095 71.9292C19.9319 71.9405 19.9543 71.9518 19.9773 71.9634C20.0015 71.9755 20.0257 71.9876 20.0507 72.0001C20.1159 72.0327 20.1811 72.0654 20.2462 72.0981C20.3075 72.1289 20.3688 72.1595 20.4301 72.1902C20.6091 72.2798 20.788 72.3695 20.9669 72.4593C21.3669 72.6597 21.7669 72.8602 22.179 73.0667C22.179 74.1404 22.179 75.2141 22.179 76.3204C21.7108 76.0986 21.7108 76.0986 21.5431 76.0152C21.5236 76.0055 21.5041 75.9959 21.484 75.9859C21.4214 75.9549 21.3588 75.9237 21.2962 75.8926C21.2745 75.8818 21.2528 75.871 21.2305 75.8599C21.1162 75.8031 21.002 75.7462 20.8878 75.6892C20.7938 75.6424 20.6997 75.5956 20.6056 75.549C20.4909 75.4922 20.3764 75.4352 20.2619 75.378C20.2185 75.3564 20.1751 75.3349 20.1317 75.3134C20.0712 75.2835 20.0109 75.2533 19.9506 75.2231C19.9239 75.21 19.9239 75.21 19.8966 75.1967C19.7734 75.1344 19.688 75.067 19.6103 74.9504C19.605 74.8934 19.605 74.8934 19.6052 74.8232C19.6051 74.7967 19.605 74.7701 19.605 74.7427C19.6051 74.7132 19.6053 74.6837 19.6054 74.6543C19.6055 74.6232 19.6055 74.5922 19.6054 74.5612C19.6054 74.477 19.6057 74.3927 19.606 74.3085C19.6062 74.2205 19.6063 74.1324 19.6063 74.0444C19.6064 73.8777 19.6068 73.711 19.6072 73.5443C19.6077 73.3545 19.6079 73.1647 19.6082 72.975C19.6086 72.5845 19.6094 72.1941 19.6103 71.8037Z" fill="#3B392C"/>
<path d="M22.8151 70.0829C22.837 70.0943 22.8589 70.1057 22.8815 70.1175C22.9053 70.1294 22.9292 70.1413 22.9537 70.1536C23.0184 70.186 23.0828 70.2188 23.1471 70.2519C23.2146 70.2864 23.2825 70.3204 23.3502 70.3545C23.4783 70.4189 23.606 70.4838 23.7337 70.5489C23.8792 70.6231 24.0249 70.6967 24.1707 70.7702C24.4703 70.9214 24.7696 71.0733 25.0686 71.2256C25.0419 71.3057 25.0231 71.3087 24.9496 71.3458C24.918 71.362 24.918 71.362 24.8857 71.3785C24.8623 71.3901 24.839 71.4018 24.8149 71.4138C24.7905 71.4261 24.7661 71.4385 24.7409 71.4513C24.6738 71.4854 24.6065 71.5191 24.5392 71.5528C24.483 71.5809 24.427 71.6092 24.3709 71.6374C24.2385 71.704 24.106 71.7704 23.9735 71.8366C23.8367 71.905 23.7002 71.9738 23.5638 72.0429C23.4467 72.1021 23.3294 72.161 23.2121 72.2197C23.1419 72.2547 23.0719 72.2899 23.002 72.3254C22.924 72.365 22.8457 72.4039 22.7674 72.4427C22.7443 72.4546 22.7211 72.4665 22.6973 72.4787C22.5413 72.5551 22.5413 72.5551 22.4566 72.5455C22.4355 72.5338 22.4145 72.5221 22.3928 72.51C22.3569 72.4929 22.3209 72.4759 22.2849 72.459C22.2414 72.4374 22.198 72.4158 22.1546 72.3941C22.1308 72.3823 22.107 72.3705 22.0825 72.3584C22.0176 72.3261 21.9527 72.2938 21.8878 72.2614C21.8472 72.2411 21.8067 72.2209 21.7661 72.2007C21.6246 72.1302 21.4831 72.0597 21.3417 71.989C21.2099 71.9231 21.0779 71.8574 20.9459 71.7919C20.8325 71.7355 20.7191 71.679 20.6059 71.6224C20.5382 71.5886 20.4706 71.5549 20.4028 71.5213C20.3274 71.4839 20.2522 71.4462 20.177 71.4085C20.1544 71.3974 20.1319 71.3862 20.1087 71.3748C20.0883 71.3645 20.0679 71.3542 20.0469 71.3436C20.0202 71.3303 20.0202 71.3303 19.9929 71.3167C19.9526 71.2898 19.9526 71.2898 19.9312 71.2256C20.2446 71.0659 20.5583 70.9068 20.8724 70.7484C21.0182 70.6748 21.1639 70.601 21.3095 70.5268C21.4364 70.462 21.5634 70.3977 21.6908 70.3337C21.7581 70.2999 21.8253 70.2659 21.8924 70.2315C21.9674 70.1929 22.0428 70.1552 22.1183 70.1175C22.1402 70.1061 22.1621 70.0947 22.1846 70.0829C22.4095 69.9724 22.5902 69.9724 22.8151 70.0829Z" fill="#3B392C"/>
<rect x="15.5" y="88.5" width="14" height="14" stroke="#3B392C"/>
<path d="M27.1276 93.5156C27.1872 93.5721 27.2336 93.6257 27.2749 93.6965C27.2906 93.723 27.2906 93.723 27.3065 93.7501C27.3175 93.769 27.3285 93.788 27.3399 93.8075C27.3639 93.8481 27.3879 93.8888 27.412 93.9294C27.4242 93.9499 27.4364 93.9705 27.449 93.9916C27.5029 94.0815 27.5587 94.1701 27.6149 94.2585C27.6258 94.2755 27.6366 94.2926 27.6477 94.3102C27.6705 94.3461 27.6934 94.3821 27.7162 94.418C27.8414 94.6154 27.9659 94.8133 28.0883 95.0125C28.0989 95.0298 28.1096 95.0471 28.1206 95.065C28.3089 95.3748 28.4484 95.6984 28.4527 96.0653C28.4534 96.083 28.454 96.1007 28.4547 96.1189C28.4574 96.3738 28.3354 96.5816 28.2112 96.797C28.1973 96.8213 28.1834 96.8457 28.1692 96.8708C28.1275 96.944 28.0856 97.0171 28.0436 97.0902C28.0211 97.1297 27.9986 97.1693 27.9761 97.2088C27.9094 97.3258 27.8425 97.4426 27.7755 97.5594C27.7168 97.6617 27.6582 97.7641 27.5996 97.8665C27.592 97.8798 27.5844 97.893 27.5766 97.9067C27.4691 98.0946 27.3628 98.2833 27.2575 98.4726C27.1543 98.6576 27.0493 98.8415 26.9419 99.0241C26.9294 99.0454 26.917 99.0667 26.9041 99.0886C26.8927 99.1079 26.8813 99.1272 26.8696 99.1471C26.8595 99.1641 26.8494 99.1811 26.8391 99.1987C26.8311 99.2106 26.8231 99.2226 26.8148 99.2349C26.8075 99.2349 26.8001 99.2349 26.7925 99.2349C26.7957 99.2096 26.799 99.1843 26.8023 99.1581C26.8741 98.486 26.7183 98.0003 26.356 97.435C26.2709 97.302 26.1881 97.1675 26.1055 97.0329C26.0904 97.0084 26.0754 96.9839 26.0598 96.9586C26.029 96.9083 25.9982 96.8581 25.9673 96.8079C25.8925 96.686 25.8175 96.5641 25.7425 96.4423C25.7127 96.3939 25.6829 96.3455 25.6531 96.2971C25.6384 96.2731 25.6236 96.2492 25.6084 96.2245C25.5414 96.1156 25.5414 96.1156 25.4744 96.0067C25.4596 95.9827 25.4448 95.9587 25.4296 95.9339C25.4001 95.8859 25.3706 95.8379 25.3412 95.7899C25.2713 95.6759 25.2009 95.5622 25.1289 95.4495C25.0948 95.396 25.0609 95.3423 25.027 95.2886C25.0029 95.2506 24.9783 95.2128 24.9538 95.175C24.9394 95.152 24.925 95.1291 24.9101 95.1055C24.8972 95.0853 24.8842 95.0652 24.8709 95.0444C24.8488 94.9901 24.8488 94.9901 24.862 94.9418C24.8974 94.8956 24.9279 94.8732 24.9783 94.8444C24.9958 94.8342 25.0133 94.824 25.0313 94.8135C25.0503 94.8027 25.0694 94.7919 25.089 94.7807C25.13 94.7567 25.1709 94.7327 25.2119 94.7087C25.2438 94.69 25.2438 94.69 25.2763 94.6709C25.3791 94.6096 25.4798 94.5451 25.5805 94.4805C25.8189 94.3279 26.0587 94.1777 26.2989 94.0279C26.3704 93.9833 26.4418 93.9386 26.5132 93.8939C26.5371 93.8789 26.5609 93.864 26.5855 93.8486C26.6307 93.8203 26.676 93.7919 26.7212 93.7636C26.8558 93.6793 26.9912 93.5968 27.1276 93.5156Z" fill="#3B392C"/>
<path d="M20.9363 90.0003C20.9574 90.0003 20.9784 90.0002 21.0002 90.0002C21.0697 90.0001 21.1392 90.0005 21.2087 90.001C21.2581 90.001 21.3075 90.0011 21.3569 90.0011C21.4608 90.0012 21.5648 90.0015 21.6688 90.002C21.7987 90.0026 21.9287 90.0029 22.0587 90.003C22.721 90.0036 23.3829 90.0129 24.0449 90.0306C23.9913 90.0843 23.954 90.0918 23.8816 90.113C23.6299 90.1947 23.4156 90.3245 23.2183 90.4998C23.2041 90.5124 23.1899 90.525 23.1753 90.538C22.996 90.7074 22.8764 90.9237 22.7589 91.1379C22.7314 91.1875 22.704 91.2371 22.6765 91.2866C22.6626 91.3118 22.6487 91.3369 22.6344 91.3628C22.5687 91.4817 22.5026 91.6003 22.4364 91.7188C22.4235 91.7418 22.4106 91.7649 22.3974 91.7886C22.3076 91.949 22.2154 92.1078 22.1222 92.2661C22.0048 92.4658 21.8928 92.6679 21.7833 92.8721C21.6717 93.0796 21.5555 93.2843 21.4375 93.4882C21.4111 93.5341 21.3849 93.5801 21.3588 93.6262C21.3448 93.6506 21.3309 93.675 21.3165 93.7002C21.2992 93.7307 21.2992 93.7307 21.2815 93.7619C21.2523 93.8063 21.2523 93.8063 21.2076 93.8286C21.1568 93.8057 21.1568 93.8057 21.0925 93.7693C21.0566 93.7491 21.0566 93.7491 21.0199 93.7285C20.9936 93.7135 20.9673 93.6984 20.9409 93.6834C20.9137 93.668 20.8864 93.6526 20.8591 93.6373C20.8023 93.6053 20.7455 93.5733 20.6888 93.5412C20.5606 93.4686 20.4317 93.3974 20.3028 93.3259C20.2527 93.2981 20.2025 93.2702 20.1524 93.2423C20.0507 93.1859 19.949 93.1294 19.8473 93.073C19.722 93.0036 19.5968 92.934 19.4717 92.8643C19.4218 92.8365 19.3719 92.8088 19.322 92.7811C19.2495 92.7408 19.1771 92.7004 19.1048 92.6599C19.0828 92.6477 19.0608 92.6355 19.0381 92.623C19.0181 92.6117 18.9981 92.6005 18.9775 92.589C18.96 92.5792 18.9424 92.5694 18.9243 92.5593C18.8842 92.5328 18.8842 92.5328 18.8618 92.4882C18.8834 92.4379 18.8834 92.4379 18.9178 92.3748C18.9305 92.3514 18.9432 92.328 18.9563 92.3038C18.9703 92.2785 18.9843 92.2531 18.9987 92.227C19.013 92.2007 19.0274 92.1743 19.0418 92.1479C19.1454 91.9581 19.2514 91.7697 19.3585 91.5818C19.4312 91.4542 19.502 91.3257 19.5716 91.1963C19.8238 90.7279 20.124 90.197 20.6602 90.0225C20.7523 89.9991 20.8417 89.9993 20.9363 90.0003Z" fill="#3B392C"/>
<path d="M17.1641 96.7109C17.2307 96.7405 17.2712 96.7709 17.3191 96.8254C17.636 97.1505 18.1261 97.2883 18.5689 97.2952C18.6206 97.2956 18.6722 97.2959 18.7238 97.296C18.7673 97.2963 18.8108 97.2966 18.8543 97.2969C18.9008 97.2972 18.9472 97.2974 18.9937 97.2976C19.0912 97.2981 19.1886 97.2987 19.2861 97.2993C19.4933 97.3007 19.7006 97.3018 19.9078 97.303C20.1308 97.3042 20.3538 97.3055 20.5768 97.3069C20.6732 97.3076 20.7696 97.3081 20.866 97.3085C20.9119 97.3088 20.9577 97.3091 21.0036 97.3094C21.0589 97.3097 21.1142 97.31 21.1695 97.3102C21.3918 97.3118 21.6105 97.3248 21.8333 97.3365C21.8333 98.2286 21.8333 99.1206 21.8333 100.04C21.503 100.041 21.1726 100.043 20.8322 100.044C20.7287 100.045 20.6253 100.045 20.5187 100.046C20.3902 100.046 20.3902 100.046 20.3296 100.046C20.2882 100.046 20.2468 100.046 20.2054 100.047C19.7246 100.051 19.1532 100.032 18.7852 99.6733C18.6839 99.5625 18.617 99.4363 18.5478 99.3039C18.5222 99.2558 18.4966 99.2076 18.4709 99.1595C18.458 99.135 18.445 99.1105 18.4316 99.0852C18.3711 98.9711 18.3093 98.8575 18.2476 98.744C18.2234 98.6993 18.1992 98.6546 18.175 98.6099C18.163 98.5878 18.151 98.5657 18.1387 98.5429C17.7393 97.8057 17.7393 97.8057 17.703 97.7385C17.679 97.6942 17.6549 97.6498 17.6309 97.6055C17.5676 97.4886 17.5043 97.3716 17.4411 97.2545C17.4279 97.2302 17.4147 97.2058 17.4011 97.1807C17.3759 97.134 17.3507 97.0872 17.3255 97.0405C17.3141 97.0194 17.3027 96.9984 17.291 96.9767C17.281 96.9582 17.271 96.9397 17.2607 96.9207C17.2394 96.8824 17.217 96.8447 17.1938 96.8074C17.1641 96.7556 17.1641 96.7556 17.1641 96.7109Z" fill="#3B392C"/>
<path d="M25.0459 90.401C25.1611 90.5135 25.2505 90.6323 25.3374 90.7675C25.3511 90.7885 25.3648 90.8094 25.3789 90.831C25.4223 90.8973 25.4654 90.9638 25.5085 91.0304C25.5373 91.0747 25.5662 91.119 25.5951 91.1632C25.6501 91.2475 25.705 91.3317 25.7598 91.4161C25.8425 91.5433 25.9264 91.6697 26.0111 91.7956C26.2912 91.6937 26.5647 91.5797 26.8377 91.4605C26.8451 91.4752 26.8525 91.49 26.8601 91.5051C26.8382 91.5557 26.8382 91.5557 26.8033 91.6193C26.7905 91.6428 26.7777 91.6664 26.7645 91.6906C26.7504 91.716 26.7363 91.7415 26.7219 91.7677C26.7074 91.7941 26.6929 91.8206 26.6785 91.8471C26.649 91.901 26.6195 91.9549 26.5898 92.0088C26.541 92.0975 26.4925 92.1864 26.4441 92.2753C26.4115 92.3352 26.3788 92.395 26.3462 92.4548C26.2751 92.5849 26.2045 92.7152 26.134 92.8456C26.0364 93.0258 25.9388 93.206 25.8408 93.386C25.8297 93.4064 25.8186 93.4269 25.8071 93.4479C25.7968 93.467 25.7864 93.486 25.7757 93.5056C25.7666 93.5222 25.7576 93.5388 25.7483 93.5559C25.7392 93.5722 25.7301 93.5884 25.7207 93.6052C25.7137 93.6255 25.7067 93.6459 25.6995 93.6668C25.6537 93.7169 25.6537 93.7169 25.6064 93.7259C25.5377 93.7286 25.47 93.727 25.4013 93.7246C25.3442 93.7236 25.2871 93.7226 25.2299 93.7215C25.1977 93.7208 25.1654 93.72 25.1332 93.7192C25.0189 93.7165 24.9046 93.7154 24.7904 93.7144C24.7479 93.714 24.7054 93.7136 24.663 93.7132C24.6415 93.713 24.62 93.7128 24.5978 93.7127C24.4873 93.7116 24.3768 93.7103 24.2663 93.709C24.2441 93.7087 24.2219 93.7084 24.1991 93.7082C24.1539 93.7076 24.1086 93.7071 24.0634 93.7066C23.9476 93.7052 23.8318 93.7038 23.716 93.7025C23.4906 93.6999 23.2652 93.6973 23.0398 93.6946C23.0398 93.6725 23.0398 93.6503 23.0398 93.6275C23.0735 93.5995 23.0735 93.5995 23.1207 93.572C23.1464 93.5567 23.1464 93.5567 23.1726 93.541C23.191 93.5304 23.2093 93.5198 23.2283 93.5089C23.2653 93.487 23.3022 93.465 23.3392 93.4431C23.3659 93.4273 23.3659 93.4273 23.3931 93.4112C23.4671 93.3666 23.5382 93.3182 23.6088 93.2684C23.643 93.2477 23.643 93.2477 23.6877 93.2477C23.4763 92.8696 23.4763 92.8696 23.2637 92.4922C23.24 92.4504 23.2166 92.4085 23.1932 92.3665C23.1309 92.2549 23.0662 92.1459 22.997 92.0385C22.7924 91.715 22.7924 91.715 22.7963 91.5846C22.8315 91.5107 22.8758 91.4566 22.9281 91.3934C22.9489 91.3604 22.9693 91.327 22.9891 91.2933C23.1208 91.0708 23.2648 90.867 23.4419 90.6785C23.4576 90.6616 23.4732 90.6448 23.4894 90.6274C23.6884 90.4321 23.9747 90.3065 24.2462 90.254C24.2743 90.2485 24.3024 90.243 24.3314 90.2373C24.5733 90.2145 24.8558 90.2338 25.0459 90.401Z" fill="#3B392C"/>
<path d="M19.5991 93.5157C19.7556 93.7844 19.9024 94.0582 20.0493 94.3322C20.1155 94.4558 20.1819 94.5792 20.2484 94.7026C20.2612 94.7265 20.2741 94.7503 20.2873 94.7749C20.352 94.8951 20.4168 95.0151 20.4821 95.1349C20.6089 95.3678 20.7346 95.6005 20.8502 95.8392C20.774 95.8239 20.7123 95.7945 20.6436 95.7584C20.6212 95.7467 20.5989 95.7349 20.5758 95.7229C20.5409 95.7044 20.5409 95.7044 20.5053 95.6856C20.4821 95.6735 20.459 95.6614 20.4351 95.6489C20.3335 95.5955 20.2333 95.5415 20.1353 95.4817C19.9968 95.6984 19.8603 95.9161 19.7273 96.1361C19.6948 96.1898 19.6619 96.2432 19.6287 96.2965C19.5519 96.4201 19.4804 96.5426 19.4213 96.6761C19.3058 96.9244 19.3058 96.9244 19.197 97.0009C18.9858 97.0622 18.7635 97.0271 18.5491 97.0009C18.5114 96.998 18.4737 96.9954 18.436 96.9931C18.0007 96.9619 17.6535 96.8152 17.3427 96.5094C17.3265 96.4935 17.3103 96.4776 17.2936 96.4613C17.0807 96.2379 16.9934 95.9949 17.0004 95.6915C17.0077 95.552 17.0542 95.4479 17.1192 95.3254C17.1385 95.2878 17.1577 95.2503 17.1769 95.2127C17.234 95.1018 17.2921 94.9914 17.3505 94.8812C17.4116 94.7656 17.4721 94.6496 17.5326 94.5336C17.549 94.5021 17.549 94.5021 17.5659 94.47C17.6267 94.3535 17.6864 94.2366 17.7448 94.1189C17.6913 94.0751 17.6378 94.0314 17.5842 93.9877C17.5681 93.9746 17.5521 93.9615 17.5355 93.9479C17.4098 93.8458 17.282 93.7472 17.1522 93.6503C17.0969 93.6051 17.0969 93.6051 17.0522 93.5381C17.3018 93.5351 17.5514 93.5322 17.801 93.5293C17.917 93.528 18.033 93.5266 18.1489 93.5253C19.1343 93.5136 19.1343 93.5136 19.5991 93.5157Z" fill="#3B392C"/>
<path d="M24.0897 96.5762C24.0971 96.5762 24.1045 96.5762 24.1121 96.5762C24.1728 96.8429 24.1594 97.1307 24.1568 97.4028C24.1756 97.4015 24.1945 97.4001 24.214 97.3987C24.517 97.379 24.8205 97.3659 25.1242 97.3601C25.2069 97.3585 25.2896 97.3561 25.3723 97.3523C25.9081 97.3277 25.9081 97.3277 26.0396 97.4137C26.1184 97.4955 26.1609 97.5886 26.1971 97.6951C26.2159 97.7488 26.243 97.7945 26.2732 97.8425C26.2884 97.8704 26.3035 97.8983 26.3182 97.9264C26.3264 97.9418 26.3345 97.9571 26.3428 97.9729C26.5679 98.4121 26.6437 98.8704 26.4956 99.347C26.4103 99.5916 26.2695 99.7949 26.0432 99.9245C25.7539 100.051 25.3837 100.035 25.0735 100.058C24.9941 100.064 24.9146 100.07 24.8352 100.076C24.7843 100.08 24.7334 100.084 24.6825 100.088C24.6589 100.09 24.6354 100.092 24.6111 100.094C24.4965 100.102 24.3834 100.108 24.2685 100.106C24.2668 100.14 24.2668 100.14 24.2651 100.174C24.2558 100.355 24.2431 100.536 24.2252 100.716C24.2235 100.734 24.2218 100.752 24.2201 100.771C24.2112 100.857 24.1984 100.924 24.1568 101C24.0513 100.852 23.9507 100.701 23.8538 100.547C23.8263 100.504 23.7988 100.46 23.7713 100.417C23.7574 100.395 23.7435 100.373 23.7292 100.351C23.6634 100.247 23.5973 100.143 23.5312 100.039C23.5052 99.9982 23.4792 99.9573 23.4532 99.9164C23.3872 99.8128 23.3212 99.7091 23.2551 99.6055C23.229 99.5644 23.203 99.5232 23.1772 99.4819C23.1137 99.3808 23.0487 99.2823 22.9781 99.186C22.965 99.1674 22.9518 99.1487 22.9383 99.1296C22.9136 99.0947 22.8881 99.0603 22.8616 99.0268C22.8258 98.9751 22.8052 98.9393 22.7939 98.8773C22.8227 98.7782 22.8736 98.6963 22.928 98.6092C22.9513 98.5685 22.9745 98.5277 22.9977 98.4869C23.0224 98.4453 23.0471 98.4037 23.0718 98.3621C23.187 98.1668 23.2989 97.97 23.4083 97.7714C23.5291 97.5524 23.653 97.3356 23.7797 97.1199C23.8853 96.9399 23.9883 96.7586 24.0897 96.5762Z" fill="#3B392C"/>
<rect x="15.5" y="108.5" width="14" height="14" stroke="#3B392C"/>
<path d="M17.3349 118.978C17.3529 118.978 17.371 118.978 17.3895 118.978C17.4506 118.978 17.5117 118.978 17.5729 118.978C17.6168 118.978 17.6608 118.977 17.7048 118.977C17.8262 118.977 17.9476 118.977 18.069 118.977C18.1997 118.977 18.3304 118.977 18.4611 118.977C18.7621 118.976 19.0631 118.976 19.3641 118.976C19.5128 118.976 19.6614 118.976 19.8101 118.976C20.3188 118.976 20.8275 118.975 21.3362 118.975C21.3681 118.975 21.4001 118.975 21.432 118.975C21.464 118.975 21.496 118.975 21.5281 118.975C21.5923 118.975 21.6566 118.975 21.7208 118.975C21.7447 118.975 21.7447 118.975 21.7691 118.975C22.2857 118.975 22.8024 118.975 23.319 118.974C23.865 118.974 24.4109 118.973 24.9569 118.973C25.0168 118.973 25.0767 118.973 25.1366 118.973C25.1514 118.973 25.1661 118.973 25.1813 118.973C25.419 118.973 25.6566 118.973 25.8943 118.973C26.133 118.972 26.3717 118.972 26.6105 118.972C26.7399 118.973 26.8693 118.973 26.9987 118.972C27.1171 118.972 27.2354 118.972 27.3538 118.972C27.3967 118.972 27.4397 118.972 27.4826 118.972C27.5407 118.972 27.5989 118.972 27.657 118.972C27.6739 118.972 27.6907 118.972 27.708 118.972C27.8048 118.973 27.8675 118.985 27.944 119.051C27.9969 119.138 27.9926 119.182 27.9934 119.286C27.9936 119.303 27.9937 119.319 27.9939 119.337C27.9944 119.392 27.9946 119.447 27.9948 119.502C27.995 119.54 27.9952 119.579 27.9954 119.617C27.9957 119.698 27.9959 119.778 27.9959 119.859C27.9961 119.962 27.9969 120.065 27.9978 120.168C27.9985 120.247 27.9986 120.327 27.9987 120.406C27.9988 120.444 27.999 120.482 27.9995 120.52C28 120.573 27.9999 120.626 27.9997 120.679C27.9998 120.71 27.9999 120.74 28 120.771C27.9835 120.87 27.9505 120.904 27.8797 120.967C27.812 121.004 27.7394 120.994 27.6651 120.994C27.6381 120.994 27.6381 120.994 27.6105 120.994C27.5494 120.994 27.4883 120.994 27.4271 120.994C27.3832 120.994 27.3392 120.994 27.2952 120.994C27.1738 120.994 27.0524 120.994 26.931 120.994C26.8003 120.994 26.6696 120.994 26.5389 120.995C26.2379 120.995 25.9369 120.995 25.6359 120.995C25.4872 120.995 25.3386 120.995 25.1899 120.995C24.6812 120.996 24.1725 120.996 23.6638 120.996C23.6319 120.996 23.5999 120.996 23.568 120.996C23.536 120.996 23.504 120.996 23.4719 120.996C23.4077 120.996 23.3434 120.996 23.2792 120.996C23.2553 120.996 23.2553 120.996 23.2309 120.996C22.7143 120.996 22.1976 120.997 21.681 120.997C21.135 120.998 20.5891 120.998 20.0431 120.998C19.9832 120.998 19.9233 120.998 19.8634 120.998C19.8486 120.998 19.8339 120.998 19.8187 120.998C19.581 120.998 19.3434 120.998 19.1057 120.999C18.867 120.999 18.6283 120.999 18.3895 120.999C18.2601 120.999 18.1307 120.999 18.0013 120.999C17.8829 120.999 17.7646 120.999 17.6462 120.999C17.6033 120.999 17.5603 120.999 17.5174 120.999C17.4593 121 17.4011 120.999 17.343 120.999C17.3261 120.999 17.3093 120.999 17.292 121C17.1952 120.999 17.1325 120.986 17.056 120.92C17.0031 120.834 17.0074 120.789 17.0066 120.685C17.0064 120.669 17.0063 120.652 17.0061 120.635C17.0056 120.58 17.0054 120.524 17.0052 120.469C17.005 120.431 17.0048 120.392 17.0046 120.354C17.0043 120.274 17.0041 120.193 17.0041 120.113C17.0039 120.01 17.0031 119.906 17.0022 119.803C17.0015 119.724 17.0014 119.645 17.0013 119.566C17.0012 119.528 17.001 119.49 17.0005 119.452C17 119.398 17.0001 119.345 17.0003 119.292C17.0002 119.262 17.0001 119.231 17 119.2C17.0165 119.101 17.0495 119.067 17.1203 119.004C17.188 118.967 17.2606 118.978 17.3349 118.978Z" fill="#3B392C"/>
<path d="M25.395 110.044C25.4584 110.102 25.5105 110.163 25.564 110.233C25.6164 110.3 25.671 110.365 25.7259 110.429C25.803 110.521 25.879 110.613 25.9536 110.707C26.0055 110.771 26.0585 110.834 26.1116 110.897C26.1888 110.988 26.2648 111.08 26.3394 111.174C26.3913 111.238 26.4443 111.301 26.4974 111.364C26.5746 111.455 26.6506 111.547 26.7252 111.641C26.777 111.705 26.8301 111.768 26.8832 111.831C26.9604 111.923 27.0364 112.015 27.1109 112.109C27.1529 112.16 27.1959 112.211 27.239 112.262C27.531 112.605 27.531 112.605 27.5436 112.748C27.5356 112.853 27.5147 112.898 27.4512 112.976C27.3267 113.042 27.192 113.029 27.0569 113.027C27.0314 113.027 27.0059 113.027 26.9796 113.027C26.8983 113.027 26.8171 113.026 26.7359 113.026C26.6807 113.026 26.6255 113.025 26.5704 113.025C26.4353 113.025 26.3003 113.024 26.1652 113.023C26.1653 113.05 26.1653 113.077 26.1654 113.105C26.1668 113.752 26.1679 114.398 26.1685 115.044C26.1686 115.124 26.1687 115.203 26.1688 115.283C26.1688 115.299 26.1688 115.314 26.1688 115.331C26.1691 115.587 26.1696 115.843 26.1702 116.1C26.1708 116.363 26.1711 116.626 26.1713 116.889C26.1714 117.037 26.1716 117.185 26.172 117.332C26.1725 117.471 26.1726 117.61 26.1725 117.75C26.1725 117.801 26.1726 117.852 26.1729 117.903C26.1732 117.972 26.1731 118.042 26.173 118.112C26.1732 118.132 26.1733 118.152 26.1735 118.173C26.1728 118.283 26.1659 118.355 26.1009 118.444C26.0278 118.503 25.9539 118.497 25.8652 118.497C25.8428 118.497 25.8428 118.497 25.8199 118.497C25.7707 118.497 25.7215 118.497 25.6723 118.497C25.638 118.497 25.6037 118.497 25.5695 118.497C25.4977 118.497 25.4259 118.497 25.3541 118.497C25.2622 118.497 25.1702 118.497 25.0782 118.497C25.0075 118.497 24.9367 118.497 24.866 118.497C24.8321 118.497 24.7982 118.497 24.7643 118.497C24.7169 118.497 24.6695 118.497 24.6221 118.497C24.5951 118.497 24.5681 118.497 24.5403 118.497C24.4739 118.491 24.4394 118.487 24.3863 118.444C24.3089 118.337 24.3131 118.241 24.3143 118.112C24.3142 118.09 24.3142 118.068 24.3141 118.046C24.314 117.973 24.3144 117.9 24.3147 117.827C24.3147 117.775 24.3147 117.722 24.3147 117.67C24.3147 117.528 24.315 117.386 24.3155 117.244C24.3159 117.096 24.3159 116.947 24.316 116.799C24.3162 116.55 24.3166 116.301 24.3172 116.052C24.3177 115.796 24.3182 115.539 24.3185 115.283C24.3185 115.267 24.3185 115.251 24.3185 115.235C24.3186 115.155 24.3187 115.076 24.3188 114.997C24.3194 114.339 24.3206 113.681 24.322 113.023C24.3078 113.023 24.2937 113.023 24.2791 113.023C24.1313 113.025 23.9835 113.026 23.8358 113.027C23.7806 113.027 23.7255 113.028 23.6704 113.028C23.5911 113.029 23.5118 113.029 23.4325 113.03C23.4079 113.03 23.3834 113.03 23.3581 113.031C23.2269 113.031 23.1295 113.024 23.0146 112.953C22.9615 112.886 22.9512 112.844 22.9409 112.756C22.958 112.604 23.0566 112.503 23.1499 112.395C23.171 112.37 23.1922 112.345 23.2133 112.321C23.2234 112.309 23.2335 112.297 23.244 112.285C23.279 112.243 23.313 112.201 23.3468 112.158C23.4198 112.066 23.4953 111.977 23.5708 111.888C23.6256 111.823 23.6797 111.758 23.7326 111.691C23.8056 111.599 23.8811 111.51 23.9566 111.42C24.0113 111.356 24.0654 111.29 24.1184 111.224C24.1914 111.132 24.2669 111.043 24.3424 110.953C24.3971 110.888 24.4512 110.823 24.5042 110.756C24.5672 110.677 24.6319 110.6 24.6971 110.523C24.8088 110.39 24.9198 110.258 25.0226 110.117C25.1261 109.989 25.2546 109.969 25.395 110.044Z" fill="#3B392C"/>
<path d="M19.9082 110.044C19.9716 110.102 20.0237 110.163 20.0772 110.233C20.1296 110.3 20.1842 110.365 20.239 110.429C20.3162 110.521 20.3922 110.613 20.4668 110.707C20.5186 110.771 20.5717 110.834 20.6248 110.897C20.702 110.988 20.778 111.08 20.8526 111.174C20.9044 111.238 20.9575 111.301 21.0106 111.364C21.0878 111.455 21.1637 111.547 21.2383 111.641C21.2902 111.705 21.3433 111.768 21.3964 111.831C21.4736 111.923 21.5496 112.015 21.6241 112.109C21.666 112.16 21.7091 112.211 21.7522 112.262C22.0441 112.605 22.0441 112.605 22.0568 112.748C22.0488 112.853 22.0279 112.898 21.9644 112.976C21.8399 113.042 21.7052 113.029 21.5701 113.027C21.5445 113.027 21.519 113.027 21.4928 113.027C21.4115 113.027 21.3303 113.026 21.2491 113.026C21.1939 113.026 21.1387 113.025 21.0835 113.025C20.9485 113.025 20.8135 113.024 20.6784 113.023C20.6785 113.05 20.6785 113.077 20.6786 113.105C20.68 113.752 20.681 114.398 20.6817 115.044C20.6818 115.124 20.6819 115.203 20.6819 115.283C20.682 115.299 20.682 115.314 20.682 115.331C20.6823 115.587 20.6828 115.843 20.6834 116.1C20.684 116.363 20.6843 116.626 20.6845 116.889C20.6845 117.037 20.6847 117.185 20.6852 117.332C20.6856 117.471 20.6858 117.61 20.6857 117.75C20.6857 117.801 20.6858 117.852 20.6861 117.903C20.6864 117.972 20.6863 118.042 20.6861 118.112C20.6863 118.132 20.6865 118.152 20.6867 118.173C20.686 118.283 20.679 118.355 20.6141 118.444C20.541 118.503 20.4671 118.497 20.3784 118.497C20.356 118.497 20.356 118.497 20.3331 118.497C20.2839 118.497 20.2347 118.497 20.1855 118.497C20.1512 118.497 20.1169 118.497 20.0826 118.497C20.0109 118.497 19.9391 118.497 19.8673 118.497C19.7753 118.497 19.6834 118.497 19.5914 118.497C19.5207 118.497 19.4499 118.497 19.3792 118.497C19.3453 118.497 19.3114 118.497 19.2774 118.497C19.23 118.497 19.1826 118.497 19.1352 118.497C19.1083 118.497 19.0813 118.497 19.0535 118.497C18.9871 118.491 18.9526 118.487 18.8995 118.444C18.8221 118.337 18.8263 118.241 18.8275 118.112C18.8274 118.09 18.8273 118.068 18.8273 118.046C18.8272 117.973 18.8275 117.9 18.8279 117.827C18.8279 117.775 18.8279 117.722 18.8279 117.67C18.8278 117.528 18.8282 117.386 18.8287 117.244C18.8291 117.096 18.8291 116.947 18.8292 116.799C18.8294 116.55 18.8298 116.301 18.8303 116.052C18.8309 115.796 18.8314 115.539 18.8317 115.283C18.8317 115.267 18.8317 115.251 18.8317 115.235C18.8318 115.155 18.8319 115.076 18.8319 114.997C18.8326 114.339 18.8338 113.681 18.8352 113.023C18.821 113.023 18.8069 113.023 18.7923 113.023C18.6445 113.025 18.4967 113.026 18.3489 113.027C18.2938 113.027 18.2387 113.028 18.1836 113.028C18.1043 113.029 18.025 113.029 17.9456 113.03C17.9211 113.03 17.8966 113.03 17.8713 113.031C17.7401 113.031 17.6427 113.024 17.5278 112.953C17.4746 112.886 17.4644 112.844 17.4541 112.756C17.4712 112.604 17.5698 112.503 17.6631 112.395C17.6842 112.37 17.7053 112.345 17.7265 112.321C17.7366 112.309 17.7467 112.297 17.7571 112.285C17.7922 112.243 17.8262 112.201 17.86 112.158C17.933 112.066 18.0085 111.977 18.084 111.888C18.1387 111.823 18.1928 111.758 18.2458 111.691C18.3188 111.599 18.3943 111.51 18.4698 111.42C18.5245 111.356 18.5786 111.29 18.6316 111.224C18.7046 111.132 18.7801 111.043 18.8556 110.953C18.9103 110.888 18.9644 110.823 19.0174 110.756C19.0803 110.677 19.1451 110.6 19.2103 110.523C19.322 110.39 19.433 110.258 19.5358 110.117C19.6393 109.989 19.7678 109.969 19.9082 110.044Z" fill="#3B392C"/>
<rect x="15.5" y="128.5" width="14" height="14" stroke="#3B392C"/>
<path d="M19.1548 130.003C20.0683 130.003 20.9818 130.003 21.9229 130.003C21.8505 130.268 21.8505 130.268 21.8102 130.389C21.8059 130.402 21.8015 130.415 21.797 130.429C21.7829 130.471 21.7687 130.514 21.7545 130.556C21.7445 130.586 21.7345 130.616 21.7246 130.646C21.7039 130.708 21.6831 130.77 21.6624 130.832C21.6357 130.911 21.6092 130.991 21.5826 131.07C21.5621 131.132 21.5416 131.193 21.5211 131.255C21.5113 131.284 21.5015 131.314 21.4917 131.343C21.4781 131.384 21.4644 131.425 21.4507 131.465C21.443 131.489 21.4352 131.512 21.4272 131.536C21.4079 131.591 21.4079 131.591 21.3865 131.633C21.7405 131.633 22.0946 131.633 22.4594 131.633C22.4437 131.744 22.4268 131.828 22.3922 131.931C22.3875 131.945 22.3829 131.958 22.3782 131.973C22.3631 132.018 22.3478 132.063 22.3326 132.108C22.322 132.14 22.3114 132.171 22.3009 132.203C22.2733 132.285 22.2455 132.368 22.2176 132.451C22.1892 132.535 22.1609 132.619 22.1326 132.704C22.0772 132.869 22.0216 133.035 21.9658 133.2C22.0759 133.118 22.1699 133.02 22.2665 132.923C22.2954 132.894 22.2954 132.894 22.3249 132.865C22.3776 132.812 22.4301 132.759 22.4827 132.707C22.5377 132.652 22.5927 132.597 22.6478 132.541C22.7519 132.437 22.856 132.333 22.9601 132.229C23.1008 132.088 23.2416 131.947 23.3824 131.806C23.6041 131.584 23.8257 131.362 24.0473 131.14C23.5233 131.133 22.9993 131.126 22.4594 131.118C22.4764 131.033 22.4908 130.983 22.5282 130.909C22.5381 130.889 22.5479 130.869 22.558 130.849C22.5686 130.828 22.5792 130.807 22.5901 130.786C22.601 130.764 22.6119 130.742 22.6231 130.72C22.6461 130.674 22.6691 130.628 22.6921 130.583C22.7276 130.512 22.7629 130.442 22.7981 130.372C22.8204 130.327 22.8427 130.283 22.8651 130.238C22.8757 130.217 22.8863 130.196 22.8973 130.174C22.9071 130.155 22.9169 130.135 22.927 130.115C22.94 130.09 22.94 130.09 22.9532 130.063C22.9744 130.024 22.9744 130.024 22.9958 130.003C23.0317 130.001 23.0676 130 23.1035 130C23.1268 130 23.1502 130 23.1742 130C23.2 130 23.2258 130 23.2524 130C23.2794 130 23.3064 130 23.3342 130C23.4085 130 23.4827 130 23.557 130C23.6345 130.001 23.712 130.001 23.7896 130.001C23.9365 130.001 24.0834 130.001 24.2303 130.001C24.3975 130.001 24.5647 130.001 24.7319 130.002C25.0759 130.002 25.4199 130.002 25.764 130.003C25.7655 130.463 25.7666 130.923 25.7673 131.383C25.7676 131.597 25.7681 131.811 25.7688 132.024C25.7695 132.211 25.7699 132.397 25.77 132.584C25.7701 132.682 25.7703 132.781 25.7708 132.879C25.7744 133.67 25.7744 133.67 25.6996 133.994C25.6963 134.008 25.693 134.023 25.6895 134.038C25.5374 134.696 25.207 135.216 24.734 135.689C24.7231 135.701 24.7123 135.713 24.7012 135.725C24.5037 135.938 24.238 136.092 23.9829 136.226C23.9692 136.233 23.9556 136.24 23.9415 136.248C23.6503 136.4 23.3427 136.501 23.0173 136.547C23.0173 137.645 23.0173 138.743 23.0173 139.873C23.3926 139.873 23.7679 139.873 24.1546 139.873C24.3495 139.917 24.4667 139.956 24.5931 140.108C24.6806 140.28 24.6995 140.456 24.6428 140.641C24.5812 140.802 24.4996 140.89 24.3477 140.968C24.2737 140.992 24.2163 140.992 24.1383 140.992C24.1234 140.993 24.1086 140.993 24.0933 140.993C24.0435 140.993 23.9937 140.993 23.9439 140.993C23.9082 140.993 23.8725 140.993 23.8369 140.994C23.7196 140.994 23.6024 140.994 23.4851 140.994C23.4447 140.994 23.4044 140.995 23.364 140.995C23.1743 140.995 22.9846 140.995 22.7948 140.996C22.5759 140.996 22.357 140.996 22.1381 140.997C21.9689 140.998 21.7996 140.998 21.6304 140.998C21.5293 140.998 21.4283 140.998 21.3272 140.999C21.2321 141 21.1369 141 21.0418 140.999C21.007 140.999 20.9721 141 20.9373 141C20.7244 141.001 20.5736 140.996 20.4048 140.854C20.2678 140.69 20.232 140.534 20.2492 140.324C20.2746 140.199 20.32 140.085 20.4209 140.002C20.8606 139.731 21.4007 139.873 21.9015 139.873C21.9015 138.776 21.9015 137.678 21.9015 136.547C21.8165 136.533 21.7315 136.519 21.644 136.505C21.583 136.489 21.525 136.472 21.4656 136.452C21.4497 136.447 21.4338 136.441 21.4174 136.436C21.0856 136.319 20.7632 136.164 20.4852 135.947C20.4657 135.932 20.4462 135.917 20.4261 135.901C20.3737 135.86 20.322 135.818 20.2706 135.775C20.257 135.764 20.2434 135.753 20.2293 135.742C20.1317 135.661 20.0514 135.571 19.9702 135.475C19.9534 135.455 19.9365 135.436 19.9191 135.416C19.3891 134.801 19.146 134.023 19.1499 133.221C19.15 133.185 19.15 133.15 19.1499 133.115C19.1499 133.02 19.1502 132.925 19.1505 132.83C19.1507 132.73 19.1508 132.631 19.1508 132.531C19.1509 132.343 19.1513 132.155 19.1517 131.967C19.1523 131.712 19.1525 131.458 19.1528 131.203C19.1532 130.803 19.154 130.403 19.1548 130.003Z" fill="#3B392C"/>
</g>
<path d="M21 63V54.7742L23.5 57.3856V63H21Z" fill="#3B392C"/>
<path d="M21 52.0323V43.8065L23.5 46.4178V54.6436L21 52.0323Z" fill="#3B392C"/>
<path d="M21 41.0645V32.8387L23.5 35.4501V43.6759L21 41.0645Z" fill="#3B392C"/>
<path d="M21 30.0968V21.871L23.5 24.4823V32.7081L21 30.0968Z" fill="#3B392C"/>
<path d="M21 19.129V10.9032L23.5 13.5146V21.7404L21 19.129Z" fill="#3B392C"/>
<path d="M21 8.16129V-0.06451L23.5 2.54686V10.7727L21 8.16129Z" fill="#3B392C"/>
<path d="M21 -2.80645V-11.0323L23.5 -8.42089V-0.195088L21 -2.80645Z" fill="#3B392C"/>
<path d="M21 -13.7742V-22L23.5 -19.3886V-11.1628L21 -13.7742Z" fill="#3B392C"/>
<path d="M21 230.389V222.163L23.5 224.774V230.389H21Z" fill="#3B392C"/>
<path d="M21 219.421V211.195L23.5 213.806V222.032L21 219.421Z" fill="#3B392C"/>
<path d="M21 208.453V200.227L23.5 202.839V211.065L21 208.453Z" fill="#3B392C"/>
<path d="M21 197.485V189.26L23.5 191.871V200.097L21 197.485Z" fill="#3B392C"/>
<path d="M21 186.518V178.292L23.5 180.903V189.129L21 186.518Z" fill="#3B392C"/>
<path d="M21 175.55V167.324L23.5 169.935V178.161L21 175.55Z" fill="#3B392C"/>
<path d="M21 164.582V156.356L23.5 158.968V167.194L21 164.582Z" fill="#3B392C"/>
<path d="M21 153.614V148L23.5 148V156.226L21 153.614Z" fill="#3B392C"/>
</g>
<defs>
<clipPath id="clip0_129_114">
<rect width="30" height="211" fill="white"/>
</clipPath>
<clipPath id="clip1_129_114">
<rect width="30" height="75" fill="white" transform="translate(0 68)"/>
</clipPath>
</defs>
</svg>
