<svg width="14" height="451" viewBox="0 0 14 451" fill="none" xmlns="http://www.w3.org/2000/svg">
<g clip-path="url(#clip0_160_173)">
<line y1="-0.5" x2="451" y2="-0.5" transform="matrix(0 -1 -1 0 0.501953 451.005)" stroke="#F47B32" stroke-opacity="0.75"/>
<line x1="3" y1="450.5" x2="6" y2="450.5" stroke="#F47B32" stroke-opacity="0.75"/>
<line x1="3" y1="447.5" x2="6" y2="447.5" stroke="#F47B32" stroke-opacity="0.75"/>
<line x1="3" y1="444.5" x2="6" y2="444.5" stroke="#F47B32" stroke-opacity="0.75"/>
<line x1="3" y1="441.5" x2="6" y2="441.5" stroke="#F47B32" stroke-opacity="0.75"/>
<line x1="3" y1="438.5" x2="6" y2="438.5" stroke="#F47B32" stroke-opacity="0.75"/>
<line x1="3" y1="435.5" x2="6" y2="435.5" stroke="#F47B32" stroke-opacity="0.75"/>
<line x1="3" y1="432.5" x2="6" y2="432.5" stroke="#F47B32" stroke-opacity="0.75"/>
<line x1="3" y1="429.5" x2="6" y2="429.5" stroke="#F47B32" stroke-opacity="0.75"/>
<line x1="3" y1="426.5" x2="6" y2="426.5" stroke="#F47B32" stroke-opacity="0.75"/>
<line x1="3" y1="423.5" x2="6" y2="423.5" stroke="#F47B32" stroke-opacity="0.75"/>
<line x1="3" y1="420.5" x2="6" y2="420.5" stroke="#F47B32" stroke-opacity="0.75"/>
<line x1="3" y1="417.5" x2="6" y2="417.5" stroke="#F47B32" stroke-opacity="0.75"/>
<line x1="3" y1="414.5" x2="6" y2="414.5" stroke="#F47B32" stroke-opacity="0.75"/>
<line x1="3" y1="411.5" x2="6" y2="411.5" stroke="#F47B32" stroke-opacity="0.75"/>
<line x1="3" y1="408.5" x2="6" y2="408.5" stroke="#F47B32" stroke-opacity="0.75"/>
<line x1="3" y1="405.5" x2="6" y2="405.5" stroke="#F47B32" stroke-opacity="0.75"/>
<line x1="3" y1="402.5" x2="6" y2="402.5" stroke="#F47B32" stroke-opacity="0.75"/>
<line x1="3" y1="399.5" x2="6" y2="399.5" stroke="#F47B32" stroke-opacity="0.75"/>
<line x1="3" y1="396.5" x2="6" y2="396.5" stroke="#F47B32" stroke-opacity="0.75"/>
<line x1="3" y1="393.5" x2="6" y2="393.5" stroke="#F47B32" stroke-opacity="0.75"/>
<line x1="3" y1="390.5" x2="6" y2="390.5" stroke="#F47B32" stroke-opacity="0.75"/>
<line x1="3" y1="387.5" x2="6" y2="387.5" stroke="#F47B32" stroke-opacity="0.75"/>
<line x1="3" y1="384.5" x2="6" y2="384.5" stroke="#F47B32" stroke-opacity="0.75"/>
<line x1="3" y1="381.5" x2="6" y2="381.5" stroke="#F47B32" stroke-opacity="0.75"/>
<line x1="3" y1="378.5" x2="6" y2="378.5" stroke="#F47B32" stroke-opacity="0.75"/>
<line x1="3" y1="375.5" x2="6" y2="375.5" stroke="#F47B32" stroke-opacity="0.75"/>
<line x1="3" y1="372.5" x2="6" y2="372.5" stroke="#F47B32" stroke-opacity="0.75"/>
<line x1="3" y1="369.5" x2="6" y2="369.5" stroke="#F47B32" stroke-opacity="0.75"/>
<line x1="3" y1="366.5" x2="6" y2="366.5" stroke="#F47B32" stroke-opacity="0.75"/>
<line x1="3" y1="363.5" x2="6" y2="363.5" stroke="#F47B32" stroke-opacity="0.75"/>
<line x1="3" y1="360.5" x2="6" y2="360.5" stroke="#F47B32" stroke-opacity="0.75"/>
<line x1="3" y1="357.5" x2="6" y2="357.5" stroke="#F47B32" stroke-opacity="0.75"/>
<line x1="3" y1="354.5" x2="6" y2="354.5" stroke="#F47B32" stroke-opacity="0.75"/>
<line x1="3" y1="351.5" x2="6" y2="351.5" stroke="#F47B32" stroke-opacity="0.75"/>
<line x1="3" y1="348.5" x2="6" y2="348.5" stroke="#F47B32" stroke-opacity="0.75"/>
<line x1="3" y1="345.5" x2="6" y2="345.5" stroke="#F47B32" stroke-opacity="0.75"/>
<line x1="3" y1="342.5" x2="6" y2="342.5" stroke="#F47B32" stroke-opacity="0.75"/>
<line x1="3" y1="339.5" x2="6" y2="339.5" stroke="#F47B32" stroke-opacity="0.75"/>
<line x1="3" y1="336.5" x2="6" y2="336.5" stroke="#F47B32" stroke-opacity="0.75"/>
<line x1="3" y1="333.5" x2="6" y2="333.5" stroke="#F47B32" stroke-opacity="0.75"/>
<line x1="3" y1="330.5" x2="6" y2="330.5" stroke="#F47B32" stroke-opacity="0.75"/>
<line x1="3" y1="327.5" x2="6" y2="327.5" stroke="#F47B32" stroke-opacity="0.75"/>
<line x1="3" y1="324.5" x2="6" y2="324.5" stroke="#F47B32" stroke-opacity="0.75"/>
<line x1="3" y1="321.5" x2="6" y2="321.5" stroke="#F47B32" stroke-opacity="0.75"/>
<line x1="3" y1="318.5" x2="6" y2="318.5" stroke="#F47B32" stroke-opacity="0.75"/>
<line x1="3" y1="315.5" x2="6" y2="315.5" stroke="#F47B32" stroke-opacity="0.75"/>
<line x1="3" y1="312.5" x2="6" y2="312.5" stroke="#F47B32" stroke-opacity="0.75"/>
<line x1="3" y1="309.5" x2="6" y2="309.5" stroke="#F47B32" stroke-opacity="0.75"/>
<line x1="3" y1="306.5" x2="6" y2="306.5" stroke="#F47B32" stroke-opacity="0.75"/>
<line x1="3" y1="303.5" x2="6" y2="303.5" stroke="#F47B32" stroke-opacity="0.75"/>
<line x1="3" y1="300.5" x2="6" y2="300.5" stroke="#F47B32" stroke-opacity="0.75"/>
<line x1="3" y1="297.5" x2="6" y2="297.5" stroke="#F47B32" stroke-opacity="0.75"/>
<line x1="3" y1="294.5" x2="6" y2="294.5" stroke="#F47B32" stroke-opacity="0.75"/>
<line x1="3" y1="291.5" x2="6" y2="291.5" stroke="#F47B32" stroke-opacity="0.75"/>
<line x1="3" y1="288.5" x2="6" y2="288.5" stroke="#F47B32" stroke-opacity="0.75"/>
<line x1="3" y1="285.5" x2="6" y2="285.5" stroke="#F47B32" stroke-opacity="0.75"/>
<line x1="3" y1="282.5" x2="6" y2="282.5" stroke="#F47B32" stroke-opacity="0.75"/>
<line x1="3" y1="279.5" x2="6" y2="279.5" stroke="#F47B32" stroke-opacity="0.75"/>
<line x1="3" y1="276.5" x2="6" y2="276.5" stroke="#F47B32" stroke-opacity="0.75"/>
<line x1="3" y1="273.5" x2="6" y2="273.5" stroke="#F47B32" stroke-opacity="0.75"/>
<line x1="3" y1="270.5" x2="6" y2="270.5" stroke="#F47B32" stroke-opacity="0.75"/>
<line x1="3" y1="267.5" x2="6" y2="267.5" stroke="#F47B32" stroke-opacity="0.75"/>
<line x1="3" y1="264.5" x2="6" y2="264.5" stroke="#F47B32" stroke-opacity="0.75"/>
<line x1="3" y1="261.5" x2="6" y2="261.5" stroke="#F47B32" stroke-opacity="0.75"/>
<line x1="3" y1="258.5" x2="6" y2="258.5" stroke="#F47B32" stroke-opacity="0.75"/>
<line x1="3" y1="255.5" x2="6" y2="255.5" stroke="#F47B32" stroke-opacity="0.75"/>
<line x1="3" y1="252.5" x2="6" y2="252.5" stroke="#F47B32" stroke-opacity="0.75"/>
<line x1="3" y1="249.5" x2="6" y2="249.5" stroke="#F47B32" stroke-opacity="0.75"/>
<line x1="3" y1="246.5" x2="6" y2="246.5" stroke="#F47B32" stroke-opacity="0.75"/>
<line x1="3" y1="243.5" x2="6" y2="243.5" stroke="#F47B32" stroke-opacity="0.75"/>
<line x1="3" y1="240.5" x2="6" y2="240.5" stroke="#F47B32" stroke-opacity="0.75"/>
<line x1="3" y1="237.5" x2="6" y2="237.5" stroke="#F47B32" stroke-opacity="0.75"/>
<line x1="3" y1="234.5" x2="6" y2="234.5" stroke="#F47B32" stroke-opacity="0.75"/>
<line x1="3" y1="231.5" x2="6" y2="231.5" stroke="#F47B32" stroke-opacity="0.75"/>
<line x1="3" y1="228.5" x2="6" y2="228.5" stroke="#F47B32" stroke-opacity="0.75"/>
<line x1="3" y1="225.5" x2="6" y2="225.5" stroke="#F47B32" stroke-opacity="0.75"/>
<line x1="3" y1="222.5" x2="6" y2="222.5" stroke="#F47B32" stroke-opacity="0.75"/>
<line x1="3" y1="219.5" x2="6" y2="219.5" stroke="#F47B32" stroke-opacity="0.75"/>
<line x1="3" y1="216.5" x2="6" y2="216.5" stroke="#F47B32" stroke-opacity="0.75"/>
<line x1="3" y1="213.5" x2="6" y2="213.5" stroke="#F47B32" stroke-opacity="0.75"/>
<line x1="3" y1="210.5" x2="6" y2="210.5" stroke="#F47B32" stroke-opacity="0.75"/>
<line x1="3" y1="207.5" x2="6" y2="207.5" stroke="#F47B32" stroke-opacity="0.75"/>
<line x1="3" y1="204.5" x2="6" y2="204.5" stroke="#F47B32" stroke-opacity="0.75"/>
<line x1="3" y1="201.5" x2="6" y2="201.5" stroke="#F47B32" stroke-opacity="0.75"/>
<line x1="3" y1="198.5" x2="6" y2="198.5" stroke="#F47B32" stroke-opacity="0.75"/>
<line x1="3" y1="195.5" x2="6" y2="195.5" stroke="#F47B32" stroke-opacity="0.75"/>
<line x1="3" y1="192.5" x2="6" y2="192.5" stroke="#F47B32" stroke-opacity="0.75"/>
<line x1="3" y1="189.5" x2="6" y2="189.5" stroke="#F47B32" stroke-opacity="0.75"/>
<line x1="3" y1="186.5" x2="6" y2="186.5" stroke="#F47B32" stroke-opacity="0.75"/>
<line x1="3" y1="183.5" x2="6" y2="183.5" stroke="#F47B32" stroke-opacity="0.75"/>
<line x1="3" y1="180.5" x2="6" y2="180.5" stroke="#F47B32" stroke-opacity="0.75"/>
<line x1="3" y1="177.5" x2="6" y2="177.5" stroke="#F47B32" stroke-opacity="0.75"/>
<line x1="3" y1="174.5" x2="6" y2="174.5" stroke="#F47B32" stroke-opacity="0.75"/>
<line x1="3" y1="171.5" x2="6" y2="171.5" stroke="#F47B32" stroke-opacity="0.75"/>
<line x1="3" y1="168.5" x2="6" y2="168.5" stroke="#F47B32" stroke-opacity="0.75"/>
<line x1="3" y1="165.5" x2="6" y2="165.5" stroke="#F47B32" stroke-opacity="0.75"/>
<line x1="3" y1="162.5" x2="6" y2="162.5" stroke="#F47B32" stroke-opacity="0.75"/>
<line x1="3" y1="159.5" x2="6" y2="159.5" stroke="#F47B32" stroke-opacity="0.75"/>
<line x1="3" y1="156.5" x2="6" y2="156.5" stroke="#F47B32" stroke-opacity="0.75"/>
<line x1="3" y1="153.5" x2="6" y2="153.5" stroke="#F47B32" stroke-opacity="0.75"/>
<line x1="3" y1="150.5" x2="6" y2="150.5" stroke="#F47B32" stroke-opacity="0.75"/>
<line x1="3" y1="147.5" x2="6" y2="147.5" stroke="#F47B32" stroke-opacity="0.75"/>
<line x1="3" y1="144.5" x2="6" y2="144.5" stroke="#F47B32" stroke-opacity="0.75"/>
<line x1="3" y1="141.5" x2="6" y2="141.5" stroke="#F47B32" stroke-opacity="0.75"/>
<line x1="3" y1="138.5" x2="6" y2="138.5" stroke="#F47B32" stroke-opacity="0.75"/>
<line x1="3" y1="135.5" x2="6" y2="135.5" stroke="#F47B32" stroke-opacity="0.75"/>
<line x1="3" y1="132.5" x2="6" y2="132.5" stroke="#F47B32" stroke-opacity="0.75"/>
<line x1="3" y1="129.5" x2="6" y2="129.5" stroke="#F47B32" stroke-opacity="0.75"/>
<line x1="3" y1="126.5" x2="6" y2="126.5" stroke="#F47B32" stroke-opacity="0.75"/>
<line x1="3" y1="123.5" x2="6" y2="123.5" stroke="#F47B32" stroke-opacity="0.75"/>
<line x1="3" y1="120.5" x2="6" y2="120.5" stroke="#F47B32" stroke-opacity="0.75"/>
<line x1="3" y1="117.5" x2="6" y2="117.5" stroke="#F47B32" stroke-opacity="0.75"/>
<line x1="3" y1="114.5" x2="6" y2="114.5" stroke="#F47B32" stroke-opacity="0.75"/>
<line x1="3" y1="111.5" x2="6" y2="111.5" stroke="#F47B32" stroke-opacity="0.75"/>
<line x1="3" y1="108.5" x2="6" y2="108.5" stroke="#F47B32" stroke-opacity="0.75"/>
<line x1="3" y1="105.5" x2="6" y2="105.5" stroke="#F47B32" stroke-opacity="0.75"/>
<line x1="3" y1="102.5" x2="6" y2="102.5" stroke="#F47B32" stroke-opacity="0.75"/>
<line x1="3" y1="99.5" x2="6" y2="99.5" stroke="#F47B32" stroke-opacity="0.75"/>
<line x1="3" y1="96.5" x2="6" y2="96.5" stroke="#F47B32" stroke-opacity="0.75"/>
<line x1="3" y1="93.5" x2="6" y2="93.5" stroke="#F47B32" stroke-opacity="0.75"/>
<line x1="3" y1="90.5" x2="6" y2="90.5" stroke="#F47B32" stroke-opacity="0.75"/>
<line x1="3" y1="87.5" x2="6" y2="87.5" stroke="#F47B32" stroke-opacity="0.75"/>
<line x1="3" y1="84.5" x2="6" y2="84.5" stroke="#F47B32" stroke-opacity="0.75"/>
<line x1="3" y1="81.5" x2="6" y2="81.5" stroke="#F47B32" stroke-opacity="0.75"/>
<line x1="3" y1="78.5" x2="6" y2="78.5" stroke="#F47B32" stroke-opacity="0.75"/>
<line x1="3" y1="75.5" x2="6" y2="75.5" stroke="#F47B32" stroke-opacity="0.75"/>
<line x1="3" y1="72.5" x2="6" y2="72.5" stroke="#F47B32" stroke-opacity="0.75"/>
<line x1="3" y1="69.5" x2="6" y2="69.5" stroke="#F47B32" stroke-opacity="0.75"/>
<line x1="3" y1="66.5" x2="6" y2="66.5" stroke="#F47B32" stroke-opacity="0.75"/>
<line x1="3" y1="63.5" x2="6" y2="63.5" stroke="#F47B32" stroke-opacity="0.75"/>
<line x1="3" y1="60.5" x2="6" y2="60.5" stroke="#F47B32" stroke-opacity="0.75"/>
<line x1="3" y1="57.5" x2="6" y2="57.5" stroke="#F47B32" stroke-opacity="0.75"/>
<line x1="3" y1="54.5" x2="6" y2="54.5" stroke="#F47B32" stroke-opacity="0.75"/>
<line x1="3" y1="51.5" x2="6" y2="51.5" stroke="#F47B32" stroke-opacity="0.75"/>
<line x1="3" y1="48.5" x2="6" y2="48.5" stroke="#F47B32" stroke-opacity="0.75"/>
<line x1="3" y1="45.5" x2="6" y2="45.5" stroke="#F47B32" stroke-opacity="0.75"/>
<line x1="3" y1="42.5" x2="6" y2="42.5" stroke="#F47B32" stroke-opacity="0.75"/>
<line x1="3" y1="39.5" x2="6" y2="39.5" stroke="#F47B32" stroke-opacity="0.75"/>
<line x1="3" y1="36.5" x2="6" y2="36.5" stroke="#F47B32" stroke-opacity="0.75"/>
<line x1="3" y1="33.5" x2="6" y2="33.5" stroke="#F47B32" stroke-opacity="0.75"/>
<line x1="3" y1="30.5" x2="6" y2="30.5" stroke="#F47B32" stroke-opacity="0.75"/>
<line x1="3" y1="27.5" x2="6" y2="27.5" stroke="#F47B32" stroke-opacity="0.75"/>
<line x1="3" y1="24.5" x2="6" y2="24.5" stroke="#F47B32" stroke-opacity="0.75"/>
<line x1="3" y1="21.5" x2="6" y2="21.5" stroke="#F47B32" stroke-opacity="0.75"/>
<line x1="3" y1="18.5" x2="6" y2="18.5" stroke="#F47B32" stroke-opacity="0.75"/>
<line x1="3" y1="15.5" x2="6" y2="15.5" stroke="#F47B32" stroke-opacity="0.75"/>
<line x1="3" y1="12.5" x2="6" y2="12.5" stroke="#F47B32" stroke-opacity="0.75"/>
<line x1="3" y1="9.5" x2="6" y2="9.5" stroke="#F47B32" stroke-opacity="0.75"/>
<line x1="3" y1="6.5" x2="6" y2="6.5" stroke="#F47B32" stroke-opacity="0.75"/>
<line x1="3" y1="3.5" x2="6" y2="3.5" stroke="#F47B32" stroke-opacity="0.75"/>
<line x1="3" y1="0.5" x2="6" y2="0.5" stroke="#F47B32" stroke-opacity="0.75"/>
<line x1="8" y1="450.5" x2="14" y2="450.5" stroke="#F47B32" stroke-opacity="0.75"/>
<line x1="8" y1="360.5" x2="14" y2="360.5" stroke="#F47B32" stroke-opacity="0.75"/>
<line x1="8" y1="270.5" x2="14" y2="270.5" stroke="#F47B32" stroke-opacity="0.75"/>
<line x1="8" y1="180.5" x2="14" y2="180.5" stroke="#F47B32" stroke-opacity="0.75"/>
<line x1="8" y1="90.5" x2="14" y2="90.5" stroke="#F47B32" stroke-opacity="0.75"/>
<line x1="8" y1="0.5" x2="14" y2="0.5" stroke="#F47B32" stroke-opacity="0.75"/>
</g>
<defs>
<clipPath id="clip0_160_173">
<rect width="451" height="14" fill="white" transform="matrix(0 -1 1 0 0 451)"/>
</clipPath>
</defs>
</svg>
