<svg width="792" height="780" viewBox="0 0 792 780" fill="none" xmlns="http://www.w3.org/2000/svg">
<g clip-path="url(#clip0_109_156)">
<line x1="800" y1="744.5" y2="744.5" stroke="#3B392C" stroke-opacity="0.055"/>
<line x1="800" y1="708.5" y2="708.5" stroke="#3B392C" stroke-opacity="0.055"/>
<line x1="800" y1="672.5" y2="672.5" stroke="#3B392C" stroke-opacity="0.055"/>
<line x1="800" y1="636.5" y2="636.5" stroke="#3B392C" stroke-opacity="0.055"/>
<line x1="800" y1="600.5" y2="600.5" stroke="#3B392C" stroke-opacity="0.055"/>
<line x1="800" y1="564.5" y2="564.5" stroke="#3B392C" stroke-opacity="0.055"/>
<line x1="800" y1="528.5" y2="528.5" stroke="#3B392C" stroke-opacity="0.055"/>
<line x1="800" y1="492.5" y2="492.5" stroke="#3B392C" stroke-opacity="0.055"/>
<line x1="800" y1="456.5" y2="456.5" stroke="#3B392C" stroke-opacity="0.055"/>
<line x1="800" y1="420.5" y2="420.5" stroke="#3B392C" stroke-opacity="0.055"/>
<line x1="800" y1="384.5" y2="384.5" stroke="#3B392C" stroke-opacity="0.055"/>
<line x1="800" y1="348.5" y2="348.5" stroke="#3B392C" stroke-opacity="0.055"/>
<line x1="800" y1="312.5" y2="312.5" stroke="#3B392C" stroke-opacity="0.055"/>
<line x1="800" y1="276.5" y2="276.5" stroke="#3B392C" stroke-opacity="0.055"/>
<line x1="800" y1="240.5" y2="240.5" stroke="#3B392C" stroke-opacity="0.055"/>
<line x1="800" y1="204.5" y2="204.5" stroke="#3B392C" stroke-opacity="0.055"/>
<line x1="800" y1="168.5" y2="168.5" stroke="#3B392C" stroke-opacity="0.055"/>
<line x1="800" y1="132.5" y2="132.5" stroke="#3B392C" stroke-opacity="0.055"/>
<line x1="800" y1="96.5" y2="96.5" stroke="#3B392C" stroke-opacity="0.055"/>
<line x1="800" y1="60.5" y2="60.5" stroke="#3B392C" stroke-opacity="0.055"/>
<line x1="800" y1="24.5" y2="24.5" stroke="#3B392C" stroke-opacity="0.055"/>
<line x1="0.5" y1="788" x2="0.5" y2="-12" stroke="#3B392C" stroke-opacity="0.055"/>
<line x1="36.5" y1="788" x2="36.5" y2="-12" stroke="#3B392C" stroke-opacity="0.055"/>
<line x1="72.5" y1="788" x2="72.5" y2="-12" stroke="#3B392C" stroke-opacity="0.055"/>
<line x1="108.5" y1="788" x2="108.5" y2="-12" stroke="#3B392C" stroke-opacity="0.055"/>
<line x1="144.5" y1="788" x2="144.5" y2="-12" stroke="#3B392C" stroke-opacity="0.055"/>
<line x1="180.5" y1="788" x2="180.5" y2="-12" stroke="#3B392C" stroke-opacity="0.055"/>
<line x1="216.5" y1="788" x2="216.5" y2="-12" stroke="#3B392C" stroke-opacity="0.055"/>
<line x1="252.5" y1="788" x2="252.5" y2="-12" stroke="#3B392C" stroke-opacity="0.055"/>
<line x1="288.5" y1="788" x2="288.5" y2="-12" stroke="#3B392C" stroke-opacity="0.055"/>
<line x1="324.5" y1="788" x2="324.5" y2="-12" stroke="#3B392C" stroke-opacity="0.055"/>
<line x1="360.5" y1="788" x2="360.5" y2="-12" stroke="#3B392C" stroke-opacity="0.055"/>
<line x1="396.5" y1="788" x2="396.5" y2="-12" stroke="#3B392C" stroke-opacity="0.055"/>
<line x1="432.5" y1="788" x2="432.5" y2="-12" stroke="#3B392C" stroke-opacity="0.055"/>
<line x1="468.5" y1="788" x2="468.5" y2="-12" stroke="#3B392C" stroke-opacity="0.055"/>
<line x1="504.5" y1="788" x2="504.5" y2="-12" stroke="#3B392C" stroke-opacity="0.055"/>
<line x1="540.5" y1="788" x2="540.5" y2="-12" stroke="#3B392C" stroke-opacity="0.055"/>
<line x1="576.5" y1="788" x2="576.5" y2="-12" stroke="#3B392C" stroke-opacity="0.055"/>
<line x1="612.5" y1="788" x2="612.5" y2="-12" stroke="#3B392C" stroke-opacity="0.055"/>
<line x1="648.5" y1="788" x2="648.5" y2="-12" stroke="#3B392C" stroke-opacity="0.055"/>
<line x1="684.5" y1="788" x2="684.5" y2="-12" stroke="#3B392C" stroke-opacity="0.055"/>
<line x1="720.5" y1="788" x2="720.5" y2="-12" stroke="#3B392C" stroke-opacity="0.055"/>
<line x1="756.5" y1="788" x2="756.5" y2="-12" stroke="#3B392C" stroke-opacity="0.055"/>
</g>
<defs>
<clipPath id="clip0_109_156">
<rect width="792" height="780" fill="white"/>
</clipPath>
</defs>
</svg>
