<svg width="175" height="25" viewBox="0 0 175 25" fill="none" xmlns="http://www.w3.org/2000/svg">
<g clip-path="url(#clip0_211_964)">
<path d="M20 7.44446C20 7.06137 20.158 6.69396 20.4393 6.42307C20.7206 6.15218 21.1022 6 21.5 6H33.5C33.8978 6 34.2794 6.15218 34.5607 6.42307C34.842 6.69396 35 7.06137 35 7.44446V15.389C35 15.7721 34.842 16.1395 34.5607 16.4104C34.2794 16.6813 33.8978 16.8335 33.5 16.8335H30.0605L28.0302 18.7885C27.8896 18.9239 27.6989 19 27.5 19C27.3011 19 27.1104 18.9239 26.9698 18.7885L24.9395 16.8335H21.5C21.1022 16.8335 20.7206 16.6813 20.4393 16.4104C20.158 16.1395 20 15.7721 20 15.389V7.44446ZM33.5 7.44446H21.5V15.389H25.25C25.4489 15.389 25.6396 15.4652 25.7802 15.6006L27.5 17.2567L29.2198 15.6006C29.3604 15.4652 29.5511 15.389 29.75 15.389H33.5V7.44446ZM23 9.97227C23 9.78072 23.079 9.59702 23.2197 9.46158C23.3603 9.32613 23.5511 9.25004 23.75 9.25004H31.25C31.4489 9.25004 31.6397 9.32613 31.7803 9.46158C31.921 9.59702 32 9.78072 32 9.97227C32 10.1638 31.921 10.3475 31.7803 10.483C31.6397 10.6184 31.4489 10.6945 31.25 10.6945H23.75C23.5511 10.6945 23.3603 10.6184 23.2197 10.483C23.079 10.3475 23 10.1638 23 9.97227ZM23 12.8612C23 12.6696 23.079 12.4859 23.2197 12.3505C23.3603 12.2151 23.5511 12.139 23.75 12.139H28.25C28.4489 12.139 28.6397 12.2151 28.7803 12.3505C28.921 12.4859 29 12.6696 29 12.8612C29 13.0527 28.921 13.2364 28.7803 13.3719C28.6397 13.5073 28.4489 13.5834 28.25 13.5834H23.75C23.5511 13.5834 23.3603 13.5073 23.2197 13.3719C23.079 13.2364 23 13.0527 23 12.8612Z" fill="#3B392C"/>
<rect x="15.75" y="0.75" width="23.5" height="23.5" stroke="#3B392C" stroke-width="1.5"/>
</g>
<g clip-path="url(#clip1_211_964)">
<path d="M67.5 6.5V5H75V6.5H67.5ZM67.5 9.5V8H75V9.5H67.5ZM67.5 12.5V11H75V12.5H67.5ZM72.7125 20C71.15 20 69.6062 19.6595 68.0812 18.9785C66.5562 18.2975 65.1687 17.3317 63.9187 16.0812C62.6687 14.8307 61.7032 13.4433 61.0222 11.9188C60.3412 10.3943 60.0005 8.8505 60 7.2875C60 7.0625 60.075 6.875 60.225 6.725C60.375 6.575 60.5625 6.5 60.7875 6.5H63.825C64 6.5 64.1562 6.5595 64.2937 6.6785C64.4312 6.7975 64.5125 6.938 64.5375 7.1L65.025 9.725C65.05 9.925 65.0438 10.0938 65.0063 10.2313C64.9688 10.3688 64.9 10.4875 64.8 10.5875L62.9812 12.425C63.2312 12.8875 63.528 13.3345 63.8715 13.766C64.215 14.1975 64.5933 14.613 65.0063 15.0125C65.3938 15.4 65.8 15.7595 66.225 16.091C66.65 16.4225 67.1 16.7255 67.575 17L69.3375 15.2375C69.45 15.125 69.597 15.0407 69.7785 14.9847C69.96 14.9287 70.138 14.913 70.3125 14.9375L72.9 15.4625C73.075 15.5125 73.2187 15.6032 73.3312 15.7347C73.4437 15.8662 73.5 16.013 73.5 16.175V19.2125C73.5 19.4375 73.425 19.625 73.275 19.775C73.125 19.925 72.9375 20 72.7125 20Z" fill="#3B392C"/>
<rect x="55.75" y="0.75" width="23.5" height="23.5" stroke="#3B392C" stroke-width="1.5"/>
</g>
<g clip-path="url(#clip2_211_964)">
<rect x="95.75" y="0.75" width="23.5" height="23.5" stroke="#3B392C" stroke-width="1.5"/>
<path d="M115 8.375C115 7.61875 114.325 7 113.5 7H101.5C100.675 7 100 7.61875 100 8.375V16.625C100 17.3813 100.675 18 101.5 18H113.5C114.325 18 115 17.3813 115 16.625V8.375ZM113.5 8.375L107.5 11.8125L101.5 8.375H113.5ZM113.5 16.625H101.5V9.75L107.5 13.1875L113.5 9.75V16.625Z" fill="#3B392C"/>
</g>
<g clip-path="url(#clip3_211_964)">
<rect x="135.75" y="0.75" width="23.5" height="23.5" stroke="#3B392C" stroke-width="1.5"/>
<path d="M146.158 16.5241H148.754V19H146.158V16.5241ZM148.754 14.4876V15.2861H146.158V13.4292C146.158 13.1008 146.295 12.786 146.538 12.5538C146.782 12.3216 147.112 12.1912 147.456 12.1912C147.825 12.1912 148.186 12.0913 148.497 11.9032C148.809 11.715 149.058 11.4464 149.216 11.1285C149.373 10.8106 149.433 10.4566 149.388 10.1075C149.343 9.75848 149.195 9.4288 148.961 9.15686C148.728 8.88491 148.418 8.68188 148.068 8.57137C147.717 8.46087 147.342 8.44745 146.984 8.53267C146.626 8.61789 146.301 8.79824 146.047 9.05275C145.792 9.30726 145.619 9.62545 145.547 9.97031L143 9.48379C143.158 8.73121 143.522 8.03212 144.056 7.45797C144.59 6.88382 145.275 6.45522 146.039 6.21597C146.804 5.97672 147.621 5.9354 148.408 6.09625C149.195 6.2571 149.923 6.61434 150.518 7.13145C151.112 7.64856 151.552 8.30699 151.793 9.03944C152.033 9.77189 152.065 10.5521 151.886 11.3003C151.706 12.0484 151.322 12.7378 150.772 13.2978C150.221 13.8578 149.525 14.2684 148.754 14.4876Z" fill="#3B392C"/>
</g>
<defs>
<clipPath id="clip0_211_964">
<rect width="25" height="25" fill="white" transform="translate(15)"/>
</clipPath>
<clipPath id="clip1_211_964">
<rect width="25" height="25" fill="white" transform="translate(55)"/>
</clipPath>
<clipPath id="clip2_211_964">
<rect width="25" height="25" fill="white" transform="translate(95)"/>
</clipPath>
<clipPath id="clip3_211_964">
<rect width="25" height="25" fill="white" transform="translate(135)"/>
</clipPath>
</defs>
</svg>
