<svg width="45" height="45" viewBox="0 0 45 45" fill="none" xmlns="http://www.w3.org/2000/svg">
<path d="M33.1021 12.7729C31.1625 11.8688 29.0625 11.2125 26.875 10.8333C26.8558 10.8327 26.8367 10.8363 26.8191 10.8439C26.8015 10.8514 26.7857 10.8628 26.7729 10.8771C26.5104 11.3583 26.2042 11.9854 26 12.4667C23.6798 12.1167 21.3202 12.1167 19 12.4667C18.7958 11.9708 18.4896 11.3583 18.2125 10.8771C18.1979 10.8479 18.1542 10.8333 18.1104 10.8333C15.9229 11.2125 13.8375 11.8688 11.8833 12.7729C11.8688 12.7729 11.8542 12.7875 11.8396 12.8021C7.87292 18.7375 6.77917 24.5125 7.31876 30.2292C7.31876 30.2583 7.33334 30.2875 7.36251 30.3021C9.98751 32.2271 12.5104 33.3938 15.0042 34.1667C15.0479 34.1813 15.0917 34.1667 15.1063 34.1375C15.6896 33.3354 16.2146 32.4896 16.6667 31.6C16.6958 31.5417 16.6667 31.4833 16.6083 31.4688C15.7771 31.1479 14.9896 30.7688 14.2167 30.3313C14.1583 30.3021 14.1583 30.2146 14.2021 30.1708C14.3625 30.0542 14.5229 29.9229 14.6833 29.8063C14.7125 29.7771 14.7563 29.7771 14.7854 29.7917C19.8021 32.0813 25.2125 32.0813 30.1708 29.7917C30.2 29.7771 30.2438 29.7771 30.2729 29.8063C30.4333 29.9375 30.5938 30.0542 30.7542 30.1854C30.8125 30.2292 30.8125 30.3167 30.7396 30.3458C29.9813 30.7979 29.1792 31.1625 28.3479 31.4833C28.2896 31.4979 28.275 31.5708 28.2896 31.6146C28.7563 32.5042 29.2813 33.35 29.85 34.1521C29.8938 34.1667 29.9375 34.1813 29.9813 34.1667C32.4896 33.3938 35.0125 32.2271 37.6375 30.3021C37.6667 30.2875 37.6813 30.2583 37.6813 30.2292C38.3229 23.6229 36.6167 17.8917 33.1604 12.8021C33.1458 12.7875 33.1313 12.7729 33.1021 12.7729ZM17.425 26.7438C15.9229 26.7438 14.6688 25.3583 14.6688 23.6521C14.6688 21.9458 15.8938 20.5604 17.425 20.5604C18.9708 20.5604 20.1958 21.9604 20.1813 23.6521C20.1813 25.3583 18.9563 26.7438 17.425 26.7438ZM27.5896 26.7438C26.0875 26.7438 24.8333 25.3583 24.8333 23.6521C24.8333 21.9458 26.0583 20.5604 27.5896 20.5604C29.1354 20.5604 30.3604 21.9604 30.3458 23.6521C30.3458 25.3583 29.1354 26.7438 27.5896 26.7438Z" fill="#3B392C"/>
</svg>
