<svg width="31" height="31" viewBox="0 0 31 31" fill="none" xmlns="http://www.w3.org/2000/svg">
<path d="M23.8539 7.63893C22.2864 6.90821 20.5892 6.37786 18.8214 6.07143C18.8059 6.07093 18.7905 6.07384 18.7762 6.07995C18.762 6.08606 18.7492 6.09522 18.7389 6.10678C18.5267 6.49571 18.2792 7.0025 18.1142 7.39143C16.2391 7.10857 14.3322 7.10857 12.4571 7.39143C12.2921 6.99071 12.0446 6.49571 11.8207 6.10678C11.8089 6.08321 11.7735 6.07143 11.7382 6.07143C9.97032 6.37786 8.28496 6.90821 6.70568 7.63893C6.69389 7.63893 6.68211 7.65071 6.67032 7.6625C3.46461 12.4593 2.58068 17.1264 3.01675 21.7464C3.01675 21.77 3.02854 21.7936 3.05211 21.8054C5.17353 23.3611 7.21246 24.3039 9.22782 24.9286C9.26318 24.9404 9.29853 24.9286 9.31032 24.905C9.78175 24.2568 10.206 23.5732 10.5714 22.8543C10.595 22.8071 10.5714 22.76 10.5242 22.7482C9.85246 22.4889 9.21604 22.1825 8.59139 21.8289C8.54425 21.8054 8.54425 21.7346 8.57961 21.6993C8.70925 21.605 8.83889 21.4989 8.96853 21.4046C8.99211 21.3811 9.02746 21.3811 9.05103 21.3929C13.1053 23.2432 17.4778 23.2432 21.485 21.3929C21.5085 21.3811 21.5439 21.3811 21.5675 21.4046C21.6971 21.5107 21.8267 21.605 21.9564 21.7111C22.0035 21.7464 22.0035 21.8171 21.9446 21.8407C21.3317 22.2061 20.6835 22.5007 20.0117 22.76C19.9646 22.7718 19.9528 22.8307 19.9646 22.8661C20.3417 23.585 20.766 24.2686 21.2257 24.9168C21.261 24.9286 21.2964 24.9404 21.3317 24.9286C23.3589 24.3039 25.3978 23.3611 27.5192 21.8054C27.5428 21.7936 27.5546 21.77 27.5546 21.7464C28.0732 16.4075 26.6942 11.7757 23.901 7.6625C23.8892 7.65071 23.8775 7.63893 23.8539 7.63893ZM11.1842 18.9296C9.97032 18.9296 8.95675 17.81 8.95675 16.4311C8.95675 15.0521 9.94675 13.9325 11.1842 13.9325C12.4335 13.9325 13.4235 15.0639 13.4117 16.4311C13.4117 17.81 12.4217 18.9296 11.1842 18.9296ZM19.3989 18.9296C18.185 18.9296 17.1714 17.81 17.1714 16.4311C17.1714 15.0521 18.1614 13.9325 19.3989 13.9325C20.6482 13.9325 21.6382 15.0639 21.6264 16.4311C21.6264 17.81 20.6482 18.9296 19.3989 18.9296Z" fill="#3B392C"/>
</svg>
