<svg width="35" height="35" viewBox="0 0 35 35" fill="none" xmlns="http://www.w3.org/2000/svg">
<path d="M27.4963 8.32875C25.6675 7.47625 23.6875 6.8575 21.625 6.5C21.607 6.49942 21.589 6.50282 21.5723 6.50994C21.5557 6.51707 21.5408 6.52776 21.5288 6.54125C21.2813 6.995 20.9925 7.58625 20.8 8.04C18.6124 7.71 16.3877 7.71 14.2 8.04C14.0075 7.5725 13.7188 6.995 13.4575 6.54125C13.4438 6.51375 13.4025 6.5 13.3613 6.5C11.2988 6.8575 9.33254 7.47625 7.49004 8.32875C7.47629 8.32875 7.46254 8.3425 7.44879 8.35625C3.70879 13.9525 2.67754 19.3975 3.18629 24.7875C3.18629 24.815 3.20004 24.8425 3.22754 24.8563C5.70254 26.6713 8.08129 27.7713 10.4325 28.5C10.4738 28.5138 10.515 28.5 10.5288 28.4725C11.0788 27.7163 11.5738 26.9188 12 26.08C12.0275 26.025 12 25.97 11.945 25.9563C11.1613 25.6538 10.4188 25.2963 9.69004 24.8838C9.63504 24.8563 9.63504 24.7738 9.67629 24.7325C9.82754 24.6225 9.97879 24.4988 10.13 24.3888C10.1575 24.3613 10.1988 24.3613 10.2263 24.375C14.9563 26.5338 20.0575 26.5338 24.7325 24.375C24.76 24.3613 24.8013 24.3613 24.8288 24.3888C24.98 24.5125 25.1313 24.6225 25.2825 24.7463C25.3375 24.7875 25.3375 24.87 25.2688 24.8975C24.5538 25.3238 23.7975 25.6675 23.0138 25.97C22.9588 25.9838 22.945 26.0525 22.9588 26.0938C23.3988 26.9325 23.8938 27.73 24.43 28.4863C24.4713 28.5 24.5125 28.5138 24.5538 28.5C26.9188 27.7713 29.2975 26.6713 31.7725 24.8563C31.8 24.8425 31.8138 24.815 31.8138 24.7875C32.4188 18.5588 30.81 13.155 27.5513 8.35625C27.5375 8.3425 27.5238 8.32875 27.4963 8.32875ZM12.715 21.5013C11.2988 21.5013 10.1163 20.195 10.1163 18.5863C10.1163 16.9775 11.2713 15.6713 12.715 15.6713C14.1725 15.6713 15.3275 16.9913 15.3138 18.5863C15.3138 20.195 14.1588 21.5013 12.715 21.5013ZM22.2988 21.5013C20.8825 21.5013 19.7 20.195 19.7 18.5863C19.7 16.9775 20.855 15.6713 22.2988 15.6713C23.7563 15.6713 24.9113 16.9913 24.8975 18.5863C24.8975 20.195 23.7563 21.5013 22.2988 21.5013Z" fill="#555555"/>
</svg>
