<svg width="35" height="35" viewBox="0 0 35 35" fill="none" xmlns="http://www.w3.org/2000/svg">
<path d="M27.4962 8.32875C25.6675 7.47625 23.6875 6.8575 21.625 6.5C21.6069 6.49942 21.5889 6.50282 21.5723 6.50994C21.5556 6.51707 21.5408 6.52776 21.5287 6.54125C21.2812 6.995 20.9925 7.58625 20.8 8.04C18.6124 7.71 16.3876 7.71 14.2 8.04C14.0075 7.5725 13.7187 6.995 13.4575 6.54125C13.4437 6.51375 13.4025 6.5 13.3612 6.5C11.2987 6.8575 9.33248 7.47625 7.48998 8.32875C7.47623 8.32875 7.46248 8.3425 7.44873 8.35625C3.70873 13.9525 2.67748 19.3975 3.18623 24.7875C3.18623 24.815 3.19998 24.8425 3.22748 24.8563C5.70248 26.6713 8.08123 27.7713 10.4325 28.5C10.4737 28.5138 10.515 28.5 10.5287 28.4725C11.0787 27.7163 11.5737 26.9188 12 26.08C12.0275 26.025 12 25.97 11.945 25.9563C11.1612 25.6538 10.4187 25.2963 9.68998 24.8838C9.63498 24.8563 9.63498 24.7738 9.67623 24.7325C9.82748 24.6225 9.97873 24.4988 10.13 24.3888C10.1575 24.3613 10.1987 24.3613 10.2262 24.375C14.9562 26.5338 20.0575 26.5338 24.7325 24.375C24.76 24.3613 24.8012 24.3613 24.8287 24.3888C24.98 24.5125 25.1312 24.6225 25.2825 24.7463C25.3375 24.7875 25.3375 24.87 25.2687 24.8975C24.5537 25.3238 23.7975 25.6675 23.0137 25.97C22.9587 25.9838 22.945 26.0525 22.9587 26.0938C23.3987 26.9325 23.8937 27.73 24.43 28.4863C24.4712 28.5 24.5125 28.5138 24.5537 28.5C26.9187 27.7713 29.2975 26.6713 31.7725 24.8563C31.8 24.8425 31.8137 24.815 31.8137 24.7875C32.4187 18.5588 30.81 13.155 27.5512 8.35625C27.5375 8.3425 27.5237 8.32875 27.4962 8.32875ZM12.715 21.5013C11.2987 21.5013 10.1162 20.195 10.1162 18.5863C10.1162 16.9775 11.2712 15.6713 12.715 15.6713C14.1725 15.6713 15.3275 16.9913 15.3137 18.5863C15.3137 20.195 14.1587 21.5013 12.715 21.5013ZM22.2987 21.5013C20.8825 21.5013 19.7 20.195 19.7 18.5863C19.7 16.9775 20.855 15.6713 22.2987 15.6713C23.7562 15.6713 24.9112 16.9913 24.8975 18.5863C24.8975 20.195 23.7562 21.5013 22.2987 21.5013Z" fill="#3B392C"/>
</svg>
