<svg width="175" height="25" viewBox="0 0 175 25" fill="none" xmlns="http://www.w3.org/2000/svg">
<g clip-path="url(#clip0_214_2)">
<rect x="15.75" y="0.75" width="23.5" height="23.5" stroke="#3B392C" stroke-width="1.5"/>
<path d="M34.25 9.125L31.25 10.625M31.25 10.625L30.875 10.8125L27.5 12.5M31.25 10.625V13.25M31.25 10.625L24.125 6.875M27.5 12.5L20.75 9.125M27.5 12.5V19.625M30.1835 6.0365L31.6835 6.824C33.2967 7.67075 34.1037 8.09375 34.5522 8.855C35 9.6155 35 10.5628 35 12.4565V12.5443C35 14.4372 35 15.3845 34.5522 16.145C34.1037 16.9063 33.2967 17.33 31.6835 18.1768L30.1835 18.9635C28.8665 19.6543 28.208 20 27.5 20C26.792 20 26.1335 19.655 24.8165 18.9635L23.3165 18.176C21.7032 17.3293 20.8962 16.9063 20.4477 16.145C20 15.3845 20 14.4373 20 12.545V12.4572C20 10.5635 20 9.61625 20.4477 8.85575C20.8962 8.0945 21.7032 7.67075 23.3165 6.82475L24.8165 6.03725C26.1335 5.34575 26.792 5 27.5 5C28.208 5 28.8665 5.345 30.1835 6.0365Z" stroke="#3B392C" stroke-width="1.5" stroke-linecap="round"/>
</g>
<g clip-path="url(#clip1_214_2)">
<rect x="55.75" y="0.75" width="23.5" height="23.5" stroke="#3B392C" stroke-width="1.5"/>
<path d="M67.5 19V6M61 12.5H74" stroke="#3B392C" stroke-width="1.75"/>
</g>
<g clip-path="url(#clip2_214_2)">
<rect x="95.75" y="0.75" width="23.5" height="23.5" stroke="#3B392C" stroke-width="1.5"/>
<path d="M101 19L105.137 14.8641M108.682 6L114 11.3179M109.864 7.18207L106.318 10.7264C106.318 10.7264 103.955 10.1359 102.182 11.9085L108.091 17.817C109.864 16.0444 109.273 13.6811 109.273 13.6811L112.818 10.1359L109.864 7.18207Z" stroke="#3B392C" stroke-width="1.75"/>
</g>
<g clip-path="url(#clip3_214_2)">
<rect x="135.75" y="0.75" width="23.5" height="23.5" stroke="#3B392C" stroke-width="1.5"/>
<path d="M154.008 12.5H153.078C153.005 12.5 152.945 12.5598 152.945 12.6328V17.9453H142.055V7.05469H147.367C147.44 7.05469 147.5 6.99492 147.5 6.92188V5.99219C147.5 5.91914 147.44 5.85938 147.367 5.85938H141.391C141.097 5.85938 140.859 6.09678 140.859 6.39062V18.6094C140.859 18.9032 141.097 19.1406 141.391 19.1406H153.609C153.903 19.1406 154.141 18.9032 154.141 18.6094V12.6328C154.141 12.5598 154.081 12.5 154.008 12.5Z" fill="#3B392C" stroke="#3B392C" stroke-width="0.5"/>
<path d="M144.909 12.8802L144.877 14.8541C144.875 15.0019 144.995 15.123 145.143 15.123H145.149L147.108 15.0749C147.141 15.0732 147.175 15.06 147.198 15.0367L154.102 8.14707C154.154 8.09561 154.154 8.01094 154.102 7.95947L152.039 5.89756C152.012 5.871 151.979 5.85938 151.944 5.85938C151.909 5.85938 151.876 5.87266 151.85 5.89756L144.947 12.7872C144.923 12.8123 144.909 12.8455 144.909 12.8802ZM145.963 13.272L151.944 7.30371L152.695 8.05244L146.71 14.024L145.951 14.0423L145.963 13.272Z" fill="#3B392C" stroke="#3B392C" stroke-width="0.5"/>
</g>
<defs>
<clipPath id="clip0_214_2">
<rect width="25" height="25" fill="white" transform="translate(15)"/>
</clipPath>
<clipPath id="clip1_214_2">
<rect width="25" height="25" fill="white" transform="translate(55)"/>
</clipPath>
<clipPath id="clip2_214_2">
<rect width="25" height="25" fill="white" transform="translate(95)"/>
</clipPath>
<clipPath id="clip3_214_2">
<rect width="25" height="25" fill="white" transform="translate(135)"/>
</clipPath>
</defs>
</svg>
