<svg width="45" height="45" viewBox="0 0 45 45" fill="none" xmlns="http://www.w3.org/2000/svg">
<g clip-path="url(#clip0_7_11)">
<path d="M34.7438 25.7937C34.4376 24.8406 34.1029 23.8968 33.74 22.9637L32.3913 19.595C32.3925 19.555 32.4088 18.8925 32.4088 18.55C32.4075 12.79 29.6888 7 23 7C16.3113 7 13.5925 12.79 13.5925 18.5512C13.5925 18.8937 13.6088 19.5562 13.61 19.5962L12.26 22.965C11.8969 23.8978 11.5626 24.8416 11.2575 25.795C9.98128 29.8987 10.395 31.5987 10.71 31.6362C11.385 31.7175 13.3388 28.5462 13.3388 28.5462C13.3388 30.3825 14.2838 32.78 16.3313 34.51C15.5663 34.745 14.6275 35.1087 14.025 35.5537C13.4825 35.9537 13.5513 36.3612 13.6488 36.5262C14.0775 37.2487 21.0025 36.9875 23.0013 36.7625C25.0013 36.9875 31.9263 37.2487 32.355 36.5262C32.4525 36.3612 32.52 35.9537 31.9788 35.5537C31.375 35.1087 30.4375 34.7462 29.6713 34.5087C31.7175 32.7787 32.6625 30.3812 32.6625 28.545C32.6625 28.545 34.6163 31.7162 35.2913 31.635C35.605 31.5975 36.0175 29.8975 34.7438 25.7937ZM23.8275 13.0575C23.8763 11.7425 24.6513 10.71 25.5588 10.75C26.4663 10.79 27.16 11.89 27.1113 13.205C27.0625 14.5187 26.2875 15.5525 25.38 15.5125C24.4725 15.4725 23.7775 14.3725 23.8275 13.0575ZM20.4425 10.75C21.3488 10.7087 22.1238 11.7425 22.1725 13.0575C22.2225 14.3725 21.5263 15.4712 20.62 15.5112C19.7125 15.5525 18.9375 14.5187 18.8888 13.205C18.84 11.89 19.535 10.7912 20.4425 10.75ZM17.2763 17.3675C17.5188 16.83 19.96 16.2325 22.9838 16.2325H23.0163C26.0388 16.2325 28.4813 16.8312 28.7238 17.3675C28.7353 17.3913 28.7413 17.4173 28.7413 17.4437C28.7404 17.4829 28.7296 17.5175 28.7088 17.5475C28.505 17.845 25.7925 19.3175 23.0175 19.3175H22.985C20.2088 19.3175 17.4975 17.845 17.2938 17.5475C17.2747 17.5219 17.2631 17.4917 17.26 17.4599C17.2569 17.4282 17.2625 17.3963 17.2763 17.3675ZM30.3038 28.145C30.0288 32.74 27.3 35.6287 23.0863 35.6712H22.915C18.7025 35.63 15.9725 32.74 15.6988 28.145C15.5975 26.4575 15.7 25.025 15.8825 23.8575C16.28 23.9367 16.6792 24.01 17.08 24.0775V28.46C17.08 28.46 19.1525 28.8775 21.2275 28.5887V24.5575C21.8375 24.5912 22.4275 24.6075 22.985 24.6H23.0163C25.1138 24.6262 27.6588 24.345 30.12 23.8575C30.3025 25.025 30.4038 26.4575 30.3038 28.145ZM21.1 14.255C21.4913 14.2037 21.7775 13.7437 21.735 13.2237C21.6938 12.705 21.3425 12.3237 20.9488 12.375C20.5575 12.425 20.2725 12.8862 20.3138 13.405C20.3563 13.9262 20.7075 14.305 21.1 14.255ZM26.0988 13.445C26.1963 13.4912 26.375 13.4975 26.46 13.2625C26.5038 13.1437 26.4913 13.0562 26.4488 12.995C26.42 12.9537 26.2825 12.8475 25.985 12.775C24.855 12.5 24.3088 13.255 24.2288 13.3987C24.1788 13.4887 24.2138 13.6187 24.2988 13.6825C24.3825 13.7462 24.4725 13.7287 24.5225 13.675C25.2475 12.89 26.035 13.415 26.0988 13.445Z" fill="#3B392C"/>
</g>
<defs>
<clipPath id="clip0_7_11">
<rect width="45" height="45" rx="7.32422" fill="white"/>
</clipPath>
</defs>
</svg>
