<svg width="35" height="35" viewBox="0 0 35 35" fill="none" xmlns="http://www.w3.org/2000/svg">
<g clip-path="url(#clip0_35_12)">
<path d="M28.9608 21.5408C28.675 20.6512 28.3626 19.7704 28.024 18.8995L26.7651 15.7553C26.7663 15.718 26.7815 15.0997 26.7815 14.78C26.7803 9.404 24.2428 4 18 4C11.7571 4 9.21964 9.404 9.21964 14.7812C9.21964 15.1008 9.23481 15.7192 9.23597 15.7565L7.97597 18.9007C7.63704 19.7713 7.325 20.6522 7.04031 21.542C5.84914 25.3722 6.2353 26.9588 6.5293 26.9938C7.15931 27.0697 8.98281 24.1098 8.98281 24.1098C8.98281 25.8237 9.8648 28.0613 11.7758 29.676C11.0618 29.8953 10.1856 30.2348 9.62331 30.6502C9.11697 31.0235 9.18114 31.4038 9.27214 31.5578C9.67231 32.2322 16.1356 31.9883 18.0011 31.7783C19.8678 31.9883 26.3311 32.2322 26.7313 31.5578C26.8223 31.4038 26.8853 31.0235 26.3801 30.6502C25.8166 30.2348 24.9416 29.8965 24.2265 29.6748C26.1363 28.0602 27.0183 25.8225 27.0183 24.1087C27.0183 24.1087 28.8418 27.0685 29.4718 26.9927C29.7646 26.9577 30.1496 25.371 28.9608 21.5408ZM18.7723 9.65367C18.8178 8.42633 19.5411 7.46267 20.3881 7.5C21.2351 7.53733 21.8826 8.564 21.8371 9.79133C21.7916 11.0175 21.0683 11.9823 20.2213 11.945C19.3743 11.9077 18.7256 10.881 18.7723 9.65367ZM15.613 7.5C16.4588 7.4615 17.1821 8.42633 17.2276 9.65367C17.2743 10.881 16.6245 11.9065 15.7786 11.9438C14.9316 11.9823 14.2083 11.0175 14.1628 9.79133C14.1173 8.564 14.766 7.5385 15.613 7.5ZM12.6578 13.6763C12.8841 13.1747 15.1626 12.617 17.9848 12.617H18.0151C20.8361 12.617 23.1158 13.1758 23.3421 13.6763C23.3529 13.6985 23.3585 13.7228 23.3585 13.7475C23.3577 13.7841 23.3476 13.8163 23.3281 13.8443C23.138 14.122 20.6063 15.4963 18.0163 15.4963H17.986C15.3948 15.4963 12.8643 14.122 12.6741 13.8443C12.6564 13.8205 12.6455 13.7922 12.6426 13.7626C12.6397 13.733 12.645 13.7032 12.6578 13.6763ZM24.8168 23.7353C24.5601 28.024 22.0133 30.7202 18.0805 30.7598H17.9206C13.989 30.7213 11.441 28.024 11.1855 23.7353C11.091 22.1603 11.1866 20.8233 11.357 19.7337C11.728 19.8076 12.1005 19.876 12.4746 19.939V24.0293C12.4746 24.0293 14.409 24.419 16.3456 24.1495V20.387C16.915 20.4185 17.4656 20.4337 17.986 20.4267H18.0151C19.9728 20.4512 22.3481 20.1887 24.6453 19.7337C24.8156 20.8233 24.9101 22.1603 24.8168 23.7353ZM16.2266 10.7713C16.5918 10.7235 16.859 10.2942 16.8193 9.80883C16.7808 9.32467 16.453 8.96883 16.0855 9.01667C15.7203 9.06333 15.4543 9.49383 15.4928 9.978C15.5325 10.4645 15.8603 10.818 16.2266 10.7713ZM20.8921 10.0153C20.9831 10.0585 21.15 10.0643 21.2293 9.845C21.2701 9.73417 21.2585 9.6525 21.2188 9.59533C21.192 9.55683 21.0636 9.45767 20.786 9.39C19.7313 9.13333 19.2215 9.838 19.1468 9.97217C19.1001 10.0562 19.1328 10.1775 19.2121 10.237C19.2903 10.2965 19.3743 10.2802 19.421 10.23C20.0976 9.49733 20.8326 9.98733 20.8921 10.0153Z" fill="#3B392C"/>
</g>
<defs>
<clipPath id="clip0_35_12">
<rect width="35" height="35" rx="7.32422" fill="white"/>
</clipPath>
</defs>
</svg>
