<svg width="35" height="35" viewBox="0 0 35 35" fill="none" xmlns="http://www.w3.org/2000/svg">
<g clip-path="url(#clip0_211_1004)">
<path d="M28.9609 21.5408C28.6751 20.6512 28.3627 19.7704 28.024 18.8995L26.7652 15.7553C26.7664 15.718 26.7815 15.0997 26.7815 14.78C26.7804 9.404 24.2429 4 18 4C11.7572 4 9.2197 9.404 9.2197 14.7812C9.2197 15.1008 9.23487 15.7192 9.23603 15.7565L7.97603 18.9007C7.6371 19.7713 7.32506 20.6522 7.04037 21.542C5.8492 25.3722 6.23537 26.9588 6.52937 26.9938C7.15937 27.0697 8.98287 24.1098 8.98287 24.1098C8.98287 25.8237 9.86487 28.0613 11.7759 29.676C11.0619 29.8953 10.1857 30.2348 9.62337 30.6502C9.11703 31.0235 9.1812 31.4038 9.2722 31.5578C9.67237 32.2322 16.1357 31.9883 18.0012 31.7783C19.8679 31.9883 26.3312 32.2322 26.7314 31.5578C26.8224 31.4038 26.8854 31.0235 26.3802 30.6502C25.8167 30.2348 24.9417 29.8965 24.2265 29.6748C26.1364 28.0602 27.0184 25.8225 27.0184 24.1087C27.0184 24.1087 28.8419 27.0685 29.4719 26.9927C29.7647 26.9577 30.1497 25.371 28.9609 21.5408ZM18.7724 9.65367C18.8179 8.42633 19.5412 7.46267 20.3882 7.5C21.2352 7.53733 21.8827 8.564 21.8372 9.79133C21.7917 11.0175 21.0684 11.9823 20.2214 11.945C19.3744 11.9077 18.7257 10.881 18.7724 9.65367ZM15.613 7.5C16.4589 7.4615 17.1822 8.42633 17.2277 9.65367C17.2744 10.881 16.6245 11.9065 15.7787 11.9438C14.9317 11.9823 14.2084 11.0175 14.1629 9.79133C14.1174 8.564 14.766 7.5385 15.613 7.5ZM12.6579 13.6763C12.8842 13.1747 15.1627 12.617 17.9849 12.617H18.0152C20.8362 12.617 23.1159 13.1758 23.3422 13.6763C23.3529 13.6985 23.3585 13.7228 23.3585 13.7475C23.3578 13.7841 23.3476 13.8163 23.3282 13.8443C23.138 14.122 20.6064 15.4963 18.0164 15.4963H17.986C15.3949 15.4963 12.8644 14.122 12.6742 13.8443C12.6564 13.8205 12.6455 13.7922 12.6426 13.7626C12.6398 13.733 12.645 13.7032 12.6579 13.6763ZM24.8169 23.7353C24.5602 28.024 22.0134 30.7202 18.0805 30.7598H17.9207C13.989 30.7213 11.441 28.024 11.1855 23.7353C11.091 22.1603 11.1867 20.8233 11.357 19.7337C11.728 19.8076 12.1006 19.876 12.4747 19.939V24.0293C12.4747 24.0293 14.409 24.419 16.3457 24.1495V20.387C16.915 20.4185 17.4657 20.4337 17.986 20.4267H18.0152C19.9729 20.4512 22.3482 20.1887 24.6454 19.7337C24.8157 20.8233 24.9102 22.1603 24.8169 23.7353ZM16.2267 10.7713C16.5919 10.7235 16.859 10.2942 16.8194 9.80883C16.7809 9.32467 16.453 8.96883 16.0855 9.01667C15.7204 9.06333 15.4544 9.49383 15.4929 9.978C15.5325 10.4645 15.8604 10.818 16.2267 10.7713ZM20.8922 10.0153C20.9832 10.0585 21.15 10.0643 21.2294 9.845C21.2702 9.73417 21.2585 9.6525 21.2189 9.59533C21.192 9.55683 21.0637 9.45767 20.786 9.39C19.7314 9.13333 19.2215 9.838 19.1469 9.97217C19.1002 10.0562 19.1329 10.1775 19.2122 10.237C19.2904 10.2965 19.3744 10.2802 19.421 10.23C20.0977 9.49733 20.8327 9.98733 20.8922 10.0153Z" fill="#555555"/>
</g>
<defs>
<clipPath id="clip0_211_1004">
<rect width="35" height="35" rx="7.32422" fill="white"/>
</clipPath>
</defs>
</svg>
