<svg width="31" height="31" viewBox="0 0 31 31" fill="none" xmlns="http://www.w3.org/2000/svg">
<g clip-path="url(#clip0_67_26)">
<g clip-path="url(#clip1_67_26)">
<path d="M25.395 18.9636C25.15 18.201 24.8823 17.446 24.592 16.6996L23.513 14.0046C23.514 13.9726 23.527 13.4426 23.527 13.1686C23.526 8.56057 21.351 3.92857 16 3.92857C10.649 3.92857 8.47398 8.56057 8.47398 13.1696C8.47398 13.4436 8.48698 13.9736 8.48798 14.0056L7.40798 16.7006C7.11747 17.4468 6.85001 18.2019 6.60598 18.9646C5.58498 22.2476 5.91598 23.6076 6.16798 23.6376C6.70798 23.7026 8.27098 21.1656 8.27098 21.1656C8.27098 22.6346 9.02698 24.5526 10.665 25.9366C10.053 26.1246 9.30199 26.4156 8.81999 26.7716C8.38598 27.0916 8.44098 27.4176 8.51898 27.5496C8.86198 28.1276 14.402 27.9186 16.001 27.7386C17.601 27.9186 23.141 28.1276 23.484 27.5496C23.562 27.4176 23.616 27.0916 23.183 26.7716C22.7 26.4156 21.95 26.1256 21.337 25.9356C22.974 24.5516 23.73 22.6336 23.73 21.1646C23.73 21.1646 25.293 23.7016 25.833 23.6366C26.084 23.6066 26.414 22.2466 25.395 18.9636ZM16.662 8.77457C16.701 7.72257 17.321 6.89657 18.047 6.92857C18.773 6.96057 19.328 7.84057 19.289 8.89257C19.25 9.94357 18.63 10.7706 17.904 10.7386C17.178 10.7066 16.622 9.82657 16.662 8.77457ZM13.954 6.92857C14.679 6.89557 15.299 7.72257 15.338 8.77457C15.378 9.82657 14.821 10.7056 14.096 10.7376C13.37 10.7706 12.75 9.94357 12.711 8.89257C12.672 7.84057 13.228 6.96157 13.954 6.92857ZM11.421 12.2226C11.615 11.7926 13.568 11.3146 15.987 11.3146H16.013C18.431 11.3146 20.385 11.7936 20.579 12.2226C20.5882 12.2416 20.593 12.2624 20.593 12.2836C20.5923 12.3149 20.5837 12.3426 20.567 12.3666C20.404 12.6046 18.234 13.7826 16.014 13.7826H15.988C13.767 13.7826 11.598 12.6046 11.435 12.3666C11.4198 12.3461 11.4104 12.3219 11.4079 12.2965C11.4055 12.2711 11.41 12.2456 11.421 12.2226ZM21.843 20.8446C21.623 24.5206 19.44 26.8316 16.069 26.8656H15.932C12.562 26.8326 10.378 24.5206 10.159 20.8446C10.078 19.4946 10.16 18.3486 10.306 17.4146C10.624 17.4779 10.9433 17.5366 11.264 17.5906V21.0966C11.264 21.0966 12.922 21.4306 14.582 21.1996V17.9746C15.07 18.0016 15.542 18.0146 15.988 18.0086H16.013C17.691 18.0296 19.727 17.8046 21.696 17.4146C21.842 18.3486 21.923 19.4946 21.843 20.8446ZM14.48 9.73257C14.793 9.69157 15.022 9.32357 14.988 8.90757C14.955 8.49257 14.674 8.18757 14.359 8.22857C14.046 8.26857 13.818 8.63757 13.851 9.05257C13.885 9.46957 14.166 9.77257 14.48 9.73257ZM18.479 9.08457C18.557 9.12157 18.7 9.12657 18.768 8.93857C18.803 8.84357 18.793 8.77357 18.759 8.72457C18.736 8.69157 18.626 8.60657 18.388 8.54857C17.484 8.32857 17.047 8.93257 16.983 9.04757C16.943 9.11957 16.971 9.22357 17.039 9.27457C17.106 9.32557 17.178 9.31157 17.218 9.26857C17.798 8.64057 18.428 9.06057 18.479 9.08457Z" fill="#3B392C"/>
</g>
</g>
<defs>
<clipPath id="clip0_67_26">
<rect x="0.571411" y="0.5" width="30" height="30" rx="6.2779" fill="white"/>
</clipPath>
<clipPath id="clip1_67_26">
<rect width="24" height="24" fill="white" transform="translate(4 3.92857)"/>
</clipPath>
</defs>
</svg>
