<svg width="31" height="31" viewBox="0 0 31 31" fill="none" xmlns="http://www.w3.org/2000/svg">
<path d="M3.61262 11.6047C3.61249 11.5767 3.61237 11.5487 3.64007 11.495C3.7548 11.0424 3.82558 10.6114 3.93258 10.1897C4.07558 9.62592 4.24669 9.06932 4.40572 8.50965C4.40572 8.50965 4.40801 8.51563 4.42414 8.50731C4.54734 8.25229 4.6544 8.0056 4.76147 7.7589C4.76147 7.7589 4.76334 7.76309 4.77694 7.75452C4.80097 7.71246 4.8114 7.67897 4.82182 7.64548C4.82182 7.64548 4.82345 7.64807 4.84243 7.64551C4.90258 7.56247 4.94374 7.48199 4.98491 7.40152C4.98491 7.40152 4.98896 7.40705 5.00576 7.40299C5.04914 7.34192 5.07571 7.28491 5.10229 7.2279C5.10229 7.2279 5.10675 7.23362 5.12087 7.22794C5.14646 7.18827 5.15794 7.15426 5.16942 7.12026C5.16942 7.12026 5.17128 7.12447 5.18895 7.12232C5.24959 7.05818 5.29255 6.9962 5.33552 6.93422C5.33552 6.93422 5.33774 6.94149 5.3508 6.93751C5.37188 6.91391 5.37988 6.89428 5.38789 6.87464C5.38789 6.87464 5.38959 6.88253 5.40557 6.87718C5.43395 6.83785 5.44634 6.80387 5.45873 6.76988C5.45873 6.76988 5.46103 6.77404 5.4735 6.76814C5.49588 6.74405 5.50579 6.72585 5.5157 6.70766C5.5157 6.70766 5.51675 6.71384 5.52929 6.70872C5.55241 6.68542 5.56301 6.66725 5.5736 6.64908C5.5736 6.64908 5.57466 6.65548 5.58719 6.65031C5.60987 6.62665 5.62003 6.60816 5.63018 6.58967C5.63018 6.58967 5.63124 6.59619 5.64422 6.59147C5.66724 6.568 5.67728 6.54926 5.68732 6.53051C5.68732 6.53051 5.68922 6.53701 5.70207 6.53246C5.72456 6.50894 5.7342 6.48998 5.74384 6.47101C5.74384 6.47101 5.7458 6.4776 5.75897 6.47352C5.78208 6.45051 5.79203 6.43158 5.80198 6.41266C5.80198 6.41266 5.80419 6.41918 5.81724 6.41537C5.84101 6.39313 5.85172 6.37469 5.86244 6.35626C5.86244 6.35626 5.86327 6.36321 5.87797 6.35981C5.94317 6.36035 5.99367 6.3643 6.03622 6.38631C5.75939 6.91466 5.43692 7.40438 5.23178 7.93912C4.63599 9.49218 4.60174 11.1231 4.65736 12.7867C4.77334 14.055 4.893 15.2965 5.01083 16.5614C5.02415 16.67 5.03488 16.7561 5.05512 16.8399C5.31171 17.9022 5.56967 18.9643 5.82998 20.0472C5.92653 20.3109 6.00966 20.5586 6.11617 20.7958C6.5088 21.6701 6.95449 22.5114 7.66671 23.1788C7.66787 23.1782 7.66854 23.1758 7.67303 23.1903C7.69424 23.215 7.71096 23.2251 7.72896 23.2333C7.73023 23.2314 7.72644 23.2341 7.73076 23.2487C7.75205 23.2734 7.769 23.2835 7.78717 23.2916C7.78838 23.2896 7.78452 23.2921 7.78906 23.3066C7.81046 23.3313 7.82731 23.3415 7.84532 23.3497C7.84648 23.3478 7.84265 23.3502 7.84726 23.3647C7.86871 23.3895 7.88555 23.3997 7.90351 23.408C7.90464 23.406 7.90072 23.4083 7.90561 23.4226C7.92734 23.4471 7.94419 23.4574 7.96198 23.4659C7.96292 23.4641 7.95935 23.4659 7.96494 23.48C7.98669 23.5061 8.00284 23.5179 8.0245 23.5422C8.04178 23.5697 8.05715 23.5786 8.08276 23.5941C8.10166 23.6232 8.11775 23.6333 8.15015 23.6521C8.28286 23.7628 8.39896 23.8644 8.52398 23.9536C9.93868 24.9621 11.5603 25.3062 13.2794 25.4272C14.6048 25.3924 15.9035 25.3519 17.2271 25.3146C18.0883 25.1998 18.9247 25.0818 19.7842 24.9646C20.7922 24.6972 21.7919 24.4728 22.7564 24.1449C23.3717 23.9357 23.9349 23.5733 24.5215 23.2795C23.97 24.2761 23.1514 24.9949 22.1576 25.5216C21.1564 26.0523 20.0794 26.3493 18.9602 26.496C18.3449 26.5766 17.7244 26.6218 17.1126 26.7215C16.9364 26.7502 16.7449 26.881 16.6245 27.0203C16.1759 27.5392 15.7552 28.0821 15.321 28.6135C15.254 28.6954 15.1756 28.7699 15.0941 28.8378C14.8388 29.0505 14.6304 29.0645 14.4174 28.8173C13.9131 28.2325 13.4416 27.6194 12.9386 27.0334C12.8173 26.892 12.6373 26.7472 12.4633 26.7141C11.7431 26.5772 11.0091 26.511 10.2907 26.3666C8.52371 26.0114 6.89245 25.3707 5.66259 23.9754C5.3957 23.6726 5.17998 23.3247 4.9375 22.9564C4.87214 22.8101 4.80998 22.7051 4.74782 22.6001C4.74782 22.6001 4.75555 22.5977 4.7529 22.5857C4.73358 22.5612 4.71691 22.5489 4.70023 22.5366C4.70023 22.5366 4.70533 22.5346 4.70506 22.5159C4.67989 22.4541 4.65499 22.411 4.63009 22.3679C4.63009 22.3679 4.63794 22.3651 4.63599 22.3533C4.61803 22.3288 4.60201 22.3161 4.58599 22.3034C4.58599 22.3034 4.59035 22.3013 4.58962 22.2825C4.56547 22.2195 4.54204 22.1753 4.51862 22.1312C4.51862 22.1312 4.52516 22.1311 4.52602 22.1134C4.4875 22.0274 4.4481 21.9591 4.40871 21.8908C4.40871 21.8908 4.40134 21.8799 4.40577 21.8497C4.32938 21.6138 4.24856 21.4081 4.16774 21.2023C4.16774 21.2023 4.1732 21.2 4.17642 21.1791C4.17721 21.1296 4.17931 21.0997 4.17168 21.0726C3.92093 20.1801 3.71323 19.2803 3.65234 18.3505C3.6395 18.1544 3.56011 17.9627 3.51138 17.7689C3.50528 17.7416 3.49918 17.7143 3.51046 17.6474C3.53211 17.3478 3.53977 17.0878 3.54001 16.8277C3.54102 15.7509 3.54255 14.6741 3.53755 13.5973C3.53618 13.3018 3.51282 13.0064 3.49954 12.711C3.49796 12.6831 3.49638 12.6552 3.52208 12.6009C3.57044 12.2512 3.59153 11.928 3.61262 11.6047Z" fill="#9D9C92"/>
<path d="M3.49384 12.7365C3.51282 13.0064 3.53618 13.3018 3.53755 13.5973C3.54255 14.6741 3.54102 15.7509 3.54001 16.8277C3.53977 17.0878 3.53211 17.3478 3.51354 17.6265C3.47462 16.2379 3.44682 14.8306 3.42873 13.4232C3.4259 13.2031 3.46723 12.9824 3.49384 12.7365Z" fill="#9D9C92"/>
<path d="M3.5067 17.7924C3.56011 17.9627 3.6395 18.1544 3.65234 18.3505C3.71323 19.2803 3.92093 20.1801 4.17168 21.0726C4.17931 21.0997 4.17721 21.1296 4.17593 21.1821C4.02369 20.6603 3.84398 20.1209 3.73523 19.5675C3.62186 18.9907 3.57689 18.4004 3.5067 17.7924Z" fill="#9D9C92"/>
<path d="M4.38793 8.51993C4.24669 9.06932 4.07558 9.62592 3.93258 10.1897C3.82558 10.6114 3.7548 11.0424 3.64826 11.4755C3.7492 10.4661 3.96265 9.47377 4.38793 8.51993Z" fill="#9D9C92"/>
<path d="M3.60703 11.6286C3.59153 11.928 3.57044 12.2512 3.52904 12.581C3.53963 12.2759 3.57053 11.9642 3.60703 11.6286Z" fill="#9D9C92"/>
<path d="M6.37743 5.90515C6.2906 6.05154 6.18345 6.19947 6.06024 6.35782C5.99367 6.3643 5.94317 6.36035 5.8746 6.35885C6.0234 6.20976 6.19026 6.05822 6.37743 5.90515Z" fill="#9D9C92"/>
<path d="M4.74506 7.77007C4.6544 8.0056 4.54734 8.25229 4.42096 8.50698C4.51065 8.2704 4.61965 8.02582 4.74506 7.77007Z" fill="#9D9C92"/>
<path d="M4.16641 21.2253C4.24856 21.4081 4.32938 21.6138 4.40963 21.8443C4.32774 21.6622 4.24641 21.4553 4.16641 21.2253Z" fill="#9D9C92"/>
<path d="M4.96761 7.40896C4.94374 7.48199 4.90258 7.56247 4.84098 7.64502C4.8638 7.57021 4.90706 7.4933 4.96761 7.40896Z" fill="#9D9C92"/>
<path d="M4.74851 22.6208C4.80998 22.7051 4.87214 22.8101 4.93369 22.9371C4.87178 22.8532 4.81049 22.7474 4.74851 22.6208Z" fill="#9D9C92"/>
<path d="M5.31714 6.93858C5.29255 6.9962 5.24959 7.05818 5.18686 7.12135C5.21099 7.06267 5.25488 7.0028 5.31714 6.93858Z" fill="#9D9C92"/>
<path d="M4.40937 21.9113C4.4481 21.9591 4.4875 22.0274 4.52471 22.1164C4.48502 22.0687 4.44752 22.0002 4.40937 21.9113Z" fill="#9D9C92"/>
<path d="M5.0849 7.23536C5.07571 7.28491 5.04914 7.34192 5.00235 7.40333C5.0106 7.35276 5.03906 7.29779 5.0849 7.23536Z" fill="#9D9C92"/>
<path d="M4.51859 22.1508C4.54204 22.1753 4.56547 22.2195 4.58812 22.2844C4.56442 22.2602 4.54149 22.2152 4.51859 22.1508Z" fill="#9D9C92"/>
<path d="M4.62934 22.3875C4.65499 22.411 4.67989 22.4541 4.70365 22.5183C4.67787 22.4952 4.65323 22.4511 4.62934 22.3875Z" fill="#9D9C92"/>
<path d="M4.80777 7.6559C4.8114 7.67897 4.80097 7.71246 4.77465 7.7545C4.7704 7.7308 4.78206 7.69856 4.80777 7.6559Z" fill="#9D9C92"/>
<path d="M5.15403 7.12931C5.15794 7.15426 5.14646 7.18827 5.11736 7.22887C5.11271 7.2031 5.12567 7.17073 5.15403 7.12931Z" fill="#9D9C92"/>
<path d="M5.44268 6.77756C5.44634 6.80387 5.43395 6.83785 5.4024 6.87468C5.39771 6.84677 5.41217 6.816 5.44268 6.77756Z" fill="#9D9C92"/>
<path d="M4.70305 22.5526C4.71691 22.5489 4.73358 22.5613 4.75238 22.5897C4.7383 22.5934 4.72208 22.581 4.70305 22.5526Z" fill="#9D9C92"/>
<path d="M4.58801 22.3194C4.60201 22.3161 4.61803 22.3288 4.63559 22.3574C4.62143 22.3608 4.60573 22.3481 4.58801 22.3194Z" fill="#9D9C92"/>
<path d="M5.37195 6.87819C5.37988 6.89428 5.37187 6.91391 5.3471 6.93664C5.3389 6.92041 5.34745 6.90108 5.37195 6.87819Z" fill="#9D9C92"/>
<path d="M5.50017 6.71257C5.50579 6.72585 5.49588 6.74405 5.47113 6.76814C5.46573 6.75518 5.47519 6.73633 5.50017 6.71257Z" fill="#9D9C92"/>
<path d="M5.55791 6.65367C5.563 6.66725 5.55241 6.68542 5.52618 6.70831C5.52109 6.69477 5.53166 6.67652 5.55791 6.65367Z" fill="#9D9C92"/>
<path d="M5.61442 6.5942C5.62003 6.60816 5.60987 6.62665 5.58398 6.64986C5.57838 6.63597 5.58852 6.61735 5.61442 6.5942Z" fill="#9D9C92"/>
<path d="M5.67142 6.53478C5.67728 6.54926 5.66724 6.568 5.64101 6.59072C5.63505 6.57614 5.64529 6.55759 5.67142 6.53478Z" fill="#9D9C92"/>
<path d="M5.72801 6.47539C5.7342 6.48998 5.72456 6.50894 5.69872 6.53201C5.6924 6.51732 5.70229 6.49854 5.72801 6.47539Z" fill="#9D9C92"/>
<path d="M5.78606 6.41676C5.79203 6.43158 5.78208 6.45051 5.75561 6.47278C5.74944 6.4577 5.75979 6.43928 5.78606 6.41676Z" fill="#9D9C92"/>
<path d="M5.84637 6.36002C5.85172 6.37469 5.84101 6.39313 5.81385 6.41475C5.80837 6.39989 5.81934 6.38183 5.84637 6.36002Z" fill="#9D9C92"/>
<path d="M27.1941 18.5761C27.0156 19.6021 26.7513 20.5978 26.188 21.4917C25.8022 22.104 25.3353 22.6401 24.7288 23.0484C24.7562 22.9367 24.808 22.843 24.8412 22.7431C25.0728 22.0448 25.3005 21.3453 25.5461 20.6287C25.5876 20.4576 25.6126 20.3038 25.6399 20.137C25.6421 20.1241 25.6418 20.0978 25.6591 20.0828C25.7064 19.881 25.7364 19.6942 25.772 19.4937C25.7729 19.4613 25.7681 19.4427 25.7793 19.4042C25.8587 18.819 25.9646 18.2547 25.9772 17.6883C26.0064 16.3763 25.9818 15.0633 25.9954 13.7509C26.0065 12.6839 25.8945 11.6297 25.6935 10.5854C25.5201 9.68427 25.2863 8.79887 24.8231 7.97102C24.3874 7.12902 23.8386 6.40878 23.0372 5.88355C23.0075 5.85889 22.9873 5.84885 22.9674 5.84127C22.9679 5.84372 22.9715 5.84035 22.9631 5.82383C22.9014 5.77884 22.8482 5.75038 22.7926 5.72351C22.7903 5.72511 22.7959 5.72486 22.787 5.70917C22.7446 5.68336 22.7111 5.67325 22.6764 5.66537C22.6753 5.66761 22.6803 5.66719 22.6767 5.65159C22.6548 5.62623 22.6365 5.61647 22.6177 5.60923C22.6172 5.61175 22.6215 5.60885 22.6101 5.59208C21.9253 5.29936 21.2518 5.0234 20.5564 4.74145C20.2424 4.67805 19.9503 4.62064 19.6442 4.54543C19.4625 4.50273 19.2949 4.47783 19.1144 4.45042C19.1016 4.44792 19.0755 4.448 19.0596 4.43033C18.7814 4.38869 18.5192 4.3647 18.2379 4.33663C18.1931 4.33094 18.1672 4.32934 18.125 4.30988C17.6161 4.26629 17.1235 4.24055 16.6139 4.19702C15.3688 4.17927 14.1408 4.17932 12.8884 4.17474C12.7598 4.18443 12.6559 4.20267 12.5513 4.21246C11.8137 4.28148 11.0683 4.30374 10.3405 4.42885C9.56373 4.56238 8.80358 4.79253 8.01671 4.97876C7.96704 4.99693 7.93685 5.01684 7.90591 5.03459C7.90516 5.03243 7.90884 5.03514 7.88644 5.03364C7.79941 4.99206 7.73479 4.95197 7.67017 4.91188C7.67017 4.91188 7.67223 4.91535 7.6888 4.91382C7.732 4.89096 7.75862 4.86963 7.78524 4.84831C7.78524 4.84831 7.78606 4.85372 7.8041 4.85311C7.88501 4.80983 7.94788 4.76715 8.01075 4.72447C8.01075 4.72447 8.01531 4.73009 8.02757 4.72763C8.05199 4.70874 8.06415 4.6923 8.0763 4.67587C8.0763 4.67587 8.07803 4.68112 8.09423 4.68001C8.13793 4.65817 8.16542 4.63742 8.19292 4.61668C8.19292 4.61668 8.19357 4.62197 8.21243 4.62243C8.29584 4.58202 8.3604 4.54115 8.42495 4.50029C8.42495 4.50029 8.4268 4.50578 8.4453 4.50626C8.52896 4.46689 8.59412 4.42704 8.65928 4.38719C8.65928 4.38719 8.66016 4.39155 8.67904 4.3915C8.74087 4.36684 8.78382 4.34222 8.82677 4.3176C8.82677 4.3176 8.83387 4.32589 8.85218 4.32727C9.22468 4.18968 9.57885 4.05072 9.93303 3.91175C9.93303 3.91175 9.93877 3.91696 9.95871 3.91986C10.2664 3.85211 10.5559 3.78801 10.8412 3.70861C11.0487 3.65086 11.2506 3.57291 11.455 3.50396C11.6278 3.47523 11.8005 3.44649 12.0195 3.40865C12.7129 3.32009 13.3593 3.23436 14.0074 3.16267C14.9228 3.06139 15.8395 2.97049 16.7556 2.87515C17.7825 2.66407 18.8142 2.76653 19.8425 2.84646C20.7118 2.91404 21.5619 3.09474 22.3797 3.40889C24.0193 4.03875 25.119 5.22049 25.8123 6.80163C26.2003 7.68641 26.5362 8.59168 26.6392 9.56452C26.6449 9.61851 26.682 9.66919 26.6979 9.77202C26.7018 9.95591 26.7033 10.0906 26.724 10.2222C26.8249 10.8647 26.9522 11.5039 27.0292 12.1491C27.1132 12.8528 27.1507 13.562 27.2145 14.2682C27.2185 14.3123 27.2745 14.3516 27.3063 14.3931C27.3103 14.4196 27.3143 14.4461 27.3011 14.5114C27.279 15.5094 27.2738 16.4687 27.2714 17.4281C27.2713 17.4623 27.2993 17.4966 27.3142 17.5308C27.3154 17.5575 27.3165 17.5841 27.2914 17.637C27.2415 17.9675 27.2178 18.2718 27.1941 18.5761Z" fill="#DBD9CF"/>
<path d="M27.3103 14.3679C27.2745 14.3516 27.2185 14.3123 27.2145 14.2682C27.1507 13.562 27.1132 12.8528 27.0292 12.1491C26.9522 11.5039 26.8249 10.8647 26.724 10.2222C26.7033 10.0906 26.7018 9.95591 26.6941 9.79463C26.8043 10.3226 26.9418 10.8747 27.0127 11.4353C27.1351 12.4016 27.2161 13.3732 27.3103 14.3679Z" fill="#DBD9CF"/>
<path d="M16.7394 2.85562C15.8395 2.97049 14.9228 3.06139 14.0074 3.16267C13.3593 3.23436 12.7129 3.32009 12.0379 3.39654C12.6235 3.28909 13.2342 3.1615 13.8512 3.08577C14.7296 2.97794 15.6127 2.90733 16.4941 2.82375C16.5694 2.81661 16.6467 2.83146 16.7394 2.85562Z" fill="#DBD9CF"/>
<path d="M27.3196 17.506C27.2993 17.4966 27.2713 17.4623 27.2714 17.4281C27.2738 16.4687 27.279 15.5094 27.2982 14.5314C27.3167 15.5022 27.3209 16.4917 27.3196 17.506Z" fill="#DBD9CF"/>
<path d="M7.88644 5.03364C7.56868 5.20334 7.22852 5.37154 6.86761 5.54238C7.10836 5.33677 7.36984 5.12854 7.65074 4.91609C7.73479 4.95197 7.79941 4.99206 7.88644 5.03364Z" fill="#DBD9CF"/>
<path d="M11.43 3.50472C11.2506 3.57291 11.0487 3.65086 10.8412 3.70861C10.5559 3.78801 10.2664 3.85211 9.95492 3.91905C10.4225 3.77872 10.9137 3.6421 11.43 3.50472Z" fill="#DBD9CF"/>
<path d="M9.90976 3.91143C9.57885 4.05072 9.22468 4.18968 8.84752 4.32444C9.17852 4.18386 9.53251 4.04749 9.90976 3.91143Z" fill="#DBD9CF"/>
<path d="M27.2006 18.553C27.2178 18.2718 27.2415 17.9675 27.2858 17.6563C27.2734 17.9429 27.2403 18.2364 27.2006 18.553Z" fill="#DBD9CF"/>
<path d="M8.63957 4.38803C8.59412 4.42704 8.52896 4.46689 8.44283 4.50475C8.48786 4.4648 8.55386 4.42684 8.63957 4.38803Z" fill="#DBD9CF"/>
<path d="M8.40529 4.50146C8.3604 4.54115 8.29584 4.58202 8.21018 4.621C8.25459 4.58029 8.32011 4.54146 8.40529 4.50146Z" fill="#DBD9CF"/>
<path d="M7.99132 4.72577C7.94788 4.76715 7.885 4.80983 7.8017 4.85179C7.84481 4.80974 7.90835 4.76841 7.99132 4.72577Z" fill="#DBD9CF"/>
<path d="M8.80753 4.31839C8.78382 4.34222 8.74087 4.36684 8.6772 4.39025C8.70042 4.36576 8.74435 4.34246 8.80753 4.31839Z" fill="#DBD9CF"/>
<path d="M8.17519 4.61797C8.16542 4.63742 8.13793 4.65817 8.0919 4.67853C8.1014 4.65852 8.12944 4.63889 8.17519 4.61797Z" fill="#DBD9CF"/>
<path d="M7.76778 4.85017C7.75862 4.86963 7.732 4.89096 7.68707 4.91279C7.69595 4.89287 7.72314 4.87246 7.76778 4.85017Z" fill="#DBD9CF"/>
<path d="M8.0606 4.67857C8.06415 4.6923 8.05199 4.70874 8.024 4.72704C8.02041 4.71303 8.03265 4.69715 8.0606 4.67857Z" fill="#DBD9CF"/>
<path d="M8.01671 4.97876C8.00533 4.99888 7.97448 5.01727 7.92514 5.0362C7.93685 5.01684 7.96704 4.99693 8.01671 4.97876Z" fill="#DBD9CF"/>
<path d="M25.7634 19.4241C25.7681 19.4427 25.7728 19.4613 25.7505 19.5038C25.6962 19.7177 25.669 19.9077 25.6418 20.0978C25.6418 20.0978 25.6421 20.1241 25.6201 20.1482C25.5753 20.3302 25.5524 20.4882 25.5295 20.6461C25.3005 21.3453 25.0728 22.0448 24.8411 22.7431C24.808 22.843 24.7562 22.9367 24.7095 23.0563C24.6517 23.1369 24.5973 23.1945 24.5322 23.2659C23.9349 23.5733 23.3717 23.9357 22.7564 24.1449C21.7919 24.4728 20.7922 24.6972 19.7671 24.9502C19.5498 24.9051 19.3656 24.8954 19.1991 24.836C19.1248 24.8095 19.086 24.6832 19.0311 24.6021C19.1227 24.5915 19.2176 24.5925 19.3053 24.568C19.4873 24.5169 19.7093 24.4997 19.8357 24.3829C20.0607 24.175 20.216 23.8939 20.4209 23.6615C20.5955 23.4635 20.7704 23.2314 20.997 23.1227C21.2532 23 21.3351 22.8778 21.2556 22.6461C20.9336 22.5674 20.5763 22.6844 20.3747 22.3608C20.6322 22.319 20.8634 22.2781 21.1086 22.2237C21.2359 22.1885 21.3567 22.1852 21.461 22.1421C22.0581 21.8955 22.4867 21.4621 22.8188 20.9014C22.9716 20.7948 23.1067 20.6926 22.9654 20.4852C22.9633 20.4602 22.9667 20.4502 22.9909 20.436C23.0324 20.3698 23.0531 20.3078 23.0724 20.2315C23.0733 20.1978 23.0751 20.1786 23.0833 20.1449C23.1063 20.1174 23.1226 20.1044 23.157 20.0989C23.3282 20.1713 23.3462 20.0895 23.3653 19.9592C23.3823 19.8432 23.4423 19.7308 23.4968 19.6237C23.5345 19.5493 23.628 19.4913 23.6387 19.4176C23.6648 19.2381 23.7627 19.2168 23.9177 19.2152C24.2371 19.212 24.3337 19.0925 24.3659 18.7789C24.3795 18.6467 24.4289 18.4961 24.5131 18.3974C24.7519 18.117 25.0162 17.8582 25.2734 17.5938C25.296 17.5706 25.3628 17.5501 25.3702 17.5594C25.4013 17.5984 25.4235 17.6475 25.4384 17.6961C25.4683 17.7942 25.4913 17.8944 25.5218 18.0117C25.854 17.8676 25.7316 17.6749 25.6339 17.4698C25.7316 17.448 25.8016 17.4324 25.8717 17.4439C25.8713 17.7435 25.8708 18.016 25.8508 18.2866C25.7601 18.2536 25.689 18.2224 25.6179 18.1912C25.5891 18.2247 25.5602 18.2582 25.5314 18.2918C25.6255 18.349 25.7196 18.4062 25.8135 18.4881C25.7938 18.7677 25.7742 19.0225 25.7451 19.2825C25.7319 19.2939 25.7238 19.3035 25.7255 19.3058C25.7336 19.3168 25.7444 19.3258 25.7565 19.3577C25.7603 19.3946 25.7618 19.4094 25.7634 19.4241Z" fill="#3B392C"/>
<path d="M7.66554 23.1794C6.95448 22.5114 6.50879 21.6701 6.11616 20.7958C6.00965 20.5586 5.92653 20.3109 5.84321 20.0309C5.82593 19.8049 5.79811 19.6159 5.76777 19.4098C5.86592 19.44 5.93999 19.4628 6.09804 19.5115C5.99959 19.3282 5.93883 19.2151 5.86308 19.074C6.05932 19.0319 6.23401 18.9943 6.42616 18.953C6.46659 18.7409 6.63947 18.6376 6.78516 18.4909C6.98158 18.2932 7.24283 18.1276 7.3782 17.8809C7.46606 17.7209 7.54216 17.5996 7.72358 17.5963C7.9197 17.5929 7.9677 17.494 7.96501 17.3199C7.95875 16.9142 7.95664 16.5081 7.96826 16.1026C7.97072 16.0166 8.0389 15.9324 8.07773 15.8745C8.07904 16.6012 8.07656 17.3007 8.08324 18.0002C8.08414 18.0951 8.13093 18.1895 8.16891 18.2848C8.18135 18.2855 8.19724 18.3047 8.20406 18.3264C8.23253 18.365 8.25403 18.3967 8.27586 18.397C8.70612 18.4016 9.13647 18.4059 9.56664 18.3994C9.61494 18.3987 9.66224 18.3321 9.71043 18.293C9.71087 18.29 9.7168 18.2917 9.73842 18.2835C9.78109 18.1776 9.81981 18.0801 9.82041 17.9823C9.82584 17.0961 9.82462 16.2099 9.84661 15.3279C9.93279 15.468 9.99771 15.6038 10.064 15.7424C10.1884 15.5361 10.2869 15.3816 10.376 15.2219C10.4318 15.122 10.506 15.0172 10.516 14.9095C10.5669 14.3578 10.597 13.8042 10.6432 13.252C10.6473 13.2035 10.7148 13.1603 10.7541 13.1418C10.7566 14.9373 10.7579 16.7056 10.7575 18.4978C10.7577 18.5601 10.7673 18.5999 10.7608 18.6369C10.5962 19.5734 9.79 20.4155 8.85063 20.624C8.62255 20.6746 8.38908 20.7009 8.13655 20.7499C8.10218 21.1973 8.08934 21.6332 8.05468 22.0737C7.88475 22.3944 7.91743 22.453 8.35321 22.6525C8.23884 23.225 8.16285 23.2652 7.73808 22.9352C7.71105 23.0262 7.68829 23.1028 7.66554 23.1794Z" fill="#3B392C"/>
<path d="M17.2021 25.3114C15.9034 25.3519 14.6048 25.3924 13.273 25.4067C12.7224 25.3036 12.2071 25.2044 11.687 25.1598C11.4516 25.1396 11.4441 24.9636 11.3742 24.8384C11.3448 24.7858 11.4243 24.6576 11.4762 24.578C11.5537 24.4594 11.7362 24.3433 11.7245 24.2438C11.6705 23.7869 12.2814 23.7834 12.2792 23.381C12.2792 23.3714 12.3298 23.3528 12.3566 23.353C12.5712 23.3544 12.6011 23.207 12.6948 23.0465C12.8362 22.8042 13.1024 22.6348 13.3171 22.4329C13.4556 22.8431 13.5899 22.9569 13.8488 22.8671C14.1516 22.762 14.0725 22.5433 13.9685 22.328C14.1739 22.3155 14.355 22.3045 14.5593 22.2965C14.7377 22.2978 14.8929 22.296 15.0718 22.2916C15.1212 22.1572 15.1703 22.0249 15.168 21.8936C15.1614 21.5079 15.1343 21.1226 15.101 20.7178C14.941 20.6882 14.7953 20.6779 14.6535 20.6473C15.018 20.4118 15.3787 20.1964 15.7384 19.9817C15.7317 20.0556 15.7054 20.15 15.7183 20.2388C15.7631 20.5484 15.813 20.8579 15.8804 21.1631C15.8975 21.2406 15.9866 21.3021 16.0437 21.3981C16.045 21.5477 16.035 21.6713 16.048 21.7924C16.0661 21.96 16.1016 22.1257 16.1387 22.2888C16.1478 22.2855 16.1619 22.2987 16.1777 22.3169C16.4156 22.3442 16.6377 22.3532 16.8637 22.3828C16.8865 22.4241 16.9035 22.4605 16.9244 22.4629C17.1214 22.4854 17.2161 22.5868 17.2096 22.7901C17.2031 22.9966 17.1623 23.1594 16.927 23.2317C16.8486 23.2558 16.7791 23.3807 16.7499 23.4734C16.7194 23.5704 16.7669 23.6921 16.7355 23.7885C16.6989 23.9011 16.637 24.049 16.5449 24.0905C16.3721 24.1685 16.3476 23.9879 16.2782 23.8748C16.2296 23.7957 16.1191 23.7218 16.0301 23.7139C15.9839 23.7097 15.889 23.8488 15.8775 23.9317C15.8395 24.2073 15.8449 24.4893 15.8001 24.7634C15.7842 24.8612 15.6725 24.9434 15.6046 25.0328C15.526 24.9689 15.4508 24.9004 15.368 24.8426C15.2858 24.7852 15.1941 24.6977 15.1101 24.7015C15.0507 24.7041 14.9759 24.8293 14.9456 24.9133C14.8944 25.0557 14.8729 25.2088 14.8336 25.3804C14.8921 25.3804 14.9774 25.3847 15.062 25.3797C15.6828 25.3429 16.3032 25.3017 16.9242 25.269C17.0158 25.2641 17.1094 25.2964 17.2021 25.3114Z" fill="#3B392C"/>
<path d="M14.536 22.2935C14.355 22.3045 14.1739 22.3155 13.9685 22.328C14.0725 22.5433 14.1516 22.762 13.8488 22.8671C13.5899 22.9569 13.4556 22.8431 13.3171 22.4329C13.1024 22.6348 12.8362 22.8042 12.6948 23.0465C12.6011 23.207 12.5712 23.3544 12.3566 23.353C12.3298 23.3528 12.2792 23.3714 12.2792 23.381C12.2814 23.7834 11.6705 23.7869 11.7245 24.2438C11.7362 24.3433 11.5537 24.4594 11.4762 24.578C11.4243 24.6576 11.3448 24.7858 11.3742 24.8384C11.4441 24.9636 11.4516 25.1396 11.687 25.1598C12.2071 25.2044 12.7224 25.3036 13.2462 25.401C11.5603 25.3062 9.93867 24.9621 8.52397 23.9536C8.39895 23.8644 8.28286 23.7628 8.14336 23.6394C8.11168 23.596 8.09568 23.5858 8.07608 23.5812C8.05714 23.5786 8.04178 23.5697 8.01925 23.5277C7.99212 23.4891 7.97573 23.4775 7.95934 23.4659C7.95934 23.4659 7.96291 23.4641 7.95621 23.4521C7.93324 23.4295 7.91698 23.4189 7.90072 23.4083C7.90072 23.4083 7.90463 23.406 7.89793 23.3942C7.87504 23.3716 7.85884 23.3609 7.84264 23.3502C7.84264 23.3502 7.84647 23.3478 7.83975 23.336C7.81686 23.3135 7.80069 23.3028 7.78451 23.2921C7.78451 23.2921 7.78838 23.2896 7.78163 23.2778C7.75874 23.2554 7.74258 23.2448 7.72643 23.2341C7.72643 23.2341 7.73023 23.2314 7.72348 23.2196C7.70067 23.1972 7.6846 23.1865 7.66853 23.1758L7.6667 23.1788C7.68829 23.1028 7.71105 23.0262 7.73808 22.9352C8.16285 23.2652 8.23884 23.225 8.35321 22.6525C7.91743 22.453 7.88475 22.3944 8.0556 22.096C8.1055 22.1739 8.13266 22.2343 8.17826 22.3034C8.25756 22.3029 8.32134 22.2771 8.37882 22.2872C9.01426 22.3987 9.56499 22.0925 10.0868 21.8436C10.5519 21.6219 10.9201 21.1961 11.3289 20.8578C11.4292 20.7748 11.5211 20.6817 11.6137 20.5961C11.9045 20.8602 12.1688 21.1144 12.4483 21.3506C12.8799 21.7155 13.3284 22.0487 13.9183 22.1248C14.128 22.1519 14.3303 22.2356 14.536 22.2935Z" fill="#3B392C"/>
<path d="M8.07681 15.8473C8.0389 15.9324 7.97072 16.0166 7.96826 16.1026C7.95664 16.5081 7.95875 16.9142 7.96501 17.3199C7.9677 17.494 7.9197 17.5929 7.72358 17.5963C7.54216 17.5996 7.46606 17.7209 7.3782 17.8809C7.24283 18.1276 6.98158 18.2932 6.78516 18.4909C6.63947 18.6376 6.46659 18.7409 6.42616 18.953C6.23401 18.9943 6.05932 19.0319 5.86308 19.074C5.93883 19.2151 5.99959 19.3282 6.09804 19.5115C5.93999 19.4628 5.86592 19.44 5.76777 19.4098C5.79811 19.6159 5.82593 19.8049 5.84051 20.0101C5.56967 18.9643 5.31171 17.9022 5.05511 16.8399C5.03487 16.7561 5.02414 16.67 5.02464 16.5434C5.02169 16.1213 5.00309 15.7406 4.98353 15.34C5.18289 15.4888 5.29119 15.4177 5.4216 15.2121C5.5546 15.0024 5.77319 14.8457 5.95956 14.6715C6.20168 14.4451 6.46001 14.235 6.69139 13.9984C7.01152 13.671 7.30934 13.322 7.62395 12.989C7.80815 12.7941 7.9445 12.6 7.91204 12.3029C7.87964 12.0062 7.88975 11.7021 7.91282 11.4037C7.92146 11.2921 7.87052 11.0807 7.92859 11C7.92906 12.5984 8.07728 14.2761 8.07681 15.8473Z" fill="#3B392C"/>
<path d="M8.07634 11.0794C8.01921 11.1873 7.92146 11.2921 7.91282 11.4037C7.88975 11.7021 7.87964 12.0062 7.91204 12.3029C7.9445 12.6 7.80815 12.7941 7.62395 12.989C7.30934 13.322 7.01152 13.671 6.69139 13.9984C6.46001 14.235 6.20168 14.4451 5.95956 14.6715C5.77319 14.8457 5.5546 15.0024 5.4216 15.2121C5.29119 15.4177 5.18289 15.4888 4.98353 15.34C5.00309 15.7406 5.02169 16.1213 5.02647 16.5199C4.89299 15.2965 4.77333 14.055 4.65735 12.7867C4.68399 12.5519 4.70696 12.3439 4.73216 12.1156C4.93997 12.2023 4.93392 12.0485 5.01277 11.9048C5.13475 11.6824 5.22155 11.4168 5.4914 11.2823C5.62715 11.2146 5.71504 11.0509 5.82457 10.9306C5.80853 10.9132 5.79248 10.8958 5.77643 10.8784C5.81241 10.8683 5.84783 10.8528 5.88445 10.8491C6.3831 10.7984 6.50801 10.7079 6.61749 10.229C6.66661 10.0141 6.7504 9.89183 6.97776 9.85381C7.33947 9.79332 7.49709 9.54385 7.58391 9.20032C7.61461 9.07884 7.79555 8.916 7.90854 8.9155C8.0388 8.91492 8.25262 9.00452 8.19267 9.28724C8.16679 9.37033 8.14715 9.41227 8.11227 9.4725C8.09014 10.0203 8.08324 10.5499 8.07634 11.0794Z" fill="#3B392C"/>
<path d="M17.227 25.3146C17.1094 25.2964 17.0158 25.2641 16.9242 25.269C16.3032 25.3017 15.6828 25.3429 15.062 25.3797C14.9774 25.3847 14.8921 25.3804 14.8336 25.3804C14.8729 25.2088 14.8944 25.0557 14.9456 24.9133C14.9759 24.8293 15.0507 24.7041 15.1101 24.7015C15.1941 24.6977 15.2858 24.7852 15.368 24.8426C15.4508 24.9004 15.526 24.9689 15.6046 25.0328C15.6725 24.9434 15.7842 24.8612 15.8001 24.7634C15.8449 24.4893 15.8395 24.2073 15.8775 23.9317C15.889 23.8488 15.9839 23.7097 16.0301 23.7139C16.1191 23.7218 16.2296 23.7957 16.2782 23.8748C16.3476 23.9879 16.3721 24.1685 16.5449 24.0905C16.637 24.049 16.6989 23.9011 16.7355 23.7885C16.7669 23.6921 16.7194 23.5704 16.7499 23.4734C16.7791 23.3807 16.8486 23.2558 16.927 23.2317C17.1623 23.1594 17.2031 22.9966 17.2096 22.7901C17.2161 22.5868 17.1214 22.4854 16.9244 22.4629C16.9035 22.4605 16.8865 22.4241 16.8909 22.3819C17.652 22.3609 18.3898 22.3614 19.1329 22.3847C19.4531 22.4186 19.768 22.4306 20.083 22.4377C20.093 22.4379 20.1042 22.3883 20.1381 22.361C20.2238 22.3606 20.2861 22.3612 20.3484 22.3618C20.5763 22.6844 20.9336 22.5674 21.2556 22.6461C21.3351 22.8778 21.2532 23 20.997 23.1227C20.7704 23.2314 20.5955 23.4635 20.4209 23.6615C20.216 23.8939 20.0607 24.175 19.8357 24.3829C19.7093 24.4997 19.4873 24.5169 19.3053 24.568C19.2176 24.5925 19.1227 24.5915 19.0311 24.6021C19.086 24.6832 19.1248 24.8095 19.1991 24.836C19.3656 24.8954 19.5498 24.9051 19.7439 24.9494C18.9246 25.0818 18.0883 25.1998 17.227 25.3146Z" fill="#3B392C"/>
<path d="M25.8703 18.2885C25.8708 18.016 25.8713 17.7435 25.8718 17.4184C25.9103 17.0608 25.9819 16.7557 25.981 16.4508C25.9781 15.4943 25.9506 14.5378 25.9245 13.5816C25.9214 13.4677 25.8682 13.3552 25.8235 13.1866C25.5293 13.5643 25.2812 13.8881 25.0257 14.2061C24.9804 14.2625 24.9022 14.2913 24.8434 14.3382C24.5337 14.5852 24.1856 14.8006 24.0828 15.2476C23.7843 15.236 23.6415 15.4077 23.6395 15.7466C23.4562 15.7195 23.2985 15.6961 23.14 15.6455C23.1392 15.0784 23.1392 14.5387 23.1392 13.999C23.0849 14.0948 23.0849 14.1901 23.0849 14.2854C23.0853 16.0168 23.0861 17.7482 23.0847 19.4795C23.0846 19.5841 23.0668 19.6887 23.0492 19.7676C23.0395 17.9704 23.0384 16.1987 23.0354 14.4271C23.0351 14.2437 23.0238 14.0603 23.0032 13.8576C22.8936 13.8296 22.7983 13.8138 22.703 13.8134C21.9181 13.8104 21.1331 13.8102 20.3434 13.7876C20.1937 13.6658 20.0549 13.6221 19.9166 13.8096C19.8119 13.8099 19.7313 13.8093 19.6507 13.786C19.6664 13.6998 19.6625 13.618 19.7014 13.5758C19.9107 13.349 20.1424 13.1422 20.3438 12.9091C20.5911 12.6229 20.9699 12.4417 21.0604 12.0258C21.0671 11.9947 21.1282 11.9618 21.1687 11.9539C21.4233 11.9042 21.5026 11.7409 21.5211 11.4977C21.5277 11.4117 21.6453 11.3301 21.7203 11.2544C21.8 11.1738 21.9601 11.1029 21.9606 11.0271C21.9618 10.8145 22.0858 10.7807 22.2397 10.7294C22.4279 10.6665 22.6073 10.5773 22.8118 10.4988C22.896 10.4783 22.9589 10.4584 23.0208 10.4387C23.0208 10.4387 23.0189 10.4371 23.0337 10.4294C23.0614 10.4039 23.0743 10.386 23.1045 10.3534C23.1283 10.1011 23.1349 9.86356 23.1616 9.62221C23.2702 9.51217 23.3396 9.35155 23.4514 9.31255C23.6136 9.25602 23.714 9.19294 23.7671 9.02638C23.7897 8.95533 23.8837 8.90874 23.94 8.8463C24.0252 8.75195 24.1055 8.65329 24.1883 8.55678C24.2359 8.5012 24.2826 8.40049 24.3326 8.39857C24.6096 8.38795 24.7003 8.16953 24.8289 7.99025C25.2862 8.79888 25.52 9.68427 25.6935 10.5854C25.8945 11.6297 26.0065 12.6839 25.9954 13.7509C25.9818 15.0633 26.0064 16.3763 25.9772 17.6883C25.9646 18.2547 25.8587 18.819 25.7793 19.4042C25.7618 19.4094 25.7603 19.3946 25.7568 19.3431C25.7548 19.2967 25.7547 19.287 25.7547 19.2772C25.7742 19.0225 25.7938 18.7677 25.8288 18.4762C25.8529 18.3891 25.8616 18.3388 25.8703 18.2885Z" fill="#3B392C"/>
<path d="M8.03616 4.9805C8.80355 4.79253 9.5637 4.56238 10.3405 4.42886C11.0683 4.30374 11.8137 4.28148 12.5512 4.21246C12.6559 4.20267 12.7598 4.18443 12.899 4.1851C12.9631 4.20632 12.9921 4.21254 13.009 4.23511C12.9072 4.26244 12.8179 4.27691 12.7281 4.28365C12.5631 4.29603 12.3977 4.30385 12.2148 4.31462C12.3469 4.67247 12.3194 4.70525 12.0168 4.80931C11.9291 4.83949 11.8716 4.95979 11.802 5.04026C11.6712 5.19138 11.5417 5.34359 11.4117 5.49532C11.3281 5.59283 11.2009 5.67896 11.1719 5.79064C11.1347 5.93355 11.0955 5.99513 10.9429 6.03047C10.8296 6.05672 10.7312 6.17201 10.6401 6.26173C10.5815 6.31941 10.5586 6.41284 10.5012 6.4724C10.3606 6.6183 10.209 6.75352 10.0624 6.89363C9.85111 7.09546 9.86279 7.30647 10.0708 7.38629C9.38455 7.56876 8.89134 7.97447 8.50717 8.51745C8.48 8.32178 8.3735 8.35131 8.28454 8.42237C8.20514 8.48579 8.15048 8.58017 8.0849 8.66088C8.18584 8.69727 8.28678 8.73367 8.38337 8.7909C8.32017 8.97323 8.26132 9.13471 8.20069 9.27114C8.25262 9.00452 8.0388 8.91492 7.90854 8.9155C7.79555 8.916 7.61461 9.07884 7.58391 9.20032C7.49709 9.54385 7.33947 9.79332 6.97776 9.85381C6.7504 9.89183 6.66661 10.0141 6.61749 10.229C6.50801 10.7079 6.3831 10.7984 5.88445 10.8491C5.84783 10.8528 5.81241 10.8683 5.77643 10.8784C5.79248 10.8958 5.80853 10.9132 5.82457 10.9306C5.71504 11.0509 5.62715 11.2146 5.4914 11.2823C5.22155 11.4168 5.13475 11.6824 5.01277 11.9048C4.93392 12.0485 4.93997 12.2023 4.73216 12.1156C4.70696 12.3439 4.68399 12.5519 4.66103 12.7599C4.60173 11.1231 4.63598 9.49218 5.23177 7.93912C5.43691 7.40438 5.75938 6.91466 6.05227 6.37588C6.18344 6.19947 6.29059 6.05154 6.39774 5.90362C6.53688 5.79125 6.67603 5.67888 6.85175 5.55312C7.22849 5.37154 7.56865 5.20334 7.90881 5.03514C7.90881 5.03514 7.90513 5.03243 7.92436 5.03404C7.97444 5.01727 8.0053 4.99889 8.03616 4.9805Z" fill="#3B392C"/>
<path d="M19.6582 4.56323C19.9503 4.62064 20.2423 4.67805 20.5419 4.75626C20.3319 4.75732 20.1264 4.74882 19.9944 4.9852C19.9684 5.03168 19.8251 4.99936 19.7531 5.03661C19.6534 5.0882 19.5074 5.15999 19.4925 5.24316C19.461 5.41797 19.3413 5.4308 19.2359 5.51666C18.9923 5.71508 18.7578 5.94514 18.5619 6.19233C18.4843 6.29026 18.4796 6.40539 18.3139 6.44207C18.2209 6.46266 18.1387 6.60696 18.0868 6.71279C18.049 6.78996 18.0688 6.89533 18.0633 6.98213C17.882 7.02958 17.6488 6.95759 17.6756 7.26041C17.6779 7.28792 17.679 7.29892 17.6785 7.30599C17.677 7.30205 17.6852 7.30035 17.6666 7.31285C17.6364 7.41375 17.6247 7.50214 17.5905 7.59572C17.5273 7.78918 17.4866 7.97746 17.446 8.16574C17.4177 8.16526 17.3895 8.16478 17.3613 8.1643C17.338 8.01777 17.3148 7.87124 17.2941 7.74099C16.9062 7.87528 16.7337 8.14804 16.6981 8.51372C16.6841 8.65776 16.7086 8.808 16.6778 8.9471C16.657 9.0415 16.5869 9.16445 16.5083 9.19436C16.4441 9.21881 16.3018 9.14844 16.251 9.07868C16.0403 8.78912 16.0146 8.7953 15.8282 9.10511C15.765 9.21021 15.615 9.28436 15.4898 9.3189C15.4484 9.33032 15.3622 9.17159 15.2932 9.09365C15.2583 9.05435 15.216 9.02174 15.1759 8.96652C15.1756 8.92081 15.1764 8.89468 15.1996 8.86329C15.3103 8.62275 15.383 8.3885 15.1759 8.14532C15.1743 7.91676 15.1848 7.71439 15.1676 7.5144C15.1613 7.44141 15.0892 7.37408 15.0512 7.30294C15.0553 7.30171 15.0569 7.31006 15.042 7.29003C14.3394 7.2591 13.6518 7.2482 12.9667 7.21588C13.1025 6.87542 13.4171 6.99649 13.6334 6.97156C13.897 6.94118 13.9108 6.8089 13.9952 6.62688C14.0593 6.48872 14.2698 6.41861 14.4144 6.31715C14.4194 6.31369 14.413 6.29692 14.4172 6.28918C14.5768 5.99267 14.9317 5.87307 15.0781 5.56281C15.0844 5.54957 15.144 5.56755 15.16 5.55185C15.2262 5.48698 15.3134 5.42384 15.3395 5.34285C15.3707 5.24631 15.3513 5.13197 15.3467 5.02565C15.3377 4.82109 15.4089 4.71422 15.6331 4.67329C15.8604 4.63177 16.0173 4.46917 16.0671 4.21802C16.1325 4.21796 16.1761 4.21811 16.2201 4.24133C16.239 4.33889 16.2435 4.42121 16.2796 4.48578C16.3206 4.55898 16.3799 4.64473 16.4508 4.66992C16.4941 4.68528 16.5722 4.59312 16.6383 4.55573C16.7663 4.48333 16.9334 4.32713 17.0194 4.36268C17.2577 4.46116 17.456 4.31436 17.6729 4.33148C17.828 4.34372 17.9851 4.32992 18.1413 4.32774C18.1672 4.32934 18.193 4.33094 18.2524 4.35309C18.549 4.39842 18.8123 4.42321 19.0755 4.448C19.0755 4.448 19.1016 4.44792 19.1181 4.47107C19.2889 4.67005 19.4731 4.62022 19.6582 4.56323Z" fill="#3B392C"/>
<path d="M23.0872 10.3682C23.0743 10.386 23.0614 10.4039 23.0411 10.4031C23.0295 9.87911 23.0254 9.37363 23.0046 8.85066C22.8825 8.82578 22.777 8.81219 22.6716 8.81199C21.6349 8.81002 20.5981 8.80789 19.5614 8.81231C19.3909 8.81304 19.2681 8.79293 19.3308 8.57927C19.5397 8.59653 19.6683 8.54201 19.7946 8.37914C19.9641 8.16064 19.9971 7.74932 20.406 7.87022C20.4656 7.70188 20.4802 7.48667 20.5654 7.45355C20.7959 7.36403 20.8449 7.15183 20.9839 7.00579C21.303 6.67032 21.6702 6.38075 22.015 6.06926C22.1518 5.94561 22.2755 5.80709 22.416 5.688C22.4688 5.64318 22.552 5.63418 22.6214 5.60886C22.6214 5.60886 22.6172 5.61176 22.6233 5.62359C22.6463 5.64601 22.6633 5.6566 22.6803 5.66719C22.6803 5.66719 22.6753 5.66761 22.6846 5.68182C22.7278 5.70565 22.7619 5.71526 22.7959 5.72486C22.7959 5.72486 22.7903 5.72511 22.7937 5.74483C22.8553 5.78982 22.9134 5.81509 22.9715 5.84036C22.9715 5.84036 22.9678 5.84373 22.9753 5.85715C23.0041 5.87977 23.0254 5.88897 23.0466 5.89817C23.8385 6.40878 24.3873 7.12903 24.823 7.97102C24.7003 8.16953 24.6096 8.38795 24.3326 8.39857C24.2826 8.40049 24.2359 8.5012 24.1883 8.55678C24.1055 8.65329 24.0252 8.75195 23.94 8.8463C23.8837 8.90874 23.7897 8.95533 23.7671 9.02638C23.714 9.19294 23.6136 9.25602 23.4514 9.31255C23.3396 9.35155 23.2702 9.51217 23.1608 9.59528C23.1398 9.35975 23.1398 9.14736 23.1398 8.93498C23.1223 8.93517 23.1047 8.93535 23.0872 8.93553C23.0872 9.41309 23.0872 9.89064 23.0872 10.3682Z" fill="#3B392C"/>
<path d="M22.6101 5.59209C22.5521 5.63418 22.4688 5.64318 22.416 5.688C22.2755 5.80709 22.1518 5.94561 22.015 6.06926C21.6702 6.38075 21.303 6.67032 20.9839 7.00579C20.8449 7.15183 20.7959 7.36403 20.5654 7.45355C20.4802 7.48667 20.4656 7.70188 20.406 7.87022C19.9971 7.74932 19.9641 8.16064 19.7946 8.37914C19.6683 8.54201 19.5397 8.59653 19.329 8.55198C19.303 8.28297 19.3112 8.04059 19.2992 7.79921C19.2909 7.63339 19.2546 7.46896 19.2183 7.3047C19.2058 7.30548 19.1829 7.29525 19.1658 7.27824C18.6573 7.25546 18.1658 7.24969 17.6742 7.24392C17.6488 6.95759 17.882 7.02958 18.0633 6.98213C18.0688 6.89533 18.049 6.78996 18.0868 6.71279C18.1387 6.60696 18.2209 6.46266 18.3139 6.44207C18.4796 6.40539 18.4843 6.29026 18.5619 6.19233C18.7578 5.94514 18.9923 5.71508 19.2359 5.51666C19.3413 5.4308 19.461 5.41797 19.4925 5.24316C19.5074 5.15999 19.6534 5.0882 19.7531 5.03661C19.8251 4.99936 19.9684 5.03168 19.9944 4.9852C20.1264 4.74882 20.3319 4.75732 20.5638 4.76226C21.2517 5.0234 21.9253 5.29936 22.6101 5.59209Z" fill="#3B392C"/>
<path d="M10.1147 7.36069C10.1147 7.36069 10.1051 7.37479 10.0967 7.37362C9.86279 7.30647 9.85111 7.09546 10.0624 6.89363C10.209 6.75352 10.3606 6.6183 10.5012 6.4724C10.5586 6.41284 10.5815 6.31941 10.6401 6.26173C10.7312 6.17201 10.8296 6.05672 10.9429 6.03047C11.0955 5.99513 11.1347 5.93355 11.1719 5.79064C11.2009 5.67896 11.3281 5.59283 11.4117 5.49532C11.5417 5.34359 11.6712 5.19138 11.802 5.04026C11.8716 4.95979 11.9291 4.83949 12.0168 4.80931C12.3194 4.70525 12.3469 4.67247 12.2148 4.31462C12.3977 4.30385 12.5631 4.29603 12.7281 4.28365C12.8179 4.27691 12.9072 4.26244 13.009 4.23511C13.6041 4.21858 14.1871 4.2184 14.8025 4.24136C15.1307 4.30118 15.426 4.34512 15.7229 4.36683C15.7682 4.37015 15.8211 4.27068 15.8705 4.21876C15.9142 4.21839 15.9579 4.21803 16.0235 4.21794C16.0173 4.46917 15.8604 4.63177 15.6331 4.67329C15.4089 4.71422 15.3377 4.82109 15.3467 5.02565C15.3513 5.13197 15.3707 5.24631 15.3395 5.34285C15.3134 5.42384 15.2262 5.48698 15.16 5.55185C15.144 5.56755 15.0844 5.54957 15.0781 5.56281C14.9317 5.87307 14.5768 5.99267 14.4172 6.28918C14.413 6.29692 14.4194 6.31369 14.4144 6.31715C14.2698 6.41861 14.0593 6.48872 13.9952 6.62688C13.9108 6.8089 13.897 6.94118 13.6334 6.97156C13.4171 6.99649 13.1025 6.87542 12.9394 7.21717C12.036 7.24035 11.1624 7.24081 10.2681 7.24155C10.2031 7.28144 10.1589 7.32107 10.1147 7.36069Z" fill="#3B392C"/>
<path d="M23.1407 15.6727C23.2985 15.6961 23.4562 15.7195 23.6395 15.7466C23.6415 15.4077 23.7843 15.236 24.0828 15.2476C24.1856 14.8006 24.5337 14.5852 24.8434 14.3382C24.9022 14.2913 24.9804 14.2625 25.0257 14.2061C25.2812 13.8881 25.5293 13.5643 25.8235 13.1866C25.8682 13.3552 25.9214 13.4677 25.9245 13.5816C25.9506 14.5378 25.9781 15.4943 25.981 16.4508C25.9819 16.7557 25.9103 17.0608 25.8717 17.3913C25.8016 17.4324 25.7316 17.448 25.6339 17.4698C25.7316 17.6749 25.854 17.8676 25.5218 18.0117C25.4913 17.8944 25.4683 17.7942 25.4384 17.6961C25.4235 17.6475 25.4013 17.5984 25.3702 17.5594C25.3628 17.5501 25.296 17.5706 25.2734 17.5938C25.0162 17.8582 24.7519 18.117 24.5131 18.3974C24.4289 18.4961 24.3795 18.6467 24.3659 18.7789C24.3337 19.0925 24.2371 19.212 23.9177 19.2152C23.7627 19.2168 23.6648 19.2381 23.6387 19.4176C23.628 19.4913 23.5345 19.5493 23.4968 19.6237C23.4423 19.7308 23.3823 19.8432 23.3653 19.9592C23.3462 20.0895 23.3282 20.1713 23.157 20.0769C23.1386 20.0032 23.1382 19.9591 23.1378 19.888C23.1388 18.4649 23.1398 17.0688 23.1407 15.6727Z" fill="#3B392C"/>
<path d="M9.83686 9.39512C9.99474 9.24477 10.1526 9.09442 10.3487 8.95715C11.1505 8.97537 11.9142 8.98248 12.6778 8.98508C13.4344 8.98765 13.4344 8.98566 13.405 9.74617C13.3305 10.1386 13.0242 10.3684 12.8316 10.6538C12.7201 10.4832 12.6109 10.316 12.5006 10.1281C12.46 10.0621 12.4205 10.0168 12.3642 9.95411C11.8618 9.94474 11.3763 9.9527 10.8667 9.96789C10.8139 10.0783 10.761 10.1814 10.7602 10.2848C10.7526 11.228 10.7541 12.1713 10.7529 13.1146C10.7148 13.1603 10.6473 13.2035 10.6432 13.252C10.597 13.8042 10.5669 14.3578 10.516 14.9095C10.506 15.0172 10.4318 15.122 10.376 15.2219C10.2869 15.3816 10.1884 15.5361 10.064 15.7424C9.99771 15.6038 9.93279 15.468 9.84591 15.3006C9.82089 13.3461 9.81782 11.4231 9.81475 9.50012C9.81475 9.50012 9.80618 9.50533 9.82025 9.50026C9.83516 9.46184 9.83601 9.42848 9.83686 9.39512Z" fill="#3B392C"/>
<path d="M12.6122 18.9869C12.6122 18.9869 12.6023 18.9691 12.6068 18.9357C12.6178 18.7954 12.5985 18.6943 12.7841 18.733C12.8813 18.7533 13.0806 18.6778 13.0995 18.6087C13.1696 18.3526 13.352 18.3548 13.5625 18.3645C14.0392 18.3895 14.4992 18.4009 14.959 18.3986C15.0088 18.3984 15.0582 18.3186 15.1077 18.2758C15.1077 18.2758 15.113 18.284 15.1284 18.2711C15.1533 18.1542 15.1706 18.0501 15.1709 17.946C15.1743 16.8782 15.1748 15.8104 15.1975 14.7467C15.2618 14.9981 15.2975 15.2469 15.351 15.4918C15.3729 15.592 15.4371 15.768 15.476 15.7663C15.8651 15.7497 15.8142 16.0119 15.8139 16.253C15.8136 16.4433 15.7832 16.6537 16.0431 16.7465C16.0435 18.3062 16.0431 19.8386 16.0426 21.371C15.9866 21.3021 15.8975 21.2406 15.8804 21.1631C15.813 20.8579 15.7631 20.5484 15.7183 20.2388C15.7054 20.15 15.7317 20.0556 15.7384 19.9817C15.3787 20.1964 15.018 20.4118 14.6535 20.6473C14.046 20.5709 13.5268 20.3133 13.1157 19.8551C13.0534 19.7855 13.0098 19.6991 12.9671 19.5804C12.9859 19.4236 13.0462 19.2638 12.9926 19.2001C12.9049 19.0961 12.7428 19.0547 12.6122 18.9869Z" fill="#3B392C"/>
<path d="M22.7905 10.4995C22.6073 10.5773 22.4279 10.6665 22.2397 10.7294C22.0858 10.7807 21.9618 10.8145 21.9606 11.0271C21.9601 11.1029 21.8 11.1738 21.7203 11.2544C21.6453 11.3301 21.5277 11.4117 21.5211 11.4977C21.5026 11.7409 21.4233 11.9042 21.1687 11.9539C21.1282 11.9618 21.0671 11.9947 21.0604 12.0258C20.9699 12.4417 20.5911 12.6229 20.3438 12.9091C20.1424 13.1422 19.9107 13.349 19.7014 13.5758C19.6625 13.618 19.6664 13.6998 19.6263 13.7872C19.521 13.8126 19.4399 13.8141 19.3416 13.7979C19.3181 12.7184 19.3113 11.6566 19.3077 10.5947C19.3076 10.5619 19.3411 10.529 19.3862 10.4968C20.5391 10.4982 21.6648 10.4988 22.7905 10.4995Z" fill="#3B392C"/>
<path d="M15.177 8.9861C15.216 9.02174 15.2583 9.05435 15.2932 9.09365C15.3622 9.17159 15.4484 9.33032 15.4898 9.3189C15.615 9.28436 15.765 9.21021 15.8282 9.10511C16.0146 8.7953 16.0403 8.78912 16.251 9.07868C16.3018 9.14844 16.4441 9.21881 16.5083 9.19436C16.5869 9.16445 16.657 9.0415 16.6778 8.9471C16.7086 8.808 16.6841 8.65776 16.6981 8.51372C16.7337 8.14804 16.9062 7.87528 17.2941 7.74099C17.3148 7.87124 17.338 8.01777 17.3613 8.1643C17.3895 8.16478 17.4177 8.16526 17.446 8.16574C17.4866 7.97746 17.5273 7.78918 17.5912 7.62293C17.614 8.71221 17.6135 9.77947 17.5926 10.8489C17.418 10.928 17.2337 10.9745 17.1172 11.0896C16.9645 11.2404 16.8096 11.431 16.758 11.6309C16.7018 11.849 16.625 11.9686 16.4226 12.0802C16.1611 12.2245 15.8748 12.4072 15.725 12.6507C15.5034 13.011 15.5505 13.2884 15.1744 13.1621C15.1743 12.9787 15.1555 12.5765 15.1762 12.4157C15.3061 12.3157 15.3342 12.2336 15.1751 12.157C15.175 11.0818 15.176 10.034 15.177 8.9861Z" fill="#3B392C"/>
<path d="M17.5926 10.8489C17.6139 11.7428 17.6089 12.6389 17.62 13.5348C17.6227 13.7464 17.5669 13.823 17.3456 13.8169C16.9622 13.8064 16.5778 13.8283 16.1784 13.8554C16.1529 13.8889 16.141 13.902 16.1168 13.9216C16.0858 14.029 16.0483 14.1282 16.0477 14.2277C16.0427 15.04 16.0446 15.8524 16.0433 16.692C15.7832 16.6537 15.8136 16.4433 15.8139 16.253C15.8142 16.0119 15.8651 15.7497 15.476 15.7663C15.4371 15.768 15.3729 15.592 15.351 15.4918C15.2975 15.2469 15.2618 14.9981 15.1975 14.7467C15.1752 14.1598 15.1743 13.5771 15.1743 12.9671C15.5505 13.04 15.5034 13.011 15.725 12.6507C15.8748 12.4072 16.1611 12.2245 16.4226 12.0802C16.625 11.9686 16.7018 11.849 16.758 11.6309C16.8096 11.431 16.9645 11.2404 17.1172 11.0896C17.2337 10.9745 17.418 10.928 17.5926 10.8489Z" fill="#3B392C"/>
<path d="M13.5196 18.2843C13.5421 18.2913 13.5459 18.319 13.5458 18.333C13.352 18.3548 13.1696 18.3526 13.0995 18.6087C13.0806 18.6778 12.8813 18.7533 12.7841 18.733C12.5985 18.6943 12.6178 18.7954 12.6091 18.9258C12.5526 18.8012 12.4982 18.6532 12.4623 18.4646C12.4876 17.5072 12.4944 16.5901 12.522 15.6768C12.6893 15.6969 12.8757 15.7781 12.9743 15.7172C13.2274 15.5609 13.3791 15.3275 13.3201 14.9864C13.2799 14.7534 13.3034 14.5073 13.3178 14.2682C13.3224 14.1918 13.3891 14.1192 13.4275 14.0448C13.4281 15.3587 13.4273 16.6726 13.4322 17.9865C13.4326 18.0835 13.4745 18.1803 13.5196 18.2843Z" fill="#3B392C"/>
<path d="M12.522 15.6768C12.5005 15.5919 12.5 15.5107 12.5208 15.4016C12.6744 15.1906 12.778 15.0098 12.5014 14.8591C12.5008 13.3072 12.5002 11.7552 12.5006 10.176C12.6109 10.316 12.7201 10.4832 12.8316 10.6538C13.0242 10.3684 13.3305 10.1386 13.405 9.74617C13.4271 11.1579 13.4278 12.574 13.428 14.0175C13.3891 14.1192 13.3224 14.1918 13.3178 14.2682C13.3034 14.5073 13.2799 14.7534 13.3201 14.9864C13.3791 15.3275 13.2274 15.5609 12.9743 15.7172C12.8757 15.7781 12.6893 15.6969 12.522 15.6768Z" fill="#3B392C"/>
<path d="M21.3937 20.0631C21.3777 20.102 21.3624 20.1137 21.3412 20.1389C21.3169 20.1963 21.2984 20.2402 21.2767 20.3016C21.2182 20.3651 21.1629 20.4111 21.1042 20.4761C21.0694 20.5063 21.0381 20.5174 20.997 20.5422C20.9692 20.5622 20.9541 20.5724 20.9333 20.5976C19.9584 20.6109 18.9917 20.6102 18.0251 20.6178C17.8548 20.6192 17.785 20.5715 17.7857 20.389C17.7912 18.8519 17.7923 17.3148 17.7851 15.7777C17.7841 15.5602 17.8964 15.5531 18.058 15.5536C19.1504 15.5568 20.2429 15.555 21.3618 15.5544C21.3904 17.048 21.3924 18.5419 21.3937 20.0631Z" fill="#3B392C"/>
<path d="M7.78906 23.3066C7.80069 23.3028 7.81686 23.3135 7.8386 23.3379C7.8273 23.3415 7.81045 23.3313 7.78906 23.3066Z" fill="#3B392C"/>
<path d="M7.67302 23.1903C7.6846 23.1865 7.70067 23.1972 7.7222 23.2216C7.71096 23.2251 7.69423 23.215 7.67302 23.1903Z" fill="#3B392C"/>
<path d="M7.73076 23.2487C7.74258 23.2448 7.75874 23.2554 7.78042 23.2798C7.769 23.2835 7.75204 23.2734 7.73076 23.2487Z" fill="#3B392C"/>
<path d="M7.84725 23.3647C7.85884 23.3609 7.87504 23.3716 7.89681 23.3962C7.88554 23.3997 7.8687 23.3895 7.84725 23.3647Z" fill="#3B392C"/>
<path d="M7.9056 23.4226C7.91698 23.4189 7.93324 23.4295 7.95526 23.4539C7.94418 23.4574 7.92733 23.4471 7.9056 23.4226Z" fill="#3B392C"/>
<path d="M7.96493 23.48C7.97573 23.4775 7.99212 23.4891 8.01375 23.5153C8.00284 23.5179 7.98668 23.5061 7.96493 23.48Z" fill="#3B392C"/>
<path d="M8.08275 23.5941C8.09568 23.5858 8.11168 23.596 8.13089 23.6245C8.11774 23.6333 8.10166 23.6232 8.08275 23.5941Z" fill="#3B392C"/>
<path d="M18.125 4.30989C17.9851 4.32992 17.828 4.34372 17.6729 4.33148C17.456 4.31436 17.2577 4.46116 17.0194 4.36268C16.9334 4.32713 16.7663 4.48333 16.6383 4.55573C16.5722 4.59312 16.4941 4.68528 16.4508 4.66992C16.3799 4.64473 16.3206 4.55898 16.2796 4.48578C16.2435 4.42121 16.239 4.33889 16.2457 4.24098C16.3909 4.21665 16.5109 4.21573 16.6309 4.21482C17.1235 4.24056 17.6161 4.26629 18.125 4.30989Z" fill="#3B392C"/>
<path d="M16.6139 4.19702C16.5109 4.21573 16.3909 4.21665 16.2453 4.21791C16.1761 4.21811 16.1325 4.21796 16.0453 4.21774C15.9579 4.21803 15.9142 4.21839 15.8433 4.21845C15.4857 4.21842 15.1552 4.21869 14.7974 4.21859C14.1871 4.2184 13.6041 4.21858 13.0212 4.21876C12.9921 4.21254 12.9631 4.20632 12.9234 4.18973C14.1408 4.17932 15.3688 4.17927 16.6139 4.19702Z" fill="#3B392C"/>
<path d="M19.0596 4.43034C18.8123 4.42321 18.549 4.39842 18.2714 4.35718C18.5191 4.3647 18.7814 4.38869 19.0596 4.43034Z" fill="#3B392C"/>
<path d="M19.6441 4.54543C19.4731 4.62022 19.2889 4.67005 19.1309 4.47357C19.2948 4.47783 19.4625 4.50273 19.6441 4.54543Z" fill="#3B392C"/>
<path d="M25.659 20.0828C25.669 19.9077 25.6962 19.7177 25.7449 19.5175C25.7364 19.6942 25.7063 19.881 25.659 20.0828Z" fill="#3B392C"/>
<path d="M25.546 20.6287C25.5524 20.4882 25.5753 20.3302 25.6179 20.1612C25.6126 20.3038 25.5876 20.4576 25.546 20.6287Z" fill="#3B392C"/>
<path d="M22.9631 5.82383C22.9134 5.81509 22.8553 5.78982 22.796 5.74324C22.8481 5.75038 22.9014 5.77884 22.9631 5.82383Z" fill="#3B392C"/>
<path d="M22.787 5.70917C22.7619 5.71526 22.7278 5.70565 22.6856 5.67959C22.711 5.67325 22.7446 5.68336 22.787 5.70917Z" fill="#3B392C"/>
<path d="M22.6766 5.65159C22.6633 5.6566 22.6463 5.64601 22.6238 5.62107C22.6365 5.61647 22.6547 5.62623 22.6766 5.65159Z" fill="#3B392C"/>
<path d="M8.38691 8.76968C8.28678 8.73367 8.18584 8.69727 8.0849 8.66088C8.15048 8.58017 8.20514 8.48579 8.28454 8.42237C8.3735 8.35131 8.48 8.32178 8.50717 8.51745C8.5151 8.53828 8.51342 8.53674 8.49247 8.54001C8.46149 8.57913 8.45146 8.61498 8.44143 8.65083C8.44143 8.65083 8.43861 8.64375 8.42366 8.65097C8.4011 8.69469 8.39347 8.73119 8.38584 8.7677L8.38691 8.76968Z" fill="#3B392C"/>
<path d="M23.0372 5.88355C23.0254 5.88897 23.0041 5.87977 22.9749 5.8547C22.9872 5.84886 23.0075 5.85889 23.0372 5.88355Z" fill="#3B392C"/>
<path d="M16.1777 22.3169C17.4246 22.2967 18.6874 22.2984 19.9502 22.2902C20.3155 22.2878 20.6806 22.2566 21.0702 22.2379C20.8634 22.2781 20.6322 22.319 20.3747 22.3608C20.2861 22.3612 20.2238 22.3606 20.111 22.36C19.7496 22.3607 19.4386 22.3613 19.1276 22.362C18.3898 22.3614 17.652 22.3609 16.887 22.3613C16.6377 22.3532 16.4156 22.3442 16.1777 22.3169Z" fill="#3B392C"/>
<path d="M22.8188 20.9014C22.8508 20.7827 22.9023 20.6601 22.9623 20.5188C23.1067 20.6926 22.9716 20.7948 22.8188 20.9014Z" fill="#3B392C"/>
<path d="M25.8508 18.2866C25.8616 18.3388 25.8529 18.3891 25.8289 18.4514C25.7196 18.4062 25.6255 18.349 25.5314 18.2918C25.5602 18.2582 25.5891 18.2247 25.6179 18.1912C25.689 18.2224 25.7601 18.2536 25.8508 18.2866Z" fill="#3B392C"/>
<path d="M23.1378 19.915C23.1382 19.9591 23.1386 20.0032 23.139 20.0693C23.1226 20.1044 23.1063 20.1174 23.0833 20.1449C23.0621 20.0917 23.0476 20.0242 23.0552 19.9349C23.0975 19.9138 23.1177 19.9144 23.1378 19.915Z" fill="#3B392C"/>
<path d="M22.9909 20.436C22.9935 20.3821 23.017 20.324 23.0572 20.2559C23.0531 20.3079 23.0324 20.3698 22.9909 20.436Z" fill="#3B392C"/>
<path d="M25.7451 19.2825C25.7547 19.287 25.7548 19.2967 25.7546 19.321C25.7444 19.3258 25.7336 19.3168 25.7255 19.3058C25.7238 19.3035 25.7319 19.2939 25.7451 19.2825Z" fill="#3B392C"/>
<path d="M9.79544 9.51312C9.81782 11.4231 9.82089 13.3461 9.82465 15.2964C9.82462 16.2099 9.82584 17.0961 9.82041 17.9823C9.81981 18.0801 9.78109 18.1776 9.73842 18.2835C9.71761 15.5519 9.71735 12.812 9.72169 10.0722C9.72197 9.89012 9.75717 9.70813 9.79544 9.51312Z" fill="#3B392C"/>
<path d="M10.7541 13.1418C10.7541 12.1713 10.7526 11.228 10.7602 10.2848C10.761 10.1814 10.8139 10.0783 10.8788 9.97124C10.9149 9.96735 10.9368 9.98016 10.9368 9.98016C10.9115 10.0859 10.8643 10.1916 10.8641 10.2974C10.8597 12.824 10.8616 15.3506 10.8575 17.8772C10.8571 18.0686 10.8199 18.2599 10.7796 18.4626C10.7579 16.7056 10.7566 14.9373 10.7541 13.1418Z" fill="#3B392C"/>
<path d="M8.11227 9.4725C8.13833 9.88913 8.15818 10.324 8.15849 10.759C8.16026 13.2495 8.15739 15.7399 8.15628 18.2572C8.13093 18.1895 8.08414 18.0951 8.08324 18.0002C8.07656 17.3007 8.07904 16.6012 8.07773 15.8745C8.07728 14.2761 7.92906 12.5984 7.92859 11C7.93455 10.4433 8.09014 10.0203 8.11227 9.4725Z" fill="#3B392C"/>
<path d="M8.20406 18.3264C8.68322 18.3028 9.16921 18.3009 9.6826 18.2976C9.66224 18.3321 9.61494 18.3987 9.56664 18.3994C9.13647 18.4059 8.70612 18.4016 8.27586 18.397C8.25403 18.3967 8.23253 18.365 8.20406 18.3264Z" fill="#3B392C"/>
<path d="M8.13655 20.7499C8.15736 21.2394 8.15664 21.7404 8.15787 22.2681C8.13266 22.2343 8.10551 22.1739 8.07743 22.0913C8.08934 21.6332 8.10218 21.1973 8.13655 20.7499Z" fill="#3B392C"/>
<path d="M16.0437 21.3981C16.0431 19.8386 16.0435 18.3062 16.0442 16.7193C16.0446 15.8524 16.0427 15.04 16.0477 14.2277C16.0483 14.1282 16.0858 14.029 16.1062 13.9297C16.1082 16.5936 16.1102 19.2576 16.1125 21.9216C16.1126 22.028 16.115 22.1345 16.123 22.2666C16.1016 22.1257 16.0661 21.96 16.048 21.7924C16.035 21.6713 16.045 21.5477 16.0437 21.3981Z" fill="#3B392C"/>
<path d="M15.0718 22.2916C15.065 21.993 15.0854 21.692 15.0975 21.3906C15.1056 21.1904 15.1018 20.9896 15.1093 20.7631C15.1343 21.1226 15.1614 21.5079 15.168 21.8936C15.1703 22.0249 15.1212 22.1572 15.0718 22.2916Z" fill="#3B392C"/>
<path d="M19.1329 22.3847C19.4386 22.3613 19.7496 22.3607 20.0877 22.361C20.1042 22.3883 20.093 22.4379 20.083 22.4377C19.768 22.4306 19.4531 22.4186 19.1329 22.3847Z" fill="#3B392C"/>
<path d="M23.1378 19.888C23.1177 19.9144 23.0975 19.9138 23.0623 19.9135C23.0459 19.8867 23.0447 19.8594 23.0504 19.8127C23.0668 19.6887 23.0846 19.5841 23.0847 19.4795C23.0861 17.7482 23.0853 16.0168 23.0849 14.2854C23.0849 14.1901 23.0849 14.0948 23.1392 13.999C23.1392 14.5387 23.1392 15.0784 23.14 15.6455C23.1398 17.0688 23.1388 18.4649 23.1378 19.888Z" fill="#3B392C"/>
<path d="M22.8118 10.4988C21.6648 10.4988 20.5391 10.4982 19.3862 10.4847C19.3589 10.4718 19.3586 10.4476 19.3586 10.4476C20.5616 10.4445 21.7645 10.4414 22.9946 10.4384C22.9589 10.4584 22.896 10.4783 22.8118 10.4988Z" fill="#3B392C"/>
<path d="M19.3588 13.8156C19.4399 13.8141 19.521 13.8126 19.6264 13.8099C19.7313 13.8093 19.8119 13.8099 19.942 13.8109C20.1105 13.8106 20.2294 13.8099 20.3482 13.8092C21.1331 13.8102 21.9181 13.8104 22.703 13.8134C22.7983 13.8138 22.8936 13.8296 23.0032 13.8576C21.8153 13.8776 20.6131 13.8782 19.3848 13.8602C19.3586 13.8415 19.3588 13.8156 19.3588 13.8156Z" fill="#3B392C"/>
<path d="M23.1045 10.3534C23.0872 9.89065 23.0872 9.41309 23.0872 8.93553C23.1047 8.93535 23.1223 8.93517 23.1398 8.93498C23.1398 9.14736 23.1398 9.35974 23.1406 9.59906C23.1349 9.86355 23.1283 10.1011 23.1045 10.3534Z" fill="#3B392C"/>
<path d="M20.3434 13.7876C20.2294 13.8099 20.1105 13.8106 19.9662 13.81C20.0549 13.6221 20.1937 13.6658 20.3434 13.7876Z" fill="#3B392C"/>
<path d="M15.1762 12.4157C15.1753 12.573 15.1743 12.7302 15.1733 12.9409C15.1743 13.5771 15.1752 14.1598 15.1762 14.7426C15.1748 15.8104 15.1743 16.8782 15.1709 17.946C15.1706 18.0501 15.1533 18.1542 15.1241 18.2734C15.1023 14.7452 15.1005 11.202 15.0968 7.65876C15.0967 7.55539 15.0772 7.45204 15.0569 7.32642C15.0892 7.37408 15.1613 7.44141 15.1676 7.5144C15.1848 7.71439 15.1743 7.91676 15.1747 8.17198C15.1755 8.44003 15.1763 8.65429 15.1772 8.86856C15.1764 8.89468 15.1756 8.92081 15.1759 8.96652C15.176 10.034 15.175 11.0818 15.174 12.1801C15.1747 12.2922 15.1755 12.3539 15.1762 12.4157Z" fill="#3B392C"/>
<path d="M17.6131 10.8467C17.6135 9.77947 17.614 8.71221 17.6138 7.61775C17.6247 7.50214 17.6364 7.41375 17.6666 7.31285C17.6817 9.37004 17.6781 11.4397 17.6746 13.5094C17.6744 13.6237 17.6746 13.738 17.6746 13.8795C17.1768 13.8795 16.6969 13.8795 16.2054 13.8581C16.5778 13.8283 16.9622 13.8064 17.3456 13.8169C17.5669 13.823 17.6227 13.7464 17.62 13.5348C17.6089 12.6389 17.6139 11.7428 17.6131 10.8467Z" fill="#3B392C"/>
<path d="M10.2888 7.24128C11.1624 7.24081 12.036 7.24035 12.9369 7.23859C13.6518 7.2482 14.3394 7.2591 15.042 7.29003C13.6207 7.30907 12.1845 7.30717 10.7483 7.30861C10.6141 7.30875 10.4799 7.33004 10.3183 7.31654C10.2902 7.27481 10.2895 7.25804 10.2888 7.24128Z" fill="#3B392C"/>
<path d="M19.1658 7.27824C18.6996 7.29847 18.2164 7.30169 17.7066 7.30742C17.679 7.29892 17.6779 7.28792 17.6756 7.26041C18.1658 7.24969 18.6573 7.25546 19.1658 7.27824Z" fill="#3B392C"/>
<path d="M15.1996 8.86329C15.1763 8.6543 15.1755 8.44003 15.1759 8.19911C15.383 8.3885 15.3103 8.62275 15.1996 8.86329Z" fill="#3B392C"/>
<path d="M23.0046 8.85066C21.7729 8.86816 20.5245 8.86816 19.2403 8.86816C19.2403 8.35672 19.2403 7.85681 19.2356 7.3304C19.2546 7.46896 19.2909 7.63339 19.2992 7.79921C19.3112 8.04059 19.303 8.28297 19.3053 8.55222C19.2681 8.79293 19.3909 8.81304 19.5614 8.81231C20.5981 8.80789 21.6349 8.81002 22.6716 8.81199C22.777 8.81219 22.8825 8.82578 23.0046 8.85066Z" fill="#3B392C"/>
<path d="M15.8433 4.21845C15.8211 4.27068 15.7682 4.37015 15.7229 4.36683C15.426 4.34512 15.1307 4.30118 14.8298 4.24173C15.1552 4.21869 15.4857 4.21842 15.8433 4.21845Z" fill="#3B392C"/>
<path d="M13.4263 9.74175C13.4344 8.98566 13.4344 8.98765 12.6778 8.98508C11.9142 8.98248 11.1505 8.97537 10.3684 8.95506C10.5007 8.91673 10.6513 8.87463 10.8022 8.87355C11.6784 8.8673 12.5546 8.8707 13.4625 8.88538C13.5017 8.91529 13.5137 8.92551 13.53 8.93061C13.5311 12.0333 13.5323 15.1359 13.5369 18.2654C13.5404 18.2922 13.5421 18.2913 13.5196 18.2843C13.4745 18.1803 13.4326 18.0835 13.4322 17.9865C13.4273 16.6726 13.4281 15.3587 13.428 14.0175C13.4278 12.574 13.4271 11.1579 13.4263 9.74175Z" fill="#3B392C"/>
<path d="M15.0819 18.2837C15.0582 18.3186 15.0088 18.3984 14.959 18.3986C14.4992 18.4009 14.0392 18.3895 13.5626 18.3505C13.5459 18.319 13.5421 18.2913 13.5421 18.2913L13.5394 18.2928C14.0444 18.2928 14.5503 18.2922 15.0819 18.2837Z" fill="#3B392C"/>
<path d="M10.2681 7.24155C10.2895 7.25804 10.2902 7.27481 10.291 7.31675C10.2444 7.34883 10.1975 7.35573 10.1327 7.36166C10.1589 7.32107 10.2031 7.28144 10.2681 7.24155Z" fill="#3B392C"/>
<path d="M8.45595 8.64142C8.45146 8.61498 8.46149 8.57913 8.49139 8.54021C8.49766 8.56877 8.48407 8.60039 8.45595 8.64142Z" fill="#3B392C"/>
<path d="M9.8282 9.4111C9.83601 9.42848 9.83516 9.46184 9.81758 9.49602C9.80708 9.47359 9.81331 9.45033 9.8282 9.4111Z" fill="#3B392C"/>
<path d="M8.40031 8.75725C8.39347 8.73119 8.4011 8.69469 8.42744 8.65149C8.4357 8.6788 8.42525 8.7128 8.40031 8.75725Z" fill="#3B392C"/>
<path d="M13.5334 8.91539C13.5137 8.92551 13.5017 8.91529 13.4894 8.88887C13.502 8.88526 13.5194 8.89271 13.5334 8.91539Z" fill="#3B392C"/>
<path d="M20.9368 20.6225C20.8284 20.6581 20.7201 20.7236 20.6114 20.7246C19.6449 20.7326 18.6783 20.7292 17.6926 20.7292C17.6926 18.9682 17.6926 17.2221 17.6926 15.4467C18.9399 15.4467 20.1848 15.4467 21.4325 15.4738C21.4197 15.5186 21.404 15.5363 21.3618 15.5544C20.2429 15.555 19.1504 15.5568 18.058 15.5536C17.8964 15.5531 17.7841 15.5602 17.7851 15.7777C17.7923 17.3148 17.7912 18.8519 17.7857 20.389C17.785 20.5715 17.8548 20.6192 18.0251 20.6178C18.9917 20.6102 19.9584 20.6109 20.928 20.6122C20.9309 20.6157 20.9368 20.6225 20.9368 20.6225Z" fill="#3B392C"/>
<path d="M21.3884 15.554C21.404 15.5363 21.4197 15.5186 21.4507 15.4914C21.4661 15.482 21.4659 15.4853 21.4595 15.5144C21.4538 17.003 21.4546 18.4624 21.4554 19.9219C21.4485 19.9731 21.4416 20.0243 21.4168 20.0854C21.3988 20.0953 21.393 20.0903 21.3937 20.0631C21.3924 18.5419 21.3904 17.048 21.3884 15.554Z" fill="#3B392C"/>
<path d="M21.4663 19.9003C21.4546 18.4624 21.4538 17.003 21.459 15.516C21.4754 15.5439 21.4947 15.5993 21.4948 15.6547C21.4964 17.0151 21.4961 18.3756 21.4951 19.736C21.495 19.7836 21.4834 19.8311 21.4663 19.9003Z" fill="#3B392C"/>
<path d="M19.3416 13.7979C19.3588 13.8156 19.3586 13.8415 19.3579 13.8545C19.3193 13.8328 19.2485 13.7983 19.2483 13.7635C19.2426 12.6813 19.2433 11.5991 19.2465 10.5169C19.2466 10.4913 19.2866 10.4657 19.3333 10.4439C19.3586 10.4476 19.3589 10.4718 19.3589 10.484C19.3411 10.529 19.3076 10.5619 19.3077 10.5947C19.3113 11.6566 19.3181 12.7184 19.3416 13.7979Z" fill="#3B392C"/>
<path d="M21.289 20.3338C21.2428 20.3888 21.1966 20.4438 21.1295 20.501C21.1085 20.5033 21.1007 20.4952 21.1042 20.4761C21.1629 20.4111 21.2182 20.3651 21.2773 20.3229C21.2812 20.3265 21.289 20.3338 21.289 20.3338Z" fill="#3B392C"/>
<path d="M21.3922 20.1491C21.3682 20.2041 21.3442 20.2591 21.3046 20.3239C21.289 20.3338 21.2812 20.3265 21.2806 20.3053C21.2984 20.2402 21.3169 20.1963 21.3496 20.1519C21.3638 20.1512 21.3922 20.1491 21.3922 20.1491Z" fill="#3B392C"/>
<path d="M21.1124 20.5073C21.0923 20.532 21.0684 20.5527 21.023 20.5723C21.0015 20.5713 20.9871 20.556 20.997 20.5422C21.0381 20.5174 21.0694 20.5063 21.1007 20.4952C21.1007 20.4952 21.1085 20.5033 21.1124 20.5073Z" fill="#3B392C"/>
<path d="M21.0084 20.5793C20.999 20.5981 20.9828 20.609 20.9517 20.6212C20.9368 20.6225 20.9309 20.6157 20.9362 20.6011C20.9541 20.5724 20.9692 20.5622 20.9871 20.5559C20.9871 20.5559 21.0015 20.5713 21.0084 20.5793Z" fill="#3B392C"/>
<path d="M21.3983 20.1377C21.3922 20.1491 21.3638 20.1512 21.3554 20.1383C21.3624 20.1137 21.3777 20.102 21.393 20.0903C21.393 20.0903 21.3988 20.0953 21.4017 20.0978C21.4046 20.1004 21.4044 20.1263 21.3983 20.1377Z" fill="#3B392C"/>
<path d="M12.5011 15.6731C12.4944 16.5901 12.4876 17.5072 12.4657 18.4428C12.4466 18.436 12.4426 18.4106 12.4413 18.3491C12.441 18.3023 12.4379 18.2915 12.4347 18.2808C12.4253 18.1458 12.4077 18.0108 12.4076 17.8758C12.4057 15.269 12.4059 12.6621 12.398 10.0197C12.3903 9.98416 12.3809 9.97361 12.3809 9.97361L12.3811 9.97143C12.4205 10.0168 12.46 10.0621 12.4996 10.1553C12.5002 11.7552 12.5008 13.3072 12.5005 14.8852C12.5002 15.0678 12.5007 15.2243 12.5003 15.4052C12.5 15.5107 12.5005 15.5919 12.5011 15.6731Z" fill="#3B392C"/>
<path d="M10.9632 9.98437C10.9368 9.98016 10.9149 9.96735 10.9028 9.96401C11.3763 9.95271 11.8618 9.94474 12.3642 9.95411C12.3811 9.97143 12.3813 9.97295 12.3641 9.97138C12.3362 9.97341 12.3255 9.97702 12.3148 9.98062C11.8731 9.98327 11.4313 9.98593 10.9632 9.98437Z" fill="#3B392C"/>
<path d="M12.4288 18.2882C12.4379 18.2915 12.441 18.3023 12.4422 18.3298C12.4246 18.3336 12.4188 18.3166 12.4288 18.2882Z" fill="#3B392C"/>
<path d="M12.3263 9.98783C12.3255 9.97702 12.3365 9.97276 12.3641 9.97138C12.3809 9.97361 12.3903 9.98416 12.3908 9.99105C12.3913 9.99794 12.3643 10.0007 12.3643 10.0007C12.3643 10.0007 12.3378 9.99505 12.3263 9.98783Z" fill="#3B392C"/>
<path d="M15.1762 12.4157C15.1557 12.3575 15.1956 12.1249 15.196 12.04C15.3551 12.0662 15.3061 12.3157 15.1762 12.4157Z" fill="#3B392C"/>
<path d="M12.5005 14.8852C12.778 15.0098 12.6744 15.1906 12.5217 15.3773C12.5007 15.2243 12.5002 15.0678 12.5005 14.8852Z" fill="#3B392C"/>
<path d="M12.6097 19.0082C12.7428 19.0547 12.9049 19.0961 12.9926 19.2001C13.0462 19.2638 12.9859 19.4236 12.9673 19.5599C12.841 19.3962 12.7241 19.2129 12.6097 19.0082Z" fill="#3B392C"/>
</svg>
