<svg width="45" height="45" viewBox="0 0 45 45" fill="none" xmlns="http://www.w3.org/2000/svg">
<path d="M7.24538 16.8063C7.24521 16.7689 7.24504 16.7316 7.28197 16.66C7.43495 16.0566 7.52932 15.4819 7.67198 14.9195C7.86266 14.1679 8.0908 13.4258 8.30285 12.6795C8.30285 12.6795 8.3059 12.6875 8.32741 12.6764C8.49167 12.3364 8.63442 12.0075 8.77717 11.6785C8.77717 11.6785 8.77966 11.6841 8.7978 11.6727C8.82985 11.6166 8.84375 11.572 8.85765 11.5273C8.85765 11.5273 8.85981 11.5308 8.88512 11.5273C8.96532 11.4166 9.02021 11.3093 9.07509 11.202C9.07509 11.202 9.08049 11.2094 9.10289 11.204C9.16073 11.1226 9.19616 11.0466 9.2316 10.9705C9.2316 10.9705 9.23755 10.9782 9.25637 10.9706C9.2905 10.9177 9.3058 10.8724 9.32111 10.827C9.32111 10.827 9.32359 10.8326 9.34715 10.8298C9.428 10.7442 9.48528 10.6616 9.54257 10.579C9.54257 10.579 9.54553 10.5887 9.56295 10.5834C9.59105 10.5519 9.60172 10.5257 9.6124 10.4995C9.6124 10.4995 9.61467 10.51 9.63598 10.5029C9.67381 10.4505 9.69033 10.4052 9.70685 10.3598C9.70685 10.3598 9.70992 10.3654 9.72655 10.3575C9.75639 10.3254 9.76961 10.3011 9.78282 10.2769C9.78282 10.2769 9.78421 10.2851 9.80093 10.2783C9.83177 10.2472 9.84589 10.223 9.86001 10.1988C9.86001 10.1988 9.86143 10.2073 9.87814 10.2004C9.90838 10.1689 9.92192 10.1442 9.93546 10.1196C9.93546 10.1196 9.93686 10.1283 9.95417 10.122C9.98487 10.0907 9.99825 10.0657 10.0116 10.0407C10.0116 10.0407 10.0142 10.0493 10.0313 10.0433C10.0613 10.0119 10.0742 9.98664 10.087 9.96135C10.087 9.96135 10.0896 9.97014 10.1072 9.9647C10.138 9.93402 10.1513 9.90878 10.1645 9.88354C10.1645 9.88354 10.1675 9.89224 10.1849 9.88716C10.2166 9.8575 10.2308 9.83293 10.2451 9.80835C10.2451 9.80835 10.2462 9.81761 10.2658 9.81308C10.3528 9.81381 10.4201 9.81907 10.4768 9.84842C10.1077 10.5529 9.67778 11.2058 9.40426 11.9188C8.60986 13.9896 8.5642 16.1641 8.63836 18.3823C8.793 20.0734 8.95255 21.7286 9.10965 23.4152C9.12741 23.56 9.14172 23.6748 9.16871 23.7865C9.51083 25.203 9.85478 26.619 10.2019 28.063C10.3306 28.4146 10.4414 28.7448 10.5834 29.0611C11.1069 30.2268 11.7012 31.3486 12.6508 32.2384C12.6524 32.2376 12.6533 32.2344 12.6593 32.2538C12.6875 32.2866 12.7098 32.3002 12.7338 32.3111C12.7355 32.3085 12.7305 32.3122 12.7362 32.3316C12.7646 32.3645 12.7872 32.378 12.8114 32.3888C12.8131 32.3862 12.8079 32.3895 12.814 32.4089C12.8425 32.4418 12.865 32.4553 12.889 32.4663C12.8905 32.4637 12.8854 32.467 12.8916 32.4863C12.9202 32.5193 12.9426 32.5329 12.9666 32.544C12.9681 32.5414 12.9628 32.5444 12.9694 32.5635C12.9983 32.5962 13.0208 32.6098 13.0445 32.6212C13.0458 32.6188 13.041 32.6212 13.0485 32.6401C13.0775 32.6748 13.099 32.6906 13.1279 32.723C13.1509 32.7596 13.1714 32.7714 13.2056 32.7922C13.2308 32.831 13.2522 32.8444 13.2954 32.8695C13.4724 33.0171 13.6272 33.1526 13.7939 33.2714C15.6801 34.6162 17.8422 35.075 20.1344 35.2363C21.9016 35.1899 23.6332 35.1359 25.398 35.0862C26.5463 34.9331 27.6614 34.7757 28.8074 34.6195C30.1514 34.263 31.4844 33.9638 32.7704 33.5266C33.5908 33.2476 34.3418 32.7643 35.1239 32.3727C34.3886 33.7015 33.2971 34.6599 31.972 35.3622C30.6371 36.0697 29.2011 36.4657 27.7088 36.6613C26.8885 36.7689 26.0611 36.829 25.2453 36.962C25.0104 37.0003 24.7551 37.1746 24.5945 37.3604C23.9965 38.0523 23.4355 38.7762 22.8565 39.4847C22.7672 39.5939 22.6627 39.6932 22.554 39.7837C22.2136 40.0673 21.9358 40.086 21.6517 39.7564C20.9793 38.9766 20.3507 38.1592 19.68 37.3778C19.5182 37.1893 19.2782 36.9963 19.0463 36.9522C18.086 36.7696 17.1073 36.6813 16.1494 36.4888C13.7935 36.0153 11.6185 35.161 9.97867 33.3006C9.62281 32.8969 9.33519 32.433 9.01188 31.9419C8.92474 31.7468 8.84186 31.6068 8.75898 31.4668C8.75898 31.4668 8.76928 31.4637 8.76575 31.4476C8.73999 31.415 8.71776 31.3986 8.69553 31.3821C8.69553 31.3821 8.70232 31.3795 8.70196 31.3546C8.6684 31.2722 8.6352 31.2147 8.602 31.1572C8.602 31.1572 8.61247 31.1535 8.60987 31.1377C8.58592 31.1051 8.56456 31.0881 8.5432 31.0712C8.5432 31.0712 8.54902 31.0684 8.54804 31.0433C8.51584 30.9593 8.48461 30.9004 8.45338 30.8416C8.45338 30.8416 8.46209 30.8415 8.46325 30.8179C8.41188 30.7032 8.35935 30.6121 8.30683 30.521C8.30683 30.521 8.297 30.5065 8.30291 30.4662C8.20106 30.1517 8.0933 29.8774 7.98553 29.6031C7.98553 29.6031 7.99282 29.6 7.99711 29.5722C7.99816 29.5062 8.00096 29.4663 7.99079 29.4301C7.65646 28.2401 7.37952 27.0404 7.29834 25.8007C7.28122 25.5392 7.17536 25.2836 7.11039 25.0252C7.10225 24.9888 7.09412 24.9524 7.10917 24.8632C7.13802 24.4637 7.14824 24.117 7.14856 23.7703C7.1499 22.3346 7.15194 20.8988 7.14529 19.4631C7.14346 19.0691 7.1123 18.6752 7.0946 18.2813C7.0925 18.2442 7.09039 18.207 7.12465 18.1346C7.18913 17.6683 7.21726 17.2373 7.24538 16.8063Z" fill="#817F74"/>
<path d="M7.087 18.3153C7.1123 18.6752 7.14346 19.0691 7.14529 19.4631C7.15194 20.8988 7.1499 22.3346 7.14856 23.7703C7.14824 24.117 7.13802 24.4637 7.11327 24.8353C7.06138 22.9838 7.02431 21.1075 7.00018 19.231C6.99641 18.9375 7.05152 18.6432 7.087 18.3153Z" fill="#817F74"/>
<path d="M7.10415 25.0566C7.17536 25.2836 7.28122 25.5392 7.29834 25.8007C7.37952 27.0404 7.65646 28.2401 7.99079 29.4301C8.00096 29.4663 7.99816 29.5062 7.99645 29.5761C7.79346 28.8804 7.55386 28.1612 7.40885 27.4234C7.25769 26.6542 7.19774 25.8672 7.10415 25.0566Z" fill="#817F74"/>
<path d="M8.27912 12.6932C8.0908 13.4258 7.86266 14.1679 7.67198 14.9195C7.52932 15.4819 7.43495 16.0566 7.29289 16.634C7.42749 15.2881 7.71208 13.965 8.27912 12.6932Z" fill="#817F74"/>
<path d="M7.23792 16.8381C7.21726 17.2373 7.18913 17.6683 7.13393 18.1081C7.14805 17.7012 7.18926 17.2856 7.23792 16.8381Z" fill="#817F74"/>
<path d="M10.9318 9.20687C10.816 9.40206 10.6731 9.59929 10.5089 9.81043C10.4201 9.81907 10.3528 9.81381 10.2614 9.8118C10.4597 9.61301 10.6822 9.41096 10.9318 9.20687Z" fill="#817F74"/>
<path d="M8.7553 11.6934C8.63442 12.0075 8.49167 12.3364 8.32316 12.676C8.44274 12.3605 8.58808 12.0344 8.7553 11.6934Z" fill="#817F74"/>
<path d="M7.98376 29.6338C8.0933 29.8774 8.20106 30.1517 8.30806 30.4591C8.19886 30.2163 8.09043 29.9404 7.98376 29.6338Z" fill="#817F74"/>
<path d="M9.05203 11.212C9.02021 11.3093 8.96532 11.4166 8.88318 11.5267C8.91362 11.4269 8.97129 11.3244 9.05203 11.212Z" fill="#817F74"/>
<path d="M8.75989 31.4944C8.84186 31.6068 8.92474 31.7468 9.0068 31.9161C8.92426 31.8042 8.84254 31.6632 8.75989 31.4944Z" fill="#817F74"/>
<path d="M9.51807 10.5848C9.48528 10.6616 9.428 10.7442 9.34436 10.8285C9.37653 10.7502 9.43505 10.6704 9.51807 10.5848Z" fill="#817F74"/>
<path d="M8.3077 30.5484C8.35935 30.6121 8.41188 30.7032 8.46149 30.8219C8.40858 30.7582 8.35858 30.667 8.3077 30.5484Z" fill="#817F74"/>
<path d="M9.20842 10.9805C9.19616 11.0466 9.16073 11.1226 9.09835 11.2044C9.10935 11.137 9.1473 11.0637 9.20842 10.9805Z" fill="#817F74"/>
<path d="M8.45334 30.8677C8.48461 30.9004 8.51584 30.9593 8.54604 31.0458C8.51444 31.0136 8.48387 30.9537 8.45334 30.8677Z" fill="#817F74"/>
<path d="M8.60099 31.1833C8.6352 31.2147 8.6684 31.2722 8.70008 31.3577C8.66571 31.327 8.63285 31.2682 8.60099 31.1833Z" fill="#817F74"/>
<path d="M8.8389 11.5412C8.84375 11.572 8.82984 11.6166 8.79475 11.6727C8.78909 11.6411 8.80462 11.5981 8.8389 11.5412Z" fill="#817F74"/>
<path d="M9.30059 10.8391C9.3058 10.8724 9.2905 10.9177 9.2517 10.9718C9.24549 10.9375 9.26278 10.8943 9.30059 10.8391Z" fill="#817F74"/>
<path d="M9.68545 10.3701C9.69033 10.4052 9.67381 10.4505 9.63175 10.4996C9.62549 10.4624 9.64477 10.4213 9.68545 10.3701Z" fill="#817F74"/>
<path d="M8.69928 31.4035C8.71776 31.3986 8.73998 31.415 8.76506 31.4529C8.74628 31.4579 8.72466 31.4414 8.69928 31.4035Z" fill="#817F74"/>
<path d="M8.5459 31.0926C8.56456 31.0881 8.58592 31.1051 8.60934 31.1433C8.59046 31.1477 8.56953 31.1309 8.5459 31.0926Z" fill="#817F74"/>
<path d="M9.59114 10.5043C9.60172 10.5257 9.59105 10.5519 9.55802 10.5822C9.54708 10.5606 9.55848 10.5348 9.59114 10.5043Z" fill="#817F74"/>
<path d="M9.76211 10.2834C9.7696 10.3011 9.75639 10.3254 9.72338 10.3575C9.71619 10.3402 9.7288 10.3151 9.76211 10.2834Z" fill="#817F74"/>
<path d="M9.83909 10.2049C9.84589 10.223 9.83177 10.2472 9.79678 10.2777C9.79001 10.2597 9.80409 10.2354 9.83909 10.2049Z" fill="#817F74"/>
<path d="M9.91444 10.1256C9.92192 10.1442 9.90838 10.1689 9.87385 10.1998C9.86638 10.1813 9.87991 10.1565 9.91444 10.1256Z" fill="#817F74"/>
<path d="M9.99044 10.0464C9.99825 10.0657 9.98487 10.0907 9.94989 10.121C9.94195 10.1015 9.9556 10.0768 9.99044 10.0464Z" fill="#817F74"/>
<path d="M10.0659 9.96719C10.0741 9.98664 10.0613 10.0119 10.0268 10.0427C10.0184 10.0231 10.0316 9.99806 10.0659 9.96719Z" fill="#817F74"/>
<path d="M10.1433 9.88901C10.1513 9.90878 10.138 9.93402 10.1027 9.9637C10.0945 9.9436 10.1083 9.91904 10.1433 9.88901Z" fill="#817F74"/>
<path d="M10.2237 9.81336C10.2308 9.83293 10.2166 9.8575 10.1804 9.88634C10.173 9.86652 10.1877 9.84244 10.2237 9.81336Z" fill="#817F74"/>
<path d="M38.6873 26.1015C38.4493 27.4695 38.0969 28.7971 37.3459 29.9889C36.8314 30.8053 36.2089 31.5202 35.4002 32.0646C35.4368 31.9157 35.5059 31.7907 35.5501 31.6575C35.8589 30.7265 36.1626 29.7937 36.4899 28.8383C36.5453 28.6101 36.5787 28.4051 36.615 28.1827C36.618 28.1654 36.6176 28.1303 36.6406 28.1104C36.7037 27.8413 36.7437 27.5923 36.7912 27.3249C36.7923 27.2818 36.786 27.257 36.8009 27.2056C36.9068 26.4253 37.048 25.6729 37.0648 24.9177C37.1037 23.1685 37.0709 21.4178 37.0891 19.6679C37.1039 18.2452 36.9545 16.8396 36.6865 15.4472C36.4553 14.2457 36.1435 13.0652 35.5259 11.9614C34.945 10.8387 34.2133 9.87837 33.1448 9.17807C33.1052 9.14519 33.0782 9.13181 33.0518 9.12169C33.0523 9.12496 33.0572 9.12047 33.046 9.09844C32.9638 9.03846 32.8927 9.00051 32.8187 8.96468C32.8156 8.96681 32.8231 8.96648 32.8112 8.94556C32.7546 8.91115 32.7099 8.89766 32.6637 8.88716C32.6623 8.89014 32.6689 8.88959 32.6641 8.86878C32.6349 8.83497 32.6105 8.82196 32.5855 8.81231C32.5848 8.81567 32.5905 8.81181 32.5754 8.78945C31.6622 8.39914 30.7642 8.0312 29.837 7.65527C29.4184 7.57073 29.0289 7.49418 28.6207 7.39391C28.3785 7.33698 28.155 7.30377 27.9144 7.26722C27.8973 7.26389 27.8625 7.264 27.8413 7.24045C27.4704 7.18491 27.1207 7.15294 26.7457 7.11551C26.6859 7.10792 26.6515 7.10579 26.5952 7.07985C25.9167 7.02172 25.2599 6.98741 24.5804 6.92936C22.9203 6.90569 21.2829 6.90576 19.613 6.89965C19.4416 6.91258 19.3031 6.93689 19.1635 6.94995C18.1801 7.04197 17.1862 7.07165 16.2158 7.23847C15.1801 7.41651 14.1666 7.72337 13.1175 7.97168C13.0512 7.99591 13.011 8.02245 12.9697 8.04612C12.9687 8.04324 12.9736 8.04685 12.9438 8.04486C12.8277 7.98941 12.7416 7.93596 12.6554 7.88251C12.6554 7.88251 12.6581 7.88713 12.6802 7.88509C12.7378 7.85462 12.7733 7.82618 12.8088 7.79774C12.8088 7.79774 12.8099 7.80496 12.834 7.80415C12.9418 7.74644 13.0257 7.68953 13.1095 7.63263C13.1095 7.63263 13.1156 7.64012 13.1319 7.63684C13.1645 7.61165 13.1807 7.58974 13.1969 7.56783C13.1969 7.56783 13.1992 7.57482 13.2208 7.57335C13.2791 7.54422 13.3157 7.51657 13.3524 7.48891C13.3524 7.48891 13.3533 7.49596 13.3784 7.49657C13.4896 7.44269 13.5757 7.38821 13.6618 7.33372C13.6618 7.33372 13.6642 7.34104 13.6889 7.34168C13.8005 7.28918 13.8873 7.23605 13.9742 7.18292C13.9742 7.18292 13.9754 7.18873 14.0006 7.18867C14.083 7.15578 14.1403 7.12296 14.1975 7.09014C14.1975 7.09014 14.207 7.10118 14.2314 7.10302C14.7281 6.91958 15.2003 6.73429 15.6725 6.549C15.6725 6.549 15.6802 6.55594 15.7068 6.55981C16.117 6.46948 16.503 6.38401 16.8834 6.27815C17.1601 6.20115 17.4293 6.09721 17.7019 6.00528C17.9322 5.96697 18.1625 5.92865 18.4545 5.8782C19.379 5.76011 20.2409 5.64581 21.105 5.55022C22.3256 5.41519 23.5478 5.29398 24.7693 5.16687C26.1385 4.88543 27.5141 5.02204 28.8851 5.12861C30.0443 5.21871 31.1776 5.45965 32.268 5.87851C34.4543 6.71834 35.9205 8.29399 36.8449 10.4022C37.3622 11.5819 37.8101 12.7889 37.9475 14.086C37.9551 14.158 38.0045 14.2256 38.0257 14.3627C38.0309 14.6079 38.0329 14.7874 38.0605 14.963C38.195 15.8197 38.3648 16.6719 38.4675 17.5322C38.5795 18.4704 38.6295 19.416 38.7145 20.3576C38.7198 20.4163 38.7945 20.4688 38.8369 20.5242C38.8423 20.5595 38.8476 20.5948 38.8299 20.6818C38.8005 22.0126 38.7935 23.2917 38.7904 24.5708C38.7903 24.6164 38.8276 24.6621 38.8475 24.7078C38.849 24.7433 38.8505 24.7789 38.8171 24.8493C38.7505 25.29 38.7189 25.6957 38.6873 26.1015Z" fill="#CFCEC3"/>
<path d="M38.8423 20.4905C38.7945 20.4688 38.7198 20.4163 38.7145 20.3576C38.6295 19.416 38.5795 18.4704 38.4675 17.5322C38.3648 16.6719 38.195 15.8197 38.0605 14.963C38.0329 14.7874 38.0309 14.6079 38.0207 14.3928C38.1676 15.0968 38.3509 15.833 38.4455 16.5804C38.6086 17.8688 38.7166 19.1643 38.8423 20.4905Z" fill="#CFCEC3"/>
<path d="M24.7477 5.14083C23.5478 5.29398 22.3256 5.41519 21.105 5.55022C20.2409 5.64581 19.379 5.76011 18.479 5.86205C19.2598 5.71879 20.0741 5.54866 20.8967 5.44769C22.068 5.30393 23.2454 5.20977 24.4206 5.09833C24.521 5.08882 24.6241 5.10862 24.7477 5.14083Z" fill="#CFCEC3"/>
<path d="M38.8547 24.6747C38.8276 24.6621 38.7903 24.6164 38.7904 24.5708C38.7935 23.2917 38.8005 22.0126 38.8261 20.7086C38.8508 22.0029 38.8563 23.3223 38.8547 24.6747Z" fill="#CFCEC3"/>
<path d="M12.9438 8.04486C12.5201 8.27112 12.0665 8.49539 11.5853 8.72317C11.9063 8.44903 12.255 8.17138 12.6295 7.88812C12.7416 7.93596 12.8277 7.98941 12.9438 8.04486Z" fill="#CFCEC3"/>
<path d="M17.6685 6.00629C17.4293 6.09721 17.1601 6.20115 16.8834 6.27815C16.503 6.38401 16.117 6.46948 15.7017 6.55873C16.3251 6.37163 16.9801 6.18946 17.6685 6.00629Z" fill="#CFCEC3"/>
<path d="M15.6415 6.54858C15.2003 6.73429 14.7281 6.91958 14.2252 7.09926C14.6665 6.91182 15.1385 6.72999 15.6415 6.54858Z" fill="#CFCEC3"/>
<path d="M38.696 26.0707C38.7189 25.6957 38.7505 25.29 38.8096 24.875C38.793 25.2572 38.7489 25.6486 38.696 26.0707Z" fill="#CFCEC3"/>
<path d="M13.9479 7.18404C13.8873 7.23605 13.8005 7.28918 13.6856 7.33967C13.7457 7.2864 13.8337 7.23578 13.9479 7.18404Z" fill="#CFCEC3"/>
<path d="M13.6356 7.33528C13.5757 7.38821 13.4896 7.44269 13.3754 7.49467C13.4346 7.44039 13.522 7.38862 13.6356 7.33528Z" fill="#CFCEC3"/>
<path d="M13.0836 7.63437C13.0257 7.68953 12.9418 7.74644 12.8308 7.80239C12.8883 7.74632 12.973 7.69121 13.0836 7.63437Z" fill="#CFCEC3"/>
<path d="M14.1719 7.09118C14.1403 7.12296 14.083 7.15578 13.9981 7.187C14.0291 7.15434 14.0876 7.12329 14.1719 7.09118Z" fill="#CFCEC3"/>
<path d="M13.3288 7.49063C13.3157 7.51657 13.2791 7.54422 13.2177 7.57137C13.2304 7.54469 13.2678 7.51852 13.3288 7.49063Z" fill="#CFCEC3"/>
<path d="M12.7856 7.80023C12.7733 7.82618 12.7378 7.85462 12.6779 7.88372C12.6898 7.85716 12.726 7.82994 12.7856 7.80023Z" fill="#CFCEC3"/>
<path d="M13.176 7.57142C13.1807 7.58974 13.1645 7.61165 13.1272 7.63605C13.1224 7.61737 13.1387 7.59619 13.176 7.57142Z" fill="#CFCEC3"/>
<path d="M13.1175 7.97168C13.1023 7.99851 13.0611 8.02302 12.9954 8.04826C13.011 8.02245 13.0512 7.99591 13.1175 7.97168Z" fill="#CFCEC3"/>
<path d="M36.7797 27.2321C36.786 27.257 36.7923 27.2818 36.7625 27.3384C36.6902 27.6236 36.6539 27.877 36.6176 28.1303C36.6176 28.1303 36.618 28.1654 36.5887 28.1976C36.5289 28.4403 36.4984 28.6509 36.4679 28.8614C36.1626 29.7937 35.8589 30.7265 35.5501 31.6575C35.5059 31.7907 35.4368 31.9157 35.3746 32.075C35.2975 32.1825 35.225 32.2594 35.1382 32.3545C34.3418 32.7643 33.5908 33.2476 32.7704 33.5266C31.4844 33.9638 30.1514 34.263 28.7847 34.6003C28.495 34.5401 28.2494 34.5272 28.0274 34.448C27.9282 34.4127 27.8766 34.2442 27.8034 34.1362C27.9255 34.1221 28.052 34.1234 28.1689 34.0906C28.4116 34.0226 28.7076 33.9996 28.8762 33.8439C29.1761 33.5667 29.3832 33.1919 29.6565 32.882C29.8892 32.618 30.1224 32.3085 30.4246 32.1636C30.7662 31.9999 30.8753 31.837 30.7693 31.5281C30.3401 31.4232 29.8636 31.5792 29.5948 31.1478C29.9382 31.092 30.2464 31.0375 30.5734 30.9649C30.7431 30.918 30.9041 30.9136 31.0433 30.8562C31.8393 30.5273 32.4109 29.9495 32.8537 29.2019C33.0574 29.0597 33.2375 28.9234 33.0491 28.6469C33.0463 28.6136 33.0508 28.6003 33.083 28.5813C33.1384 28.4931 33.166 28.4105 33.1918 28.3086C33.1929 28.2637 33.1954 28.2381 33.2063 28.1932C33.2369 28.1566 33.2587 28.1392 33.3045 28.1319C33.5328 28.2284 33.5569 28.1193 33.5823 27.9457C33.605 27.7909 33.685 27.6411 33.7576 27.4982C33.8079 27.3991 33.9326 27.3218 33.9468 27.2235C33.9816 26.9841 34.1122 26.9557 34.3188 26.9536C34.7447 26.9493 34.8735 26.7901 34.9165 26.3719C34.9346 26.1956 35.0004 25.9948 35.1126 25.8632C35.4311 25.4893 35.7835 25.1443 36.1264 24.7917C36.1565 24.7607 36.2456 24.7335 36.2554 24.7458C36.297 24.7979 36.3266 24.8633 36.3464 24.9282C36.3862 25.059 36.4169 25.1926 36.4576 25.349C36.9006 25.1568 36.7374 24.8999 36.6071 24.6264C36.7373 24.5974 36.8307 24.5765 36.9241 24.5919C36.9236 24.9913 36.923 25.3546 36.8963 25.7155C36.7754 25.6715 36.6806 25.6298 36.5858 25.5882C36.5473 25.6329 36.5088 25.6777 36.4704 25.7224C36.5958 25.7986 36.7213 25.8749 36.8466 25.9842C36.8203 26.3569 36.7942 26.6966 36.7554 27.0433C36.7378 27.0585 36.7269 27.0713 36.7292 27.0744C36.7401 27.089 36.7545 27.1011 36.7706 27.1436C36.7756 27.1928 36.7777 27.2125 36.7797 27.2321Z" fill="#3B392C"/>
<path d="M12.6493 32.2392C11.7012 31.3486 11.1069 30.2268 10.5834 29.0611C10.4414 28.7448 10.3306 28.4145 10.2195 28.0412C10.1965 27.7398 10.1594 27.4879 10.1189 27.213C10.2498 27.2534 10.3485 27.2838 10.5593 27.3487C10.428 27.1043 10.347 26.9534 10.246 26.7654C10.5076 26.7091 10.7406 26.6591 10.9968 26.6041C11.0507 26.3212 11.2812 26.1835 11.4754 25.9879C11.7373 25.7242 12.0857 25.5034 12.2662 25.1746C12.3833 24.9611 12.4848 24.7994 12.7267 24.7951C12.9881 24.7905 13.0522 24.6586 13.0486 24.4265C13.0402 23.8856 13.0374 23.3442 13.0529 22.8035C13.0562 22.6888 13.1471 22.5765 13.1988 22.4993C13.2006 23.4683 13.1973 24.401 13.2062 25.3336C13.2074 25.4601 13.2698 25.586 13.3204 25.7131C13.337 25.714 13.3582 25.7396 13.3673 25.7685C13.4053 25.82 13.4339 25.8623 13.463 25.8626C14.0367 25.8687 14.6105 25.8746 15.1841 25.8659C15.2485 25.865 15.3115 25.7762 15.3758 25.7241C15.3764 25.72 15.3843 25.7223 15.4131 25.7113C15.47 25.5701 15.5216 25.4401 15.5224 25.3098C15.5297 24.1282 15.528 22.9465 15.5574 21.7705C15.6723 21.9573 15.7588 22.1384 15.8472 22.3232C16.0131 22.0481 16.1444 21.8421 16.2632 21.6292C16.3376 21.496 16.4366 21.3563 16.4498 21.2126C16.5177 20.477 16.5579 19.7389 16.6195 19.0026C16.6249 18.938 16.715 18.8804 16.7673 18.8557C16.7707 21.2497 16.7725 23.6075 16.7719 25.997C16.7722 26.0801 16.785 26.1332 16.7763 26.1825C16.5568 27.4312 15.4819 28.554 14.2294 28.832C13.9253 28.8995 13.614 28.9345 13.2773 28.9999C13.2315 29.5964 13.2143 30.1775 13.1681 30.7649C12.9415 31.1925 12.9851 31.2706 13.5662 31.5367C13.4137 32.3 13.3123 32.3536 12.746 31.9136C12.7099 32.0349 12.6796 32.1371 12.6493 32.2392Z" fill="#3B392C"/>
<path d="M25.3647 35.0819C23.6331 35.1359 21.9016 35.1899 20.1258 35.209C19.3918 35.0715 18.7046 34.9392 18.0112 34.8797C17.6973 34.8528 17.6873 34.6182 17.5941 34.4512C17.5549 34.3811 17.661 34.2101 17.7302 34.104C17.8335 33.9459 18.0768 33.7911 18.0612 33.6584C17.9892 33.0492 18.8038 33.0445 18.8009 32.508C18.8008 32.4951 18.8682 32.4704 18.9041 32.4706C19.1901 32.4726 19.2301 32.276 19.3549 32.062C19.5435 31.739 19.8984 31.5131 20.1847 31.2439C20.3694 31.7908 20.5484 31.9426 20.8937 31.8227C21.2973 31.6826 21.1919 31.391 21.0532 31.104C21.3271 31.0873 21.5685 31.0727 21.8409 31.062C22.0789 31.0637 22.2858 31.0613 22.5243 31.0554C22.5901 30.8762 22.6556 30.6999 22.6525 30.5248C22.6437 30.0106 22.6076 29.4968 22.5632 28.9571C22.3499 28.9176 22.1556 28.9038 21.9665 28.8631C22.4526 28.549 22.9335 28.2619 23.4131 27.9756C23.4041 28.0741 23.3691 28.2 23.3862 28.3184C23.446 28.7312 23.5125 29.1438 23.6024 29.5508C23.6252 29.6541 23.744 29.7362 23.8201 29.8642C23.8218 30.0636 23.8085 30.2284 23.8259 30.3899C23.85 30.6133 23.8973 30.8343 23.9468 31.0518C23.9589 31.0473 23.9777 31.065 23.9988 31.0892C24.316 31.1255 24.6122 31.1376 24.9135 31.1771C24.9438 31.2321 24.9665 31.2807 24.9944 31.2839C25.2571 31.3139 25.3833 31.4491 25.3747 31.7202C25.366 31.9955 25.3116 32.2125 24.9978 32.309C24.8933 32.3411 24.8006 32.5076 24.7617 32.6312C24.7211 32.7605 24.7844 32.9228 24.7426 33.0513C24.6938 33.2014 24.6112 33.3987 24.4885 33.4541C24.258 33.5581 24.2254 33.3173 24.1328 33.1664C24.0681 33.061 23.9207 32.9625 23.802 32.9518C23.7405 32.9463 23.6138 33.1318 23.5986 33.2423C23.5479 33.6098 23.5551 33.9858 23.4954 34.3512C23.4741 34.4816 23.3253 34.5913 23.2347 34.7104C23.1299 34.6253 23.0296 34.5338 22.9192 34.4568C22.8096 34.3803 22.6874 34.2636 22.5753 34.2686C22.4961 34.2722 22.3964 34.439 22.3561 34.5511C22.2877 34.7409 22.2591 34.9451 22.2067 35.1739C22.2847 35.1739 22.3984 35.1796 22.5113 35.173C23.3389 35.1239 24.1662 35.069 24.9941 35.0253C25.1163 35.0188 25.2411 35.0618 25.3647 35.0819Z" fill="#3B392C"/>
<path d="M21.8099 31.058C21.5685 31.0727 21.3271 31.0873 21.0532 31.104C21.1919 31.391 21.2973 31.6826 20.8937 31.8227C20.5484 31.9426 20.3694 31.7908 20.1847 31.2439C19.8984 31.5131 19.5435 31.739 19.3549 32.062C19.2301 32.276 19.1901 32.4726 18.9041 32.4706C18.8682 32.4704 18.8008 32.4951 18.8009 32.508C18.8038 33.0445 17.9892 33.0492 18.0612 33.6584C18.0768 33.7911 17.8335 33.9459 17.7302 34.104C17.661 34.2101 17.5549 34.3811 17.5941 34.4512C17.6873 34.6182 17.6973 34.8528 18.0112 34.8797C18.7046 34.9392 19.3918 35.0715 20.0901 35.2013C17.8422 35.075 15.6801 34.6162 13.7938 33.2714C13.6272 33.1526 13.4724 33.0171 13.2864 32.8525C13.2441 32.7946 13.2228 32.7811 13.1967 32.775C13.1714 32.7714 13.1509 32.7596 13.1209 32.7036C13.0847 32.6522 13.0629 32.6367 13.041 32.6212C13.041 32.6212 13.0458 32.6188 13.0368 32.6029C13.0062 32.5727 12.9845 32.5586 12.9628 32.5444C12.9628 32.5444 12.9681 32.5414 12.9591 32.5256C12.9286 32.4955 12.907 32.4812 12.8854 32.467C12.8854 32.467 12.8905 32.4637 12.8816 32.4479C12.851 32.418 12.8295 32.4037 12.8079 32.3895C12.8079 32.3895 12.8131 32.3862 12.8041 32.3704C12.7735 32.3405 12.752 32.3263 12.7305 32.3122C12.7305 32.3122 12.7355 32.3085 12.7265 32.2928C12.6961 32.2629 12.6747 32.2487 12.6533 32.2344L12.6508 32.2384C12.6796 32.1371 12.7099 32.0349 12.746 31.9136C13.3123 32.3536 13.4137 32.3 13.5662 31.5367C12.9851 31.2706 12.9415 31.1925 13.1693 30.7946C13.2359 30.8986 13.2721 30.9791 13.3329 31.0712C13.4386 31.0706 13.5237 31.0361 13.6003 31.0495C14.4476 31.1982 15.1819 30.79 15.8776 30.4582C16.4977 30.1625 16.9887 29.5948 17.5338 29.1437C17.6675 29.033 17.79 28.9089 17.9135 28.7948C18.3013 29.1469 18.6537 29.4859 19.0263 29.8008C19.6018 30.2873 20.1998 30.7315 20.9863 30.8331C21.2659 30.8692 21.5356 30.9808 21.8099 31.058Z" fill="#3B392C"/>
<path d="M13.1976 22.4631C13.1471 22.5765 13.0562 22.6888 13.0529 22.8035C13.0374 23.3442 13.0402 23.8856 13.0486 24.4265C13.0522 24.6586 12.9881 24.7905 12.7267 24.7951C12.4848 24.7994 12.3833 24.9611 12.2662 25.1746C12.0857 25.5034 11.7373 25.7242 11.4754 25.9879C11.2812 26.1835 11.0507 26.3212 10.9968 26.6041C10.7406 26.6591 10.5076 26.7091 10.246 26.7654C10.347 26.9534 10.428 27.1043 10.5593 27.3487C10.3485 27.2838 10.2498 27.2534 10.1189 27.213C10.1594 27.4879 10.1965 27.7398 10.2159 28.0135C9.85477 26.619 9.51082 25.203 9.1687 23.7865C9.14171 23.6748 9.1274 23.5599 9.12807 23.3913C9.12414 22.8284 9.09934 22.3207 9.07325 21.7867C9.33907 21.9851 9.48347 21.8902 9.65735 21.6161C9.83468 21.3365 10.1261 21.1277 10.3746 20.8953C10.6975 20.5935 11.0419 20.3134 11.3504 19.9979C11.7772 19.5614 12.1743 19.0959 12.5938 18.652C12.8394 18.3921 13.0212 18.1334 12.9779 17.7372C12.9347 17.3416 12.9482 16.9361 12.979 16.5383C12.9905 16.3894 13.1208 16.2497 13.1983 16.1421C13.1989 18.2732 13.1983 20.3682 13.1976 22.4631Z" fill="#3B392C"/>
<path d="M13.197 16.1058C13.1208 16.2497 12.9905 16.3894 12.979 16.5383C12.9482 16.9361 12.9347 17.3416 12.9779 17.7372C13.0212 18.1334 12.8394 18.3921 12.5938 18.652C12.1743 19.0959 11.7772 19.5614 11.3504 19.9979C11.0419 20.3134 10.6975 20.5935 10.3746 20.8953C10.1261 21.1277 9.83468 21.3365 9.65735 21.6161C9.48347 21.8902 9.33907 21.9851 9.07325 21.7867C9.09934 22.3207 9.12414 22.8284 9.13051 23.3599C8.95254 21.7286 8.79299 20.0734 8.63835 18.3823C8.67387 18.0692 8.70449 17.7918 8.73809 17.4875C9.01517 17.6031 9.0071 17.3981 9.11225 17.2064C9.27488 16.9099 9.39061 16.5558 9.75041 16.3764C9.93142 16.2861 10.0486 16.0679 10.1946 15.9075C10.1732 15.8843 10.1519 15.861 10.1305 15.8378C10.1784 15.8244 10.2257 15.8037 10.2745 15.7988C10.9393 15.7312 11.1059 15.6105 11.2519 14.972C11.3174 14.6855 11.4291 14.5224 11.7322 14.4717C12.2145 14.3911 12.4247 14.0585 12.5404 13.6004C12.5814 13.4385 12.8226 13.2213 12.9733 13.2207C13.147 13.2199 13.432 13.3394 13.3521 13.7163C13.3176 13.8271 13.2914 13.883 13.2449 13.9633C13.2154 14.6938 13.2062 15.3998 13.197 16.1058Z" fill="#3B392C"/>
<path d="M25.3979 35.0862C25.2411 35.0618 25.1163 35.0188 24.9941 35.0253C24.1662 35.069 23.3389 35.1239 22.5113 35.173C22.3984 35.1796 22.2847 35.1739 22.2067 35.1739C22.2591 34.9451 22.2877 34.7409 22.3561 34.5511C22.3964 34.439 22.4961 34.2722 22.5753 34.2686C22.6874 34.2636 22.8096 34.3803 22.9192 34.4568C23.0296 34.5338 23.1299 34.6253 23.2347 34.7104C23.3253 34.5913 23.4741 34.4816 23.4954 34.3512C23.5551 33.9858 23.5479 33.6098 23.5986 33.2423C23.6138 33.1318 23.7405 32.9463 23.802 32.9518C23.9207 32.9625 24.0681 33.061 24.1328 33.1664C24.2254 33.3173 24.258 33.5581 24.4885 33.4541C24.6112 33.3987 24.6938 33.2014 24.7426 33.0513C24.7844 32.9228 24.7211 32.7605 24.7617 32.6312C24.8006 32.5076 24.8933 32.3411 24.9978 32.309C25.3116 32.2125 25.366 31.9955 25.3747 31.7202C25.3833 31.4491 25.2571 31.3139 24.9944 31.2839C24.9665 31.2807 24.9438 31.2321 24.9498 31.1759C25.9646 31.1479 26.9483 31.1486 27.9391 31.1796C28.3661 31.2249 28.7859 31.2408 29.2059 31.2503C29.2192 31.2506 29.2341 31.1844 29.2794 31.1479C29.3936 31.1475 29.4766 31.1483 29.5597 31.149C29.8636 31.5792 30.3401 31.4232 30.7693 31.5281C30.8753 31.837 30.7662 31.9999 30.4246 32.1636C30.1224 32.3085 29.8892 32.618 29.6565 32.882C29.3832 33.1919 29.1761 33.5667 28.8762 33.8439C28.7076 33.9996 28.4116 34.0226 28.1689 34.0906C28.052 34.1234 27.9255 34.1221 27.8034 34.1362C27.8766 34.2442 27.9282 34.4127 28.0274 34.448C28.2494 34.5272 28.495 34.5401 28.7537 34.5992C27.6614 34.7757 26.5463 34.9331 25.3979 35.0862Z" fill="#3B392C"/>
<path d="M36.9223 25.7179C36.923 25.3546 36.9236 24.9913 36.9242 24.5579C36.9756 24.0811 37.0711 23.6743 37.0699 23.2678C37.066 21.9925 37.0293 20.7171 36.9945 19.4421C36.9904 19.2902 36.9195 19.1402 36.8599 18.9154C36.4676 19.4191 36.1368 19.8509 35.7961 20.2748C35.7357 20.35 35.6315 20.3884 35.5531 20.4509C35.1401 20.7803 34.676 21.0675 34.539 21.6635C34.1409 21.6479 33.9506 21.877 33.9479 22.3288C33.7035 22.2926 33.4932 22.2615 33.2818 22.1939C33.2808 21.4379 33.2808 20.7183 33.2808 19.9986C33.2085 20.1264 33.2085 20.2534 33.2085 20.3805C33.2089 22.689 33.21 24.9975 33.2081 27.3061C33.208 27.4455 33.1843 27.5849 33.1609 27.6902C33.148 25.2939 33.1465 22.9317 33.1425 20.5694C33.1421 20.3249 33.1269 20.0804 33.0995 19.8101C32.9534 19.7728 32.8263 19.7517 32.6992 19.7512C31.6526 19.7472 30.6061 19.747 29.5531 19.7168C29.3535 19.5544 29.1684 19.4962 28.984 19.7461C28.8444 19.7465 28.737 19.7457 28.6294 19.7146C28.6504 19.5997 28.6452 19.4907 28.6971 19.4344C28.9761 19.132 29.285 18.8563 29.5537 18.5454C29.8834 18.1639 30.3884 17.9223 30.5091 17.3677C30.5181 17.3263 30.5994 17.2824 30.6535 17.2718C30.9929 17.2056 31.0986 16.9879 31.1234 16.6637C31.1321 16.5489 31.289 16.4401 31.3889 16.3392C31.4952 16.2317 31.7087 16.1372 31.7093 16.0361C31.711 15.7527 31.8763 15.7077 32.0814 15.6391C32.3324 15.5553 32.5716 15.4364 32.8443 15.3318C32.9566 15.3043 33.0404 15.2778 33.123 15.2515C33.123 15.2515 33.1204 15.2495 33.1402 15.2392C33.1771 15.2052 33.1943 15.1814 33.2346 15.1379C33.2663 14.8015 33.2751 14.4847 33.3107 14.163C33.4554 14.0162 33.548 13.8021 33.6971 13.7501C33.9133 13.6747 34.0472 13.5906 34.118 13.3685C34.1481 13.2738 34.2735 13.2117 34.3486 13.1284C34.4621 13.0026 34.5693 12.8711 34.6796 12.7424C34.7431 12.6683 34.8053 12.534 34.8721 12.5314C35.2413 12.5173 35.3622 12.226 35.5337 11.987C36.1435 13.0652 36.4553 14.2457 36.6865 15.4472C36.9545 16.8396 37.1039 18.2452 37.0891 19.6679C37.0709 21.4178 37.1037 23.1685 37.0648 24.9177C37.048 25.6729 36.9068 26.4253 36.8009 27.2056C36.7777 27.2125 36.7756 27.1928 36.771 27.1242C36.7683 27.0623 36.7682 27.0493 36.7681 27.0363C36.7942 26.6966 36.8203 26.3569 36.867 25.9682C36.8991 25.8521 36.9107 25.785 36.9223 25.7179Z" fill="#3B392C"/>
<path d="M13.1434 7.974C14.1666 7.72338 15.1801 7.41651 16.2158 7.23847C17.1862 7.07166 18.1801 7.04197 19.1635 6.94995C19.3031 6.93689 19.4416 6.91258 19.6273 6.91346C19.7127 6.94175 19.7514 6.95005 19.7738 6.98015C19.6381 7.01659 19.5191 7.03588 19.3993 7.04486C19.1793 7.06137 18.9588 7.0718 18.7149 7.08616C18.8911 7.56329 18.8545 7.607 18.451 7.74575C18.334 7.78599 18.2574 7.94639 18.1645 8.05369C17.9902 8.25518 17.8175 8.45812 17.6441 8.66043C17.5327 8.79044 17.3631 8.90529 17.3244 9.05419C17.2748 9.24474 17.2226 9.32684 17.0191 9.37395C16.868 9.40895 16.7369 9.56267 16.6153 9.6823C16.5372 9.75921 16.5067 9.88379 16.4302 9.9632C16.2427 10.1577 16.0405 10.338 15.845 10.5248C15.5634 10.7939 15.5789 11.0753 15.8562 11.1817C14.9413 11.425 14.2837 11.966 13.7714 12.6899C13.7352 12.429 13.5932 12.4684 13.4746 12.5632C13.3687 12.6477 13.2959 12.7736 13.2084 12.8812C13.343 12.9297 13.4776 12.9782 13.6064 13.0545C13.5221 13.2976 13.4436 13.5129 13.3628 13.6948C13.432 13.3394 13.147 13.2199 12.9733 13.2207C12.8226 13.2213 12.5814 13.4385 12.5404 13.6004C12.4247 14.0585 12.2145 14.3911 11.7322 14.4717C11.4291 14.5224 11.3174 14.6855 11.2519 14.972C11.1059 15.6105 10.9393 15.7312 10.2745 15.7988C10.2257 15.8037 10.1784 15.8244 10.1305 15.8378C10.1519 15.861 10.1732 15.8843 10.1946 15.9075C10.0486 16.0679 9.93142 16.2861 9.75041 16.3764C9.39061 16.5558 9.27488 16.9099 9.11225 17.2064C9.0071 17.3981 9.01517 17.6031 8.73809 17.4875C8.70449 17.7918 8.67387 18.0692 8.64326 18.3465C8.56419 16.1641 8.60985 13.9896 9.40425 11.9188C9.67777 11.2058 10.1077 10.5529 10.4982 9.83451C10.6731 9.59929 10.816 9.40206 10.9589 9.20483C11.1444 9.055 11.3299 8.90517 11.5642 8.7375C12.0665 8.49539 12.5201 8.27112 12.9736 8.04685C12.9736 8.04685 12.9687 8.04324 12.9944 8.04539C13.0611 8.02303 13.1023 7.99851 13.1434 7.974Z" fill="#3B392C"/>
<path d="M28.6395 7.41764C29.0289 7.49418 29.4183 7.57073 29.8178 7.67502C29.5377 7.67642 29.2637 7.66509 29.0877 7.98027C29.0531 8.04224 28.862 7.99915 28.766 8.04881C28.633 8.1176 28.4385 8.21332 28.4185 8.32422C28.3765 8.55729 28.2169 8.5744 28.0764 8.68888C27.7516 8.95344 27.439 9.26018 27.1778 9.58977C27.0743 9.72035 27.068 9.87386 26.8471 9.92276C26.7231 9.95021 26.6135 10.1426 26.5443 10.2837C26.4939 10.3866 26.5203 10.5271 26.5129 10.6428C26.2712 10.7061 25.9603 10.6101 25.996 11.0139C25.9991 11.0506 26.0005 11.0652 25.9999 11.0746C25.9979 11.0694 26.0089 11.0671 25.984 11.0838C25.9437 11.2183 25.9282 11.3362 25.8826 11.461C25.7983 11.7189 25.7441 11.9699 25.6898 12.221C25.6522 12.2203 25.6146 12.2197 25.5769 12.2191C25.5459 12.0237 25.5149 11.8283 25.4874 11.6547C24.9701 11.8337 24.7402 12.1974 24.6927 12.685C24.674 12.877 24.7066 13.0773 24.6657 13.2628C24.6379 13.3887 24.5445 13.5526 24.4397 13.5925C24.354 13.6251 24.1643 13.5313 24.0966 13.4382C23.8156 13.0522 23.7813 13.0604 23.5328 13.4735C23.4485 13.6136 23.2485 13.7125 23.0816 13.7585C23.0264 13.7738 22.9115 13.5621 22.8194 13.4582C22.773 13.4058 22.7165 13.3623 22.663 13.2887C22.6626 13.2277 22.6637 13.1929 22.6946 13.1511C22.8423 12.8303 22.9392 12.518 22.6631 12.1938C22.6609 11.889 22.6749 11.6192 22.652 11.3525C22.6436 11.2552 22.5475 11.1654 22.4968 11.0706C22.5022 11.0689 22.5044 11.0801 22.4845 11.0534C21.5478 11.0121 20.631 10.9976 19.7175 10.9545C19.8985 10.5006 20.318 10.662 20.6064 10.6288C20.9579 10.5882 20.9762 10.4119 21.0888 10.1692C21.1743 9.98496 21.455 9.89149 21.6478 9.7562C21.6544 9.75158 21.6459 9.72922 21.6515 9.71891C21.8643 9.32356 22.3375 9.1641 22.5327 8.75042C22.5411 8.73276 22.6206 8.75673 22.6419 8.7358C22.7302 8.64931 22.8464 8.56512 22.8812 8.45713C22.9228 8.32841 22.897 8.17596 22.8908 8.0342C22.8789 7.76145 22.9738 7.61896 23.2726 7.56438C23.5757 7.50903 23.7849 7.29222 23.8514 6.95736C23.9385 6.95729 23.9966 6.95748 24.0553 6.98844C24.0805 7.11852 24.0865 7.22828 24.1347 7.31438C24.1894 7.41198 24.2684 7.52631 24.363 7.55989C24.4207 7.58038 24.5248 7.45749 24.6129 7.40764C24.7836 7.3111 25.0064 7.10285 25.1211 7.15024C25.4388 7.28155 25.7033 7.08581 25.9925 7.10864C26.1992 7.12496 26.4087 7.10656 26.617 7.10366C26.6514 7.10579 26.6859 7.10792 26.765 7.13745C27.1606 7.19789 27.5116 7.23095 27.8625 7.264C27.8625 7.264 27.8973 7.26389 27.9193 7.29476C28.1471 7.56006 28.3927 7.49363 28.6395 7.41764Z" fill="#3B392C"/>
<path d="M33.2115 15.1576C33.1943 15.1814 33.1771 15.2052 33.15 15.2042C33.1345 14.5055 33.129 13.8315 33.1013 13.1342C32.9385 13.101 32.7979 13.0829 32.6573 13.0826C31.275 13.08 29.8927 13.0772 28.5105 13.0831C28.2831 13.0841 28.1193 13.0572 28.203 12.7724C28.4815 12.7954 28.6529 12.7227 28.8214 12.5055C29.0474 12.2142 29.0913 11.6658 29.6366 11.827C29.7161 11.6025 29.7354 11.3156 29.8491 11.2714C30.1564 11.152 30.2218 10.8691 30.407 10.6744C30.8326 10.2271 31.3222 9.841 31.7818 9.42567C31.9643 9.26081 32.1292 9.07612 32.3165 8.91733C32.387 8.85757 32.4979 8.84558 32.5905 8.81181C32.5905 8.81181 32.5848 8.81567 32.5929 8.83145C32.6237 8.86135 32.6463 8.87547 32.6689 8.88959C32.6689 8.88959 32.6623 8.89015 32.6746 8.9091C32.7323 8.94086 32.7777 8.95367 32.8231 8.96649C32.8231 8.96649 32.8156 8.96681 32.8202 8.99311C32.9023 9.0531 32.9797 9.08678 33.0572 9.12047C33.0572 9.12047 33.0523 9.12497 33.0623 9.14287C33.1007 9.17303 33.129 9.1853 33.1573 9.19757C34.2133 9.87837 34.945 10.8387 35.5259 11.9614C35.3622 12.226 35.2413 12.5173 34.8721 12.5314C34.8053 12.534 34.7431 12.6683 34.6796 12.7424C34.5693 12.8711 34.4621 13.0026 34.3486 13.1284C34.2735 13.2117 34.1481 13.2738 34.118 13.3685C34.0472 13.5906 33.9133 13.6747 33.6971 13.7501C33.548 13.8021 33.4554 14.0162 33.3096 14.127C33.2816 13.813 33.2816 13.5298 33.2816 13.2466C33.2582 13.2469 33.2349 13.2471 33.2115 13.2474C33.2115 13.8841 33.2115 14.5209 33.2115 15.1576Z" fill="#3B392C"/>
<path d="M32.5754 8.78945C32.4979 8.84558 32.387 8.85757 32.3165 8.91733C32.1292 9.07612 31.9643 9.26081 31.7818 9.42567C31.3222 9.841 30.8326 10.2271 30.407 10.6744C30.2218 10.8691 30.1564 11.152 29.8491 11.2714C29.7354 11.3156 29.7161 11.6025 29.6366 11.827C29.0913 11.6658 29.0474 12.2142 28.8214 12.5055C28.6529 12.7227 28.4815 12.7954 28.2005 12.736C28.1659 12.3773 28.1768 12.0541 28.1608 11.7323C28.1498 11.5112 28.1014 11.292 28.053 11.0729C28.0363 11.074 28.0057 11.0603 27.983 11.0377C27.3049 11.0073 26.6496 10.9996 25.9942 10.9919C25.9603 10.6101 26.2712 10.7061 26.5129 10.6428C26.5203 10.5271 26.4939 10.3866 26.5443 10.2837C26.6135 10.1426 26.7231 9.95021 26.8471 9.92276C27.068 9.87386 27.0743 9.72035 27.1778 9.58977C27.439 9.26018 27.7516 8.95344 28.0764 8.68888C28.2169 8.5744 28.3765 8.55729 28.4185 8.32422C28.4385 8.21332 28.633 8.1176 28.766 8.04881C28.862 7.99915 29.0531 8.04224 29.0877 7.98027C29.2637 7.66509 29.5377 7.67642 29.847 7.68301C30.7642 8.03121 31.6622 8.39915 32.5754 8.78945Z" fill="#3B392C"/>
<path d="M15.9148 11.1476C15.9148 11.1476 15.9021 11.1664 15.8909 11.1648C15.5789 11.0753 15.5634 10.7939 15.845 10.5248C16.0405 10.338 16.2427 10.1577 16.4302 9.9632C16.5067 9.88379 16.5372 9.75921 16.6153 9.6823C16.7369 9.56267 16.868 9.40895 17.0191 9.37395C17.2226 9.32684 17.2748 9.24474 17.3244 9.05419C17.3631 8.90529 17.5327 8.79044 17.6441 8.66043C17.8175 8.45812 17.9902 8.25518 18.1645 8.05369C18.2574 7.94639 18.334 7.78599 18.451 7.74575C18.8545 7.607 18.8911 7.56329 18.7149 7.08616C18.9588 7.0718 19.1793 7.06137 19.3993 7.04486C19.5191 7.03588 19.6381 7.01659 19.7738 6.98015C20.5674 6.95811 21.3447 6.95787 22.1652 6.98849C22.6028 7.06824 22.9965 7.12683 23.3924 7.15578C23.4528 7.1602 23.5233 7.02758 23.5892 6.95834C23.6475 6.95786 23.7058 6.95737 23.7932 6.95726C23.7849 7.29222 23.5757 7.50903 23.2726 7.56438C22.9738 7.61896 22.8789 7.76145 22.8908 8.0342C22.897 8.17596 22.9228 8.32841 22.8812 8.45713C22.8464 8.56512 22.7302 8.64931 22.6419 8.7358C22.6206 8.75673 22.5411 8.73276 22.5327 8.75042C22.3375 9.1641 21.8643 9.32356 21.6515 9.71891C21.6459 9.72922 21.6544 9.75158 21.6478 9.7562C21.455 9.89149 21.1743 9.98496 21.0888 10.1692C20.9762 10.4119 20.9579 10.5882 20.6064 10.6288C20.318 10.662 19.8985 10.5006 19.6811 10.9562C18.4766 10.9871 17.3118 10.9878 16.1193 10.9887C16.0326 11.0419 15.9737 11.0948 15.9148 11.1476Z" fill="#3B392C"/>
<path d="M33.2829 22.2303C33.4932 22.2615 33.7035 22.2926 33.9479 22.3288C33.9506 21.877 34.1409 21.6479 34.539 21.6635C34.676 21.0675 35.1401 20.7803 35.5531 20.4509C35.6315 20.3884 35.7357 20.35 35.7961 20.2748C36.1368 19.8509 36.4676 19.4191 36.8599 18.9154C36.9195 19.1402 36.9904 19.2902 36.9945 19.4421C37.0293 20.7171 37.066 21.9925 37.0699 23.2678C37.0711 23.6743 36.9756 24.0811 36.9242 24.5217C36.8307 24.5765 36.7373 24.5974 36.6071 24.6264C36.7374 24.8999 36.9006 25.1568 36.4576 25.349C36.4169 25.1926 36.3862 25.059 36.3464 24.9282C36.3266 24.8633 36.297 24.7979 36.2554 24.7458C36.2456 24.7335 36.1565 24.7607 36.1264 24.7917C35.7835 25.1443 35.4311 25.4893 35.1126 25.8632C35.0004 25.9948 34.9346 26.1956 34.9165 26.3719C34.8735 26.7901 34.7447 26.9493 34.3188 26.9536C34.1122 26.9557 33.9816 26.9841 33.9468 27.2235C33.9326 27.3218 33.8079 27.3991 33.7576 27.4982C33.685 27.6411 33.605 27.7909 33.5823 27.9457C33.5569 28.1193 33.5328 28.2284 33.3046 28.1025C33.28 28.0043 33.2795 27.9455 33.2789 27.8507C33.2802 25.9532 33.2816 24.0917 33.2829 22.2303Z" fill="#3B392C"/>
<path d="M15.5444 13.8602C15.7549 13.6597 15.9654 13.4592 16.2268 13.2762C17.2959 13.3005 18.3141 13.31 19.3323 13.3134C20.341 13.3169 20.341 13.3142 20.3018 14.3282C20.2026 14.8514 19.7942 15.1579 19.5373 15.5384C19.3887 15.3109 19.243 15.088 19.096 14.8375C19.0419 14.7495 18.9893 14.689 18.9142 14.6055C18.2443 14.593 17.5969 14.6036 16.9174 14.6239C16.8471 14.7711 16.7765 14.9085 16.7754 15.0464C16.7653 16.304 16.7673 17.5618 16.7657 18.8195C16.715 18.8804 16.6249 18.938 16.6195 19.0026C16.5579 19.7389 16.5177 20.477 16.4498 21.2126C16.4366 21.3563 16.3376 21.496 16.2632 21.6292C16.1444 21.8421 16.0131 22.0481 15.8472 22.3232C15.7588 22.1384 15.6723 21.9573 15.5564 21.7342C15.5231 19.1282 15.519 16.5642 15.5149 14.0002C15.5149 14.0002 15.5035 14.0071 15.5222 14.0003C15.5421 13.9491 15.5432 13.9046 15.5444 13.8602Z" fill="#3B392C"/>
<path d="M19.2448 26.6493C19.2448 26.6493 19.2317 26.6255 19.2376 26.5809C19.2523 26.3938 19.2265 26.2591 19.4741 26.3107C19.6036 26.3377 19.8693 26.237 19.8945 26.145C19.988 25.8034 20.2312 25.8064 20.5119 25.8193C21.1475 25.8526 21.7608 25.8679 22.3739 25.8648C22.4403 25.8645 22.5061 25.7582 22.5722 25.701C22.5722 25.701 22.5793 25.7119 22.5998 25.6948C22.6329 25.5389 22.656 25.4002 22.6565 25.2613C22.6609 23.8376 22.6617 22.4139 22.6919 20.9956C22.7776 21.3308 22.8252 21.6625 22.8966 21.989C22.9258 22.1227 23.0114 22.3573 23.0632 22.3551C23.582 22.3329 23.5141 22.6826 23.5137 23.004C23.5134 23.2578 23.4728 23.5383 23.8193 23.662C23.8199 25.7416 23.8193 27.7848 23.8187 29.828C23.744 29.7362 23.6252 29.6541 23.6024 29.5508C23.5125 29.1438 23.446 28.7312 23.3862 28.3184C23.3691 28.2 23.4041 28.0741 23.4131 27.9756C22.9335 28.2619 22.4526 28.549 21.9665 28.8631C21.1566 28.7612 20.4643 28.4177 19.9162 27.8068C19.833 27.7141 19.7749 27.5988 19.718 27.4405C19.743 27.2315 19.8235 27.0184 19.752 26.9335C19.635 26.7948 19.419 26.7396 19.2448 26.6493Z" fill="#3B392C"/>
<path d="M32.8159 15.3327C32.5716 15.4364 32.3324 15.5553 32.0814 15.6391C31.8763 15.7077 31.711 15.7527 31.7093 16.0361C31.7087 16.1372 31.4952 16.2317 31.3889 16.3392C31.289 16.4401 31.1321 16.5489 31.1234 16.6637C31.0986 16.9879 30.9929 17.2056 30.6535 17.2718C30.5994 17.2824 30.5181 17.3263 30.5091 17.3677C30.3884 17.9223 29.8834 18.1639 29.5537 18.5454C29.285 18.8563 28.9761 19.132 28.6971 19.4344C28.6452 19.4907 28.6504 19.5997 28.597 19.7163C28.4565 19.7502 28.3484 19.7521 28.2174 19.7305C28.1861 18.2911 28.177 16.8754 28.1722 15.4596C28.1721 15.4159 28.2166 15.372 28.2768 15.3291C29.8141 15.3309 31.315 15.3318 32.8159 15.3327Z" fill="#3B392C"/>
<path d="M22.6645 13.3148C22.7165 13.3623 22.773 13.4058 22.8194 13.4582C22.9115 13.5621 23.0264 13.7738 23.0816 13.7585C23.2485 13.7125 23.4485 13.6136 23.5328 13.4735C23.7813 13.0604 23.8156 13.0522 24.0966 13.4382C24.1643 13.5313 24.354 13.6251 24.4397 13.5925C24.5445 13.5526 24.6379 13.3887 24.6657 13.2628C24.7066 13.0773 24.674 12.877 24.6927 12.685C24.7402 12.1974 24.9701 11.8337 25.4874 11.6547C25.5149 11.8283 25.5459 12.0237 25.5769 12.2191C25.6146 12.2197 25.6522 12.2203 25.6898 12.221C25.7441 11.9699 25.7983 11.7189 25.8835 11.4972C25.9139 12.9496 25.9132 14.3726 25.8854 15.7985C25.6526 15.904 25.4069 15.966 25.2515 16.1194C25.0479 16.3205 24.8413 16.5747 24.7726 16.8413C24.6977 17.132 24.5952 17.2915 24.3254 17.4403C23.9767 17.6327 23.5949 17.8762 23.3952 18.2009C23.0997 18.6813 23.1625 18.72 22.6611 18.5516C22.661 18.307 22.6622 18.0973 22.6899 17.8829C22.8631 17.7495 22.8742 17.6447 22.6621 17.5426C22.6618 16.1091 22.6632 14.712 22.6645 13.3148Z" fill="#3B392C"/>
<path d="M25.8854 15.7985C25.9138 16.9904 25.9071 18.1852 25.9219 19.3797C25.9254 19.6618 25.8511 19.7641 25.556 19.7559C25.0448 19.7418 24.5323 19.7711 23.9997 19.8072C23.9657 19.8519 23.9499 19.8694 23.9176 19.8954C23.8763 20.0387 23.8263 20.171 23.8255 20.3036C23.8188 21.3867 23.8214 22.4699 23.8197 23.5894C23.4728 23.5383 23.5134 23.2578 23.5137 23.004C23.5141 22.6826 23.582 22.3329 23.0632 22.3551C23.0114 22.3573 22.9258 22.1227 22.8966 21.989C22.8252 21.6625 22.7776 21.3308 22.6919 20.9956C22.6622 20.2131 22.6609 19.4361 22.661 18.6228C23.1625 18.72 23.0997 18.6813 23.3952 18.2009C23.5949 17.8762 23.9767 17.6327 24.3254 17.4403C24.5952 17.2915 24.6977 17.132 24.7726 16.8413C24.8413 16.5747 25.0479 16.3205 25.2515 16.1194C25.4069 15.966 25.6526 15.904 25.8854 15.7985Z" fill="#3B392C"/>
<path d="M20.4547 25.7124C20.4847 25.7217 20.4898 25.7587 20.4896 25.7773C20.2312 25.8064 19.988 25.8034 19.8945 26.145C19.8693 26.237 19.6036 26.3377 19.4741 26.3107C19.2265 26.2591 19.2523 26.3938 19.2407 26.5677C19.1653 26.4017 19.0928 26.2042 19.045 25.9528C19.0787 24.6762 19.0877 23.4535 19.1245 22.2357C19.3476 22.2625 19.5961 22.3708 19.7276 22.2896C20.0651 22.0812 20.2674 21.77 20.1887 21.3151C20.1351 21.0045 20.1664 20.6764 20.1856 20.3576C20.1917 20.2558 20.2807 20.1589 20.3319 20.0597C20.3327 21.8116 20.3316 23.5635 20.3382 25.3153C20.3387 25.4447 20.3946 25.5738 20.4547 25.7124Z" fill="#3B392C"/>
<path d="M19.1245 22.2357C19.0959 22.1226 19.0952 22.0143 19.123 21.8688C19.3277 21.5875 19.4658 21.3464 19.0971 21.1455C19.0963 19.0762 19.0955 17.0069 19.096 14.9014C19.243 15.088 19.3887 15.3109 19.5373 15.5384C19.7942 15.1579 20.2026 14.8514 20.3018 14.3282C20.3313 16.2105 20.3323 18.0987 20.3326 20.0233C20.2807 20.1589 20.1917 20.2558 20.1856 20.3576C20.1664 20.6764 20.1351 21.0045 20.1887 21.3151C20.2674 21.77 20.0651 22.0812 19.7276 22.2896C19.5961 22.3708 19.3476 22.2625 19.1245 22.2357Z" fill="#3B392C"/>
<path d="M30.9535 28.0842C30.9322 28.136 30.9117 28.1515 30.8835 28.1852C30.8511 28.2618 30.8264 28.3202 30.7975 28.4021C30.7195 28.4869 30.6458 28.5481 30.5674 28.6348C30.5211 28.6751 30.4794 28.6899 30.4245 28.723C30.3875 28.7496 30.3673 28.7632 30.3397 28.7968C29.0397 28.8145 27.7508 28.8136 26.462 28.8238C26.235 28.8256 26.1419 28.7621 26.1428 28.5187C26.1502 26.4692 26.1516 24.4197 26.142 22.3703C26.1407 22.0802 26.2904 22.0708 26.5059 22.0714C27.9625 22.0757 29.419 22.0734 30.911 22.0726C30.9491 24.0639 30.9517 26.0559 30.9535 28.0842Z" fill="#3B392C"/>
<path d="M12.814 32.4088C12.8295 32.4037 12.851 32.418 12.88 32.4506C12.865 32.4553 12.8425 32.4418 12.814 32.4088Z" fill="#3B392C"/>
<path d="M12.6592 32.2538C12.6747 32.2487 12.6961 32.2629 12.7248 32.2954C12.7098 32.3002 12.6875 32.2866 12.6592 32.2538Z" fill="#3B392C"/>
<path d="M12.7362 32.3316C12.752 32.3263 12.7735 32.3405 12.8024 32.373C12.7872 32.378 12.7646 32.3645 12.7362 32.3316Z" fill="#3B392C"/>
<path d="M12.8915 32.4863C12.907 32.4812 12.9286 32.4955 12.9576 32.5282C12.9426 32.5329 12.9201 32.5193 12.8915 32.4863Z" fill="#3B392C"/>
<path d="M12.9694 32.5635C12.9845 32.5586 13.0062 32.5727 13.0356 32.6052C13.0208 32.6098 12.9983 32.5962 12.9694 32.5635Z" fill="#3B392C"/>
<path d="M13.0485 32.6401C13.0629 32.6367 13.0847 32.6522 13.1136 32.687C13.099 32.6906 13.0775 32.6748 13.0485 32.6401Z" fill="#3B392C"/>
<path d="M13.2056 32.7922C13.2228 32.7811 13.2441 32.7946 13.2697 32.8327C13.2522 32.8444 13.2308 32.831 13.2056 32.7922Z" fill="#3B392C"/>
<path d="M26.5952 7.07985C26.4087 7.10656 26.1992 7.12496 25.9925 7.10864C25.7033 7.08581 25.4388 7.28155 25.1211 7.15024C25.0064 7.10285 24.7836 7.3111 24.6129 7.40764C24.5248 7.45749 24.4207 7.58038 24.363 7.55989C24.2684 7.52631 24.1894 7.41198 24.1347 7.31438C24.0865 7.22828 24.0805 7.11852 24.0895 6.98798C24.2831 6.95553 24.4431 6.95431 24.6031 6.95309C25.2599 6.98741 25.9167 7.02172 26.5952 7.07985Z" fill="#3B392C"/>
<path d="M24.5804 6.92936C24.4431 6.95431 24.2831 6.95553 24.0889 6.95722C23.9966 6.95748 23.9385 6.95729 23.8222 6.95699C23.7058 6.95737 23.6475 6.95786 23.553 6.95794C23.0761 6.9579 22.6354 6.95826 22.1584 6.95813C21.3447 6.95787 20.5674 6.95811 19.7901 6.95835C19.7514 6.95005 19.7127 6.94175 19.6598 6.91964C21.2829 6.90576 22.9203 6.9057 24.5804 6.92936Z" fill="#3B392C"/>
<path d="M27.8413 7.24045C27.5116 7.23095 27.1606 7.19789 26.7904 7.1429C27.1207 7.15294 27.4704 7.18492 27.8413 7.24045Z" fill="#3B392C"/>
<path d="M28.6207 7.39391C28.3927 7.49363 28.1471 7.56006 27.9364 7.2981C28.155 7.30377 28.3785 7.33698 28.6207 7.39391Z" fill="#3B392C"/>
<path d="M36.6406 28.1104C36.6539 27.877 36.6902 27.6236 36.7551 27.3567C36.7437 27.5923 36.7037 27.8413 36.6406 28.1104Z" fill="#3B392C"/>
<path d="M36.4899 28.8383C36.4984 28.6509 36.5289 28.4403 36.5858 28.2149C36.5787 28.4051 36.5453 28.6101 36.4899 28.8383Z" fill="#3B392C"/>
<path d="M33.046 9.09844C32.9797 9.08678 32.9023 9.0531 32.8233 8.99098C32.8927 9.00051 32.9637 9.03846 33.046 9.09844Z" fill="#3B392C"/>
<path d="M32.8112 8.94556C32.7777 8.95367 32.7323 8.94086 32.6761 8.90611C32.7099 8.89766 32.7546 8.91115 32.8112 8.94556Z" fill="#3B392C"/>
<path d="M32.6641 8.86878C32.6463 8.87547 32.6237 8.86135 32.5936 8.82809C32.6105 8.82196 32.6349 8.83497 32.6641 8.86878Z" fill="#3B392C"/>
<path d="M13.6111 13.0262C13.4776 12.9782 13.343 12.9297 13.2084 12.8812C13.2959 12.7736 13.3687 12.6477 13.4746 12.5632C13.5932 12.4684 13.7352 12.429 13.7714 12.6899C13.782 12.7177 13.7798 12.7157 13.7518 12.72C13.7105 12.7722 13.6972 12.82 13.6838 12.8678C13.6838 12.8678 13.68 12.8583 13.6601 12.868C13.63 12.9262 13.6198 12.9749 13.6097 13.0236L13.6111 13.0262Z" fill="#3B392C"/>
<path d="M33.1448 9.17807C33.129 9.1853 33.1007 9.17303 33.0618 9.1396C33.0782 9.13181 33.1052 9.14519 33.1448 9.17807Z" fill="#3B392C"/>
<path d="M23.9988 31.0892C25.6614 31.0622 27.3451 31.0646 29.0288 31.0536C29.5158 31.0504 30.0026 31.0088 30.5221 30.9839C30.2464 31.0375 29.9382 31.092 29.5948 31.1478C29.4766 31.1483 29.3936 31.1475 29.2433 31.1467C28.7613 31.1476 28.3467 31.1484 27.932 31.1493C26.9483 31.1486 25.9646 31.1479 24.9446 31.1484C24.6122 31.1376 24.316 31.1255 23.9988 31.0892Z" fill="#3B392C"/>
<path d="M32.8537 29.2019C32.8963 29.0435 32.965 28.8801 33.045 28.6917C33.2375 28.9234 33.0574 29.0597 32.8537 29.2019Z" fill="#3B392C"/>
<path d="M36.8963 25.7155C36.9107 25.785 36.8991 25.8521 36.8671 25.9352C36.7213 25.8749 36.5958 25.7986 36.4704 25.7224C36.5088 25.6777 36.5473 25.6329 36.5858 25.5882C36.6806 25.6298 36.7754 25.6715 36.8963 25.7155Z" fill="#3B392C"/>
<path d="M33.279 27.8867C33.2795 27.9455 33.28 28.0043 33.2805 28.0924C33.2587 28.1392 33.2369 28.1566 33.2063 28.1932C33.178 28.1223 33.1586 28.0323 33.1688 27.9132C33.2253 27.885 33.2521 27.8859 33.279 27.8867Z" fill="#3B392C"/>
<path d="M33.083 28.5813C33.0866 28.5095 33.1179 28.432 33.1714 28.3413C33.166 28.4105 33.1384 28.4931 33.083 28.5813Z" fill="#3B392C"/>
<path d="M36.7554 27.0433C36.7682 27.0493 36.7683 27.0623 36.768 27.0947C36.7545 27.1011 36.7401 27.089 36.7292 27.0744C36.7269 27.0713 36.7378 27.0585 36.7554 27.0433Z" fill="#3B392C"/>
<path d="M15.4891 14.0175C15.519 16.5642 15.5231 19.1282 15.5281 21.7285C15.528 22.9465 15.5297 24.1282 15.5224 25.3098C15.5216 25.4401 15.47 25.5701 15.4131 25.7113C15.3854 22.0692 15.385 18.416 15.3908 14.7629C15.3912 14.5202 15.4381 14.2775 15.4891 14.0175Z" fill="#3B392C"/>
<path d="M16.7673 18.8557C16.7673 17.5618 16.7653 16.304 16.7754 15.0464C16.7765 14.9085 16.8471 14.7711 16.9336 14.6283C16.9818 14.6231 17.011 14.6402 17.011 14.6402C16.9773 14.7812 16.9143 14.9222 16.914 15.0633C16.9082 18.432 16.9107 21.8008 16.9052 25.1696C16.9047 25.4247 16.8551 25.6798 16.8013 25.9501C16.7725 23.6075 16.7707 21.2497 16.7673 18.8557Z" fill="#3B392C"/>
<path d="M13.2449 13.9633C13.2797 14.5188 13.3061 15.0987 13.3065 15.6786C13.3089 18.9993 13.3051 22.3199 13.3036 25.6763C13.2698 25.586 13.2074 25.4601 13.2062 25.3336C13.1973 24.401 13.2006 23.4683 13.1988 22.4993C13.1983 20.3682 13.1989 18.2732 13.1983 16.1421C13.2062 15.3998 13.2154 14.6938 13.2449 13.9633Z" fill="#3B392C"/>
<path d="M13.3673 25.7685C14.0062 25.7371 14.6542 25.7345 15.3387 25.7301C15.3115 25.7762 15.2485 25.865 15.1841 25.8659C14.6105 25.8746 14.0367 25.8687 13.463 25.8626C13.4339 25.8623 13.4053 25.82 13.3673 25.7685Z" fill="#3B392C"/>
<path d="M13.2773 28.9999C13.305 29.6525 13.3041 30.3206 13.3057 31.0241C13.2721 30.9791 13.2359 30.8986 13.1985 30.7884C13.2143 30.1775 13.2315 29.5964 13.2773 28.9999Z" fill="#3B392C"/>
<path d="M23.8201 29.8642C23.8193 27.7848 23.8199 25.7416 23.8208 23.6257C23.8214 22.4699 23.8188 21.3867 23.8255 20.3036C23.8263 20.171 23.8763 20.0387 23.9035 19.9063C23.9062 23.4582 23.9089 27.0101 23.9118 30.5621C23.912 30.7041 23.9152 30.846 23.9258 31.0221C23.8973 30.8343 23.85 30.6133 23.8259 30.3899C23.8085 30.2284 23.8218 30.0636 23.8201 29.8642Z" fill="#3B392C"/>
<path d="M22.5243 31.0554C22.5152 30.6573 22.5424 30.256 22.5586 29.8542C22.5693 29.5872 22.5643 29.3195 22.5743 29.0175C22.6076 29.4968 22.6437 30.0106 22.6525 30.5248C22.6556 30.6999 22.5901 30.8762 22.5243 31.0554Z" fill="#3B392C"/>
<path d="M27.9391 31.1796C28.3467 31.1484 28.7613 31.1476 29.2121 31.1479C29.2341 31.1844 29.2192 31.2506 29.2059 31.2503C28.7859 31.2408 28.3661 31.2249 27.9391 31.1796Z" fill="#3B392C"/>
<path d="M33.2789 27.8507C33.2521 27.8859 33.2253 27.885 33.1783 27.8847C33.1565 27.8489 33.1548 27.8125 33.1624 27.7502C33.1843 27.5849 33.208 27.4455 33.2081 27.3061C33.21 24.9975 33.2089 22.689 33.2085 20.3805C33.2085 20.2534 33.2085 20.1264 33.2808 19.9986C33.2808 20.7183 33.2808 21.4379 33.2818 22.1939C33.2816 24.0917 33.2802 25.9532 33.2789 27.8507Z" fill="#3B392C"/>
<path d="M32.8443 15.3318C31.315 15.3318 29.8141 15.3309 28.2768 15.3129C28.2405 15.2958 28.24 15.2634 28.24 15.2634C29.844 15.2593 31.4479 15.2552 33.0881 15.2512C33.0404 15.2778 32.9566 15.3043 32.8443 15.3318Z" fill="#3B392C"/>
<path d="M28.2402 19.7541C28.3484 19.7521 28.4565 19.7502 28.5971 19.7466C28.737 19.7457 28.8444 19.7465 29.0179 19.7478C29.2425 19.7474 29.401 19.7465 29.5595 19.7456C30.6061 19.747 31.6526 19.7472 32.6992 19.7512C32.8263 19.7517 32.9534 19.7728 33.0995 19.8101C31.5157 19.8368 29.9127 19.8377 28.2749 19.8136C28.24 19.7887 28.2402 19.7541 28.2402 19.7541Z" fill="#3B392C"/>
<path d="M33.2346 15.1379C33.2115 14.5209 33.2115 13.8841 33.2115 13.2474C33.2349 13.2471 33.2582 13.2469 33.2816 13.2466C33.2816 13.5298 33.2816 13.813 33.2827 14.1321C33.2751 14.4847 33.2663 14.8015 33.2346 15.1379Z" fill="#3B392C"/>
<path d="M29.5531 19.7168C29.401 19.7465 29.2425 19.7474 29.0501 19.7467C29.1684 19.4962 29.3535 19.5544 29.5531 19.7168Z" fill="#3B392C"/>
<path d="M22.6635 17.8876C22.6622 18.0973 22.661 18.307 22.6597 18.5878C22.6609 19.4361 22.6622 20.2131 22.6635 20.9902C22.6617 22.4139 22.6609 23.8376 22.6565 25.2613C22.656 25.4002 22.6329 25.5389 22.594 25.6978C22.5649 20.9936 22.5625 16.2693 22.5577 11.545C22.5575 11.4072 22.5315 11.2694 22.5045 11.1019C22.5475 11.1654 22.6436 11.2552 22.652 11.3525C22.6749 11.6192 22.6609 11.889 22.6615 12.2293C22.6626 12.5867 22.6637 12.8724 22.6648 13.1581C22.6637 13.1929 22.6626 13.2277 22.663 13.2887C22.6632 14.712 22.6619 16.1091 22.6605 17.5734C22.6615 17.7229 22.6625 17.8053 22.6635 17.8876Z" fill="#3B392C"/>
<path d="M25.9126 15.7956C25.9132 14.3726 25.9139 12.9496 25.9136 11.4903C25.9282 11.3362 25.9437 11.2183 25.984 11.0838C26.0041 13.8267 25.9994 16.5863 25.9947 19.3459C25.9944 19.4983 25.9946 19.6507 25.9946 19.8394C25.3309 19.8394 24.6911 19.8394 24.0358 19.8108C24.5323 19.7711 25.0448 19.7418 25.556 19.7559C25.8511 19.7641 25.9254 19.6618 25.9219 19.3797C25.9071 18.1852 25.9138 16.9904 25.9126 15.7956Z" fill="#3B392C"/>
<path d="M16.147 10.9884C17.3118 10.9878 18.4766 10.9871 19.6777 10.9848C20.631 10.9976 21.5478 11.0121 22.4845 11.0534C20.5895 11.0788 18.6745 11.0762 16.7596 11.0782C16.5806 11.0783 16.4017 11.1067 16.1862 11.0887C16.1488 11.0331 16.1479 11.0107 16.147 10.9884Z" fill="#3B392C"/>
<path d="M27.983 11.0377C27.3614 11.0646 26.7171 11.0689 26.0374 11.0766C26.0005 11.0652 25.9991 11.0506 25.996 11.0139C26.6496 10.9996 27.3049 11.0073 27.983 11.0377Z" fill="#3B392C"/>
<path d="M22.6946 13.1511C22.6637 12.8724 22.6626 12.5867 22.6631 12.2655C22.9392 12.518 22.8423 12.8303 22.6946 13.1511Z" fill="#3B392C"/>
<path d="M33.1013 13.1342C31.4591 13.1575 29.7945 13.1575 28.0823 13.1575C28.0823 12.4756 28.0823 11.8091 28.076 11.1072C28.1014 11.292 28.1498 11.5112 28.1608 11.7323C28.1768 12.0541 28.1659 12.3773 28.1689 12.7363C28.1194 13.0572 28.2831 13.0841 28.5105 13.0831C29.8927 13.0772 31.275 13.08 32.6573 13.0826C32.7979 13.0829 32.9385 13.101 33.1013 13.1342Z" fill="#3B392C"/>
<path d="M23.553 6.95794C23.5233 7.02758 23.4528 7.1602 23.3924 7.15578C22.9965 7.12683 22.6028 7.06824 22.2016 6.98898C22.6354 6.95826 23.0761 6.9579 23.553 6.95794Z" fill="#3B392C"/>
<path d="M20.3303 14.3223C20.341 13.3142 20.341 13.3169 19.3323 13.3134C18.3141 13.31 17.2959 13.3005 16.2531 13.2734C16.4295 13.2223 16.6303 13.1662 16.8315 13.1647C17.9997 13.1564 19.168 13.1609 20.3786 13.1805C20.4309 13.2204 20.4468 13.234 20.4685 13.2408C20.4701 17.3777 20.4716 21.5145 20.4778 25.6872C20.4824 25.723 20.4847 25.7217 20.4547 25.7124C20.3946 25.5738 20.3387 25.4447 20.3382 25.3153C20.3316 23.5635 20.3327 21.8116 20.3326 20.0233C20.3323 18.0987 20.3313 16.2105 20.3303 14.3223Z" fill="#3B392C"/>
<path d="M22.5378 25.7116C22.5061 25.7582 22.4403 25.8645 22.3739 25.8648C21.7608 25.8679 21.1475 25.8526 20.512 25.8007C20.4898 25.7587 20.4847 25.7217 20.4847 25.7217L20.4811 25.7238C21.1544 25.7237 21.8289 25.7229 22.5378 25.7116Z" fill="#3B392C"/>
<path d="M16.1193 10.9887C16.1479 11.0107 16.1488 11.0331 16.1499 11.089C16.0877 11.1318 16.0252 11.141 15.9388 11.1489C15.9737 11.0948 16.0326 11.0419 16.1193 10.9887Z" fill="#3B392C"/>
<path d="M13.7031 12.8552C13.6972 12.82 13.7105 12.7722 13.7504 12.7203C13.7588 12.7584 13.7406 12.8005 13.7031 12.8552Z" fill="#3B392C"/>
<path d="M15.5328 13.8815C15.5432 13.9046 15.5421 13.9491 15.5187 13.9947C15.5047 13.9648 15.513 13.9338 15.5328 13.8815Z" fill="#3B392C"/>
<path d="M13.629 13.0097C13.6198 12.9749 13.63 12.9262 13.6651 12.8687C13.6762 12.9051 13.6622 12.9504 13.629 13.0097Z" fill="#3B392C"/>
<path d="M20.4731 13.2205C20.4468 13.234 20.4309 13.2204 20.4145 13.1852C20.4312 13.1803 20.4544 13.1903 20.4731 13.2205Z" fill="#3B392C"/>
<path d="M30.3443 28.83C30.1997 28.8774 30.0554 28.9649 29.9104 28.9661C28.6217 28.9768 27.3329 28.9723 26.0187 28.9723C26.0187 26.6243 26.0187 24.2962 26.0187 21.9289C27.6817 21.9289 29.3416 21.9289 31.0052 21.9651C30.9881 22.0248 30.9673 22.0484 30.911 22.0726C29.419 22.0734 27.9625 22.0757 26.5059 22.0714C26.2904 22.0708 26.1407 22.0802 26.142 22.3703C26.1516 24.4197 26.1502 26.4692 26.1428 28.5187C26.1419 28.7621 26.235 28.8256 26.462 28.8238C27.7508 28.8136 29.0397 28.8145 30.3325 28.8162C30.3364 28.8209 30.3443 28.83 30.3443 28.83Z" fill="#3B392C"/>
<path d="M30.9464 22.072C30.9673 22.0484 30.9881 22.0248 31.0295 21.9886C31.05 21.976 31.0498 21.9804 31.0412 22.0192C31.0336 24.004 31.0347 25.9499 31.0358 27.8959C31.0266 27.9641 31.0174 28.0324 30.9842 28.1138C30.9603 28.127 30.9526 28.1204 30.9535 28.0842C30.9517 26.0559 30.9491 24.0639 30.9464 22.072Z" fill="#3B392C"/>
<path d="M31.0502 27.8671C31.0347 25.9499 31.0336 24.004 31.0406 22.0214C31.0624 22.0586 31.0882 22.1324 31.0882 22.2063C31.0904 24.0202 31.09 25.8341 31.0886 27.648C31.0886 27.7114 31.073 27.7749 31.0502 27.8671Z" fill="#3B392C"/>
<path d="M28.2174 19.7305C28.2402 19.7541 28.24 19.7887 28.2391 19.806C28.1876 19.7771 28.0932 19.7311 28.093 19.6847C28.0853 18.2418 28.0863 16.7988 28.0905 15.3559C28.0906 15.3217 28.144 15.2877 28.2063 15.2585C28.24 15.2634 28.2405 15.2958 28.2404 15.312C28.2166 15.372 28.1721 15.4159 28.1722 15.4596C28.177 16.8754 28.1861 18.2911 28.2174 19.7305Z" fill="#3B392C"/>
<path d="M30.8139 28.4451C30.7523 28.5184 30.6907 28.5917 30.6012 28.668C30.5732 28.671 30.5628 28.6602 30.5674 28.6348C30.6458 28.5481 30.7195 28.4869 30.7983 28.4305C30.8035 28.4354 30.8139 28.4451 30.8139 28.4451Z" fill="#3B392C"/>
<path d="M30.9515 28.1988C30.9195 28.2721 30.8874 28.3454 30.8346 28.4319C30.8139 28.4451 30.8035 28.4354 30.8027 28.407C30.8264 28.3202 30.8511 28.2618 30.8947 28.2025C30.9136 28.2017 30.9515 28.1988 30.9515 28.1988Z" fill="#3B392C"/>
<path d="M30.5784 28.6764C30.5516 28.7094 30.5197 28.7369 30.4592 28.7631C30.4306 28.7617 30.4113 28.7413 30.4245 28.723C30.4794 28.6899 30.5211 28.6751 30.5628 28.6602C30.5628 28.6602 30.5732 28.671 30.5784 28.6764Z" fill="#3B392C"/>
<path d="M30.4397 28.7724C30.4272 28.7975 30.4056 28.812 30.3641 28.8282C30.3443 28.83 30.3364 28.8209 30.3435 28.8015C30.3673 28.7632 30.3875 28.7496 30.4113 28.7413C30.4113 28.7413 30.4306 28.7617 30.4397 28.7724Z" fill="#3B392C"/>
<path d="M30.9596 28.1836C30.9515 28.1988 30.9136 28.2017 30.9025 28.1844C30.9117 28.1515 30.9322 28.136 30.9526 28.1204C30.9526 28.1204 30.9603 28.127 30.9642 28.1305C30.968 28.1339 30.9677 28.1684 30.9596 28.1836Z" fill="#3B392C"/>
<path d="M19.0967 22.2308C19.0877 23.4535 19.0787 24.6762 19.0495 25.9237C19.024 25.9146 19.0187 25.8808 19.017 25.7989C19.0165 25.7364 19.0124 25.7221 19.0082 25.7077C18.9956 25.5277 18.9721 25.3477 18.972 25.1678C18.9695 21.692 18.9698 18.2162 18.9592 14.693C18.9489 14.6455 18.9364 14.6315 18.9364 14.6315L18.9366 14.6286C18.9893 14.689 19.0419 14.7495 19.0946 14.8738C19.0955 17.0069 19.0963 19.0762 19.0959 21.1803C19.0954 21.4237 19.0961 21.6324 19.0956 21.8736C19.0952 22.0143 19.0959 22.1226 19.0967 22.2308Z" fill="#3B392C"/>
<path d="M17.0462 14.6458C17.011 14.6402 16.9818 14.6231 16.9656 14.6187C17.5969 14.6036 18.2443 14.593 18.9142 14.6055C18.9366 14.6286 18.9369 14.6306 18.914 14.6285C18.8768 14.6312 18.8625 14.636 18.8482 14.6408C18.2593 14.6444 17.6703 14.6479 17.0462 14.6458Z" fill="#3B392C"/>
<path d="M19.0002 25.7177C19.0124 25.7221 19.0165 25.7364 19.0182 25.7731C18.9947 25.7781 18.9869 25.7555 19.0002 25.7177Z" fill="#3B392C"/>
<path d="M18.8636 14.6504C18.8625 14.636 18.8768 14.6312 18.9136 14.6294C18.936 14.6324 18.9489 14.6455 18.9496 14.6547C18.9503 14.6639 18.9143 14.6675 18.9143 14.6675C18.9143 14.6675 18.8789 14.6601 18.8636 14.6504Z" fill="#3B392C"/>
<path d="M22.6899 17.8829C22.6625 17.8053 22.6615 17.7229 22.6621 17.6098C22.8742 17.6447 22.8631 17.7495 22.6899 17.8829Z" fill="#3B392C"/>
<path d="M19.0959 21.1803C19.4658 21.3464 19.3277 21.5875 19.1242 21.8364C19.0961 21.6324 19.0954 21.4237 19.0959 21.1803Z" fill="#3B392C"/>
<path d="M19.2414 26.6777C19.419 26.7396 19.635 26.7948 19.752 26.9335C19.8235 27.0184 19.743 27.2315 19.7183 27.4132C19.5498 27.1949 19.394 26.9505 19.2414 26.6777Z" fill="#3B392C"/>
</svg>
