<svg width="35" height="35" viewBox="0 0 35 35" fill="none" xmlns="http://www.w3.org/2000/svg">
<path d="M3.7147 12.9555C3.71456 12.9228 3.71441 12.8901 3.74673 12.8275C3.88058 12.2995 3.96316 11.7967 4.08799 11.3046C4.25483 10.6469 4.45445 9.99753 4.63999 9.34459C4.63999 9.34459 4.64266 9.35157 4.66148 9.34186C4.80521 9.04434 4.93012 8.75653 5.05503 8.46871C5.05503 8.46871 5.0572 8.4736 5.07308 8.4636C5.10111 8.41453 5.11328 8.37546 5.12544 8.33639C5.12544 8.33639 5.12733 8.33942 5.14948 8.33642C5.21965 8.23954 5.26768 8.14566 5.31571 8.05177C5.31571 8.05177 5.32043 8.05822 5.34003 8.05349C5.39064 7.98224 5.42164 7.91573 5.45265 7.84921C5.45265 7.84921 5.45786 7.85588 5.47433 7.84926C5.50419 7.80297 5.51758 7.7633 5.53097 7.72363C5.53097 7.72363 5.53314 7.72855 5.55376 7.72603C5.6245 7.6512 5.67462 7.5789 5.72475 7.50659C5.72475 7.50659 5.72734 7.51507 5.74258 7.51043C5.76717 7.48289 5.77651 7.45999 5.78585 7.43708C5.78585 7.43708 5.78783 7.44629 5.80648 7.44004C5.83958 7.39415 5.85404 7.35451 5.8685 7.31486C5.8685 7.31486 5.87118 7.31971 5.88573 7.31283C5.91184 7.28472 5.9234 7.26349 5.93497 7.24227C5.93497 7.24227 5.93619 7.24948 5.95081 7.2435C5.9778 7.21632 5.99015 7.19513 6.00251 7.17393C6.00251 7.17393 6.00375 7.18139 6.01837 7.17536C6.04483 7.14775 6.05668 7.12618 6.06852 7.10461C6.06852 7.10461 6.06975 7.11221 6.0849 7.10671C6.11176 7.07934 6.12347 7.05747 6.13518 7.0356C6.13518 7.0356 6.1374 7.04317 6.1524 7.03787C6.17864 7.01043 6.18988 6.9883 6.20112 6.96618C6.20112 6.96618 6.20341 6.97387 6.21877 6.9691C6.24574 6.94226 6.25735 6.92018 6.26896 6.8981C6.26896 6.8981 6.27153 6.90571 6.28676 6.90126C6.31449 6.87531 6.32699 6.85381 6.33949 6.83231C6.33949 6.83231 6.34046 6.84041 6.35761 6.83644C6.43368 6.83708 6.4926 6.84168 6.54223 6.86736C6.21926 7.48377 5.84305 8.05511 5.60373 8.67897C4.90863 10.4909 4.86867 12.3936 4.93356 14.3345C5.06887 15.8142 5.20848 17.2625 5.34595 18.7383C5.36148 18.865 5.374 18.9654 5.39762 19.0632C5.69698 20.3026 5.99793 21.5417 6.30162 22.8051C6.41427 23.1127 6.51125 23.4017 6.63551 23.6784C7.09358 24.6984 7.61355 25.68 8.44447 26.4586C8.44582 26.4579 8.44661 26.4551 8.45185 26.472C8.47659 26.5008 8.4961 26.5127 8.5171 26.5222C8.51859 26.5199 8.51416 26.5231 8.51921 26.5402C8.54404 26.569 8.56382 26.5807 8.58501 26.5902C8.58643 26.5879 8.58192 26.5908 8.58722 26.6077C8.61218 26.6365 8.63184 26.6484 8.65286 26.658C8.65421 26.6557 8.64973 26.6586 8.65511 26.6755C8.68014 26.7044 8.69978 26.7163 8.72074 26.726C8.72206 26.7237 8.71749 26.7263 8.72319 26.743C8.74854 26.7717 8.7682 26.7836 8.78895 26.7935C8.79005 26.7915 8.78588 26.7935 8.7924 26.81C8.81778 26.8404 8.83663 26.8543 8.86189 26.8826C8.88206 26.9146 8.89999 26.925 8.92986 26.9432C8.95192 26.9771 8.97068 26.9889 9.00849 27.0108C9.16332 27.1399 9.29877 27.2585 9.44463 27.3625C11.0951 28.5392 12.987 28.9406 14.9926 29.0817C16.5389 29.0412 18.054 28.9939 19.5982 28.9504C20.603 28.8164 21.5787 28.6787 22.5815 28.5421C23.7575 28.2301 24.9238 27.9683 26.0491 27.5857C26.767 27.3417 27.4241 26.9188 28.1084 26.5761C27.465 27.7388 26.51 28.5774 25.3505 29.1919C24.1825 29.811 22.926 30.1575 21.6202 30.3287C20.9024 30.4227 20.1785 30.4754 19.4646 30.5918C19.2591 30.6253 19.0357 30.7778 18.8952 30.9403C18.3719 31.5458 17.8811 32.1792 17.3744 32.7991C17.2963 32.8947 17.2048 32.9816 17.1098 33.0607C16.8119 33.3089 16.5688 33.3252 16.3202 33.0369C15.7319 32.3545 15.1818 31.6393 14.595 30.9556C14.4534 30.7907 14.2435 30.6217 14.0405 30.5831C13.2002 30.4234 12.3439 30.3462 11.5057 30.1777C9.44431 29.7633 7.54117 29.0159 6.10633 27.388C5.79496 27.0347 5.54329 26.6289 5.26039 26.1991C5.18414 26.0285 5.11162 25.906 5.0391 25.7834C5.0391 25.7834 5.04812 25.7807 5.04503 25.7666C5.02249 25.7381 5.00304 25.7237 4.98359 25.7093C4.98359 25.7093 4.98953 25.7071 4.98921 25.6853C4.95985 25.6132 4.9308 25.5628 4.90175 25.5125C4.90175 25.5125 4.91091 25.5093 4.90864 25.4955C4.88768 25.4669 4.86899 25.4521 4.8503 25.4373C4.8503 25.4373 4.85539 25.4349 4.85454 25.4129C4.82636 25.3394 4.79903 25.2879 4.7717 25.2364C4.7717 25.2364 4.77933 25.2363 4.78034 25.2157C4.73539 25.1153 4.68943 25.0356 4.64348 24.9559C4.64348 24.9559 4.63487 24.9432 4.64005 24.9079C4.55093 24.6327 4.45663 24.3927 4.36234 24.1527C4.36234 24.1527 4.36871 24.15 4.37247 24.1257C4.37339 24.0679 4.37584 24.033 4.36694 24.0013C4.0744 22.9601 3.83208 21.9103 3.76105 20.8256C3.74607 20.5968 3.65344 20.3731 3.59659 20.1471C3.58947 20.1152 3.58235 20.0834 3.59552 20.0053C3.62077 19.6557 3.62971 19.3524 3.62999 19.049C3.63117 17.7927 3.63295 16.5365 3.62713 15.2802C3.62553 14.9355 3.59826 14.5908 3.58278 14.2461C3.58094 14.2136 3.57909 14.1811 3.60907 14.1177C3.66549 13.7098 3.6901 13.3326 3.7147 12.9555Z" fill="#FFB487"/>
<path d="M3.57613 14.2759C3.59827 14.5908 3.62553 14.9355 3.62713 15.2802C3.63295 16.5365 3.63117 17.7927 3.62999 19.049C3.62971 19.3524 3.62077 19.6557 3.59911 19.9809C3.5537 18.3608 3.52127 16.719 3.50016 15.0771C3.49686 14.8203 3.54508 14.5628 3.57613 14.2759Z" fill="#FFB487"/>
<path d="M3.59113 20.1745C3.65344 20.3731 3.74607 20.5968 3.76105 20.8256C3.83208 21.9103 4.0744 22.9601 4.36694 24.0013C4.37584 24.033 4.37339 24.0679 4.37189 24.1291C4.19428 23.5204 3.98463 22.891 3.85774 22.2454C3.72548 21.5725 3.67302 20.8838 3.59113 20.1745Z" fill="#FFB487"/>
<path d="M4.61923 9.35658C4.45445 9.99753 4.25483 10.6469 4.08799 11.3046C3.96316 11.7967 3.88058 12.2995 3.75628 12.8048C3.87405 11.6271 4.12307 10.4694 4.61923 9.35658Z" fill="#FFB487"/>
<path d="M3.70818 12.9833C3.6901 13.3326 3.66549 13.7098 3.61719 14.0945C3.62955 13.7385 3.6656 13.3749 3.70818 12.9833Z" fill="#FFB487"/>
<path d="M6.94032 6.30601C6.83901 6.4768 6.714 6.64937 6.57026 6.83412C6.4926 6.84168 6.43368 6.83708 6.35368 6.83532C6.52728 6.66138 6.72195 6.48459 6.94032 6.30601Z" fill="#FFB487"/>
<path d="M5.03588 8.48175C4.93012 8.75653 4.80521 9.04434 4.65776 9.34148C4.7624 9.06546 4.88957 8.78012 5.03588 8.48175Z" fill="#FFB487"/>
<path d="M4.36079 24.1796C4.45663 24.3927 4.55093 24.6327 4.64455 24.9017C4.54901 24.6893 4.45412 24.4478 4.36079 24.1796Z" fill="#FFB487"/>
<path d="M5.29553 8.06045C5.26768 8.14566 5.21965 8.23954 5.14778 8.33586C5.17442 8.24857 5.22488 8.15885 5.29553 8.06045Z" fill="#FFB487"/>
<path d="M5.03991 25.8076C5.11162 25.906 5.18415 26.0285 5.25595 26.1766C5.18373 26.0787 5.11222 25.9553 5.03991 25.8076Z" fill="#FFB487"/>
<path d="M5.70331 7.51167C5.67462 7.5789 5.6245 7.65121 5.55132 7.72491C5.57947 7.65645 5.63067 7.5866 5.70331 7.51167Z" fill="#FFB487"/>
<path d="M4.64424 24.9798C4.68943 25.0356 4.73539 25.1153 4.7788 25.2191C4.7325 25.1634 4.68875 25.0836 4.64424 24.9798Z" fill="#FFB487"/>
<path d="M5.43237 7.85792C5.42164 7.91573 5.39064 7.98224 5.33606 8.05388C5.34568 7.99488 5.37888 7.93075 5.43237 7.85792Z" fill="#FFB487"/>
<path d="M4.77167 25.2592C4.79903 25.2879 4.82636 25.3394 4.85278 25.4151C4.82513 25.3869 4.79838 25.3345 4.77167 25.2592Z" fill="#FFB487"/>
<path d="M4.90087 25.5354C4.9308 25.5628 4.95985 25.6132 4.98757 25.688C4.95749 25.6611 4.92874 25.6096 4.90087 25.5354Z" fill="#FFB487"/>
<path d="M5.10904 8.34854C5.11328 8.37546 5.10111 8.41453 5.0704 8.46358C5.06545 8.43593 5.07905 8.39832 5.10904 8.34854Z" fill="#FFB487"/>
<path d="M5.51301 7.7342C5.51758 7.7633 5.50419 7.80297 5.47023 7.85035C5.4648 7.82029 5.47993 7.78252 5.51301 7.7342Z" fill="#FFB487"/>
<path d="M5.84977 7.32382C5.85404 7.35451 5.83958 7.39415 5.80278 7.43713C5.79731 7.40456 5.81417 7.36867 5.84977 7.32382Z" fill="#FFB487"/>
<path d="M4.98687 25.7281C5.00304 25.7237 5.02249 25.7381 5.04442 25.7713C5.02799 25.7756 5.00908 25.7612 4.98687 25.7281Z" fill="#FFB487"/>
<path d="M4.85266 25.456C4.86899 25.4521 4.88768 25.4669 4.90817 25.5004C4.89165 25.5042 4.87333 25.4895 4.85266 25.456Z" fill="#FFB487"/>
<path d="M5.76725 7.44122C5.77651 7.45999 5.76717 7.48289 5.73827 7.50941C5.72869 7.49048 5.73867 7.46792 5.76725 7.44122Z" fill="#FFB487"/>
<path d="M5.91685 7.24799C5.9234 7.26349 5.91184 7.28472 5.88296 7.31283C5.87667 7.29771 5.8877 7.27571 5.91685 7.24799Z" fill="#FFB487"/>
<path d="M5.9842 7.17928C5.99015 7.19513 5.9778 7.21632 5.94719 7.24303C5.94126 7.22723 5.95358 7.20593 5.9842 7.17928Z" fill="#FFB487"/>
<path d="M6.05014 7.1099C6.05668 7.12618 6.04483 7.14775 6.01462 7.17483C6.00808 7.15863 6.01992 7.13691 6.05014 7.1099Z" fill="#FFB487"/>
<path d="M6.11664 7.04057C6.12347 7.05747 6.11176 7.07934 6.08115 7.10583C6.0742 7.08882 6.08615 7.06719 6.11664 7.04057Z" fill="#FFB487"/>
<path d="M6.18265 6.97128C6.18988 6.9883 6.17864 7.01043 6.14849 7.03734C6.14111 7.02021 6.15265 6.9983 6.18265 6.97128Z" fill="#FFB487"/>
<path d="M6.25039 6.90288C6.25735 6.92018 6.24574 6.94226 6.21486 6.96824C6.20766 6.95064 6.21974 6.92915 6.25039 6.90288Z" fill="#FFB487"/>
<path d="M6.32074 6.83668C6.32699 6.85381 6.31449 6.87531 6.28281 6.90054C6.27642 6.8832 6.28921 6.86213 6.32074 6.83668Z" fill="#FFB487"/>
<path d="M31.2264 21.0888C31.0182 22.2858 30.7098 23.4475 30.0527 24.4903C29.6025 25.2047 29.0578 25.8302 28.3503 26.3065C28.3822 26.1762 28.4427 26.0669 28.4814 25.9503C28.7516 25.1357 29.0173 24.3195 29.3037 23.4835C29.3522 23.2838 29.3814 23.1044 29.4132 22.9099C29.4158 22.8948 29.4154 22.864 29.4356 22.8466C29.4908 22.6112 29.5258 22.3933 29.5674 22.1593C29.5683 22.1215 29.5628 22.0998 29.5758 22.0549C29.6685 21.3722 29.7921 20.7138 29.8068 20.053C29.8408 18.5224 29.8121 16.9905 29.828 15.4594C29.8409 14.2146 29.7103 12.9846 29.4758 11.7663C29.2734 10.715 29.0006 9.68202 28.4602 8.71619C27.9519 7.73386 27.3117 6.89357 26.3767 6.28081C26.3421 6.25204 26.3185 6.24033 26.2953 6.23148C26.2958 6.23434 26.3001 6.23041 26.2903 6.21114C26.2183 6.15865 26.1562 6.12544 26.0914 6.0941C26.0887 6.09596 26.0952 6.09567 26.0849 6.07736C26.0354 6.04726 25.9962 6.03545 25.9558 6.02626C25.9545 6.02888 25.9603 6.02839 25.9561 6.01018C25.9306 5.9806 25.9092 5.96922 25.8873 5.96077C25.8868 5.96371 25.8917 5.96033 25.8785 5.94077C25.0795 5.59925 24.2937 5.2773 23.4824 4.94836C23.1161 4.87439 22.7753 4.80741 22.4182 4.71967C22.2062 4.66985 22.0107 4.6408 21.8001 4.60882C21.7852 4.60591 21.7547 4.606 21.7362 4.58539C21.4117 4.5368 21.1057 4.50882 20.7776 4.47607C20.7252 4.46943 20.6951 4.46756 20.6459 4.44487C20.0522 4.39401 19.4775 4.36398 18.8829 4.31319C17.4303 4.29248 15.9976 4.29254 14.5364 4.28719C14.3864 4.2985 14.2652 4.31978 14.1431 4.3312C13.2827 4.41172 12.413 4.4377 11.5639 4.58366C10.6577 4.73945 9.77084 5.00795 8.85282 5.22522C8.79487 5.24642 8.75965 5.26964 8.72355 5.29035C8.72267 5.28784 8.72697 5.29099 8.70083 5.28925C8.5993 5.24074 8.52391 5.19397 8.44852 5.1472C8.44852 5.1472 8.45092 5.15124 8.47026 5.14946C8.52065 5.12279 8.55171 5.09791 8.58277 5.07302C8.58277 5.07302 8.58373 5.07934 8.60477 5.07863C8.69916 5.02813 8.77251 4.97834 8.84586 4.92855C8.84586 4.92855 8.85118 4.93511 8.86549 4.93224C8.89398 4.91019 8.90816 4.89102 8.92234 4.87185C8.92234 4.87185 8.92435 4.87797 8.94326 4.87668C8.99424 4.85119 9.02632 4.82699 9.05839 4.8028C9.05839 4.8028 9.05916 4.80897 9.08116 4.8095C9.17848 4.76235 9.25379 4.71468 9.3291 4.66701C9.3291 4.66701 9.33125 4.67341 9.35284 4.67397C9.45044 4.62803 9.52646 4.58154 9.60248 4.53505C9.60248 4.53505 9.60351 4.54014 9.62553 4.54009C9.69767 4.51131 9.74778 4.48259 9.79789 4.45387C9.79789 4.45387 9.80617 4.46354 9.82754 4.46515C10.2621 4.30463 10.6753 4.1425 11.0885 3.98038C11.0885 3.98038 11.0952 3.98645 11.1185 3.98983C11.4774 3.91079 11.8152 3.83601 12.148 3.74338C12.3901 3.67601 12.6257 3.58506 12.8642 3.50462C13.0657 3.4711 13.2673 3.43757 13.5227 3.39343C14.3317 3.2901 15.0859 3.19008 15.8419 3.10645C16.91 2.98829 17.9794 2.88223 19.0482 2.77101C20.2463 2.52475 21.4499 2.64428 22.6495 2.73753C23.6638 2.81637 24.6555 3.02719 25.6096 3.3937C27.5225 4.12854 28.8055 5.50724 29.6144 7.3519C30.067 8.38415 30.4589 9.44029 30.5791 10.5753C30.5857 10.6383 30.6289 10.6974 30.6476 10.8174C30.6521 11.0319 30.6539 11.189 30.678 11.3426C30.7957 12.0922 30.9442 12.8379 31.0341 13.5906C31.1321 14.4116 31.1759 15.239 31.2503 16.0629C31.2549 16.1143 31.3202 16.1602 31.3573 16.2087C31.362 16.2396 31.3667 16.2705 31.3512 16.3466C31.3255 17.511 31.3194 18.6302 31.3166 19.7494C31.3165 19.7893 31.3492 19.8293 31.3666 19.8693C31.3679 19.9004 31.3692 19.9315 31.34 19.9931C31.2817 20.3787 31.2541 20.7338 31.2264 21.0888Z" fill="#FFC9A8"/>
<path d="M31.3621 16.1792C31.3202 16.1602 31.2549 16.1143 31.2503 16.0629C31.1759 15.239 31.1321 14.4116 31.0341 13.5906C30.9442 12.8379 30.7957 12.0922 30.678 11.3426C30.6539 11.189 30.6521 11.0319 30.6431 10.8437C30.7717 11.4597 30.932 12.1038 31.0148 12.7578C31.1576 13.8852 31.2521 15.0187 31.3621 16.1792Z" fill="#FFC9A8"/>
<path d="M19.0293 2.74823C17.9794 2.88223 16.91 2.98829 15.8419 3.10645C15.0859 3.19008 14.3317 3.2901 13.5442 3.37929C14.2274 3.25394 14.9398 3.10508 15.6597 3.01673C16.6846 2.89094 17.7148 2.80855 18.7431 2.71104C18.8309 2.70271 18.9212 2.72004 19.0293 2.74823Z" fill="#FFC9A8"/>
<path d="M31.3729 19.8404C31.3492 19.8293 31.3165 19.7893 31.3166 19.7494C31.3194 18.6302 31.3255 17.511 31.3479 16.37C31.3695 17.5026 31.3743 18.657 31.3729 19.8404Z" fill="#FFC9A8"/>
<path d="M8.70083 5.28925C8.33012 5.48723 7.93326 5.68346 7.51221 5.88277C7.79307 5.6429 8.09813 5.39996 8.42586 5.15211C8.52391 5.19397 8.5993 5.24074 8.70083 5.28925Z" fill="#FFC9A8"/>
<path d="M12.835 3.5055C12.6257 3.58506 12.3901 3.67601 12.148 3.74338C11.8152 3.83601 11.4774 3.91079 11.1141 3.98889C11.6595 3.82517 12.2327 3.66578 12.835 3.5055Z" fill="#FFC9A8"/>
<path d="M11.0614 3.98001C10.6753 4.1425 10.2621 4.30463 9.8221 4.46185C10.2083 4.29784 10.6212 4.13874 11.0614 3.98001Z" fill="#FFC9A8"/>
<path d="M31.2341 21.0619C31.2541 20.7338 31.2817 20.3787 31.3334 20.0157C31.3189 20.3501 31.2803 20.6925 31.2341 21.0619Z" fill="#FFC9A8"/>
<path d="M9.57949 4.53603C9.52646 4.58154 9.45044 4.62803 9.34995 4.67221C9.40249 4.6256 9.4795 4.58131 9.57949 4.53603Z" fill="#FFC9A8"/>
<path d="M9.30616 4.66837C9.25379 4.71468 9.17848 4.76235 9.07853 4.80783C9.13034 4.76034 9.20678 4.71504 9.30616 4.66837Z" fill="#FFC9A8"/>
<path d="M8.8232 4.93007C8.77251 4.97834 8.69916 5.02813 8.60197 5.07709C8.65227 5.02803 8.7264 4.97981 8.8232 4.93007Z" fill="#FFC9A8"/>
<path d="M9.77544 4.45479C9.74778 4.48259 9.69767 4.51131 9.62339 4.53863C9.65048 4.51005 9.70174 4.48287 9.77544 4.45479Z" fill="#FFC9A8"/>
<path d="M9.03772 4.8043C9.02632 4.82699 8.99424 4.85119 8.94054 4.87495C8.95163 4.8516 8.98433 4.8287 9.03772 4.8043Z" fill="#FFC9A8"/>
<path d="M8.5624 5.0752C8.55171 5.09791 8.52065 5.12279 8.46824 5.14825C8.4786 5.12502 8.51032 5.1012 8.5624 5.0752Z" fill="#FFC9A8"/>
<path d="M8.90402 4.875C8.90816 4.89102 8.89398 4.91019 8.86133 4.93154C8.85713 4.9152 8.87142 4.89667 8.90402 4.875Z" fill="#FFC9A8"/>
<path d="M8.85282 5.22522C8.83954 5.2487 8.80355 5.27015 8.74599 5.29223C8.75965 5.26964 8.79487 5.24642 8.85282 5.22522Z" fill="#FFC9A8"/>
<path d="M29.5572 22.0781C29.5627 22.0998 29.5682 22.1215 29.5422 22.1711C29.4788 22.4206 29.4471 22.6423 29.4153 22.864C29.4153 22.864 29.4157 22.8948 29.3901 22.9229C29.3378 23.1353 29.311 23.3195 29.2843 23.5038C29.0172 24.3195 28.7515 25.1357 28.4813 25.9503C28.4426 26.0669 28.3821 26.1762 28.3277 26.3156C28.2603 26.4097 28.1968 26.477 28.1209 26.5602C27.424 26.9188 26.7669 27.3417 26.049 27.5857C24.9238 27.9683 23.7574 28.2301 22.5615 28.5253C22.3081 28.4726 22.0931 28.4613 21.8989 28.392C21.8122 28.3611 21.767 28.2137 21.7029 28.1192C21.8098 28.1068 21.9204 28.108 22.0227 28.0793C22.2351 28.0197 22.4941 27.9997 22.6416 27.8634C22.904 27.6209 23.0853 27.2929 23.3244 27.0218C23.528 26.7907 23.732 26.5199 23.9965 26.3932C24.2953 26.25 24.3909 26.1074 24.2981 25.8371C23.9225 25.7453 23.5056 25.8818 23.2704 25.5043C23.5709 25.4555 23.8406 25.4078 24.1267 25.3443C24.2751 25.3032 24.4161 25.2994 24.5378 25.2491C25.2343 24.9614 25.7345 24.4558 26.1219 23.8016C26.3002 23.6772 26.4578 23.558 26.2929 23.316C26.2905 23.2869 26.2944 23.2752 26.3226 23.2586C26.371 23.1814 26.3952 23.1092 26.4178 23.02C26.4188 22.9808 26.4209 22.9583 26.4304 22.919C26.4572 22.887 26.4763 22.8718 26.5164 22.8654C26.7161 22.9498 26.7372 22.8544 26.7595 22.7025C26.7793 22.567 26.8493 22.436 26.9128 22.3109C26.9568 22.2242 27.0659 22.1565 27.0784 22.0705C27.1088 21.8611 27.2231 21.8363 27.4039 21.8344C27.7765 21.8306 27.8893 21.6913 27.9268 21.3254C27.9427 21.1712 28.0003 20.9955 28.0985 20.8803C28.3772 20.5532 28.6855 20.2512 28.9856 19.9427C29.0119 19.9157 29.0898 19.8918 29.0984 19.9026C29.1348 19.9482 29.1607 20.0054 29.178 20.0622C29.2129 20.1766 29.2397 20.2935 29.2753 20.4303C29.663 20.2622 29.5201 20.0374 29.4062 19.7981C29.5201 19.7727 29.6018 19.7545 29.6836 19.7679C29.6831 20.1174 29.6825 20.4353 29.6592 20.7511C29.5534 20.7125 29.4705 20.6761 29.3875 20.6397C29.3538 20.6788 29.3202 20.718 29.2865 20.7571C29.3963 20.8238 29.5061 20.8905 29.6157 20.9862C29.5927 21.3123 29.5699 21.6095 29.5359 21.9129C29.5205 21.9262 29.511 21.9374 29.513 21.9401C29.5225 21.9529 29.5351 21.9635 29.5492 22.0007C29.5536 22.0437 29.5554 22.0609 29.5572 22.0781Z" fill="#F47B32"/>
<path d="M8.44305 26.4593C7.61348 25.68 7.09351 24.6984 6.63544 23.6784C6.51118 23.4017 6.4142 23.1127 6.31699 22.7861C6.29684 22.5223 6.26439 22.3019 6.22898 22.0614C6.34349 22.0967 6.4299 22.1233 6.6143 22.1801C6.49945 21.9662 6.42855 21.8342 6.34018 21.6697C6.56913 21.6205 6.77293 21.5767 6.99711 21.5286C7.04427 21.281 7.24596 21.1606 7.41594 20.9894C7.64509 20.7587 7.94988 20.5655 8.10782 20.2777C8.21032 20.091 8.2991 19.9495 8.51076 19.9457C8.73957 19.9417 8.79557 19.8263 8.79243 19.6232C8.78513 19.1499 8.78266 18.6761 8.79622 18.2031C8.79909 18.1027 8.87864 18.0044 8.92393 17.9369C8.92547 18.7847 8.92258 19.6009 8.93036 20.4169C8.93142 20.5276 8.986 20.6377 9.03031 20.7489C9.04483 20.7498 9.06336 20.7722 9.07132 20.7974C9.10454 20.8425 9.12962 20.8795 9.15509 20.8798C9.65706 20.8852 10.1591 20.8903 10.661 20.8827C10.7173 20.8818 10.7725 20.8042 10.8288 20.7586C10.8293 20.755 10.8362 20.757 10.8614 20.7474C10.9112 20.6239 10.9564 20.5101 10.9571 20.3961C10.9634 19.3621 10.962 18.3282 10.9876 17.2992C11.0882 17.4626 11.1639 17.6211 11.2412 17.7828C11.3864 17.5421 11.5013 17.3619 11.6053 17.1756C11.6703 17.059 11.757 16.9368 11.7686 16.8111C11.828 16.1674 11.8631 15.5215 11.917 14.8773C11.9217 14.8207 12.0005 14.7703 12.0463 14.7487C12.0493 16.8435 12.0509 18.9066 12.0503 20.9974C12.0506 21.0701 12.0618 21.1165 12.0542 21.1597C11.8622 22.2523 10.9216 23.2348 9.82566 23.478C9.55956 23.537 9.28718 23.5677 8.99256 23.6249C8.95246 24.1469 8.93748 24.6553 8.89704 25.1693C8.69879 25.5435 8.73692 25.6118 9.24533 25.8446C9.1119 26.5125 9.02324 26.5594 8.52767 26.1744C8.49614 26.2806 8.4696 26.3699 8.44305 26.4593Z" fill="#F47B32"/>
<path d="M19.569 28.9467C18.0539 28.9939 16.5389 29.0412 14.985 29.0579C14.3428 28.9376 13.7415 28.8218 13.1348 28.7697C12.8601 28.7462 12.8514 28.5409 12.7698 28.3948C12.7355 28.3335 12.8283 28.1838 12.8889 28.091C12.9792 27.9526 13.1922 27.8172 13.1785 27.7011C13.1155 27.1681 13.8282 27.164 13.8257 26.6945C13.8256 26.6832 13.8846 26.6616 13.916 26.6618C14.1663 26.6635 14.2012 26.4915 14.3105 26.3043C14.4755 26.0216 14.786 25.8239 15.0365 25.5884C15.1981 26.067 15.3548 26.1998 15.6569 26.0949C16.0101 25.9723 15.9178 25.7171 15.7965 25.466C16.0362 25.4514 16.2474 25.4386 16.4857 25.4293C16.6939 25.4307 16.875 25.4286 17.0837 25.4235C17.1413 25.2667 17.1986 25.1124 17.1959 24.9592C17.1882 24.5092 17.1566 24.0597 17.1177 23.5875C16.9311 23.5529 16.7611 23.5408 16.5956 23.5052C17.021 23.2304 17.4417 22.9792 17.8614 22.7286C17.8536 22.8148 17.8229 22.925 17.8379 23.0286C17.8901 23.3898 17.9484 23.7509 18.027 24.107C18.047 24.1973 18.151 24.2692 18.2175 24.3811C18.219 24.5557 18.2074 24.6999 18.2226 24.8412C18.2437 25.0367 18.2851 25.23 18.3284 25.4203C18.339 25.4164 18.3554 25.4318 18.3739 25.4531C18.6514 25.4848 18.9106 25.4954 19.1743 25.53C19.2008 25.5781 19.2207 25.6206 19.2451 25.6234C19.4749 25.6496 19.5854 25.768 19.5778 26.0051C19.5702 26.2461 19.5226 26.436 19.2481 26.5204C19.1566 26.5485 19.0755 26.6941 19.0415 26.8023C19.0059 26.9154 19.0612 27.0575 19.0247 27.1699C18.982 27.3012 18.9097 27.4739 18.8024 27.5223C18.6007 27.6133 18.5721 27.4026 18.4911 27.2706C18.4345 27.1783 18.3055 27.0921 18.2017 27.0829C18.1478 27.078 18.037 27.2403 18.0237 27.337C17.9793 27.6585 17.9856 27.9875 17.9334 28.3073C17.9148 28.4214 17.7846 28.5173 17.7053 28.6216C17.6136 28.5471 17.5259 28.4671 17.4293 28.3997C17.3333 28.3328 17.2264 28.2307 17.1284 28.2351C17.059 28.2382 16.9718 28.3842 16.9365 28.4822C16.8767 28.6483 16.8516 28.827 16.8058 29.0271C16.8741 29.0271 16.9735 29.0322 17.0723 29.0263C17.7965 28.9834 18.5204 28.9354 19.2448 28.8971C19.3517 28.8915 19.4609 28.9291 19.569 28.9467Z" fill="#F47B32"/>
<path d="M16.4586 25.4257C16.2474 25.4386 16.0362 25.4514 15.7965 25.466C15.9178 25.7171 16.0101 25.9723 15.6569 26.0949C15.3548 26.1998 15.1981 26.067 15.0365 25.5884C14.786 25.8239 14.4755 26.0216 14.3105 26.3043C14.2012 26.4915 14.1663 26.6635 13.916 26.6618C13.8846 26.6616 13.8256 26.6832 13.8257 26.6945C13.8282 27.164 13.1155 27.1681 13.1785 27.7011C13.1922 27.8172 12.9792 27.9526 12.8889 28.091C12.8283 28.1838 12.7355 28.3335 12.7698 28.3948C12.8514 28.5409 12.8601 28.7462 13.1348 28.7697C13.7415 28.8218 14.3428 28.9376 14.9538 29.0512C12.9869 28.9406 11.095 28.5392 9.44456 27.3625C9.2987 27.2585 9.16325 27.1399 9.0005 26.9959C8.96355 26.9453 8.94488 26.9334 8.92201 26.9281C8.89992 26.925 8.88199 26.9146 8.85571 26.8656C8.82406 26.8206 8.80494 26.8071 8.78581 26.7935C8.78581 26.7935 8.78999 26.7915 8.78216 26.7775C8.75536 26.7511 8.73639 26.7387 8.71742 26.7263C8.71742 26.7263 8.72199 26.7237 8.71418 26.7099C8.68746 26.6836 8.66856 26.6711 8.64966 26.6586C8.64966 26.6586 8.65414 26.6557 8.6463 26.6419C8.61959 26.6157 8.60072 26.6033 8.58185 26.5908C8.58185 26.5908 8.58636 26.5879 8.57849 26.5741C8.55178 26.548 8.53293 26.5355 8.51409 26.5231C8.51409 26.5231 8.51852 26.5199 8.51065 26.5062C8.48403 26.48 8.46529 26.4676 8.44654 26.4551L8.4444 26.4586C8.4696 26.3699 8.49614 26.2806 8.52767 26.1744C9.02324 26.5594 9.1119 26.5125 9.24533 25.8446C8.73692 25.6118 8.69879 25.5435 8.89811 25.1953C8.95634 25.2863 8.98803 25.3567 9.04122 25.4373C9.13373 25.4367 9.20815 25.4066 9.27521 25.4183C10.0166 25.5484 10.6591 25.1912 11.2678 24.9009C11.8105 24.6422 12.24 24.1454 12.717 23.7507C12.834 23.6539 12.9412 23.5453 13.0493 23.4454C13.3886 23.7535 13.6969 24.0501 14.0229 24.3257C14.5265 24.7514 15.0498 25.1401 15.738 25.2289C15.9826 25.2605 16.2186 25.3582 16.4586 25.4257Z" fill="#F47B32"/>
<path d="M8.92286 17.9052C8.87864 18.0044 8.79909 18.1027 8.79622 18.2031C8.78266 18.6761 8.78513 19.1499 8.79243 19.6232C8.79557 19.8263 8.73957 19.9417 8.51076 19.9457C8.2991 19.9495 8.21032 20.091 8.10782 20.2777C7.94988 20.5655 7.64509 20.7587 7.41594 20.9894C7.24596 21.1606 7.04427 21.281 6.99711 21.5286C6.77293 21.5767 6.56913 21.6205 6.34018 21.6697C6.42855 21.8342 6.49945 21.9662 6.6143 22.1801C6.4299 22.1233 6.34349 22.0967 6.22898 22.0614C6.26439 22.3019 6.29684 22.5223 6.31385 22.7618C5.99786 21.5417 5.69691 20.3026 5.39755 19.0632C5.37394 18.9654 5.36142 18.865 5.362 18.7174C5.35856 18.2248 5.33686 17.7806 5.31403 17.3134C5.54663 17.4869 5.67297 17.404 5.82512 17.1641C5.98028 16.9195 6.23531 16.7367 6.45274 16.5334C6.73521 16.2693 7.0366 16.0242 7.30654 15.7481C7.68002 15.3662 8.02749 14.9589 8.39453 14.5705C8.60943 14.3431 8.7685 14.1167 8.73063 13.77C8.69283 13.4239 8.70463 13.0691 8.73155 12.721C8.74162 12.5907 8.68219 12.3442 8.74994 12.25C8.75049 14.1148 8.92341 16.0721 8.92286 17.9052Z" fill="#F47B32"/>
<path d="M8.92231 12.3426C8.85567 12.4685 8.74162 12.5907 8.73155 12.721C8.70463 13.0691 8.69283 13.4239 8.73063 13.77C8.7685 14.1167 8.60943 14.3431 8.39453 14.5705C8.02749 14.9589 7.68002 15.3662 7.30654 15.7481C7.0366 16.0242 6.73521 16.2693 6.45274 16.5334C6.23531 16.7367 5.98028 16.9195 5.82512 17.1641C5.67297 17.404 5.54663 17.4869 5.31403 17.3134C5.33686 17.7806 5.35856 18.2248 5.36414 18.6899C5.20841 17.2625 5.0688 15.8142 4.93349 14.3345C4.96458 14.0605 4.99137 13.8179 5.02077 13.5516C5.26321 13.6527 5.25616 13.4733 5.34816 13.3056C5.49046 13.0462 5.59172 12.7363 5.90655 12.5793C6.06493 12.5004 6.16746 12.3094 6.29525 12.1691C6.27653 12.1487 6.25781 12.1284 6.23909 12.1081C6.28106 12.0964 6.32238 12.0783 6.36511 12.0739C6.94687 12.0148 7.0926 11.9092 7.22032 11.3505C7.27763 11.0998 7.37539 10.9571 7.64063 10.9128C8.06264 10.8422 8.24652 10.5512 8.34781 10.1504C8.38363 10.0086 8.59473 9.81866 8.72655 9.81807C8.87852 9.8174 9.12798 9.92194 9.05803 10.2518C9.02785 10.3487 9.00493 10.3976 8.96424 10.4679C8.93841 11.107 8.93036 11.7248 8.92231 12.3426Z" fill="#F47B32"/>
<path d="M19.5981 28.9504C19.4609 28.9291 19.3517 28.8915 19.2448 28.8971C18.5204 28.9354 17.7965 28.9834 17.0723 29.0263C16.9735 29.0322 16.8741 29.0271 16.8058 29.0271C16.8516 28.827 16.8767 28.6483 16.9365 28.4822C16.9718 28.3842 17.059 28.2382 17.1284 28.2351C17.2264 28.2307 17.3333 28.3328 17.4293 28.3997C17.5259 28.4671 17.6136 28.5471 17.7053 28.6216C17.7846 28.5173 17.9148 28.4214 17.9334 28.3073C17.9856 27.9875 17.9793 27.6585 18.0237 27.337C18.037 27.2403 18.1478 27.078 18.2017 27.0829C18.3055 27.0921 18.4345 27.1783 18.4911 27.2706C18.5721 27.4026 18.6007 27.6133 18.8024 27.5223C18.9097 27.4739 18.982 27.3012 19.0247 27.1699C19.0612 27.0575 19.0059 26.9154 19.0415 26.8023C19.0755 26.6941 19.1566 26.5485 19.2481 26.5204C19.5226 26.436 19.5702 26.2461 19.5778 26.0051C19.5854 25.768 19.4749 25.6496 19.2451 25.6234C19.2207 25.6206 19.2008 25.5781 19.206 25.5289C20.0939 25.5044 20.9547 25.505 21.8217 25.5321C22.1953 25.5717 22.5626 25.5857 22.9301 25.594C22.9418 25.5942 22.9548 25.5363 22.9944 25.5045C23.0943 25.504 23.167 25.5047 23.2397 25.5054C23.5056 25.8818 23.9225 25.7453 24.2981 25.8371C24.3909 26.1074 24.2953 26.25 23.9965 26.3932C23.732 26.5199 23.528 26.7907 23.3244 27.0218C23.0853 27.2929 22.904 27.6209 22.6416 27.8634C22.4941 27.9997 22.2351 28.0197 22.0227 28.0793C21.9204 28.108 21.8098 28.1068 21.7029 28.1192C21.767 28.2137 21.8122 28.3611 21.8989 28.392C22.0931 28.4613 22.3081 28.4726 22.5345 28.5243C21.5787 28.6787 20.603 28.8164 19.5981 28.9504Z" fill="#F47B32"/>
<path d="M29.682 20.7532C29.6825 20.4353 29.6831 20.1174 29.6837 19.7381C29.7286 19.321 29.8122 18.965 29.8111 18.6093C29.8077 17.4934 29.7756 16.3775 29.7451 15.2618C29.7415 15.129 29.6795 14.9977 29.6274 14.801C29.2841 15.2417 28.9946 15.6195 28.6966 15.9904C28.6437 16.0562 28.5525 16.0899 28.4839 16.1446C28.1225 16.4328 27.7165 16.6841 27.5966 17.2056C27.2482 17.1919 27.0817 17.3924 27.0794 17.7877C26.8655 17.756 26.6815 17.7288 26.4965 17.6697C26.4956 17.0082 26.4956 16.3785 26.4956 15.7488C26.4324 15.8606 26.4323 15.9718 26.4324 16.0829C26.4327 18.1029 26.4337 20.1228 26.432 22.1428C26.4319 22.2648 26.4112 22.3868 26.3907 22.4789C26.3794 20.3822 26.3781 18.3152 26.3746 16.2483C26.3742 16.0343 26.361 15.8204 26.337 15.5838C26.2092 15.5512 26.098 15.5328 25.9867 15.5323C25.071 15.5288 24.1553 15.5286 23.2339 15.5022C23.0592 15.3601 22.8973 15.3091 22.7359 15.5279C22.6138 15.5282 22.5198 15.5275 22.4257 15.5003C22.4441 15.3997 22.4395 15.3044 22.4849 15.2551C22.729 14.9905 22.9993 14.7492 23.2344 14.4772C23.5229 14.1434 23.9648 13.932 24.0704 13.4468C24.0783 13.4105 24.1495 13.3721 24.1967 13.3628C24.4937 13.3049 24.5862 13.1144 24.6079 12.8307C24.6156 12.7303 24.7528 12.6351 24.8402 12.5468C24.9332 12.4527 25.1201 12.3701 25.1206 12.2816C25.1221 12.0336 25.2667 11.9942 25.4462 11.9342C25.6658 11.8609 25.8751 11.7569 26.1137 11.6653C26.2119 11.6413 26.2853 11.6181 26.3576 11.5951C26.3576 11.5951 26.3553 11.5933 26.3726 11.5843C26.4049 11.5545 26.42 11.5337 26.4552 11.4957C26.483 11.2013 26.4906 10.9241 26.5218 10.6426C26.6484 10.5142 26.7295 10.3268 26.8599 10.2813C27.0491 10.2153 27.1662 10.1418 27.2282 9.94744C27.2546 9.86454 27.3642 9.81019 27.43 9.73735C27.5293 9.62727 27.6231 9.51217 27.7196 9.39957C27.7752 9.33473 27.8296 9.21724 27.888 9.215C28.2111 9.20261 28.3169 8.94778 28.467 8.73862C29.0005 9.68202 29.2733 10.715 29.4757 11.7663C29.7102 12.9846 29.8408 14.2146 29.8279 15.4594C29.812 16.9905 29.8407 18.5224 29.8066 20.053C29.7919 20.7138 29.6684 21.3722 29.5757 22.0549C29.5554 22.0609 29.5536 22.0437 29.5495 21.9837C29.5472 21.9295 29.5471 21.9181 29.547 21.9068C29.5699 21.6095 29.5927 21.3123 29.6335 20.9722C29.6617 20.8706 29.6718 20.8119 29.682 20.7532Z" fill="#F47B32"/>
<path d="M8.87544 5.22725C9.77073 5.00795 10.6576 4.73944 11.5638 4.58366C12.4129 4.4377 13.2826 4.41172 14.143 4.3312C14.2651 4.31978 14.3863 4.2985 14.5488 4.29928C14.6235 4.32403 14.6574 4.33129 14.677 4.35763C14.5583 4.38951 14.4542 4.40639 14.3493 4.41425C14.1568 4.42869 13.9639 4.43782 13.7505 4.45038C13.9047 4.86788 13.8726 4.90612 13.5195 5.02753C13.4172 5.06274 13.3501 5.20309 13.2689 5.29697C13.1164 5.47327 12.9653 5.65085 12.8136 5.82787C12.7161 5.94163 12.5677 6.04212 12.5338 6.17241C12.4904 6.33914 12.4447 6.41098 12.2667 6.45221C12.1344 6.48283 12.0197 6.61734 11.9134 6.72201C11.845 6.78931 11.8183 6.89831 11.7514 6.9678C11.5873 7.13801 11.4104 7.29578 11.2393 7.45923C10.9929 7.6947 11.0065 7.94088 11.2492 8.034C10.4486 8.24688 9.87315 8.72022 9.42495 9.35369C9.39326 9.1254 9.269 9.15986 9.16521 9.24276C9.07258 9.31675 9.00881 9.42686 8.9323 9.52102C9.05007 9.56348 9.16783 9.60594 9.28052 9.67272C9.20678 9.88543 9.13812 10.0738 9.06739 10.233C9.12798 9.92193 8.87852 9.8174 8.72655 9.81807C8.59473 9.81866 8.38363 10.0086 8.34781 10.1504C8.24652 10.5512 8.06264 10.8422 7.64063 10.9128C7.37539 10.9571 7.27763 11.0998 7.22032 11.3505C7.0926 11.9092 6.94687 12.0148 6.36511 12.0739C6.32238 12.0783 6.28106 12.0964 6.23909 12.1081C6.25781 12.1284 6.27653 12.1487 6.29525 12.1691C6.16746 12.3094 6.06493 12.5004 5.90655 12.5793C5.59172 12.7363 5.49046 13.0462 5.34816 13.3056C5.25616 13.4733 5.26321 13.6527 5.02077 13.5516C4.99137 13.8179 4.96458 14.0605 4.93779 14.3032C4.86861 12.3936 4.90856 10.4909 5.60366 8.67897C5.84298 8.05511 6.21919 7.48376 6.5609 6.85519C6.71393 6.64937 6.83894 6.4768 6.96395 6.30422C7.12628 6.17312 7.28862 6.04202 7.49363 5.89531C7.93315 5.68346 8.33001 5.48723 8.72686 5.29099C8.72686 5.29099 8.72257 5.28784 8.745 5.28971C8.80344 5.27015 8.83944 5.2487 8.87544 5.22725Z" fill="#F47B32"/>
<path d="M22.4345 4.74043C22.7752 4.80741 23.116 4.87439 23.4655 4.96564C23.2204 4.96687 22.9807 4.95695 22.8267 5.23273C22.7964 5.28696 22.6292 5.24925 22.5452 5.2927C22.4289 5.3529 22.2586 5.43666 22.2411 5.53369C22.2044 5.73762 22.0648 5.7526 21.9418 5.85277C21.6576 6.08426 21.384 6.35266 21.1555 6.64105C21.0649 6.7553 21.0594 6.88962 20.8662 6.93241C20.7577 6.95643 20.6617 7.12479 20.6012 7.24826C20.5571 7.33828 20.5802 7.46121 20.5737 7.56248C20.3622 7.61785 20.0902 7.53385 20.1214 7.88715C20.1242 7.91923 20.1254 7.93207 20.1248 7.94032C20.1231 7.93572 20.1327 7.93374 20.111 7.94832C20.0757 8.06603 20.0621 8.16916 20.0222 8.27834C19.9484 8.50404 19.901 8.7237 19.8535 8.94336C19.8206 8.9428 19.7877 8.94224 19.7547 8.94168C19.7276 8.77073 19.7005 8.59977 19.6764 8.44782C19.2238 8.60449 19.0226 8.9227 18.9811 9.34933C18.9647 9.51738 18.9932 9.69267 18.9574 9.85495C18.9331 9.96508 18.8513 10.1085 18.7597 10.1434C18.6847 10.1719 18.5187 10.0898 18.4595 10.0085C18.2136 9.67064 18.1836 9.67785 17.9662 10.0393C17.8924 10.1619 17.7174 10.2484 17.5714 10.2887C17.5231 10.302 17.4225 10.1169 17.3419 10.0259C17.3013 9.98007 17.2519 9.94202 17.2051 9.8776C17.2047 9.82427 17.2057 9.79379 17.2327 9.75717C17.3619 9.47654 17.4468 9.20325 17.2052 8.91954C17.2032 8.65288 17.2155 8.41679 17.1954 8.18347C17.1881 8.09831 17.104 8.01976 17.0596 7.93676C17.0644 7.93533 17.0663 7.94506 17.0489 7.9217C16.2293 7.88562 15.427 7.8729 14.6278 7.83519C14.7861 7.43799 15.1532 7.57924 15.4056 7.55015C15.7131 7.51471 15.7291 7.36039 15.8277 7.14803C15.9024 6.98684 16.148 6.90505 16.3167 6.78667C16.3225 6.78263 16.3151 6.76307 16.32 6.75404C16.5062 6.40811 16.9202 6.26858 17.0911 5.90661C17.0984 5.89117 17.168 5.91214 17.1866 5.89382C17.2639 5.81814 17.3655 5.74447 17.396 5.64999C17.4324 5.53735 17.4098 5.40396 17.4044 5.27993C17.394 5.04127 17.477 4.91659 17.7385 4.86883C18.0037 4.8204 18.1867 4.63069 18.2449 4.33769C18.3211 4.33762 18.372 4.33779 18.4233 4.36488C18.4454 4.4787 18.4506 4.57475 18.4928 4.65008C18.5407 4.73547 18.6098 4.83552 18.6926 4.8649C18.743 4.88282 18.8341 4.7753 18.9112 4.73168C19.0606 4.64721 19.2555 4.46499 19.3559 4.50646C19.6339 4.62135 19.8653 4.45008 20.1184 4.47006C20.2993 4.48434 20.4826 4.46824 20.6648 4.4657C20.695 4.46756 20.7251 4.46943 20.7943 4.49526C21.1405 4.54815 21.4476 4.57708 21.7546 4.606C21.7546 4.606 21.7851 4.6059 21.8043 4.63291C22.0037 4.86505 22.2185 4.80692 22.4345 4.74043Z" fill="#F47B32"/>
<path d="M26.435 11.5129C26.42 11.5337 26.4049 11.5545 26.3811 11.5537C26.3676 10.9423 26.3629 10.3526 26.3386 9.74243C26.1961 9.7134 26.0731 9.69755 25.9501 9.69731C24.7406 9.69502 23.5311 9.69253 22.3216 9.69769C22.1227 9.69854 21.9794 9.67508 22.0525 9.42582C22.2962 9.44595 22.4463 9.38234 22.5937 9.19232C22.7914 8.93742 22.8298 8.45754 23.307 8.59858C23.3765 8.40219 23.3935 8.15111 23.4929 8.11247C23.7618 8.00803 23.819 7.76047 23.9811 7.59008C24.3535 7.1987 24.7819 6.86087 25.184 6.49746C25.3437 6.35321 25.488 6.1916 25.6519 6.05266C25.7135 6.00037 25.8106 5.98988 25.8916 5.96033C25.8916 5.96033 25.8867 5.96371 25.8938 5.97751C25.9206 6.00367 25.9404 6.01603 25.9602 6.02839C25.9602 6.02839 25.9544 6.02887 25.9652 6.04546C26.0157 6.07325 26.0554 6.08446 26.0951 6.09567C26.0951 6.09567 26.0885 6.09596 26.0926 6.11897C26.1644 6.17145 26.2322 6.20093 26.3 6.23041C26.3 6.23041 26.2957 6.23434 26.3045 6.25C26.338 6.2764 26.3628 6.28713 26.3876 6.29787C27.3115 6.89357 27.9518 7.73386 28.4601 8.71619C28.3169 8.94778 28.2111 9.20261 27.888 9.215C27.8296 9.21724 27.7752 9.33473 27.7196 9.39957C27.6231 9.51217 27.5293 9.62727 27.43 9.73735C27.3642 9.81019 27.2546 9.86454 27.2282 9.94744C27.1662 10.1418 27.0491 10.2153 26.8599 10.2813C26.7295 10.3268 26.6484 10.5142 26.5208 10.6112C26.4963 10.3364 26.4963 10.0886 26.4963 9.84081C26.4759 9.84102 26.4555 9.84124 26.435 9.84145C26.435 10.3986 26.435 10.9557 26.435 11.5129Z" fill="#F47B32"/>
<path d="M25.8784 5.94076C25.8106 5.98988 25.7135 6.00037 25.6519 6.05266C25.488 6.1916 25.3437 6.35321 25.184 6.49746C24.7819 6.86087 24.3535 7.1987 23.9811 7.59008C23.819 7.76047 23.7618 8.00803 23.4929 8.11247C23.3935 8.15111 23.3765 8.40219 23.307 8.59858C22.8298 8.45754 22.7914 8.93742 22.5937 9.19232C22.4463 9.38234 22.2962 9.44595 22.0504 9.39397C22.0201 9.08013 22.0296 8.79735 22.0156 8.51574C22.006 8.32228 21.9636 8.13046 21.9213 7.93881C21.9067 7.93973 21.8799 7.92779 21.8601 7.90794C21.2668 7.88136 20.6933 7.87463 20.1199 7.8679C20.0902 7.53385 20.3622 7.61785 20.5737 7.56248C20.5802 7.46121 20.5571 7.33828 20.6012 7.24826C20.6617 7.12479 20.7577 6.95643 20.8662 6.93241C21.0594 6.88962 21.0649 6.7553 21.1555 6.64105C21.384 6.35266 21.6576 6.08426 21.9418 5.85277C22.0648 5.7526 22.2044 5.73762 22.2411 5.53369C22.2586 5.43666 22.4289 5.3529 22.5452 5.2927C22.6292 5.24925 22.7964 5.28696 22.8267 5.23273C22.9807 4.95695 23.2204 4.96687 23.491 4.97263C24.2936 5.2773 25.0794 5.59925 25.8784 5.94076Z" fill="#F47B32"/>
<path d="M11.3004 8.00414C11.3004 8.00414 11.2893 8.02058 11.2795 8.01922C11.0065 7.94088 10.9929 7.6947 11.2393 7.45923C11.4104 7.29578 11.5873 7.13801 11.7514 6.9678C11.8183 6.89831 11.845 6.78931 11.9134 6.72201C12.0197 6.61734 12.1344 6.48283 12.2667 6.45221C12.4447 6.41098 12.4904 6.33914 12.5338 6.17241C12.5677 6.04212 12.7161 5.94163 12.8136 5.82787C12.9653 5.65085 13.1164 5.47327 13.2689 5.29697C13.3501 5.20309 13.4172 5.06274 13.5195 5.02753C13.8726 4.90612 13.9047 4.86788 13.7505 4.45038C13.9639 4.43782 14.1568 4.42869 14.3493 4.41425C14.4542 4.40639 14.5583 4.38951 14.677 4.35763C15.3714 4.33834 16.0516 4.33813 16.7695 4.36492C17.1524 4.43471 17.4969 4.48597 17.8432 4.5113C17.8962 4.51517 17.9579 4.39913 18.0155 4.33855C18.0665 4.33812 18.1175 4.33769 18.194 4.3376C18.1867 4.63069 18.0037 4.8204 17.7385 4.86883C17.477 4.91659 17.394 5.04127 17.4044 5.27993C17.4098 5.40396 17.4324 5.53735 17.396 5.64999C17.3655 5.74447 17.2639 5.81814 17.1866 5.89382C17.168 5.91214 17.0984 5.89117 17.0911 5.90661C16.9202 6.26858 16.5062 6.40811 16.32 6.75404C16.3151 6.76307 16.3225 6.78263 16.3167 6.78667C16.148 6.90505 15.9024 6.98684 15.8277 7.14803C15.7291 7.36039 15.7131 7.51471 15.4056 7.55015C15.1532 7.57924 14.7861 7.43799 14.5959 7.8367C13.5419 7.86374 12.5227 7.86428 11.4793 7.86513C11.4035 7.91168 11.352 7.95791 11.3004 8.00414Z" fill="#F47B32"/>
<path d="M26.4975 17.7015C26.6815 17.7288 26.8655 17.756 27.0794 17.7877C27.0817 17.3924 27.2482 17.1919 27.5966 17.2056C27.7165 16.6841 28.1225 16.4328 28.4839 16.1446C28.5525 16.0899 28.6437 16.0562 28.6966 15.9904C28.9946 15.6195 29.2841 15.2417 29.6274 14.801C29.6795 14.9977 29.7415 15.129 29.7451 15.2618C29.7756 16.3775 29.8077 17.4934 29.8111 18.6093C29.8122 18.965 29.7286 19.321 29.6836 19.7065C29.6018 19.7545 29.5201 19.7727 29.4062 19.7981C29.5201 20.0374 29.663 20.2622 29.2753 20.4303C29.2397 20.2935 29.2129 20.1766 29.178 20.0622C29.1607 20.0054 29.1348 19.9482 29.0984 19.9026C29.0898 19.8918 29.0119 19.9157 28.9856 19.9427C28.6855 20.2512 28.3772 20.5532 28.0985 20.8803C28.0003 20.9955 27.9427 21.1712 27.9268 21.3254C27.8893 21.6913 27.7765 21.8306 27.4039 21.8344C27.2231 21.8363 27.1088 21.8611 27.0784 22.0705C27.0659 22.1565 26.9568 22.2242 26.9128 22.3109C26.8493 22.436 26.7793 22.567 26.7595 22.7025C26.7372 22.8544 26.7161 22.9498 26.5164 22.8397C26.4949 22.7537 26.4945 22.7023 26.494 22.6193C26.4951 20.959 26.4963 19.3303 26.4975 17.7015Z" fill="#F47B32"/>
<path d="M10.9763 10.3776C11.1605 10.2022 11.3447 10.0268 11.5734 9.86668C12.5089 9.88793 13.3998 9.89622 14.2907 9.89925C15.1733 9.90225 15.1733 9.89993 15.1391 10.7872C15.0522 11.245 14.6948 11.5132 14.4701 11.8461C14.34 11.647 14.2126 11.452 14.0839 11.2328C14.0366 11.1558 13.9905 11.1029 13.9249 11.0298C13.3387 11.0189 12.7722 11.0282 12.1777 11.0459C12.1161 11.1747 12.0544 11.2949 12.0534 11.4156C12.0446 12.516 12.0463 13.6165 12.045 14.7171C12.0005 14.7703 11.9217 14.8207 11.917 14.8773C11.8631 15.5215 11.828 16.1674 11.7686 16.8111C11.757 16.9368 11.6703 17.059 11.6053 17.1756C11.5013 17.3619 11.3864 17.5421 11.2412 17.7828C11.1639 17.6211 11.0882 17.4626 10.9868 17.2674C10.9576 14.9871 10.954 12.7436 10.9505 10.5001C10.9505 10.5001 10.9405 10.5062 10.9569 10.5003C10.9743 10.4555 10.9753 10.4166 10.9763 10.3776Z" fill="#F47B32"/>
<path d="M14.2141 21.5681C14.2141 21.5681 14.2027 21.5473 14.2078 21.5083C14.2207 21.3446 14.1982 21.2267 14.4148 21.2719C14.5281 21.2955 14.7606 21.2074 14.7826 21.1268C14.8645 20.828 15.0773 20.8306 15.3228 20.8419C15.879 20.8711 16.4156 20.8844 16.9521 20.8817C17.0102 20.8814 17.0678 20.7884 17.1256 20.7384C17.1256 20.7384 17.1318 20.748 17.1497 20.733C17.1787 20.5966 17.199 20.4752 17.1993 20.3537C17.2032 19.1079 17.2039 17.8622 17.2304 16.6212C17.3053 16.9144 17.3469 17.2047 17.4094 17.4904C17.435 17.6073 17.5099 17.8127 17.5552 17.8107C18.0092 17.7913 17.9498 18.0972 17.9494 18.3785C17.9491 18.6006 17.9136 18.846 18.2168 18.9543C18.2174 20.7739 18.2168 22.5617 18.2163 24.3495C18.151 24.2692 18.047 24.1973 18.027 24.107C17.9484 23.7509 17.8901 23.3898 17.8379 23.0286C17.8229 22.925 17.8536 22.8148 17.8614 22.7286C17.4417 22.9792 17.021 23.2304 16.5956 23.5052C15.8869 23.416 15.2812 23.1155 14.8016 22.5809C14.7288 22.4998 14.678 22.399 14.6282 22.2605C14.6501 22.0776 14.7205 21.8911 14.6579 21.8168C14.5556 21.6954 14.3666 21.6472 14.2141 21.5681Z" fill="#F47B32"/>
<path d="M26.0889 11.6661C25.8751 11.7569 25.6658 11.8609 25.4462 11.9342C25.2667 11.9942 25.1221 12.0336 25.1206 12.2816C25.1201 12.3701 24.9332 12.4527 24.8402 12.5468C24.7528 12.6351 24.6156 12.7303 24.6079 12.8307C24.5862 13.1144 24.4937 13.3049 24.1967 13.3628C24.1495 13.3721 24.0783 13.4105 24.0704 13.4468C23.9648 13.932 23.5229 14.1434 23.2344 14.4772C22.9993 14.7492 22.729 14.9905 22.4849 15.2551C22.4395 15.3044 22.4441 15.3997 22.3973 15.5018C22.2744 15.5314 22.1798 15.5331 22.0651 15.5142C22.0377 14.2547 22.0298 13.016 22.0256 11.7772C22.0255 11.7389 22.0645 11.7005 22.1171 11.6629C23.4622 11.6645 24.7756 11.6653 26.0889 11.6661Z" fill="#F47B32"/>
<path d="M17.2064 9.90045C17.2519 9.94202 17.3013 9.98007 17.3419 10.0259C17.4225 10.1169 17.5231 10.302 17.5714 10.2887C17.7174 10.2484 17.8924 10.1619 17.9662 10.0393C18.1836 9.67785 18.2136 9.67064 18.4595 10.0085C18.5187 10.0898 18.6847 10.1719 18.7597 10.1434C18.8513 10.1085 18.9331 9.96508 18.9574 9.85495C18.9932 9.69267 18.9647 9.51738 18.9811 9.34933C19.0226 8.9227 19.2238 8.60449 19.6764 8.44782C19.7005 8.59977 19.7276 8.77073 19.7547 8.94168C19.7877 8.94224 19.8206 8.9428 19.8535 8.94336C19.901 8.7237 19.9484 8.50404 20.023 8.31008C20.0496 9.58091 20.049 10.826 20.0247 12.0737C19.821 12.166 19.6059 12.2202 19.47 12.3545C19.2918 12.5305 19.1111 12.7529 19.051 12.9861C18.9854 13.2405 18.8957 13.38 18.6596 13.5103C18.3546 13.6786 18.0205 13.8917 17.8457 14.1758C17.5872 14.5962 17.6421 14.9198 17.2034 14.7725C17.2033 14.5584 17.1813 14.0892 17.2055 13.9016C17.3571 13.7849 17.3898 13.6891 17.2042 13.5998C17.2041 12.3455 17.2052 11.123 17.2064 9.90045Z" fill="#F47B32"/>
<path d="M20.0247 12.0737C20.0495 13.1166 20.0436 14.162 20.0566 15.2073C20.0597 15.4541 19.9946 15.5435 19.7365 15.5364C19.2891 15.5241 18.8407 15.5497 18.3747 15.5813C18.3449 15.6204 18.3311 15.6357 18.3028 15.6585C18.2667 15.7838 18.2229 15.8996 18.2222 16.0156C18.2164 16.9634 18.2187 17.9111 18.2171 18.8907C17.9136 18.846 17.9491 18.6006 17.9494 18.3785C17.9498 18.0972 18.0092 17.7913 17.5552 17.8107C17.5099 17.8127 17.435 17.6073 17.4094 17.4904C17.3469 17.2047 17.3053 16.9144 17.2304 16.6212C17.2043 15.9365 17.2032 15.2566 17.2033 14.5449C17.6422 14.63 17.5872 14.5962 17.8457 14.1758C18.0205 13.8917 18.3546 13.6786 18.6596 13.5103C18.8957 13.38 18.9854 13.2405 19.051 12.9861C19.1111 12.7529 19.2918 12.5305 19.47 12.3545C19.6059 12.2202 19.821 12.166 20.0247 12.0737Z" fill="#F47B32"/>
<path d="M15.2728 20.7483C15.299 20.7565 15.3035 20.7888 15.3034 20.8052C15.0773 20.8306 14.8645 20.828 14.7826 21.1268C14.7606 21.2074 14.5281 21.2955 14.4148 21.2719C14.1982 21.2267 14.2207 21.3446 14.2105 21.4968C14.1446 21.3514 14.0811 21.1787 14.0393 20.9587C14.0688 19.8417 14.0767 18.7718 14.1089 17.7062C14.3041 17.7297 14.5216 17.8245 14.6366 17.7534C14.9319 17.5711 15.1089 17.2987 15.0401 16.9007C14.9931 16.629 15.0205 16.3418 15.0373 16.0629C15.0427 15.9738 15.1206 15.889 15.1653 15.8023C15.166 17.3351 15.1651 18.868 15.1709 20.4009C15.1713 20.5141 15.2202 20.6271 15.2728 20.7483Z" fill="#F47B32"/>
<path d="M14.1089 17.7062C14.0839 17.6072 14.0832 17.5125 14.1076 17.3852C14.2867 17.1391 14.4075 16.9281 14.0849 16.7523C14.0842 14.9417 14.0835 13.1311 14.084 11.2887C14.2126 11.452 14.34 11.647 14.4701 11.8461C14.6948 11.5132 15.0522 11.245 15.1391 10.7872C15.1648 12.4342 15.1657 14.0864 15.166 15.7704C15.1206 15.889 15.0427 15.9738 15.0373 16.0629C15.0205 16.3418 14.9931 16.629 15.0401 16.9007C15.1089 17.2987 14.9319 17.5711 14.6366 17.7534C14.5216 17.8245 14.3041 17.7297 14.1089 17.7062Z" fill="#F47B32"/>
<path d="M24.4592 22.8236C24.4406 22.869 24.4227 22.8826 24.398 22.9121C24.3696 22.9791 24.3481 23.0302 24.3228 23.1019C24.2545 23.176 24.19 23.2296 24.1214 23.3055C24.0809 23.3407 24.0444 23.3536 23.9964 23.3826C23.964 23.4059 23.9463 23.4178 23.9221 23.4472C22.7847 23.4627 21.6569 23.4619 20.5292 23.4708C20.3305 23.4724 20.2491 23.4168 20.2499 23.2038C20.2564 21.4106 20.2576 19.6173 20.2492 17.824C20.248 17.5702 20.379 17.562 20.5676 17.5625C21.8421 17.5662 23.1166 17.5642 24.422 17.5635C24.4554 19.3059 24.4577 21.0489 24.4592 22.8236Z" fill="#F47B32"/>
<path d="M8.58715 26.6077C8.60072 26.6033 8.61959 26.6157 8.64495 26.6442C8.63177 26.6484 8.61211 26.6365 8.58715 26.6077Z" fill="#F47B32"/>
<path d="M8.45178 26.472C8.46529 26.4676 8.48403 26.48 8.50916 26.5085C8.49603 26.5127 8.47653 26.5008 8.45178 26.472Z" fill="#F47B32"/>
<path d="M8.51914 26.5402C8.53293 26.5355 8.55178 26.548 8.57708 26.5764C8.56375 26.5807 8.54397 26.569 8.51914 26.5402Z" fill="#F47B32"/>
<path d="M8.65504 26.6755C8.66856 26.6711 8.68746 26.6836 8.71286 26.7122C8.69971 26.7163 8.68007 26.7044 8.65504 26.6755Z" fill="#F47B32"/>
<path d="M8.72312 26.743C8.73639 26.7387 8.75536 26.7511 8.78106 26.7795C8.76813 26.7836 8.74847 26.7717 8.72312 26.743Z" fill="#F47B32"/>
<path d="M8.79234 26.81C8.80494 26.8071 8.82406 26.8206 8.8493 26.8512C8.83656 26.8543 8.81771 26.8404 8.79234 26.81Z" fill="#F47B32"/>
<path d="M8.9298 26.9432C8.94488 26.9334 8.96355 26.9453 8.98596 26.9786C8.97062 26.9889 8.95185 26.9771 8.9298 26.9432Z" fill="#F47B32"/>
<path d="M20.6458 4.44486C20.4826 4.46824 20.2993 4.48434 20.1184 4.47006C19.8653 4.45008 19.6339 4.62135 19.3559 4.50646C19.2555 4.46499 19.0606 4.64721 18.9112 4.73168C18.8341 4.7753 18.743 4.88282 18.6926 4.8649C18.6098 4.83552 18.5407 4.73547 18.4928 4.65008C18.4506 4.57475 18.4454 4.4787 18.4533 4.36448C18.6227 4.33609 18.7627 4.33502 18.9027 4.33395C19.4774 4.36398 20.052 4.39401 20.6458 4.44486Z" fill="#F47B32"/>
<path d="M18.8828 4.31319C18.7627 4.33502 18.6227 4.33609 18.4528 4.33756C18.372 4.33779 18.3211 4.33762 18.2194 4.33736C18.1175 4.33769 18.0665 4.33812 17.9838 4.33819C17.5665 4.33816 17.1809 4.33847 16.7635 4.33836C16.0516 4.33813 15.3714 4.33834 14.6913 4.33855C14.6574 4.33129 14.6235 4.32403 14.5772 4.30468C15.9975 4.29254 17.4302 4.29248 18.8828 4.31319Z" fill="#F47B32"/>
<path d="M21.7361 4.58539C21.4476 4.57708 21.1405 4.54815 20.8165 4.50003C21.1056 4.50882 21.4116 4.5368 21.7361 4.58539Z" fill="#F47B32"/>
<path d="M22.4181 4.71967C22.2185 4.80692 22.0037 4.86505 21.8193 4.63583C22.0105 4.64079 22.2061 4.66985 22.4181 4.71967Z" fill="#F47B32"/>
<path d="M29.4354 22.8466C29.4471 22.6423 29.4788 22.4206 29.5357 22.1871C29.5257 22.3933 29.4906 22.6112 29.4354 22.8466Z" fill="#F47B32"/>
<path d="M29.3036 23.4835C29.311 23.3195 29.3378 23.1353 29.3875 22.938C29.3813 23.1044 29.3521 23.2838 29.3036 23.4835Z" fill="#F47B32"/>
<path d="M26.2902 6.21113C26.2322 6.20093 26.1644 6.17145 26.0953 6.11711C26.1561 6.12544 26.2182 6.15865 26.2902 6.21113Z" fill="#F47B32"/>
<path d="M26.0848 6.07736C26.0554 6.08446 26.0157 6.07325 25.9665 6.04285C25.9961 6.03545 26.0352 6.04725 26.0848 6.07736Z" fill="#F47B32"/>
<path d="M25.956 6.01018C25.9404 6.01603 25.9206 6.00367 25.8943 5.97458C25.9091 5.96921 25.9304 5.9806 25.956 6.01018Z" fill="#F47B32"/>
<path d="M9.28465 9.64795C9.16783 9.60594 9.05007 9.56348 8.9323 9.52102C9.00881 9.42686 9.07258 9.31675 9.16521 9.24276C9.269 9.15986 9.39326 9.1254 9.42495 9.35369C9.4342 9.37798 9.43224 9.37619 9.4078 9.38C9.37166 9.42564 9.35996 9.46747 9.34826 9.5093C9.34826 9.5093 9.34496 9.50104 9.32753 9.50946C9.3012 9.56046 9.2923 9.60306 9.2834 9.64565L9.28465 9.64795Z" fill="#F47B32"/>
<path d="M26.3766 6.28081C26.3628 6.28713 26.338 6.2764 26.304 6.24714C26.3184 6.24033 26.342 6.25204 26.3766 6.28081Z" fill="#F47B32"/>
<path d="M18.3739 25.4531C19.8287 25.4294 21.3019 25.4315 22.7751 25.4219C23.2013 25.4191 23.6272 25.3827 24.0818 25.3609C23.8406 25.4078 23.5709 25.4555 23.2704 25.5043C23.167 25.5047 23.0943 25.504 22.9628 25.5034C22.5411 25.5041 22.1783 25.5049 21.8155 25.5056C20.9547 25.505 20.0939 25.5044 19.2014 25.5048C18.9106 25.4954 18.6514 25.4848 18.3739 25.4531Z" fill="#F47B32"/>
<path d="M26.1219 23.8016C26.1592 23.6631 26.2193 23.5201 26.2893 23.3552C26.4578 23.558 26.3002 23.6772 26.1219 23.8016Z" fill="#F47B32"/>
<path d="M29.6592 20.7511C29.6718 20.8119 29.6617 20.8706 29.6337 20.9433C29.5061 20.8905 29.3963 20.8238 29.2865 20.7571C29.3202 20.718 29.3538 20.6788 29.3875 20.6397C29.4705 20.6761 29.5534 20.7125 29.6592 20.7511Z" fill="#F47B32"/>
<path d="M26.494 22.6509C26.4945 22.7023 26.495 22.7537 26.4954 22.8308C26.4763 22.8718 26.4572 22.887 26.4304 22.919C26.4057 22.857 26.3887 22.7782 26.3977 22.674C26.4471 22.6494 26.4705 22.6501 26.494 22.6509Z" fill="#F47B32"/>
<path d="M26.3226 23.2586C26.3257 23.1958 26.3531 23.128 26.3999 23.0486C26.3952 23.1092 26.371 23.1814 26.3226 23.2586Z" fill="#F47B32"/>
<path d="M29.5359 21.9129C29.5471 21.9181 29.5472 21.9295 29.547 21.9578C29.5351 21.9635 29.5225 21.9529 29.513 21.9401C29.511 21.9374 29.5205 21.9262 29.5359 21.9129Z" fill="#F47B32"/>
<path d="M10.9279 10.5153C10.954 12.7436 10.9576 14.9871 10.962 17.2624C10.962 18.3282 10.9634 19.3621 10.9571 20.3961C10.9564 20.5101 10.9112 20.6239 10.8614 20.7474C10.8371 17.5605 10.8368 14.364 10.8419 11.1675C10.8422 10.9551 10.8833 10.7428 10.9279 10.5153Z" fill="#F47B32"/>
<path d="M12.0463 14.7487C12.0463 13.6165 12.0446 12.516 12.0534 11.4156C12.0544 11.2949 12.1161 11.1747 12.1918 11.0498C12.234 11.0452 12.2596 11.0602 12.2596 11.0602C12.23 11.1836 12.1749 11.3069 12.1747 11.4303C12.1696 14.378 12.1718 17.3257 12.1669 20.2734C12.1666 20.4966 12.1231 20.7198 12.0761 20.9563C12.0509 18.9066 12.0493 16.8435 12.0463 14.7487Z" fill="#F47B32"/>
<path d="M8.96424 10.4679C8.99464 10.954 9.0178 11.4614 9.01816 11.9688C9.02022 14.8744 9.01687 17.7799 9.01558 20.7168C8.986 20.6377 8.93142 20.5276 8.93036 20.4169C8.92258 19.6009 8.92547 18.7847 8.92393 17.9369C8.92341 16.0721 8.75049 14.1148 8.74994 12.25C8.75689 11.6005 8.93841 11.107 8.96424 10.4679Z" fill="#F47B32"/>
<path d="M9.07132 20.7974C9.63035 20.7699 10.1973 20.7677 10.7963 20.7638C10.7725 20.8042 10.7173 20.8818 10.661 20.8827C10.1591 20.8903 9.65706 20.8852 9.15509 20.8798C9.12962 20.8795 9.10454 20.8425 9.07132 20.7974Z" fill="#F47B32"/>
<path d="M8.99256 23.6249C9.01684 24.196 9.01599 24.7805 9.01743 25.3961C8.98803 25.3567 8.95634 25.2863 8.92358 25.1898C8.93748 24.6553 8.95246 24.1469 8.99256 23.6249Z" fill="#F47B32"/>
<path d="M18.2175 24.3811C18.2168 22.5617 18.2174 20.7739 18.2182 18.9225C18.2187 17.9111 18.2164 16.9634 18.2222 16.0156C18.2229 15.8996 18.2667 15.7838 18.2905 15.668C18.2929 18.7759 18.2952 21.8839 18.2978 24.9918C18.2979 25.1161 18.3007 25.2403 18.31 25.3944C18.2851 25.23 18.2437 25.0367 18.2226 24.8412C18.2074 24.6999 18.219 24.5557 18.2175 24.3811Z" fill="#F47B32"/>
<path d="M17.0837 25.4235C17.0758 25.0752 17.0996 24.724 17.1137 24.3724C17.1231 24.1388 17.1187 23.9046 17.1274 23.6403C17.1566 24.0597 17.1882 24.5092 17.1959 24.9592C17.1986 25.1124 17.1413 25.2667 17.0837 25.4235Z" fill="#F47B32"/>
<path d="M21.8217 25.5321C22.1783 25.5049 22.5411 25.5041 22.9356 25.5044C22.9548 25.5363 22.9418 25.5942 22.9301 25.594C22.5626 25.5857 22.1953 25.5717 21.8217 25.5321Z" fill="#F47B32"/>
<path d="M26.494 22.6193C26.4705 22.6501 26.4471 22.6494 26.4059 22.6491C26.3868 22.6178 26.3854 22.586 26.392 22.5314C26.4112 22.3868 26.4319 22.2648 26.432 22.1428C26.4337 20.1228 26.4327 18.1029 26.4324 16.0829C26.4323 15.9718 26.4324 15.8606 26.4956 15.7488C26.4956 16.3785 26.4956 17.0082 26.4965 17.6697C26.4963 19.3303 26.4951 20.959 26.494 22.6193Z" fill="#F47B32"/>
<path d="M26.1137 11.6653C24.7756 11.6653 23.4622 11.6645 22.1171 11.6488C22.0853 11.6338 22.0849 11.6055 22.0849 11.6055C23.4884 11.6019 24.8919 11.5983 26.327 11.5948C26.2853 11.6181 26.2119 11.6413 26.1137 11.6653Z" fill="#F47B32"/>
<path d="M22.0851 15.5348C22.1798 15.5331 22.2744 15.5314 22.3974 15.5282C22.5198 15.5275 22.6138 15.5282 22.7656 15.5293C22.9622 15.529 23.1008 15.5282 23.2395 15.5274C24.1553 15.5286 25.071 15.5288 25.9867 15.5323C26.098 15.5328 26.2092 15.5512 26.337 15.5838C24.9511 15.6072 23.5486 15.6079 22.1155 15.5869C22.085 15.5651 22.0851 15.5348 22.0851 15.5348Z" fill="#F47B32"/>
<path d="M26.4552 11.4957C26.435 10.9557 26.435 10.3986 26.435 9.84145C26.4555 9.84124 26.4759 9.84102 26.4963 9.84081C26.4963 10.0886 26.4963 10.3364 26.4973 10.6156C26.4906 10.9241 26.483 11.2013 26.4552 11.4957Z" fill="#F47B32"/>
<path d="M23.2339 15.5022C23.1008 15.5282 22.9622 15.529 22.7938 15.5283C22.8973 15.3091 23.0592 15.3601 23.2339 15.5022Z" fill="#F47B32"/>
<path d="M17.2055 13.9016C17.2044 14.0851 17.2033 14.2686 17.2022 14.5144C17.2032 15.2566 17.2043 15.9365 17.2055 16.6164C17.2039 17.8622 17.2032 19.1079 17.1993 20.3537C17.199 20.4752 17.1787 20.5966 17.1447 20.7356C17.1192 16.6194 17.1171 12.4856 17.1129 8.35188C17.1128 8.23128 17.09 8.11071 17.0663 7.96415C17.104 8.01976 17.1881 8.09831 17.1954 8.18347C17.2155 8.41679 17.2032 8.65288 17.2038 8.95064C17.2047 9.26337 17.2057 9.51334 17.2066 9.76331C17.2057 9.79379 17.2047 9.82427 17.2051 9.8776C17.2052 11.123 17.2041 12.3455 17.2029 13.6268C17.2038 13.7576 17.2046 13.8296 17.2055 13.9016Z" fill="#F47B32"/>
<path d="M20.0485 12.0712C20.049 10.826 20.0496 9.58091 20.0493 8.30403C20.0621 8.16916 20.0757 8.06603 20.111 7.94832C20.1285 10.3484 20.1244 12.763 20.1203 15.1777C20.12 15.311 20.1202 15.4444 20.1202 15.6094C19.5395 15.6094 18.9797 15.6094 18.4063 15.5844C18.8407 15.5497 19.2891 15.5241 19.7365 15.5364C19.9946 15.5435 20.0597 15.4541 20.0566 15.2073C20.0436 14.162 20.0495 13.1166 20.0485 12.0712Z" fill="#F47B32"/>
<path d="M11.5036 7.86482C12.5227 7.86428 13.5419 7.86374 14.5929 7.86169C15.427 7.8729 16.2293 7.88562 17.0489 7.9217C15.3907 7.94391 13.7151 7.94169 12.0396 7.94338C11.883 7.94354 11.7264 7.96838 11.5379 7.95263C11.5051 7.90394 11.5044 7.88438 11.5036 7.86482Z" fill="#F47B32"/>
<path d="M21.8601 7.90794C21.3162 7.93154 20.7524 7.9353 20.1576 7.94198C20.1254 7.93207 20.1242 7.91923 20.1214 7.88715C20.6933 7.87463 21.2668 7.88136 21.8601 7.90794Z" fill="#F47B32"/>
<path d="M17.2327 9.75717C17.2057 9.51334 17.2047 9.26337 17.2052 8.9823C17.4468 9.20325 17.3619 9.47654 17.2327 9.75717Z" fill="#F47B32"/>
<path d="M26.3386 9.74243C24.9016 9.76285 23.4452 9.76285 21.9469 9.76285C21.9469 9.16617 21.9469 8.58294 21.9414 7.9688C21.9636 8.13046 22.006 8.32228 22.0156 8.51574C22.0296 8.79735 22.0201 9.08013 22.0227 9.39425C21.9794 9.67508 22.1227 9.69854 22.3216 9.69769C23.5311 9.69253 24.7406 9.69502 25.9501 9.69731C26.0731 9.69755 26.1961 9.7134 26.3386 9.74243Z" fill="#F47B32"/>
<path d="M17.9838 4.33819C17.9579 4.39913 17.8962 4.51517 17.8432 4.5113C17.4969 4.48597 17.1524 4.43471 16.8013 4.36535C17.1809 4.33847 17.5665 4.33816 17.9838 4.33819Z" fill="#F47B32"/>
<path d="M15.1639 10.782C15.1733 9.89993 15.1733 9.90225 14.2907 9.89925C13.3998 9.89622 12.5089 9.88793 11.5964 9.86424C11.7507 9.81951 11.9264 9.7704 12.1025 9.76914C13.1247 9.76184 14.147 9.76581 15.2062 9.78294C15.252 9.81783 15.2659 9.82976 15.2849 9.8357C15.2863 13.4555 15.2876 17.0752 15.293 20.7263C15.297 20.7576 15.299 20.7565 15.2728 20.7483C15.2202 20.6271 15.1713 20.5141 15.1709 20.4009C15.1651 18.868 15.166 17.3351 15.166 15.7704C15.1657 14.0864 15.1648 12.4342 15.1639 10.782Z" fill="#F47B32"/>
<path d="M17.0955 20.7476C17.0678 20.7884 17.0102 20.8814 16.9521 20.8817C16.4156 20.8844 15.879 20.8711 15.323 20.8256C15.3035 20.7888 15.299 20.7565 15.299 20.7565L15.2959 20.7583C15.885 20.7583 16.4752 20.7576 17.0955 20.7476Z" fill="#F47B32"/>
<path d="M11.4793 7.86513C11.5044 7.88438 11.5051 7.90394 11.5061 7.95287C11.4517 7.9903 11.397 7.99835 11.3213 8.00527C11.352 7.95791 11.4035 7.91168 11.4793 7.86513Z" fill="#F47B32"/>
<path d="M9.36519 9.49832C9.35996 9.46747 9.37166 9.42564 9.40654 9.38024C9.41386 9.41356 9.398 9.45045 9.36519 9.49832Z" fill="#F47B32"/>
<path d="M10.9662 10.3963C10.9753 10.4166 10.9743 10.4555 10.9538 10.4954C10.9415 10.4692 10.9488 10.4421 10.9662 10.3963Z" fill="#F47B32"/>
<path d="M9.30029 9.63345C9.2923 9.60306 9.3012 9.56046 9.33193 9.51007C9.34157 9.54193 9.32937 9.5816 9.30029 9.63345Z" fill="#F47B32"/>
<path d="M15.2889 9.81795C15.2659 9.82976 15.252 9.81783 15.2376 9.78701C15.2523 9.7828 15.2725 9.7915 15.2889 9.81795Z" fill="#F47B32"/>
<path d="M23.9262 23.4763C23.7997 23.5178 23.6734 23.5942 23.5465 23.5953C22.4189 23.6047 21.2912 23.6008 20.1413 23.6008C20.1413 21.5463 20.1413 19.5092 20.1413 17.4378C21.5964 17.4378 23.0488 17.4378 24.5045 17.4694C24.4895 17.5217 24.4713 17.5423 24.422 17.5635C23.1166 17.5642 21.8421 17.5662 20.5676 17.5625C20.379 17.562 20.248 17.5702 20.2492 17.824C20.2576 19.6173 20.2564 21.4106 20.2499 23.2038C20.2491 23.4168 20.3305 23.4724 20.5292 23.4708C21.6569 23.4619 22.7847 23.4627 23.9159 23.4642C23.9192 23.4683 23.9262 23.4763 23.9262 23.4763Z" fill="#F47B32"/>
<path d="M24.453 17.563C24.4713 17.5423 24.4895 17.5217 24.5257 17.49C24.5437 17.479 24.5435 17.4829 24.536 17.5168C24.5294 19.2535 24.5303 20.9562 24.5312 22.6589C24.5232 22.7186 24.5151 22.7783 24.4861 22.8496C24.4652 22.8612 24.4584 22.8553 24.4592 22.8236C24.4577 21.0489 24.4554 19.3059 24.453 17.563Z" fill="#F47B32"/>
<path d="M24.5439 22.6337C24.5303 20.9562 24.5294 19.2535 24.5354 17.5187C24.5545 17.5512 24.5771 17.6159 24.5772 17.6805C24.579 19.2677 24.5787 20.8548 24.5775 22.442C24.5774 22.4975 24.5638 22.553 24.5439 22.6337Z" fill="#F47B32"/>
<path d="M22.0651 15.5142C22.0851 15.5348 22.085 15.5651 22.0841 15.5802C22.0391 15.5549 21.9565 15.5147 21.9563 15.4741C21.9496 14.2115 21.9504 12.949 21.9542 11.6864C21.9543 11.6565 22.001 11.6267 22.0554 11.6012C22.0849 11.6055 22.0853 11.6338 22.0853 11.648C22.0645 11.7005 22.0255 11.7389 22.0256 11.7772C22.0298 13.016 22.0377 14.2547 22.0651 15.5142Z" fill="#F47B32"/>
<path d="M24.3371 23.1394C24.2832 23.2036 24.2293 23.2677 24.151 23.3345C24.1265 23.3371 24.1174 23.3277 24.1214 23.3055C24.19 23.2296 24.2545 23.176 24.3235 23.1267C24.328 23.1309 24.3371 23.1394 24.3371 23.1394Z" fill="#F47B32"/>
<path d="M24.4575 22.9239C24.4295 22.9881 24.4014 23.0522 24.3553 23.1279C24.3371 23.1394 24.328 23.1309 24.3273 23.1061C24.3481 23.0302 24.3696 22.9791 24.4078 22.9272C24.4244 22.9264 24.4575 22.9239 24.4575 22.9239Z" fill="#F47B32"/>
<path d="M24.131 23.3419C24.1076 23.3707 24.0797 23.3948 24.0268 23.4177C24.0017 23.4165 23.9848 23.3986 23.9964 23.3826C24.0444 23.3536 24.0809 23.3407 24.1174 23.3277C24.1174 23.3277 24.1265 23.3371 24.131 23.3419Z" fill="#F47B32"/>
<path d="M24.0097 23.4258C23.9987 23.4478 23.9798 23.4605 23.9436 23.4747C23.9262 23.4763 23.9192 23.4683 23.9255 23.4513C23.9463 23.4178 23.964 23.4059 23.9848 23.3986C23.9848 23.3986 24.0017 23.4165 24.0097 23.4258Z" fill="#F47B32"/>
<path d="M24.4646 22.9106C24.4575 22.9239 24.4244 22.9264 24.4146 22.9113C24.4227 22.8826 24.4406 22.869 24.4584 22.8553C24.4584 22.8553 24.4652 22.8612 24.4686 22.8641C24.472 22.8671 24.4717 22.8973 24.4646 22.9106Z" fill="#F47B32"/>
<path d="M14.0845 17.702C14.0767 18.7718 14.0688 19.8417 14.0433 20.9332C14.0209 20.9253 14.0163 20.8957 14.0148 20.824C14.0144 20.7694 14.0108 20.7568 14.0071 20.7442C13.9961 20.5867 13.9755 20.4293 13.9754 20.2718C13.9733 17.2305 13.9735 14.1892 13.9643 11.1064C13.9552 11.0649 13.9443 11.0525 13.9443 11.0525L13.9445 11.05C13.9905 11.1029 14.0366 11.1558 14.0827 11.2645C14.0835 13.1311 14.0842 14.9417 14.0839 16.7827C14.0834 16.9958 14.084 17.1784 14.0836 17.3894C14.0832 17.5125 14.0839 17.6072 14.0845 17.702Z" fill="#F47B32"/>
<path d="M12.2904 11.0651C12.2596 11.0602 12.234 11.0452 12.2199 11.0413C12.7722 11.0282 13.3387 11.0189 13.9249 11.0298C13.9445 11.05 13.9447 11.0518 13.9247 11.0499C13.8922 11.0523 13.8797 11.0565 13.8671 11.0607C13.3518 11.0638 12.8365 11.0669 12.2904 11.0651Z" fill="#F47B32"/>
<path d="M14.0001 20.7529C14.0108 20.7568 14.0144 20.7694 14.0159 20.8015C13.9953 20.8058 13.9885 20.7861 14.0001 20.7529Z" fill="#F47B32"/>
<path d="M13.8806 11.0691C13.8797 11.0565 13.8926 11.0515 13.9247 11.0499C13.9443 11.0525 13.9552 11.0649 13.9558 11.0729C13.9565 11.0809 13.925 11.0841 13.925 11.0841C13.925 11.0841 13.894 11.0776 13.8806 11.0691Z" fill="#F47B32"/>
<path d="M17.2055 13.9016C17.1816 13.8337 17.2281 13.5624 17.2286 13.4634C17.4142 13.4939 17.3571 13.7849 17.2055 13.9016Z" fill="#F47B32"/>
<path d="M14.0839 16.7827C14.4075 16.9281 14.2867 17.1391 14.1086 17.3568C14.084 17.1784 14.0834 16.9958 14.0839 16.7827Z" fill="#F47B32"/>
<path d="M14.2112 21.593C14.3666 21.6472 14.5556 21.6954 14.6579 21.8168C14.7205 21.8911 14.6501 22.0776 14.6284 22.2365C14.481 22.0455 14.3446 21.8317 14.2112 21.593Z" fill="#F47B32"/>
</svg>
